<?xml version="1.0" encoding="utf-8"?>
<!-- Generator: Adobe Illustrator 24.1.2, SVG Export Plug-In . SVG Version: 6.00 Build 0)  -->
<svg version="1.1" id="Слой_1" xmlns="http://www.w3.org/2000/svg" xmlns:xlink="http://www.w3.org/1999/xlink" x="0px" y="0px"
	 viewBox="0 0 415 500" style="enable-background:new 0 0 415 500;" xml:space="preserve">
<style type="text/css">
	.st0{fill:#FFBF3C;}
	.st1{fill:#FFFFFF;}
</style>
<g>
	<path class="st0" d="M215.2,2.9c-4.4-3.9-11-3.9-15.4,0C162.2,36.1-0.6,185.5-0.6,288.7C-0.6,405.4,92.6,500,207.5,500
		c114.9,0,208.1-94.6,208.1-211.3C415.6,185.5,252.8,36.1,215.2,2.9z M210,154c-41.1,0-78.9,14.3-108.6,38.3
		c26.8-37.4,64.2-79.5,108.6-121.5c44.5,41.9,81.9,84,108.6,121.4C288.9,168.3,251.2,154,210,154z"/>
	<g>
		<path class="st1" d="M131.5,426.9c0.2,0,0.3,0.1,0.3,0.3v1.9c0,0.2-0.1,0.3-0.3,0.3h-2.8v6.1c0,0.9,0.4,1.3,1,1.3
			c0.2,0,0.5,0,0.7-0.1c0.2-0.1,0.3,0,0.4,0.1l0.8,1.7c0.1,0.2,0,0.3-0.1,0.4c-0.5,0.3-1.1,0.4-1.7,0.4c-2.4,0-3.8-1.4-3.8-3.9v-6.1
			h-1.2c-0.2,0-0.3-0.1-0.3-0.3v-1.9c0-0.2,0.1-0.3,0.3-0.3h1.2V424c0-0.2,0.1-0.3,0.2-0.3l2.2-0.8c0.2-0.1,0.3,0,0.3,0.2v3.7H131.5
			z"/>
		<path class="st1" d="M145.2,433c0,3.9-2.2,6.4-5.8,6.4c-3.6,0-5.8-2.5-5.8-6.4c0-3.9,2.2-6.3,5.8-6.3
			C143,426.7,145.2,429.1,145.2,433z M136.4,433c0,2.4,1.1,3.8,3,3.8c1.9,0,3-1.4,3-3.8c0-2.4-1.2-3.8-3-3.8
			C137.5,429.2,136.4,430.6,136.4,433z"/>
		<path class="st1" d="M150,428.2c0.2,0.3,0.3,0.3,0.6,0c1-1.1,2.2-1.5,3.5-1.5c2.9,0,4.6,1.8,4.6,4.7v7.4c0,0.2-0.1,0.3-0.3,0.3
			h-2.2c-0.2,0-0.3-0.1-0.3-0.3v-7.1c0-1.6-0.8-2.5-2.2-2.5c-1.9,0-2.9,1.4-2.9,3.8v5.9c0,0.2-0.1,0.3-0.3,0.3h-2.2
			c-0.2,0-0.3-0.1-0.3-0.3v-11.6c0-0.2,0.1-0.3,0.3-0.3h1.3c0.2,0,0.3,0.1,0.3,0.3L150,428.2z"/>
		<path class="st1" d="M164.7,433.7c-2.1-0.5-3.1-1.6-3.1-3.4c0-2.3,1.7-3.6,4.6-3.6c1.1,0,2.3,0.2,3.1,0.4l1.1,0.3
			c0.2,0.1,0.3,0.2,0.2,0.4l-0.5,1.9c0,0.2-0.2,0.3-0.4,0.2l-1.1-0.3c-0.7-0.2-1.7-0.3-2.4-0.3c-1.2,0-1.8,0.4-1.8,1.1
			c0,0.6,0.4,0.9,1.1,1.2l2.5,0.7c2.2,0.6,3.2,1.7,3.2,3.5c0,2.4-1.8,3.8-4.7,3.8c-1.3,0-2.6-0.2-3.8-0.5l-1-0.3
			c-0.2-0.1-0.3-0.2-0.2-0.4l0.6-1.9c0-0.2,0.2-0.2,0.3-0.2l0.9,0.3c1,0.3,2.3,0.4,3.2,0.4c1.2,0,1.9-0.5,1.9-1.3
			c0-0.6-0.4-1-1.2-1.2L164.7,433.7z"/>
		<path class="st1" d="M181.2,428.2c0.1,0.3,0.3,0.3,0.5,0c1-1.1,2.2-1.6,3.5-1.6c3.3,0,5.3,2.4,5.3,6.3c0,3.9-2.1,6.4-5.6,6.4
			c-0.9,0-1.6-0.2-2.3-0.5l-0.7-0.3v5.6c0,0.2-0.1,0.3-0.3,0.3h-2.2c-0.2,0-0.3-0.1-0.3-0.3v-17c0-0.2,0.1-0.3,0.3-0.3h1.3
			c0.2,0,0.3,0.1,0.3,0.2L181.2,428.2z M182.6,436.4c0.6,0.3,1.3,0.4,2.1,0.4c1.9,0,3-1.4,3-3.8c0-2.4-1.1-3.8-3-3.8
			c-1.9,0-2.9,1.6-2.9,3.7v3.1L182.6,436.4z"/>
		<path class="st1" d="M201.1,439c-0.9,0.2-1.8,0.3-2.6,0.3c-3.8,0-5.9-2.5-5.9-6.4c0-3.9,2.2-6.4,5.8-6.4c3,0,4.8,1.5,4.8,4
			c0,1.9-1.2,3-3.7,3.4l-3.9,0.6c0.3,1.3,1.3,2.2,2.9,2.2c0.7,0,1.5-0.1,2-0.3l1.1-0.3c0.2,0,0.3,0,0.4,0.2l0.5,1.9
			c0,0.2,0,0.3-0.2,0.4L201.1,439z M199.2,431.9c0.9-0.2,1.4-0.6,1.4-1.2c0-1-0.8-1.5-2.1-1.5c-1.7,0-2.8,1-3,3.3L199.2,431.9z"/>
		<path class="st1" d="M213.1,428.9c0,0.2-0.1,0.3-0.3,0.3c-2.7,0.1-3.9,2-3.9,6.7v3c0,0.2-0.1,0.3-0.3,0.3h-2.2
			c-0.2,0-0.3-0.1-0.3-0.3v-11.6c0-0.2,0.1-0.3,0.3-0.3h1.3c0.2,0,0.3,0.1,0.3,0.2l0.4,1.4c0.2,0.3,0.3,0.3,0.5,0.1
			c1-1.3,2.1-1.9,4-2c0.2,0,0.3,0.1,0.3,0.3V428.9z"/>
		<path class="st1" d="M223.3,428.1c0.2,0.3,0.3,0.3,0.6,0c1-1.1,2.1-1.5,3.3-1.5c1.4,0,2.6,0.7,3.3,1.7c0.3,0.4,0.6,0.3,0.9,0
			c1.1-1.3,2.2-1.7,3.4-1.7c2.8,0,4.4,1.8,4.4,4.7v7.4c0,0.2-0.1,0.3-0.3,0.3h-2.3c-0.2,0-0.3-0.1-0.3-0.3v-7.1c0-1.6-0.7-2.5-2-2.5
			c-1.9,0-2.8,1.5-2.8,3.8v5.9c0,0.2-0.1,0.3-0.3,0.3H229c-0.2,0-0.3-0.1-0.3-0.3v-7.1c0-1.6-0.7-2.5-2-2.5c-1.9,0-2.8,1.5-2.8,3.8
			v5.9c0,0.2-0.1,0.3-0.3,0.3h-2.2c-0.2,0-0.3-0.1-0.3-0.3v-11.6c0-0.2,0.1-0.3,0.3-0.3h1.3c0.2,0,0.3,0.1,0.3,0.3L223.3,428.1z"/>
		<path class="st1" d="M253.3,433c0,3.9-2.2,6.4-5.8,6.4c-3.6,0-5.8-2.5-5.8-6.4c0-3.9,2.2-6.3,5.8-6.3
			C251.1,426.7,253.3,429.1,253.3,433z M244.5,433c0,2.4,1.1,3.8,3,3.8c1.9,0,3-1.4,3-3.8c0-2.4-1.2-3.8-3-3.8
			C245.6,429.2,244.5,430.6,244.5,433z"/>
		<path class="st1" d="M258.1,428.2c0.2,0.3,0.3,0.3,0.6,0c1-1.1,2.2-1.5,3.5-1.5c2.9,0,4.6,1.8,4.6,4.7v7.4c0,0.2-0.1,0.3-0.3,0.3
			h-2.2c-0.2,0-0.3-0.1-0.3-0.3v-7.1c0-1.6-0.8-2.5-2.2-2.5c-1.9,0-2.9,1.4-2.9,3.8v5.9c0,0.2-0.1,0.3-0.3,0.3h-2.2
			c-0.2,0-0.3-0.1-0.3-0.3v-11.6c0-0.2,0.1-0.3,0.3-0.3h1.3c0.2,0,0.3,0.1,0.3,0.3L258.1,428.2z"/>
		<path class="st1" d="M276.4,426.9c0.2,0,0.3,0.1,0.3,0.3v1.9c0,0.2-0.1,0.3-0.3,0.3h-2.8v6.1c0,0.9,0.4,1.3,1,1.3
			c0.2,0,0.5,0,0.7-0.1c0.2-0.1,0.3,0,0.4,0.1l0.8,1.7c0.1,0.2,0,0.3-0.1,0.4c-0.5,0.3-1.1,0.4-1.7,0.4c-2.4,0-3.8-1.4-3.8-3.9v-6.1
			h-1.2c-0.2,0-0.3-0.1-0.3-0.3v-1.9c0-0.2,0.1-0.3,0.3-0.3h1.2V424c0-0.2,0.1-0.3,0.2-0.3l2.2-0.8c0.2-0.1,0.3,0,0.3,0.2v3.7H276.4
			z"/>
		<path class="st1" d="M282.2,425c0,1.2-0.1,2-0.4,2.9c-0.1,0.3,0,0.5,0.4,0.2c0.9-0.9,1.9-1.5,3.4-1.5c2.9,0,4.6,1.8,4.6,4.7v7.4
			c0,0.2-0.1,0.3-0.3,0.3h-2.2c-0.2,0-0.3-0.1-0.3-0.3v-7.1c0-1.6-0.8-2.5-2.2-2.5c-2,0-2.9,1.6-2.9,3.8v5.9c0,0.2-0.1,0.3-0.3,0.3
			h-2.2c-0.2,0-0.3-0.1-0.3-0.3v-17.5c0-0.2,0.1-0.3,0.3-0.3h2.2c0.2,0,0.3,0.1,0.3,0.3V425z"/>
	</g>
	<g>
		<path class="st1" d="M108.2,384.8c-0.6,0-0.9-0.4-0.9-0.9v-28.7c0-2.3,0.3-5,0.5-6c0.1-0.6-0.1-0.9-0.7-0.9
			c-0.2,0-0.9,0.2-1.1,0.4l-4.6,1.8c-0.6,0.2-1,0.1-1.2-0.5l-2.9-7.8c-0.2-0.6-0.1-1,0.5-1.2l18.5-7.1c0.5-0.2,0.9-0.1,1.3,0.2
			l0.5,0.4c0.4,0.3,0.6,0.6,0.6,1.1v48.3c0,0.6-0.4,0.9-0.9,0.9H108.2z"/>
		<path class="st1" d="M157.9,343.4c-0.1,0.5-0.5,0.8-1,0.8h-16.2v4.1c0,1.1-0.1,3.1-0.2,4.2c-0.1,0.9,0.2,0.7,1.2,0.6l2-0.3
			c1.1-0.1,2-0.3,3.1-0.3c9.8-0.1,16.3,6,16.3,16c0,10.7-7,17.1-18.9,17.1c-4.3,0-8-0.9-12-2.1l-4.8-1.7c-0.6-0.1-0.8-0.6-0.6-1.1
			l2.9-7.5c0.2-0.6,0.6-0.7,1.2-0.6l4.5,1.6c3.3,1,6.4,1.5,8.8,1.5c4.6,0,7.3-2.7,7.5-7.1c0.1-3.6-1.9-6-6.9-6
			c-1.4,0-3.2,0.2-5.3,0.5l-7.8,1.1c-0.5,0.1-0.9-0.1-1.2-0.4l-0.6-0.5c-0.4-0.3-0.5-0.6-0.5-1.1v-26.8c0-0.6,0.4-0.9,0.9-0.9h29
			c0.6,0,0.9,0.4,0.8,1.1L157.9,343.4z"/>
		<path class="st1" d="M223.7,359.6c0,16-7.6,26-20,26c-12.4,0-20-10-20-26c0-16,7.6-26,20-26C216.1,333.5,223.7,343.5,223.7,359.6z
			 M195.1,359.6c0,10,3.2,16,8.6,16c5.5,0,8.6-6,8.6-16c0-10-3.1-16-8.6-16C198.3,343.5,195.1,349.5,195.1,359.6z"/>
		<path class="st1" d="M270.2,359.6c0,16-7.6,26-20,26c-12.4,0-20-10-20-26c0-16,7.6-26,20-26C262.6,333.5,270.2,343.5,270.2,359.6z
			 M241.6,359.6c0,10,3.2,16,8.6,16c5.5,0,8.6-6,8.6-16c0-10-3.1-16-8.6-16C244.8,343.5,241.6,349.5,241.6,359.6z"/>
		<path class="st1" d="M316.7,359.6c0,16-7.6,26-20,26c-12.4,0-20-10-20-26c0-16,7.6-26,20-26C309.1,333.5,316.7,343.5,316.7,359.6z
			 M288.1,359.6c0,10,3.2,16,8.6,16c5.5,0,8.6-6,8.6-16c0-10-3.1-16-8.6-16C291.3,343.5,288.1,349.5,288.1,359.6z"/>
	</g>
	<g>
		<path class="st1" d="M122.1,234.8c-5.1-1.9-6.9-4.1-6.9-8.1c0-5,3.8-7.8,9.8-7.8c2.3,0,4.4,0.4,6.5,1l2.4,0.8
			c0.3,0.1,0.4,0.3,0.3,0.6l-1.1,3.2c-0.1,0.2-0.3,0.4-0.6,0.3l-2.2-0.7c-1.7-0.5-3.4-0.9-5.3-0.9c-3,0-5,1.4-5,3.6c0,1.7,1,2.9,4,4
			l4.6,1.7c4.9,1.8,7.1,3.9,7.1,8c0,5.4-4,8.3-10.4,8.3c-2.8,0-5.1-0.4-8-1.4l-2.2-0.7c-0.3-0.1-0.4-0.3-0.3-0.6l1.1-3.2
			c0.1-0.2,0.3-0.4,0.6-0.2l2.3,0.7c2.2,0.7,4.1,1.1,6.5,1.1c3.1,0,5.6-1.2,5.6-4c0-1.8-1.8-3-4.1-3.9L122.1,234.8z"/>
		<path class="st1" d="M154.6,246.3c-0.2-0.5-0.5-0.5-1,0c-1.6,1.8-3.7,2.5-5.7,2.5c-4.7,0-7.6-2.9-7.6-7.8v-12.2
			c0-0.3,0.2-0.5,0.5-0.5h3.7c0.3,0,0.5,0.2,0.5,0.5v11.7c0,2.6,1.4,4.2,3.6,4.2c3.1,0,4.9-2.2,4.9-6.3v-9.7c0-0.3,0.2-0.5,0.5-0.5
			h3.7c0.3,0,0.5,0.2,0.5,0.5v19.2c0,0.3-0.2,0.5-0.5,0.5h-2.1c-0.3,0-0.5-0.1-0.5-0.4L154.6,246.3z"/>
		<path class="st1" d="M166.9,230.3c0.2,0.5,0.5,0.5,1,0c1.6-1.8,3.7-2.5,5.7-2.5c4.7,0,7.6,2.9,7.6,7.8v12.2c0,0.3-0.2,0.5-0.5,0.5
			H177c-0.3,0-0.5-0.2-0.5-0.5v-11.7c0-2.6-1.4-4.2-3.6-4.2c-3.1,0-4.9,2.2-4.9,6.3v9.7c0,0.3-0.2,0.5-0.5,0.5H164
			c-0.3,0-0.5-0.2-0.5-0.5v-19.2c0-0.3,0.2-0.5,0.5-0.5h2.1c0.3,0,0.5,0.1,0.5,0.4L166.9,230.3z"/>
		<path class="st1" d="M187.8,225.3c0-4.5,2.6-7.2,7-7.2c0.7,0,1.5,0.2,2.4,0.4l0.3,0.1c0.3,0.1,0.4,0.3,0.3,0.6l-1,3
			c-0.1,0.3-0.3,0.4-0.6,0.3l-0.2-0.1c-0.4-0.1-0.8-0.2-1.3-0.2c-1.5,0-2.4,1.1-2.4,3v2.9h4.6c0.3,0,0.5,0.2,0.5,0.5v3.2
			c0,0.3-0.2,0.5-0.5,0.5h-4.6v15.6c0,0.3-0.2,0.5-0.5,0.5h-3.7c-0.3,0-0.5-0.2-0.5-0.5v-15.6h-2c-0.3,0-0.5-0.2-0.5-0.5v-3.2
			c0-0.3,0.2-0.5,0.5-0.5h2V225.3z"/>
		<path class="st1" d="M206.7,243.5c0,0.7,0.3,1.1,0.8,1.1c0.1,0,0.2,0,0.3,0c0.3,0,0.5,0,0.6,0.2l1.2,2.9c0.1,0.3,0,0.5-0.2,0.6
			c-0.6,0.2-1.3,0.4-1.9,0.4c-3.4,0-5.4-2-5.4-5.3V219c0-0.3,0.2-0.5,0.5-0.5h3.7c0.3,0,0.5,0.2,0.5,0.5V243.5z"/>
		<path class="st1" d="M231.4,238.2c0,6.5-3.7,10.5-9.5,10.5c-5.9,0-9.6-4.1-9.6-10.5c0-6.4,3.7-10.5,9.6-10.5
			C227.7,227.8,231.4,231.9,231.4,238.2z M216.8,238.2c0,4,1.9,6.3,5,6.3c3.1,0,5-2.4,5-6.3c0-3.9-1.9-6.3-5-6.3
			C218.7,231.9,216.8,234.3,216.8,238.2z"/>
		<path class="st1" d="M260.3,240.2c-1,3.3-1.5,5.3-2.1,7.7c0,0.3-0.2,0.4-0.5,0.4h-4.6c-0.3,0-0.5-0.1-0.5-0.4
			c-0.4-1.4-0.8-2.9-1.2-4.4l-1.5-4.4c-0.2-0.8-0.6-2.2-0.7-3c-0.1-0.5-0.5-0.5-0.6,0c-0.2,0.9-0.5,2.3-0.7,3l-1.5,4.4
			c-0.5,1.5-0.9,2.9-1.2,4.3c0,0.3-0.2,0.4-0.5,0.4H240c-0.3,0-0.5-0.1-0.5-0.4c-0.6-2.4-1.2-4.4-2.1-7.7l-3.4-11.5
			c-0.1-0.3,0-0.5,0.4-0.5h3.7c0.3,0,0.5,0.1,0.5,0.4l2.1,7.3c0.7,2.7,1.1,4.6,1.5,6.6c0.1,0.5,0.5,0.5,0.7,0c0.5-2.1,1.2-4.6,2-7.3
			l2.2-6.6c0.1-0.2,0.2-0.4,0.5-0.4h2.5c0.2,0,0.4,0.1,0.5,0.4l2.2,6.6c0.8,2.7,1.5,5.3,2,7.3c0.1,0.5,0.6,0.5,0.7,0
			c0.4-2.1,0.8-3.9,1.5-6.6l2.1-7.3c0.1-0.2,0.2-0.4,0.5-0.4h3.7c0.3,0,0.5,0.2,0.4,0.5L260.3,240.2z"/>
		<path class="st1" d="M280.7,248.2c-1.5,0.4-2.9,0.5-4.2,0.5c-6.3,0-9.8-4.1-9.8-10.5c0-6.5,3.6-10.5,9.6-10.5c5,0,8,2.5,8,6.6
			c0,3.2-2,5-6.1,5.6l-6.5,1c0.5,2.2,2.1,3.6,4.7,3.6c1.2,0,2.4-0.1,3.3-0.4l1.8-0.5c0.3-0.1,0.5,0,0.6,0.3l0.8,3.1
			c0.1,0.3,0,0.5-0.3,0.6L280.7,248.2z M277.5,236.5c1.5-0.2,2.2-0.9,2.2-2c0-1.7-1.3-2.5-3.5-2.5c-2.7,0-4.6,1.7-4.9,5.5
			L277.5,236.5z"/>
		<path class="st1" d="M300.5,231.5c0,0.3-0.2,0.5-0.5,0.5c-4.5,0.2-6.5,3.4-6.5,11v4.9c0,0.3-0.2,0.5-0.5,0.5h-3.7
			c-0.3,0-0.5-0.2-0.5-0.5v-19.2c0-0.3,0.2-0.5,0.5-0.5h2.1c0.3,0,0.5,0.1,0.5,0.4l0.7,2.4c0.2,0.5,0.5,0.5,0.8,0.1
			c1.7-2.2,3.5-3.2,6.6-3.3c0.3,0,0.5,0.2,0.5,0.5V231.5z"/>
		<path class="st1" d="M114.3,275.9c0.2,0.5,0.5,0.4,0.8,0c1.6-1.8,3.6-2.6,5.8-2.6c5.4,0,8.7,4,8.7,10.5c0,6.5-3.5,10.5-9.3,10.5
			c-1.5,0-2.6-0.2-3.8-0.8l-1.1-0.5v9.3c0,0.3-0.2,0.5-0.5,0.5h-3.7c-0.3,0-0.5-0.2-0.5-0.5v-28.1c0-0.3,0.2-0.5,0.5-0.5h2.1
			c0.3,0,0.5,0.1,0.5,0.4L114.3,275.9z M116.6,289.5c1,0.5,2.2,0.7,3.4,0.7c3.2,0,5-2.4,5-6.3c0-3.9-1.8-6.3-4.9-6.3
			c-3.1,0-4.8,2.6-4.8,6.2v5.2L116.6,289.5z"/>
		<path class="st1" d="M145.8,277.1c0,0.3-0.2,0.5-0.5,0.5c-4.5,0.2-6.5,3.4-6.5,11v4.9c0,0.3-0.2,0.5-0.5,0.5h-3.7
			c-0.3,0-0.5-0.2-0.5-0.5v-19.2c0-0.3,0.2-0.5,0.5-0.5h2.1c0.3,0,0.5,0.1,0.5,0.4l0.7,2.4c0.2,0.5,0.5,0.5,0.8,0.1
			c1.7-2.2,3.5-3.2,6.6-3.3c0.3,0,0.5,0.2,0.5,0.5V277.1z"/>
		<path class="st1" d="M168.3,283.8c0,6.5-3.7,10.5-9.5,10.5c-5.9,0-9.6-4.1-9.6-10.5c0-6.4,3.7-10.5,9.6-10.5
			C164.6,273.4,168.3,277.5,168.3,283.8z M153.7,283.8c0,4,1.9,6.3,5,6.3c3.1,0,5-2.4,5-6.3c0-3.9-1.9-6.3-5-6.3
			C155.6,277.5,153.7,279.9,153.7,283.8z"/>
		<path class="st1" d="M185.5,293.8c-1.2,0.3-2.6,0.5-3.9,0.5c-6.3,0-9.8-4.1-9.8-10.5c0-6.4,3.4-10.5,10-10.5
			c1.1,0,2.3,0.1,3.6,0.5l1.8,0.5c0.3,0.1,0.4,0.3,0.3,0.6l-1,3.1c-0.1,0.2-0.3,0.4-0.5,0.3l-1.4-0.4c-1-0.3-2-0.5-2.8-0.5
			c-3.7,0-5.4,2.4-5.4,6.3c0,4,1.8,6.4,5.3,6.4c0.9,0,2-0.2,3.1-0.5l1.4-0.4c0.3-0.1,0.5,0,0.6,0.3l1,3.1c0.1,0.3,0,0.5-0.3,0.6
			L185.5,293.8z"/>
		<path class="st1" d="M205,293.8c-1.5,0.4-2.9,0.5-4.2,0.5c-6.3,0-9.8-4.1-9.8-10.5c0-6.5,3.6-10.5,9.6-10.5c5,0,8,2.5,8,6.6
			c0,3.2-1.9,5-6.1,5.6l-6.5,1c0.5,2.2,2.1,3.6,4.7,3.6c1.2,0,2.4-0.1,3.3-0.4l1.8-0.5c0.3-0.1,0.5,0,0.6,0.3l0.8,3.1
			c0.1,0.3,0,0.5-0.3,0.6L205,293.8z M201.8,282.1c1.5-0.2,2.2-0.9,2.2-2c0-1.7-1.3-2.5-3.5-2.5c-2.7,0-4.6,1.7-4.9,5.5L201.8,282.1
			z"/>
		<path class="st1" d="M217.7,285c-3.4-0.9-5.1-2.7-5.1-5.6c0-3.7,2.8-6,7.6-6c1.9,0,3.8,0.3,5.1,0.7l1.8,0.5
			c0.3,0.1,0.4,0.3,0.3,0.6l-0.9,3.1c-0.1,0.3-0.3,0.4-0.6,0.3l-1.8-0.5c-1.1-0.3-2.8-0.5-4-0.5c-1.9,0-3,0.7-3,1.8
			c0,1,0.6,1.5,1.9,1.9l4.1,1.1c3.6,0.9,5.2,2.8,5.2,5.8c0,3.9-2.9,6.3-7.8,6.3c-2.2,0-4.3-0.3-6.3-0.9l-1.6-0.5
			c-0.3-0.1-0.4-0.3-0.3-0.6l1-3.1c0.1-0.2,0.3-0.4,0.5-0.3l1.5,0.4c1.6,0.5,3.8,0.7,5.3,0.7c2,0,3.2-0.8,3.2-2.1c0-1-0.6-1.6-1.9-2
			L217.7,285z"/>
		<path class="st1" d="M237.1,285c-3.4-0.9-5.1-2.7-5.1-5.6c0-3.7,2.8-6,7.6-6c1.9,0,3.8,0.3,5.1,0.7l1.8,0.5
			c0.3,0.1,0.4,0.3,0.3,0.6l-0.9,3.1c-0.1,0.3-0.3,0.4-0.6,0.3l-1.8-0.5c-1.1-0.3-2.8-0.5-4-0.5c-1.9,0-3,0.7-3,1.8
			c0,1,0.6,1.5,1.9,1.9l4.1,1.1c3.6,0.9,5.2,2.8,5.2,5.8c0,3.9-2.9,6.3-7.8,6.3c-2.2,0-4.3-0.3-6.3-0.9l-1.6-0.5
			c-0.3-0.1-0.4-0.3-0.3-0.6l1-3.1c0.1-0.2,0.3-0.4,0.5-0.3l1.5,0.4c1.6,0.5,3.8,0.7,5.3,0.7c2,0,3.2-0.8,3.2-2.1c0-1-0.6-1.6-2-2
			L237.1,285z"/>
		<path class="st1" d="M258,293.5c0,0.3-0.2,0.5-0.5,0.5h-3.7c-0.3,0-0.5-0.2-0.5-0.5v-15.6h-2c-0.3,0-0.5-0.2-0.5-0.5v-3.2
			c0-0.3,0.2-0.5,0.5-0.5h6.2c0.3,0,0.5,0.2,0.5,0.5V293.5z M257.9,266.6c0,1.8-1,2.8-2.7,2.8c-1.7,0-2.8-1-2.8-2.8
			c0-1.7,1-2.8,2.8-2.8C257,263.8,257.9,264.9,257.9,266.6z"/>
		<path class="st1" d="M267,275.9c0.2,0.5,0.5,0.5,1,0c1.6-1.8,3.7-2.5,5.7-2.5c4.7,0,7.6,2.9,7.6,7.8v12.2c0,0.3-0.2,0.5-0.5,0.5
			h-3.7c-0.3,0-0.5-0.2-0.5-0.5v-11.7c0-2.6-1.4-4.2-3.6-4.2c-3.1,0-4.9,2.2-4.9,6.3v9.7c0,0.3-0.2,0.5-0.5,0.5H264
			c-0.3,0-0.5-0.2-0.5-0.5v-19.2c0-0.3,0.2-0.5,0.5-0.5h2.1c0.3,0,0.5,0.1,0.5,0.4L267,275.9z"/>
		<path class="st1" d="M290.7,298.7c0.9,0.2,2.4,0.5,3.6,0.5c2.9,0,5.5-1.1,6.2-4.4c0.1-1.8,0.2-1.7,0.2-2.6c0-0.3-0.2-0.5-0.6-0.1
			c-1.4,1.5-3.4,2.4-5.7,2.4c-5.5,0-8.8-4.1-8.8-10.4c0-6.7,3.6-10.6,9.7-10.6c1.7,0,3.5,0.3,5.1,1l3.7,1.5c0.2,0.1,0.4,0.2,0.4,0.5
			v17.4c0,6.1-3.6,9.5-10,9.5c-1.5,0-3.4-0.2-4.5-0.5l-2-0.6c-0.3-0.1-0.4-0.3-0.3-0.6l1-3.1c0.1-0.2,0.3-0.4,0.5-0.3L290.7,298.7z
			 M298.6,278.2c-0.9-0.5-2.2-0.7-3.4-0.7c-3.2,0-5.1,2.3-5.1,6.3c0,3.8,1.7,6.3,4.8,6.3c3.2,0,4.9-2.3,4.9-6.3v-5.1L298.6,278.2z"
			/>
	</g>
</g>
</svg>
