<?xml version="1.0" encoding="utf-8"?>
<!-- Generator: Adobe Illustrator 24.1.2, SVG Export Plug-In . SVG Version: 6.00 Build 0)  -->
<svg version="1.1" id="Слой_1" xmlns="http://www.w3.org/2000/svg" xmlns:xlink="http://www.w3.org/1999/xlink" x="0px" y="0px"
	 viewBox="0 0 210 253" style="enable-background:new 0 0 210 253;" xml:space="preserve">
<style type="text/css">
	.st0{fill:#FFBF3C;}
	.st1{fill:#FFFFFF;}
</style>
<g>
	<path class="st0" d="M108.9,1.8c-2.2-2-5.5-2-7.8,0C82.1,18.5,0,94,0,146c0,58.9,47,106.6,105,106.6c58,0,105-47.7,105-106.6
		C210,94,127.9,18.5,108.9,1.8z M106.3,78c-20.8,0-39.8,7.2-54.8,19.3C65,78.5,83.8,57.2,106.3,36.1c22.4,21.1,41.3,42.4,54.8,61.3
		C146.1,85.3,127,78,106.3,78z"/>
	<g>
		<path class="st1" d="M66.6,219.4c0.1,0,0.1,0.1,0.1,0.1v1c0,0.1-0.1,0.1-0.1,0.1h-1.4v3.1c0,0.4,0.2,0.7,0.5,0.7
			c0.1,0,0.2,0,0.3-0.1c0.1,0,0.2,0,0.2,0.1l0.4,0.9c0,0.1,0,0.1-0.1,0.2c-0.2,0.1-0.6,0.2-0.9,0.2c-1.2,0-1.9-0.7-1.9-2v-3.1h-0.6
			c-0.1,0-0.1-0.1-0.1-0.1v-1c0-0.1,0.1-0.1,0.1-0.1h0.6v-1.5c0-0.1,0-0.1,0.1-0.2l1.1-0.4c0.1,0,0.2,0,0.2,0.1v1.9H66.6z"/>
		<path class="st1" d="M73.6,222.5c0,2-1.1,3.2-2.9,3.2c-1.8,0-2.9-1.2-2.9-3.2c0-2,1.1-3.2,2.9-3.2
			C72.5,219.3,73.6,220.5,73.6,222.5z M69.1,222.5c0,1.2,0.6,1.9,1.5,1.9c0.9,0,1.5-0.7,1.5-1.9c0-1.2-0.6-1.9-1.5-1.9
			C69.7,220.5,69.1,221.3,69.1,222.5z"/>
		<path class="st1" d="M76,220c0.1,0.2,0.2,0.1,0.3,0c0.5-0.6,1.1-0.8,1.7-0.8c1.4,0,2.3,0.9,2.3,2.4v3.7c0,0.1-0.1,0.1-0.1,0.1
			h-1.1c-0.1,0-0.1-0.1-0.1-0.1v-3.6c0-0.8-0.4-1.3-1.1-1.3c-0.9,0-1.5,0.7-1.5,1.9v3c0,0.1-0.1,0.1-0.1,0.1h-1.1
			c-0.1,0-0.1-0.1-0.1-0.1v-5.9c0-0.1,0.1-0.1,0.1-0.1h0.6c0.1,0,0.1,0,0.2,0.1L76,220z"/>
		<path class="st1" d="M83.4,222.8c-1.1-0.3-1.5-0.8-1.5-1.7c0-1.1,0.8-1.8,2.3-1.8c0.6,0,1.2,0.1,1.6,0.2l0.6,0.1
			c0.1,0,0.1,0.1,0.1,0.2l-0.3,1c0,0.1-0.1,0.1-0.2,0.1l-0.6-0.2c-0.3-0.1-0.8-0.2-1.2-0.2c-0.6,0-0.9,0.2-0.9,0.6
			c0,0.3,0.2,0.5,0.6,0.6l1.3,0.3c1.1,0.3,1.6,0.8,1.6,1.8c0,1.2-0.9,1.9-2.4,1.9c-0.7,0-1.3-0.1-1.9-0.3l-0.5-0.1
			c-0.1,0-0.1-0.1-0.1-0.2l0.3-1c0-0.1,0.1-0.1,0.2-0.1l0.5,0.1c0.5,0.1,1.2,0.2,1.6,0.2c0.6,0,1-0.2,1-0.6c0-0.3-0.2-0.5-0.6-0.6
			L83.4,222.8z"/>
		<path class="st1" d="M91.7,220c0.1,0.1,0.2,0.1,0.2,0c0.5-0.6,1.1-0.8,1.8-0.8c1.7,0,2.7,1.2,2.7,3.2c0,2-1.1,3.2-2.8,3.2
			c-0.5,0-0.8-0.1-1.2-0.2l-0.3-0.2v2.8c0,0.1-0.1,0.1-0.1,0.1h-1.1c-0.1,0-0.1-0.1-0.1-0.1v-8.6c0-0.1,0.1-0.1,0.1-0.1h0.6
			c0.1,0,0.1,0,0.2,0.1L91.7,220z M92.4,224.2c0.3,0.2,0.7,0.2,1,0.2c1,0,1.5-0.7,1.5-1.9c0-1.2-0.6-1.9-1.5-1.9
			c-1,0-1.5,0.8-1.5,1.9v1.6L92.4,224.2z"/>
		<path class="st1" d="M101.8,225.5c-0.5,0.1-0.9,0.2-1.3,0.2c-1.9,0-3-1.2-3-3.2c0-2,1.1-3.2,2.9-3.2c1.5,0,2.4,0.8,2.4,2
			c0,1-0.6,1.5-1.9,1.7l-2,0.3c0.1,0.7,0.6,1.1,1.4,1.1c0.4,0,0.7,0,1-0.1l0.6-0.1c0.1,0,0.2,0,0.2,0.1l0.3,1c0,0.1,0,0.2-0.1,0.2
			L101.8,225.5z M100.8,221.9c0.4-0.1,0.7-0.3,0.7-0.6c0-0.5-0.4-0.8-1.1-0.8c-0.8,0-1.4,0.5-1.5,1.7L100.8,221.9z"/>
		<path class="st1" d="M107.8,220.4c0,0.1-0.1,0.1-0.1,0.1c-1.4,0.1-2,1-2,3.4v1.5c0,0.1-0.1,0.1-0.1,0.1h-1.1
			c-0.1,0-0.1-0.1-0.1-0.1v-5.9c0-0.1,0.1-0.1,0.1-0.1h0.6c0.1,0,0.1,0,0.2,0.1l0.2,0.7c0.1,0.1,0.1,0.2,0.3,0c0.5-0.7,1.1-1,2-1
			c0.1,0,0.1,0.1,0.1,0.1V220.4z"/>
		<path class="st1" d="M113,220c0.1,0.2,0.2,0.2,0.3,0c0.5-0.5,1-0.8,1.6-0.8c0.7,0,1.3,0.4,1.6,0.8c0.2,0.2,0.3,0.1,0.4,0
			c0.6-0.7,1.1-0.8,1.7-0.8c1.4,0,2.2,0.9,2.2,2.4v3.7c0,0.1-0.1,0.1-0.1,0.1h-1.1c-0.1,0-0.1-0.1-0.1-0.1v-3.6c0-0.8-0.3-1.3-1-1.3
			c-1,0-1.4,0.7-1.4,1.9v3c0,0.1-0.1,0.1-0.1,0.1h-1.1c-0.1,0-0.1-0.1-0.1-0.1v-3.6c0-0.8-0.4-1.3-1-1.3c-1,0-1.4,0.7-1.4,1.9v3
			c0,0.1-0.1,0.1-0.1,0.1h-1.1c-0.1,0-0.1-0.1-0.1-0.1v-5.9c0-0.1,0.1-0.1,0.1-0.1h0.6c0.1,0,0.1,0,0.2,0.1L113,220z"/>
		<path class="st1" d="M128.1,222.5c0,2-1.1,3.2-2.9,3.2c-1.8,0-2.9-1.2-2.9-3.2c0-2,1.1-3.2,2.9-3.2
			C127,219.3,128.1,220.5,128.1,222.5z M123.7,222.5c0,1.2,0.6,1.9,1.5,1.9c0.9,0,1.5-0.7,1.5-1.9c0-1.2-0.6-1.9-1.5-1.9
			C124.2,220.5,123.7,221.3,123.7,222.5z"/>
		<path class="st1" d="M130.5,220c0.1,0.2,0.2,0.1,0.3,0c0.5-0.6,1.1-0.8,1.7-0.8c1.4,0,2.3,0.9,2.3,2.4v3.7c0,0.1-0.1,0.1-0.1,0.1
			h-1.1c-0.1,0-0.1-0.1-0.1-0.1v-3.6c0-0.8-0.4-1.3-1.1-1.3c-0.9,0-1.5,0.7-1.5,1.9v3c0,0.1-0.1,0.1-0.1,0.1h-1.1
			c-0.1,0-0.1-0.1-0.1-0.1v-5.9c0-0.1,0.1-0.1,0.1-0.1h0.6c0.1,0,0.1,0,0.2,0.1L130.5,220z"/>
		<path class="st1" d="M139.8,219.4c0.1,0,0.1,0.1,0.1,0.1v1c0,0.1-0.1,0.1-0.1,0.1h-1.4v3.1c0,0.4,0.2,0.7,0.5,0.7
			c0.1,0,0.2,0,0.3-0.1c0.1,0,0.2,0,0.2,0.1l0.4,0.9c0,0.1,0,0.1-0.1,0.2c-0.2,0.1-0.6,0.2-0.9,0.2c-1.2,0-1.9-0.7-1.9-2v-3.1h-0.6
			c-0.1,0-0.1-0.1-0.1-0.1v-1c0-0.1,0.1-0.1,0.1-0.1h0.6v-1.5c0-0.1,0-0.1,0.1-0.2l1.1-0.4c0.1,0,0.2,0,0.2,0.1v1.9H139.8z"/>
		<path class="st1" d="M142.7,218.4c0,0.6-0.1,1-0.2,1.4c-0.1,0.1,0,0.2,0.2,0.1c0.4-0.5,1-0.7,1.7-0.7c1.4,0,2.3,0.9,2.3,2.4v3.7
			c0,0.1-0.1,0.1-0.1,0.1h-1.1c-0.1,0-0.1-0.1-0.1-0.1v-3.6c0-0.8-0.4-1.3-1.1-1.3c-1,0-1.5,0.8-1.5,1.9v3c0,0.1-0.1,0.1-0.1,0.1
			h-1.1c-0.1,0-0.1-0.1-0.1-0.1v-8.8c0-0.1,0.1-0.1,0.1-0.1h1.1c0.1,0,0.1,0.1,0.1,0.1V218.4z"/>
	</g>
	<g>
		<path class="st1" d="M66.6,198.5c-0.3,0-0.5-0.2-0.5-0.5v-14.5c0-1.2,0.1-2.5,0.3-3c0-0.3-0.1-0.4-0.4-0.4c-0.1,0-0.4,0.1-0.6,0.2
			l-2.3,0.9c-0.3,0.1-0.5,0-0.6-0.3l-1.5-4c-0.1-0.3,0-0.5,0.3-0.6l9.3-3.6c0.3-0.1,0.4-0.1,0.6,0.1l0.3,0.2
			c0.2,0.1,0.3,0.3,0.3,0.6v24.4c0,0.3-0.2,0.5-0.5,0.5H66.6z"/>
		<path class="st1" d="M98.9,177.7c-0.1,0.3-0.3,0.4-0.5,0.4h-8.2v2c0,0.5,0,1.6-0.1,2.1c-0.1,0.4,0.1,0.4,0.6,0.3l1-0.1
			c0.5-0.1,1-0.1,1.5-0.1c5,0,8.2,3,8.2,8.1c0,5.4-3.6,8.6-9.5,8.6c-2.2,0-4.1-0.4-6.1-1.1l-2.4-0.9c-0.3-0.1-0.4-0.3-0.3-0.6
			l1.5-3.8c0.1-0.3,0.3-0.4,0.6-0.3l2.3,0.8c1.7,0.5,3.2,0.8,4.5,0.8c2.3,0,3.7-1.4,3.8-3.6c0.1-1.8-1-3-3.5-3
			c-0.7,0-1.6,0.1-2.7,0.3l-3.9,0.5c-0.3,0-0.4,0-0.6-0.2l-0.3-0.3c-0.2-0.1-0.3-0.3-0.3-0.6v-13.5c0-0.3,0.2-0.5,0.5-0.5h14.7
			c0.3,0,0.5,0.2,0.4,0.5L98.9,177.7z"/>
		<path class="st1" d="M124.9,185.8c0,8.1-3.8,13.1-10.1,13.1c-6.2,0-10.1-5-10.1-13.1c0-8.1,3.8-13.1,10.1-13.1
			C121.1,172.7,124.9,177.7,124.9,185.8z M110.5,185.8c0,5.1,1.6,8.1,4.3,8.1c2.8,0,4.3-3,4.3-8.1c0-5.1-1.6-8.1-4.3-8.1
			C112.1,177.7,110.5,180.7,110.5,185.8z"/>
		<path class="st1" d="M148.4,185.8c0,8.1-3.8,13.1-10.1,13.1c-6.2,0-10.1-5-10.1-13.1c0-8.1,3.8-13.1,10.1-13.1
			C144.5,172.7,148.4,177.7,148.4,185.8z M133.9,185.8c0,5.1,1.6,8.1,4.3,8.1c2.8,0,4.3-3,4.3-8.1c0-5.1-1.6-8.1-4.3-8.1
			C135.5,177.7,133.9,180.7,133.9,185.8z"/>
	</g>
	<g>
		<g>
			<path class="st1" d="M61.4,121.4c0.1,0,0.2,0.1,0.2,0.2v1.7c0,0.1-0.1,0.2-0.2,0.2h-6v5.6c0,0.1-0.1,0.2-0.2,0.2h-1.9
				c-0.1,0-0.2-0.1-0.2-0.2V115c0-0.1,0.1-0.2,0.2-0.2h9.5c0.2,0,0.3,0.1,0.2,0.3l-0.5,1.7c0,0.1-0.1,0.2-0.3,0.2h-6.9v4.5H61.4z"/>
			<path class="st1" d="M72,128.3c-0.1-0.3-0.3-0.2-0.5,0c-0.8,0.9-1.9,1.3-2.9,1.3c-2.4,0-3.8-1.5-3.8-4v-6.2
				c0-0.1,0.1-0.2,0.2-0.2h1.9c0.1,0,0.2,0.1,0.2,0.2v5.9c0,1.3,0.7,2.1,1.8,2.1c1.5,0,2.5-1.1,2.5-3.2v-4.9c0-0.1,0.1-0.2,0.2-0.2
				h1.9c0.1,0,0.2,0.1,0.2,0.2v9.7c0,0.1-0.1,0.2-0.2,0.2h-1c-0.1,0-0.2-0.1-0.3-0.2L72,128.3z"/>
			<path class="st1" d="M83.1,129.3c-0.8,0.2-1.5,0.3-2.1,0.3c-3.2,0-4.9-2.1-4.9-5.3c0-3.3,1.8-5.3,4.9-5.3c2.5,0,4,1.3,4,3.3
				c0,1.6-1,2.5-3.1,2.8l-3.3,0.5c0.2,1.1,1.1,1.8,2.4,1.8c0.6,0,1.2-0.1,1.7-0.2l0.9-0.2c0.1,0,0.3,0,0.3,0.2l0.4,1.6
				c0,0.1,0,0.3-0.2,0.3L83.1,129.3z M81.5,123.4c0.7-0.1,1.1-0.5,1.1-1c0-0.8-0.6-1.3-1.8-1.3c-1.4,0-2.3,0.9-2.5,2.8L81.5,123.4z"
				/>
			<path class="st1" d="M89.6,126.9c0,0.4,0.1,0.6,0.4,0.6c0.1,0,0.1,0,0.1,0c0.1,0,0.2,0,0.3,0.1l0.6,1.5c0.1,0.1,0,0.3-0.1,0.3
				c-0.3,0.1-0.6,0.2-1,0.2c-1.7,0-2.7-1-2.7-2.7v-12.3c0-0.1,0.1-0.2,0.2-0.2h1.9c0.1,0,0.2,0.1,0.2,0.2V126.9z"/>
			<path class="st1" d="M99.3,120.3c0.1,0.2,0.3,0.2,0.4,0c0.8-0.9,1.8-1.3,2.9-1.3c2.7,0,4.4,2,4.4,5.3c0,3.3-1.8,5.3-4.7,5.3
				c-0.8,0-1.3-0.1-1.9-0.4l-0.6-0.3v4.7c0,0.1-0.1,0.2-0.2,0.2h-1.9c-0.1,0-0.2-0.1-0.2-0.2v-14.2c0-0.1,0.1-0.2,0.2-0.2h1
				c0.1,0,0.2,0.1,0.3,0.2L99.3,120.3z M100.5,127.1c0.5,0.3,1.1,0.4,1.7,0.4c1.6,0,2.5-1.2,2.5-3.2c0-2-0.9-3.2-2.5-3.2
				c-1.6,0-2.4,1.3-2.4,3.1v2.6L100.5,127.1z"/>
			<path class="st1" d="M115.9,129.3c-0.8,0.2-1.5,0.3-2.1,0.3c-3.2,0-4.9-2.1-4.9-5.3c0-3.3,1.8-5.3,4.9-5.3c2.5,0,4,1.3,4,3.3
				c0,1.6-1,2.5-3.1,2.8l-3.3,0.5c0.2,1.1,1.1,1.8,2.4,1.8c0.6,0,1.2-0.1,1.7-0.2l0.9-0.2c0.1,0,0.3,0,0.3,0.2l0.4,1.6
				c0,0.1,0,0.3-0.2,0.3L115.9,129.3z M114.3,123.4c0.7-0.1,1.1-0.5,1.1-1c0-0.8-0.7-1.3-1.8-1.3c-1.4,0-2.3,0.9-2.5,2.8
				L114.3,123.4z"/>
			<path class="st1" d="M122.4,126.9c0,0.4,0.1,0.6,0.4,0.6c0.1,0,0.1,0,0.1,0c0.1,0,0.2,0,0.3,0.1l0.6,1.5c0.1,0.1,0,0.3-0.1,0.3
				c-0.3,0.1-0.6,0.2-1,0.2c-1.7,0-2.7-1-2.7-2.7v-12.3c0-0.1,0.1-0.2,0.2-0.2h1.9c0.1,0,0.2,0.1,0.2,0.2V126.9z"/>
			<path class="st1" d="M128.2,126.9c0,0.4,0.1,0.6,0.4,0.6c0.1,0,0.1,0,0.1,0c0.1,0,0.2,0,0.3,0.1l0.6,1.5c0.1,0.1,0,0.3-0.1,0.3
				c-0.3,0.1-0.6,0.2-1,0.2c-1.7,0-2.7-1-2.7-2.7v-12.3c0-0.1,0.1-0.2,0.2-0.2h1.9c0.1,0,0.2,0.1,0.2,0.2V126.9z"/>
			<path class="st1" d="M138.1,129.3c-0.8,0.2-1.5,0.3-2.1,0.3c-3.2,0-4.9-2.1-4.9-5.3c0-3.3,1.8-5.3,4.9-5.3c2.5,0,4,1.3,4,3.3
				c0,1.6-1,2.5-3.1,2.8l-3.3,0.5c0.2,1.1,1.1,1.8,2.4,1.8c0.6,0,1.2-0.1,1.7-0.2l0.9-0.2c0.1,0,0.3,0,0.3,0.2l0.4,1.6
				c0,0.1,0,0.3-0.2,0.3L138.1,129.3z M136.5,123.4c0.7-0.1,1.1-0.5,1.1-1c0-0.8-0.6-1.3-1.8-1.3c-1.4,0-2.3,0.9-2.5,2.8
				L136.5,123.4z"/>
			<path class="st1" d="M147.6,119.2c0.1,0,0.2,0.1,0.2,0.2v1.6c0,0.1-0.1,0.2-0.2,0.2h-2.3v5.1c0,0.7,0.3,1.1,0.8,1.1
				c0.2,0,0.4,0,0.5-0.1c0.1-0.1,0.3,0,0.3,0.1l0.7,1.4c0.1,0.1,0,0.2-0.1,0.3c-0.4,0.2-0.9,0.4-1.4,0.4c-2,0-3.1-1.2-3.1-3.2v-5.1
				h-1c-0.1,0-0.2-0.1-0.2-0.2v-1.6c0-0.1,0.1-0.2,0.2-0.2h1v-2.4c0-0.1,0.1-0.2,0.2-0.3l1.9-0.6c0.2,0,0.3,0,0.3,0.2v3.1H147.6z"/>
			<path class="st1" d="M152.3,124.9c-1.7-0.4-2.6-1.3-2.6-2.8c0-1.9,1.4-3,3.8-3c0.9,0,1.9,0.1,2.6,0.3l0.9,0.2
				c0.1,0,0.2,0.1,0.2,0.3l-0.4,1.6c0,0.1-0.1,0.2-0.3,0.2l-0.9-0.3c-0.6-0.2-1.4-0.3-2-0.3c-1,0-1.5,0.4-1.5,0.9
				c0,0.5,0.3,0.8,0.9,1l2.1,0.5c1.8,0.5,2.6,1.4,2.6,2.9c0,2-1.5,3.2-3.9,3.2c-1.1,0-2.2-0.1-3.2-0.4l-0.8-0.2
				c-0.1,0-0.2-0.1-0.2-0.3l0.5-1.6c0-0.1,0.1-0.2,0.3-0.1l0.8,0.2c0.8,0.2,1.9,0.4,2.7,0.4c1,0,1.6-0.4,1.6-1c0-0.5-0.3-0.8-1-1
				L152.3,124.9z"/>
			<path class="st1" d="M57.5,142.6c0.1,0.2,0.3,0.2,0.4,0c0.8-0.9,1.8-1.3,2.9-1.3c2.7,0,4.4,2,4.4,5.3c0,3.3-1.8,5.3-4.7,5.3
				c-0.8,0-1.3-0.1-1.9-0.4l-0.6-0.3v4.7c0,0.1-0.1,0.2-0.2,0.2h-1.9c-0.1,0-0.2-0.1-0.2-0.2v-14.2c0-0.1,0.1-0.2,0.2-0.2h1
				c0.1,0,0.2,0.1,0.3,0.2L57.5,142.6z M58.6,149.5c0.5,0.3,1.1,0.4,1.7,0.4c1.6,0,2.5-1.2,2.5-3.2c0-2-0.9-3.2-2.5-3.2
				c-1.6,0-2.4,1.3-2.4,3.1v2.6L58.6,149.5z"/>
			<path class="st1" d="M73.3,143.2c0,0.1-0.1,0.2-0.2,0.2c-2.3,0.1-3.3,1.7-3.3,5.5v2.5c0,0.1-0.1,0.2-0.2,0.2h-1.9
				c-0.1,0-0.2-0.1-0.2-0.2v-9.7c0-0.1,0.1-0.2,0.2-0.2h1c0.1,0,0.2,0.1,0.3,0.2l0.3,1.2c0.1,0.2,0.2,0.3,0.4,0.1
				c0.8-1.1,1.8-1.6,3.3-1.7c0.1,0,0.2,0.1,0.2,0.2V143.2z"/>
			<path class="st1" d="M84.7,146.6c0,3.3-1.8,5.3-4.8,5.3c-3,0-4.8-2.1-4.8-5.3c0-3.2,1.8-5.3,4.8-5.3
				C82.8,141.4,84.7,143.4,84.7,146.6z M77.3,146.6c0,2,0.9,3.2,2.5,3.2c1.5,0,2.5-1.2,2.5-3.2c0-2-1-3.2-2.5-3.2
				C78.3,143.5,77.3,144.7,77.3,146.6z"/>
			<path class="st1" d="M96,151.5c0,0.1-0.1,0.2-0.2,0.2h-1c-0.1,0-0.2-0.1-0.3-0.2l-0.2-0.9c-0.1-0.2-0.2-0.2-0.4,0
				c-0.8,0.8-1.8,1.3-2.9,1.3c-2.7,0-4.4-2.1-4.4-5.3c0-3.3,1.8-5.3,4.7-5.3c0.7,0,1.3,0.1,1.9,0.4l0.6,0.3v-5
				c0-0.1,0.1-0.2,0.2-0.2h1.9c0.1,0,0.2,0.1,0.2,0.2V151.5z M93,143.8c-0.5-0.2-1.1-0.4-1.7-0.4c-1.6,0-2.6,1.2-2.5,3.2
				c0,2,0.9,3.2,2.5,3.2c1.6,0,2.4-1.3,2.4-3.1v-2.7L93,143.8z"/>
			<path class="st1" d="M105.9,150.7c-0.1-0.3-0.3-0.2-0.5,0c-0.8,0.9-1.9,1.3-2.9,1.3c-2.4,0-3.8-1.5-3.8-4v-6.2
				c0-0.1,0.1-0.2,0.2-0.2h1.9c0.1,0,0.2,0.1,0.2,0.2v5.9c0,1.3,0.7,2.1,1.8,2.1c1.5,0,2.5-1.1,2.5-3.2v-4.9c0-0.1,0.1-0.2,0.2-0.2
				h1.9c0.1,0,0.2,0.1,0.2,0.2v9.7c0,0.1-0.1,0.2-0.2,0.2h-1c-0.1,0-0.2-0.1-0.3-0.2L105.9,150.7z"/>
			<path class="st1" d="M116.8,151.7c-0.6,0.2-1.3,0.3-1.9,0.3c-3.2,0-5-2.1-5-5.3c0-3.2,1.7-5.3,5-5.3c0.5,0,1.2,0.1,1.8,0.3
				l0.9,0.3c0.1,0,0.2,0.1,0.2,0.3l-0.5,1.6c0,0.1-0.1,0.2-0.3,0.1l-0.7-0.2c-0.5-0.2-1-0.2-1.4-0.2c-1.9,0-2.7,1.2-2.7,3.2
				c0,2,0.9,3.2,2.7,3.2c0.4,0,1-0.1,1.5-0.2l0.7-0.2c0.1,0,0.3,0,0.3,0.1l0.5,1.6c0,0.1,0,0.3-0.2,0.3L116.8,151.7z"/>
			<path class="st1" d="M125.7,141.6c0.1,0,0.2,0.1,0.2,0.2v1.6c0,0.1-0.1,0.2-0.2,0.2h-2.3v5.1c0,0.7,0.3,1.1,0.8,1.1
				c0.2,0,0.4,0,0.5-0.1c0.1-0.1,0.3,0,0.3,0.1l0.7,1.4c0.1,0.1,0,0.2-0.1,0.3c-0.4,0.2-0.9,0.4-1.4,0.4c-2,0-3.1-1.2-3.1-3.2v-5.1
				h-1c-0.1,0-0.2-0.1-0.2-0.2v-1.6c0-0.1,0.1-0.2,0.2-0.2h1v-2.4c0-0.1,0.1-0.2,0.2-0.3l1.9-0.6c0.2,0,0.3,0,0.3,0.2v3.1H125.7z"/>
			<path class="st1" d="M131.2,151.5c0,0.1-0.1,0.2-0.2,0.2h-1.9c-0.1,0-0.2-0.1-0.2-0.2v-7.9h-1c-0.1,0-0.2-0.1-0.2-0.2v-1.6
				c0-0.1,0.1-0.2,0.2-0.2h3.1c0.1,0,0.2,0.1,0.2,0.2V151.5z M131.2,138c0,0.9-0.5,1.4-1.4,1.4c-0.9,0-1.4-0.5-1.4-1.4
				c0-0.9,0.5-1.4,1.4-1.4C130.7,136.5,131.2,137.1,131.2,138z"/>
			<path class="st1" d="M143.2,146.6c0,3.3-1.8,5.3-4.8,5.3c-3,0-4.8-2.1-4.8-5.3c0-3.2,1.8-5.3,4.8-5.3
				C141.3,141.4,143.2,143.4,143.2,146.6z M135.8,146.6c0,2,0.9,3.2,2.5,3.2c1.5,0,2.5-1.2,2.5-3.2c0-2-1-3.2-2.5-3.2
				C136.8,143.5,135.8,144.7,135.8,146.6z"/>
			<path class="st1" d="M147.2,142.6c0.1,0.3,0.3,0.2,0.5,0c0.8-0.9,1.9-1.3,2.9-1.3c2.4,0,3.8,1.5,3.8,4v6.2c0,0.1-0.1,0.2-0.2,0.2
				h-1.9c-0.1,0-0.2-0.1-0.2-0.2v-5.9c0-1.3-0.7-2.1-1.8-2.1c-1.5,0-2.4,1.1-2.4,3.2v4.9c0,0.1-0.1,0.2-0.2,0.2h-1.9
				c-0.1,0-0.2-0.1-0.2-0.2v-9.7c0-0.1,0.1-0.2,0.2-0.2h1c0.1,0,0.2,0.1,0.3,0.2L147.2,142.6z"/>
		</g>
	</g>
</g>
</svg>
