<?xml version="1.0" encoding="utf-8"?>
<!-- Generator: Adobe Illustrator 24.1.2, SVG Export Plug-In . SVG Version: 6.00 Build 0)  -->
<svg version="1.1" id="Слой_1" xmlns="http://www.w3.org/2000/svg" xmlns:xlink="http://www.w3.org/1999/xlink" x="0px" y="0px"
	 viewBox="0 0 230 277" style="enable-background:new 0 0 230 277;" xml:space="preserve">
<style type="text/css">
	.st0{fill:#FFBF3C;}
	.st1{enable-background:new    ;}
	.st2{fill:#FFFFFF;}
</style>
<path class="st0" d="M119.3,1.9c-2.4-2.1-6.1-2.1-8.5,0C89.9,20.3,0,102.9,0,159.9c0,64.5,51.5,116.8,115,116.8s115-52.3,115-116.8
	C230,102.9,140.1,20.3,119.3,1.9z M116.4,85.4c-22.7,0-43.6,7.9-60,21.2c14.8-20.7,35.5-44,60-67.1c24.6,23.2,45.3,46.4,60,67.1
	C160,93.4,139.1,85.4,116.4,85.4z"/>
<g class="st1">
	<path class="st2" d="M72.9,240.2c0.1,0,0.2,0.1,0.2,0.2v1.1c0,0.1-0.1,0.2-0.2,0.2h-1.6v3.4c0,0.5,0.2,0.7,0.5,0.7
		c0.1,0,0.3,0,0.4-0.1c0.1,0,0.2,0,0.2,0.1l0.4,0.9c0,0.1,0,0.2-0.1,0.2c-0.3,0.1-0.6,0.2-0.9,0.2c-1.3,0-2.1-0.8-2.1-2.1v-3.4h-0.7
		c-0.1,0-0.2-0.1-0.2-0.2v-1.1c0-0.1,0.1-0.2,0.2-0.2h0.7v-1.6c0-0.1,0-0.1,0.1-0.2l1.2-0.4c0.1,0,0.2,0,0.2,0.1v2.1H72.9z"/>
	<path class="st2" d="M80.5,243.6c0,2.2-1.2,3.5-3.2,3.5c-2,0-3.2-1.4-3.2-3.5c0-2.1,1.2-3.5,3.2-3.5
		C79.3,240.1,80.5,241.5,80.5,243.6z M75.6,243.6c0,1.3,0.6,2.1,1.7,2.1c1,0,1.7-0.8,1.7-2.1c0-1.3-0.6-2.1-1.7-2.1
		C76.2,241.5,75.6,242.3,75.6,243.6z"/>
	<path class="st2" d="M83.1,240.9c0.1,0.2,0.2,0.2,0.3,0c0.5-0.6,1.2-0.8,1.9-0.8c1.6,0,2.5,1,2.5,2.6v4.1c0,0.1-0.1,0.2-0.2,0.2
		h-1.2c-0.1,0-0.2-0.1-0.2-0.2v-3.9c0-0.9-0.5-1.4-1.2-1.4c-1,0-1.6,0.7-1.6,2.1v3.2c0,0.1-0.1,0.2-0.2,0.2h-1.2
		c-0.1,0-0.2-0.1-0.2-0.2v-6.4c0-0.1,0.1-0.2,0.2-0.2h0.7c0.1,0,0.2,0,0.2,0.1L83.1,240.9z"/>
	<path class="st2" d="M91.2,244c-1.2-0.3-1.7-0.9-1.7-1.9c0-1.2,0.9-2,2.5-2c0.6,0,1.3,0.1,1.7,0.2l0.6,0.2c0.1,0,0.1,0.1,0.1,0.2
		l-0.3,1c0,0.1-0.1,0.1-0.2,0.1l-0.6-0.2c-0.4-0.1-0.9-0.2-1.3-0.2c-0.6,0-1,0.2-1,0.6c0,0.3,0.2,0.5,0.6,0.6l1.4,0.4
		c1.2,0.3,1.7,0.9,1.7,1.9c0,1.3-1,2.1-2.6,2.1c-0.7,0-1.4-0.1-2.1-0.3l-0.5-0.2c-0.1,0-0.1-0.1-0.1-0.2l0.3-1
		c0-0.1,0.1-0.1,0.2-0.1l0.5,0.1c0.5,0.2,1.3,0.2,1.8,0.2c0.7,0,1.1-0.3,1.1-0.7c0-0.3-0.2-0.5-0.7-0.7L91.2,244z"/>
	<path class="st2" d="M100.4,240.9c0.1,0.2,0.2,0.1,0.3,0c0.5-0.6,1.2-0.9,1.9-0.9c1.8,0,2.9,1.3,2.9,3.5c0,2.2-1.2,3.5-3.1,3.5
		c-0.5,0-0.9-0.1-1.3-0.3l-0.4-0.2v3.1c0,0.1-0.1,0.2-0.2,0.2h-1.2c-0.1,0-0.2-0.1-0.2-0.2v-9.4c0-0.1,0.1-0.2,0.2-0.2h0.7
		c0.1,0,0.2,0,0.2,0.1L100.4,240.9z M101.1,245.5c0.3,0.2,0.7,0.2,1.1,0.2c1.1,0,1.7-0.8,1.7-2.1c0-1.3-0.6-2.1-1.6-2.1
		c-1,0-1.6,0.9-1.6,2.1v1.7L101.1,245.5z"/>
	<path class="st2" d="M111.4,246.9c-0.5,0.1-1,0.2-1.4,0.2c-2.1,0-3.3-1.4-3.3-3.5c0-2.2,1.2-3.5,3.2-3.5c1.7,0,2.7,0.8,2.7,2.2
		c0,1.1-0.7,1.7-2,1.9l-2.2,0.3c0.2,0.7,0.7,1.2,1.6,1.2c0.4,0,0.8,0,1.1-0.1l0.6-0.2c0.1,0,0.2,0,0.2,0.1l0.3,1
		c0,0.1,0,0.2-0.1,0.2L111.4,246.9z M110.3,243c0.5-0.1,0.8-0.3,0.8-0.7c0-0.6-0.4-0.8-1.2-0.8c-0.9,0-1.5,0.6-1.7,1.8L110.3,243z"
		/>
	<path class="st2" d="M118,241.3c0,0.1-0.1,0.2-0.2,0.2c-1.5,0.1-2.2,1.1-2.2,3.7v1.7c0,0.1-0.1,0.2-0.2,0.2h-1.2
		c-0.1,0-0.2-0.1-0.2-0.2v-6.4c0-0.1,0.1-0.2,0.2-0.2h0.7c0.1,0,0.2,0,0.2,0.1l0.2,0.8c0.1,0.2,0.2,0.2,0.3,0
		c0.6-0.7,1.2-1.1,2.2-1.1c0.1,0,0.2,0.1,0.2,0.2V241.3z"/>
	<path class="st2" d="M123.6,240.9c0.1,0.2,0.2,0.2,0.3,0c0.5-0.6,1.1-0.8,1.8-0.8c0.8,0,1.4,0.4,1.8,0.9c0.2,0.2,0.3,0.2,0.5,0
		c0.6-0.7,1.2-0.9,1.9-0.9c1.6,0,2.4,1,2.4,2.6v4.1c0,0.1-0.1,0.2-0.2,0.2H131c-0.1,0-0.2-0.1-0.2-0.2v-3.9c0-0.9-0.4-1.4-1.1-1.4
		c-1.1,0-1.5,0.8-1.5,2.1v3.2c0,0.1-0.1,0.2-0.2,0.2h-1.3c-0.1,0-0.2-0.1-0.2-0.2v-3.9c0-0.9-0.4-1.4-1.1-1.4
		c-1.1,0-1.5,0.8-1.5,2.1v3.2c0,0.1-0.1,0.2-0.2,0.2h-1.2c-0.1,0-0.2-0.1-0.2-0.2v-6.4c0-0.1,0.1-0.2,0.2-0.2h0.7
		c0.1,0,0.2,0,0.2,0.1L123.6,240.9z"/>
	<path class="st2" d="M140.2,243.6c0,2.2-1.2,3.5-3.2,3.5c-2,0-3.2-1.4-3.2-3.5c0-2.1,1.2-3.5,3.2-3.5
		C139,240.1,140.2,241.5,140.2,243.6z M135.3,243.6c0,1.3,0.6,2.1,1.7,2.1c1,0,1.7-0.8,1.7-2.1c0-1.3-0.6-2.1-1.7-2.1
		C136,241.5,135.3,242.3,135.3,243.6z"/>
	<path class="st2" d="M142.9,240.9c0.1,0.2,0.2,0.2,0.3,0c0.5-0.6,1.2-0.8,1.9-0.8c1.6,0,2.5,1,2.5,2.6v4.1c0,0.1-0.1,0.2-0.2,0.2
		h-1.2c-0.1,0-0.2-0.1-0.2-0.2v-3.9c0-0.9-0.5-1.4-1.2-1.4c-1,0-1.6,0.7-1.6,2.1v3.2c0,0.1-0.1,0.2-0.2,0.2h-1.2
		c-0.1,0-0.2-0.1-0.2-0.2v-6.4c0-0.1,0.1-0.2,0.2-0.2h0.7c0.1,0,0.2,0,0.2,0.1L142.9,240.9z"/>
	<path class="st2" d="M153,240.2c0.1,0,0.2,0.1,0.2,0.2v1.1c0,0.1-0.1,0.2-0.2,0.2h-1.6v3.4c0,0.5,0.2,0.7,0.5,0.7
		c0.1,0,0.3,0,0.4-0.1c0.1,0,0.2,0,0.2,0.1l0.4,0.9c0,0.1,0,0.2-0.1,0.2c-0.3,0.1-0.6,0.2-0.9,0.2c-1.3,0-2.1-0.8-2.1-2.1v-3.4h-0.7
		c-0.1,0-0.2-0.1-0.2-0.2v-1.1c0-0.1,0.1-0.2,0.2-0.2h0.7v-1.6c0-0.1,0-0.1,0.1-0.2l1.2-0.4c0.1,0,0.2,0,0.2,0.1v2.1H153z"/>
	<path class="st2" d="M156.2,239.2c0,0.7-0.1,1.1-0.2,1.6c-0.1,0.2,0,0.3,0.2,0.1c0.5-0.5,1.1-0.8,1.9-0.8c1.6,0,2.5,1,2.5,2.6v4.1
		c0,0.1-0.1,0.2-0.2,0.2h-1.2c-0.1,0-0.2-0.1-0.2-0.2v-3.9c0-0.9-0.5-1.4-1.2-1.4c-1.1,0-1.6,0.9-1.6,2.1v3.2c0,0.1-0.1,0.2-0.2,0.2
		h-1.2c-0.1,0-0.2-0.1-0.2-0.2v-9.7c0-0.1,0.1-0.2,0.2-0.2h1.2c0.1,0,0.2,0.1,0.2,0.2V239.2z"/>
</g>
<g class="st1">
	<path class="st2" d="M72.4,223.8c-0.3,0-0.5-0.2-0.5-0.5v-15.9c0-1.3,0.2-2.8,0.3-3.3c0-0.3-0.1-0.5-0.4-0.5
		c-0.1,0-0.5,0.1-0.6,0.2l-2.6,1c-0.3,0.1-0.6,0-0.7-0.3l-1.6-4.3c-0.1-0.3,0-0.6,0.3-0.7l10.2-3.9c0.3-0.1,0.5-0.1,0.7,0.1l0.3,0.2
		c0.2,0.2,0.3,0.4,0.3,0.6v26.7c0,0.3-0.2,0.5-0.5,0.5H72.4z"/>
	<path class="st2" d="M110.6,203c0,2.7-1.4,4.6-3.7,5.7c-0.4,0.2-0.4,0.5,0,0.7c2.6,1.2,4.6,3.1,4.6,6.6c0,5.2-4,8.3-10.6,8.3
		c-6.5,0-10.5-3.1-10.5-8.3c0-3.5,2-5.4,4.6-6.6c0.4-0.2,0.4-0.5,0-0.7c-2.3-1.1-3.7-3-3.7-5.7c0-4.6,3.7-7.5,9.6-7.5
		S110.6,198.4,110.6,203z M96.7,215.4c0,2.2,1.6,3.4,4.2,3.4c2.7,0,4.3-1.2,4.3-3.4c0-2.1-1.6-3.4-4.3-3.4
		C98.4,211.9,96.7,213.2,96.7,215.4z M97.7,203.8c0,1.6,1.2,2.6,3.3,2.6c2.1,0,3.3-1.1,3.3-2.6c0-1.8-1.2-2.8-3.3-2.8
		C98.9,201,97.7,202,97.7,203.8z"/>
	<path class="st2" d="M137.4,209.9c0,8.9-4.2,14.4-11.1,14.4s-11.1-5.5-11.1-14.4c0-8.9,4.2-14.4,11.1-14.4S137.4,201,137.4,209.9z
		 M121.6,209.9c0,5.5,1.8,8.9,4.8,8.9c3,0,4.8-3.3,4.8-8.9c0-5.5-1.7-8.9-4.8-8.9C123.4,201,121.6,204.3,121.6,209.9z"/>
	<path class="st2" d="M163.1,209.9c0,8.9-4.2,14.4-11.1,14.4s-11.1-5.5-11.1-14.4c0-8.9,4.2-14.4,11.1-14.4S163.1,201,163.1,209.9z
		 M147.3,209.9c0,5.5,1.8,8.9,4.8,8.9c3,0,4.8-3.3,4.8-8.9c0-5.5-1.7-8.9-4.8-8.9C149.1,201,147.3,204.3,147.3,209.9z"/>
</g>
<g class="st1">
	<path class="st2" d="M83.5,113.4c3.3,0,5.3,1.7,5.3,4.6c0,2.1-1.3,3.5-3.1,4.1c-0.3,0.1-0.3,0.3,0,0.4c1.1,0.6,1.7,1.6,2.2,2.7
		l1.6,3.9c0.1,0.2,0,0.3-0.2,0.3h-2.2c-0.1,0-0.2-0.1-0.3-0.2l-1.2-3c-0.8-2.1-1.9-3.1-4.3-3.1h-1.7v6c0,0.2-0.1,0.3-0.3,0.3h-2.1
		c-0.2,0-0.3-0.1-0.3-0.3v-15.5c0-0.2,0.1-0.3,0.3-0.3H83.5z M82.6,120.8c2.4,0,3.6-0.9,3.6-2.7c0-1.5-1-2.5-2.7-2.5h-3.9v5.2H82.6z
		"/>
	<path class="st2" d="M99,129.4c-0.8,0.2-1.6,0.3-2.3,0.3c-3.5,0-5.4-2.2-5.4-5.8c0-3.6,2-5.8,5.3-5.8c2.8,0,4.4,1.4,4.4,3.6
		c0,1.8-1.1,2.8-3.4,3.1l-3.6,0.6c0.3,1.2,1.2,2,2.6,2c0.6,0,1.3-0.1,1.8-0.2l1-0.3c0.2,0,0.3,0,0.3,0.2l0.5,1.7
		c0,0.2,0,0.3-0.2,0.3L99,129.4z M97.2,122.8c0.8-0.1,1.2-0.5,1.2-1.1c0-0.9-0.7-1.4-1.9-1.4c-1.5,0-2.5,0.9-2.7,3L97.2,122.8z"/>
	<path class="st2" d="M104.2,116.7c0-2.5,1.4-4,3.8-4c0.3,0,0.7,0,1.2,0.2l0.4,0.1c0.2,0,0.2,0.1,0.2,0.3l-0.4,1.8
		c0,0.2-0.1,0.2-0.3,0.2l-0.3-0.1c-0.3-0.1-0.5-0.1-0.8-0.1c-0.8,0-1.3,0.6-1.3,1.7v1.6h7.3c0.2,0,0.3,0.1,0.3,0.3v10.6
		c0,0.2-0.1,0.3-0.3,0.3H112c-0.2,0-0.3-0.1-0.3-0.3v-8.6h-5v8.6c0,0.2-0.1,0.3-0.3,0.3h-2.1c-0.2,0-0.3-0.1-0.3-0.3v-8.6h-1.1
		c-0.2,0-0.3-0.1-0.3-0.3v-1.8c0-0.2,0.1-0.3,0.3-0.3h1.1V116.7z M114.4,114.3c0,1-0.6,1.6-1.5,1.6s-1.5-0.6-1.5-1.6
		c0-1,0.6-1.5,1.5-1.5S114.4,113.4,114.4,114.3z"/>
	<path class="st2" d="M119.4,119.4c0.1,0.3,0.3,0.3,0.5,0c0.9-1,2-1.4,3.2-1.4c2.6,0,4.2,1.6,4.2,4.3v6.8c0,0.2-0.1,0.3-0.3,0.3h-2
		c-0.2,0-0.3-0.1-0.3-0.3v-6.5c0-1.4-0.8-2.3-2-2.3c-1.7,0-2.7,1.2-2.7,3.5v5.3c0,0.2-0.1,0.3-0.3,0.3h-2c-0.2,0-0.3-0.1-0.3-0.3
		v-10.6c0-0.2,0.1-0.3,0.3-0.3h1.1c0.2,0,0.3,0.1,0.3,0.2L119.4,119.4z"/>
	<path class="st2" d="M137.4,129.4c-0.8,0.2-1.6,0.3-2.3,0.3c-3.5,0-5.4-2.2-5.4-5.8c0-3.6,2-5.8,5.3-5.8c2.8,0,4.4,1.4,4.4,3.6
		c0,1.8-1.1,2.8-3.4,3.1l-3.6,0.6c0.3,1.2,1.2,2,2.6,2c0.6,0,1.3-0.1,1.8-0.2l1-0.3c0.2,0,0.3,0,0.3,0.2l0.5,1.7
		c0,0.2,0,0.3-0.2,0.3L137.4,129.4z M135.6,122.8c0.8-0.1,1.2-0.5,1.2-1.1c0-0.9-0.7-1.4-1.9-1.4c-1.5,0-2.5,0.9-2.7,3L135.6,122.8z
		"/>
	<path class="st2" d="M151.8,129.2c0,0.2-0.1,0.3-0.3,0.3h-1.1c-0.2,0-0.3-0.1-0.3-0.2l-0.3-1c-0.1-0.2-0.2-0.3-0.5,0
		c-0.8,0.9-1.9,1.4-3.2,1.4c-3,0-4.8-2.2-4.8-5.8c0-3.6,1.9-5.8,5.1-5.8c0.8,0,1.4,0.1,2,0.4l0.7,0.3v-5.5c0-0.2,0.1-0.3,0.3-0.3h2
		c0.2,0,0.3,0.1,0.3,0.3V129.2z M148.5,120.7c-0.5-0.3-1.2-0.4-1.9-0.4c-1.7,0-2.8,1.3-2.8,3.5c0,2.2,1,3.5,2.7,3.5
		c1.7,0,2.6-1.4,2.6-3.4v-2.9L148.5,120.7z"/>
</g>
<g class="st1">
	<path class="st2" d="M52.5,149c-1.9-0.5-2.8-1.5-2.8-3.1c0-2.1,1.5-3.3,4.2-3.3c1,0,2.1,0.2,2.8,0.4l1,0.3c0.2,0,0.2,0.2,0.2,0.3
		l-0.5,1.7c0,0.2-0.2,0.2-0.3,0.2l-1-0.3c-0.6-0.2-1.5-0.3-2.2-0.3c-1.1,0-1.7,0.4-1.7,1c0,0.5,0.3,0.8,1,1.1l2.3,0.6
		c2,0.5,2.9,1.5,2.9,3.2c0,2.2-1.6,3.5-4.3,3.5c-1.2,0-2.4-0.2-3.5-0.5l-0.9-0.3c-0.2,0-0.2-0.2-0.2-0.3l0.5-1.7
		c0-0.1,0.2-0.2,0.3-0.2l0.8,0.2c0.9,0.3,2.1,0.4,2.9,0.4c1.1,0,1.8-0.4,1.8-1.1c0-0.5-0.3-0.9-1.1-1.1L52.5,149z"/>
	<path class="st2" d="M68.6,152.8c-0.1-0.3-0.3-0.3-0.5,0c-0.9,1-2,1.4-3.2,1.4c-2.6,0-4.2-1.6-4.2-4.3V143c0-0.2,0.1-0.3,0.3-0.3h2
		c0.2,0,0.3,0.1,0.3,0.3v6.5c0,1.4,0.8,2.3,2,2.3c1.7,0,2.7-1.2,2.7-3.5V143c0-0.2,0.1-0.3,0.3-0.3h2c0.2,0,0.3,0.1,0.3,0.3v10.6
		c0,0.2-0.1,0.3-0.3,0.3h-1.1c-0.2,0-0.3-0.1-0.3-0.2L68.6,152.8z"/>
	<path class="st2" d="M75.5,143.9c0.1,0.3,0.3,0.3,0.5,0c0.9-1,2-1.4,3.2-1.4c2.6,0,4.2,1.6,4.2,4.3v6.8c0,0.2-0.1,0.3-0.3,0.3h-2
		c-0.2,0-0.3-0.1-0.3-0.3v-6.5c0-1.4-0.8-2.3-2-2.3c-1.7,0-2.7,1.2-2.7,3.5v5.3c0,0.2-0.1,0.3-0.3,0.3h-2c-0.2,0-0.3-0.1-0.3-0.3
		V143c0-0.2,0.1-0.3,0.3-0.3H75c0.2,0,0.3,0.1,0.3,0.2L75.5,143.9z"/>
	<path class="st2" d="M98.7,153.6c0.1,0.2,0,0.3-0.1,0.3c-0.3,0.1-0.7,0.2-1.1,0.2c-1.9,0-3-1.1-3-2.9v-11.5H91
		c-0.9,0-1.4,0.5-1.4,1.7v1.4h2.6c0.2,0,0.3,0.1,0.3,0.3v1.8c0,0.2-0.1,0.3-0.3,0.3h-2.6v8.6c0,0.2-0.1,0.3-0.3,0.3h-2
		c-0.2,0-0.3-0.1-0.3-0.3v-8.6h-1.1c-0.2,0-0.3-0.1-0.3-0.3V143c0-0.2,0.1-0.3,0.3-0.3H87v-1.4c0-2.5,1.5-3.9,4-3.9h5.8
		c0.2,0,0.3,0.1,0.3,0.3v13.5c0,0.4,0.2,0.6,0.5,0.6c0.1,0,0.1,0,0.2,0c0.2,0,0.3,0,0.3,0.1L98.7,153.6z"/>
	<path class="st2" d="M110.8,148.3c0,3.6-2,5.8-5.3,5.8c-3.3,0-5.3-2.2-5.3-5.8c0-3.5,2-5.8,5.3-5.8
		C108.7,142.6,110.8,144.8,110.8,148.3z M102.7,148.3c0,2.2,1,3.5,2.8,3.5c1.7,0,2.8-1.3,2.8-3.5c0-2.2-1.1-3.5-2.8-3.5
		C103.7,144.8,102.7,146.2,102.7,148.3z"/>
	<path class="st2" d="M126.7,149.4c-0.5,1.8-0.8,2.9-1.2,4.3c0,0.2-0.1,0.2-0.3,0.2h-2.5c-0.2,0-0.3-0.1-0.3-0.2
		c-0.2-0.8-0.5-1.6-0.7-2.4l-0.8-2.4c-0.1-0.5-0.3-1.2-0.4-1.7c-0.1-0.3-0.3-0.3-0.3,0c-0.1,0.5-0.3,1.3-0.4,1.7l-0.8,2.4
		c-0.3,0.8-0.5,1.6-0.7,2.4c0,0.2-0.1,0.2-0.3,0.2h-2.5c-0.2,0-0.3-0.1-0.3-0.2c-0.3-1.4-0.6-2.4-1.2-4.3l-1.9-6.4
		c-0.1-0.2,0-0.3,0.2-0.3h2.1c0.2,0,0.3,0.1,0.3,0.2l1.2,4c0.4,1.5,0.6,2.5,0.8,3.7c0,0.3,0.3,0.3,0.4,0c0.3-1.1,0.7-2.6,1.1-4.1
		l1.2-3.6c0-0.1,0.1-0.2,0.3-0.2h1.4c0.1,0,0.2,0.1,0.3,0.2l1.2,3.6c0.4,1.5,0.8,2.9,1.1,4.1c0.1,0.3,0.3,0.3,0.4,0
		c0.2-1.1,0.4-2.2,0.8-3.7l1.2-4c0-0.1,0.1-0.2,0.3-0.2h2.1c0.2,0,0.3,0.1,0.2,0.3L126.7,149.4z"/>
	<path class="st2" d="M138,153.9c-0.8,0.2-1.6,0.3-2.3,0.3c-3.5,0-5.4-2.2-5.4-5.8c0-3.6,2-5.8,5.3-5.8c2.8,0,4.4,1.4,4.4,3.6
		c0,1.8-1.1,2.8-3.4,3.1l-3.6,0.6c0.3,1.2,1.2,2,2.6,2c0.6,0,1.3-0.1,1.8-0.2l1-0.3c0.2,0,0.3,0,0.3,0.2l0.5,1.7
		c0,0.2,0,0.3-0.2,0.3L138,153.9z M136.3,147.3c0.8-0.1,1.2-0.5,1.2-1.1c0-0.9-0.7-1.4-1.9-1.4c-1.5,0-2.5,0.9-2.7,3L136.3,147.3z"
		/>
	<path class="st2" d="M149,144.6c0,0.2-0.1,0.3-0.3,0.3c-2.5,0.1-3.6,1.9-3.6,6.1v2.7c0,0.2-0.1,0.3-0.3,0.3h-2
		c-0.2,0-0.3-0.1-0.3-0.3V143c0-0.2,0.1-0.3,0.3-0.3h1.1c0.2,0,0.3,0.1,0.3,0.2l0.4,1.3c0.1,0.3,0.3,0.3,0.5,0.1
		c0.9-1.2,2-1.8,3.6-1.8c0.2,0,0.3,0.1,0.3,0.3V144.6z"/>
	<path class="st2" d="M166.4,148.3c0,3.6-2,5.8-5.3,5.8c-3.3,0-5.3-2.2-5.3-5.8c0-3.5,2-5.8,5.3-5.8
		C164.4,142.6,166.4,144.8,166.4,148.3z M158.3,148.3c0,2.2,1,3.5,2.8,3.5c1.7,0,2.8-1.3,2.8-3.5c0-2.2-1.1-3.5-2.8-3.5
		C159.4,144.8,158.3,146.2,158.3,148.3z"/>
	<path class="st2" d="M172.1,153.7c0,0.2-0.1,0.3-0.3,0.3h-2c-0.2,0-0.3-0.1-0.3-0.3v-8.6h-1.1c-0.2,0-0.3-0.1-0.3-0.3V143
		c0-0.2,0.1-0.3,0.3-0.3h3.4c0.2,0,0.3,0.1,0.3,0.3V153.7z M172.1,138.8c0,1-0.6,1.6-1.5,1.6s-1.5-0.6-1.5-1.6c0-1,0.6-1.5,1.5-1.5
		S172.1,137.9,172.1,138.8z"/>
	<path class="st2" d="M177.7,151.2c0,0.4,0.2,0.6,0.5,0.6c0.1,0,0.1,0,0.2,0c0.2,0,0.3,0,0.3,0.1l0.7,1.6c0.1,0.2,0,0.3-0.1,0.3
		c-0.3,0.1-0.7,0.2-1.1,0.2c-1.9,0-3-1.1-3-2.9v-13.5c0-0.2,0.1-0.3,0.3-0.3h2c0.2,0,0.3,0.1,0.3,0.3V151.2z"/>
</g>
<g class="st1">
	<path class="st2" d="M62.8,168.5c0.1,0.3,0.3,0.2,0.4,0c0.9-1,2-1.4,3.2-1.4c3,0,4.8,2.2,4.8,5.8c0,3.6-1.9,5.8-5.1,5.8
		c-0.8,0-1.4-0.1-2.1-0.4l-0.6-0.3v5.1c0,0.2-0.1,0.3-0.3,0.3h-2c-0.2,0-0.3-0.1-0.3-0.3v-15.5c0-0.2,0.1-0.3,0.3-0.3h1.1
		c0.2,0,0.3,0.1,0.3,0.2L62.8,168.5z M64.1,175.9c0.6,0.3,1.2,0.4,1.9,0.4c1.8,0,2.8-1.3,2.8-3.5c0-2.2-1-3.5-2.7-3.5
		c-1.7,0-2.6,1.4-2.6,3.4v2.9L64.1,175.9z"/>
	<path class="st2" d="M80.2,169.1c0,0.2-0.1,0.3-0.3,0.3c-2.5,0.1-3.6,1.9-3.6,6.1v2.7c0,0.2-0.1,0.3-0.3,0.3h-2
		c-0.2,0-0.3-0.1-0.3-0.3v-10.6c0-0.2,0.1-0.3,0.3-0.3h1.1c0.2,0,0.3,0.1,0.3,0.2l0.4,1.3c0.1,0.3,0.3,0.3,0.5,0.1
		c0.9-1.2,1.9-1.8,3.6-1.8c0.2,0,0.3,0.1,0.3,0.3V169.1z"/>
	<path class="st2" d="M92.6,172.8c0,3.6-2,5.8-5.3,5.8c-3.3,0-5.3-2.2-5.3-5.8c0-3.5,2-5.8,5.3-5.8
		C90.6,167.1,92.6,169.3,92.6,172.8z M84.5,172.8c0,2.2,1,3.5,2.8,3.5c1.7,0,2.8-1.3,2.8-3.5c0-2.2-1.1-3.5-2.8-3.5
		C85.6,169.3,84.5,170.7,84.5,172.8z"/>
	<path class="st2" d="M104.9,178.2c0,0.2-0.1,0.3-0.3,0.3h-1.1c-0.2,0-0.3-0.1-0.3-0.2l-0.3-1c-0.1-0.2-0.2-0.3-0.5,0
		c-0.8,0.9-1.9,1.4-3.2,1.4c-3,0-4.8-2.2-4.8-5.8c0-3.6,1.9-5.8,5.1-5.8c0.8,0,1.4,0.1,2,0.4l0.7,0.3v-5.5c0-0.2,0.1-0.3,0.3-0.3h2
		c0.2,0,0.3,0.1,0.3,0.3V178.2z M101.7,169.7c-0.6-0.3-1.2-0.4-1.9-0.4c-1.7,0-2.8,1.3-2.8,3.5c0,2.2,1,3.5,2.7,3.5
		c1.7,0,2.6-1.4,2.6-3.4v-2.9L101.7,169.7z"/>
	<path class="st2" d="M115.8,177.3c-0.1-0.3-0.3-0.3-0.5,0c-0.9,1-2,1.4-3.2,1.4c-2.6,0-4.2-1.6-4.2-4.3v-6.8c0-0.2,0.1-0.3,0.3-0.3
		h2c0.2,0,0.3,0.1,0.3,0.3v6.5c0,1.4,0.8,2.3,2,2.3c1.7,0,2.7-1.2,2.7-3.5v-5.3c0-0.2,0.1-0.3,0.3-0.3h2c0.2,0,0.3,0.1,0.3,0.3v10.6
		c0,0.2-0.1,0.3-0.3,0.3h-1.1c-0.2,0-0.3-0.1-0.3-0.2L115.8,177.3z"/>
	<path class="st2" d="M127.8,178.4c-0.7,0.2-1.4,0.3-2.1,0.3c-3.5,0-5.4-2.2-5.4-5.8c0-3.6,1.9-5.8,5.5-5.8c0.6,0,1.3,0.1,2,0.3
		l1,0.3c0.2,0,0.2,0.2,0.2,0.3l-0.5,1.7c0,0.1-0.2,0.2-0.3,0.2l-0.8-0.2c-0.6-0.2-1.1-0.3-1.5-0.3c-2,0-3,1.3-3,3.5
		c0,2.2,1,3.5,2.9,3.5c0.5,0,1.1-0.1,1.7-0.3l0.8-0.2c0.2,0,0.3,0,0.3,0.2l0.5,1.7c0,0.2,0,0.3-0.2,0.3L127.8,178.4z"/>
	<path class="st2" d="M143,167.3c0.2,0,0.3,0.1,0.3,0.3v10.6c0,0.2-0.1,0.3-0.3,0.3h-2c-0.2,0-0.3-0.1-0.3-0.3v-8.6h-5.8v5.6
		c0,0.8,0.3,1.2,0.9,1.2c0.2,0,0.4,0,0.6-0.1c0.2-0.1,0.3,0,0.3,0.1l0.7,1.6c0.1,0.1,0,0.3-0.1,0.3c-0.4,0.2-1,0.4-1.6,0.4
		c-2.2,0-3.4-1.3-3.4-3.5v-5.6h-1.1c-0.2,0-0.3-0.1-0.3-0.3v-1.8c0-0.2,0.1-0.3,0.3-0.3h1.1v-2.6c0-0.1,0.1-0.2,0.2-0.3l2-0.7
		c0.2,0,0.3,0,0.3,0.2v3.4H143z M140.1,163.3c0-1,0.6-1.5,1.5-1.5c1,0,1.5,0.6,1.5,1.5c0,1-0.5,1.6-1.5,1.6
		C140.7,164.9,140.1,164.3,140.1,163.3z"/>
	<path class="st2" d="M156.3,172.8c0,3.6-2,5.8-5.3,5.8c-3.3,0-5.3-2.2-5.3-5.8c0-3.5,2-5.8,5.3-5.8
		C154.3,167.1,156.3,169.3,156.3,172.8z M148.3,172.8c0,2.2,1,3.5,2.8,3.5c1.7,0,2.8-1.3,2.8-3.5c0-2.2-1.1-3.5-2.8-3.5
		C149.3,169.3,148.3,170.7,148.3,172.8z"/>
	<path class="st2" d="M160.7,168.4c0.1,0.3,0.3,0.3,0.5,0c0.9-1,2-1.4,3.2-1.4c2.6,0,4.2,1.6,4.2,4.3v6.8c0,0.2-0.1,0.3-0.3,0.3h-2
		c-0.2,0-0.3-0.1-0.3-0.3v-6.5c0-1.4-0.8-2.3-2-2.3c-1.7,0-2.7,1.2-2.7,3.5v5.3c0,0.2-0.1,0.3-0.3,0.3h-2c-0.2,0-0.3-0.1-0.3-0.3
		v-10.6c0-0.2,0.1-0.3,0.3-0.3h1.1c0.2,0,0.3,0.1,0.3,0.2L160.7,168.4z"/>
</g>
</svg>
