<?xml version="1.0" encoding="utf-8"?>
<!-- Generator: Adobe Illustrator 24.1.2, SVG Export Plug-In . SVG Version: 6.00 Build 0)  -->
<svg version="1.1" id="Слой_1" xmlns="http://www.w3.org/2000/svg" xmlns:xlink="http://www.w3.org/1999/xlink" x="0px" y="0px"
	 viewBox="0 0 231.3 284.7" style="enable-background:new 0 0 231.3 284.7;" xml:space="preserve">
<style type="text/css">
	.st0{fill:#FFFFFF;}
	.st1{fill:#FFCE6D;}
	.st2{enable-background:new    ;}
</style>
<path class="st0" d="M220.3,152.8c0,61.8-49.3,111.8-110.1,111.8S0,214.6,0,152.8C0,98.2,86.1,19.1,106.1,1.5c2.3-2.1,5.8-2.1,8.2,0
	C134.1,19.1,220.3,98.2,220.3,152.8z"/>
<path class="st1" d="M231.3,208.7c0,41.8-33.4,75.8-74.6,75.8s-74.6-33.9-74.6-75.8c0-37,58.4-90.6,71.8-102.5
	c1.6-1.4,3.9-1.4,5.5,0C173,118.1,231.3,171.7,231.3,208.7z"/>
<g class="st2">
	<path d="M64.3,81.8c0.1,0.2,0.1,0.3,0,0.4c-0.7,1.2-1.2,2.1-1.7,3.4l-5.7,13.5c-0.1,0.1-0.2,0.2-0.3,0.2h-2.4
		c-0.2,0-0.3-0.1-0.2-0.3l5.4-12.6c0.3-0.7,0.6-1.3,1.1-2c0.2-0.3,0.1-0.4-0.3-0.4h-8.4c-0.2,0-0.3-0.1-0.3-0.3v-2
		c0-0.2,0.1-0.3,0.3-0.3h12.1c0.2,0,0.3,0.1,0.3,0.2L64.3,81.8z"/>
	<path d="M85.6,90.4c0,5.7-2.6,9.2-6.9,9.2c-4.3,0-6.8-3.5-6.8-9.2s2.6-9.2,6.8-9.2C83.1,81.2,85.6,84.8,85.6,90.4z M74.8,90.4
		c0,4.2,1.5,6.6,3.9,6.6c2.5,0,4-2.5,4-6.6c0-4.2-1.5-6.7-4-6.7C76.3,83.8,74.8,86.3,74.8,90.4z"/>
	<path d="M90.2,81.9c1.4-0.4,2.7-0.7,4.1-0.7c3.6,0,5.9,1.8,5.9,4.9c0,1.7-0.9,3-3,4.4l-4.1,2.7c-1.3,0.8-1.8,2.2-1.8,3.6h8.3
		c0.2,0,0.3,0.1,0.3,0.3v2c0,0.2-0.1,0.3-0.3,0.3H88.7c-0.2,0-0.3-0.1-0.3-0.3v-1.2c0-3.1,1-5.4,3.3-6.9l4-2.7
		c1-0.7,1.5-1.4,1.5-2.2c0-1.4-1.1-2.4-3-2.4c-1.2,0-2.3,0.2-3.2,0.5l-1.5,0.5c-0.2,0.1-0.3,0-0.3-0.2l-0.6-1.9
		c-0.1-0.2,0-0.3,0.2-0.3L90.2,81.9z"/>
	<path d="M110.4,94.3c0.4-0.6,0.9-1.2,1.3-1.6c0.2-0.3,0.1-0.5-0.3-0.3c-0.8,0.4-1.8,0.6-2.8,0.6c-3.2,0-5.7-2.2-5.7-5.8
		c0-3.7,2.4-5.9,6.6-5.9c4.2,0,6.6,2.3,6.6,6.2c0,2.9-0.8,4.9-3.3,8.2l-2.7,3.7c-0.1,0.1-0.2,0.2-0.3,0.2H107
		c-0.3,0-0.3-0.2-0.2-0.3L110.4,94.3z M105.9,87.1c0,2.1,1.4,3.3,3.7,3.3c2.3,0,3.7-1.3,3.7-3.3c0-2.1-1.4-3.4-3.7-3.4
		S105.9,85,105.9,87.1z"/>
	<path d="M135.1,83.8c-0.1,0.2-0.2,0.2-0.3,0.2h-6.7v2.7c0,0.4,0,1-0.1,1.4c-0.1,0.3,0.1,0.3,0.4,0.2l0.7-0.1
		c0.6-0.1,1.3-0.2,1.8-0.2c3.6,0,5.8,2.1,5.8,5.6c0,3.7-2.5,5.9-6.6,5.9c-1.6,0-2.9-0.3-4.1-0.7l-1.5-0.5c-0.2-0.1-0.3-0.2-0.2-0.4
		l0.7-1.9c0.1-0.2,0.2-0.2,0.4-0.2l1.4,0.5c1.1,0.3,2.3,0.5,3.3,0.5c2.3,0,3.6-1.3,3.7-3.4c0-1.9-1.1-3.1-3.4-3.1
		c-0.5,0-1.4,0.1-2.2,0.2l-2.3,0.3c-0.2,0-0.3,0-0.4-0.1l-0.2-0.2c-0.1-0.1-0.2-0.2-0.2-0.3v-8.8c0-0.2,0.1-0.3,0.3-0.3h9.9
		c0.2,0,0.3,0.1,0.2,0.3L135.1,83.8z"/>
	<path d="M152.1,86c0,1.7-0.9,3.1-2.6,3.7c-0.3,0.1-0.3,0.3,0,0.4c1.9,0.7,3.2,2.2,3.2,4.4c0,3.2-2.5,5.2-6.6,5.2
		c-4.1,0-6.6-2-6.6-5.2c0-2.2,1.3-3.7,3.2-4.4c0.3-0.1,0.3-0.3,0-0.4c-1.7-0.7-2.6-2-2.6-3.7c0-2.9,2.3-4.7,6-4.7S152.1,83,152.1,86
		z M142.5,94.2c0,1.8,1.4,2.8,3.7,2.8c2.3,0,3.7-1,3.7-2.8c0-1.8-1.5-3-3.7-3S142.5,92.4,142.5,94.2z M143,86.3
		c0,1.5,1.2,2.4,3.1,2.4c1.9,0,3.1-0.9,3.1-2.4c0-1.6-1.2-2.5-3.1-2.5C144.2,83.8,143,84.7,143,86.3z"/>
	<path d="M161.2,86.6c-0.4,0.6-0.9,1.2-1.3,1.6c-0.2,0.3-0.1,0.5,0.3,0.3c0.8-0.4,1.8-0.6,2.8-0.6c3.2,0,5.7,2.2,5.7,5.8
		c0,3.7-2.4,5.9-6.6,5.9c-4.2,0-6.6-2.3-6.6-6.2c0-2.9,0.8-4.9,3.3-8.2l2.7-3.7c0.1-0.1,0.2-0.2,0.3-0.2h2.7c0.3,0,0.3,0.2,0.2,0.3
		L161.2,86.6z M165.7,93.7c0-2.1-1.4-3.3-3.7-3.3c-2.3,0-3.7,1.3-3.7,3.3c0,2.1,1.4,3.4,3.7,3.4S165.7,95.8,165.7,93.7z"/>
</g>
<g class="st2">
	<path d="M102.9,180.2c1.2-0.4,2.4-0.6,3.7-0.6c3.6,0,5.8,1.8,5.8,4.9c0,1.8-0.7,2.9-2.3,3.6c-0.3,0.1-0.3,0.3,0,0.4
		c1.9,0.8,2.8,2.4,2.8,4.4c0,3.2-2.4,5.2-6.4,5.2c-1.5,0-2.8-0.3-4-0.7l-1.5-0.5c-0.2-0.1-0.3-0.2-0.2-0.4l0.7-1.9
		c0.1-0.2,0.2-0.2,0.4-0.2l1.5,0.5c1,0.3,2.2,0.5,3.2,0.5c2.2,0,3.5-1.1,3.5-2.9c0-1.8-1.3-2.9-3.4-2.9h-1.2c-0.2,0-0.3-0.1-0.3-0.3
		v-2c0-0.2,0.1-0.3,0.3-0.3h1.2c1.8,0,2.9-0.9,2.9-2.4c0-1.6-1.2-2.6-2.9-2.6c-1.1,0-2,0.2-2.9,0.5l-1.3,0.4c-0.2,0.1-0.3,0-0.4-0.2
		l-0.6-1.9c-0.1-0.2,0-0.3,0.2-0.4L102.9,180.2z"/>
	<path d="M134.5,192.9c0,0.2-0.1,0.3-0.3,0.3h-1.6v4.3c0,0.2-0.1,0.3-0.3,0.3H130c-0.2,0-0.3-0.1-0.3-0.3v-4.3h-8.6
		c-0.2,0-0.3-0.1-0.3-0.3v-2.2c0-0.2,0-0.3,0.1-0.4c0.6-0.7,1.2-1.4,1.8-2.3l4.7-6.1c0.5-0.6,0.9-1.3,1.3-2c0.1-0.1,0.2-0.2,0.4-0.2
		h3.1c0.2,0,0.3,0.1,0.3,0.3v10.5h1.6c0.2,0,0.3,0.1,0.3,0.3V192.9z M129.7,186.2c0-0.8,0.1-1.6,0.2-2.5c0.1-0.3-0.2-0.4-0.4-0.1
		l-4.2,5.3c-0.3,0.5-0.8,1-1.2,1.4c-0.2,0.2-0.1,0.4,0.1,0.4h5.4V186.2z"/>
	<path d="M147.9,182.2c-0.1,0.2-0.2,0.2-0.3,0.2h-6.7v2.7c0,0.4,0,1-0.1,1.4c-0.1,0.3,0.1,0.3,0.4,0.2l0.7-0.1
		c0.6-0.1,1.3-0.2,1.8-0.2c3.6,0,5.8,2.1,5.8,5.6c0,3.7-2.5,5.9-6.6,5.9c-1.6,0-2.9-0.3-4.1-0.7l-1.5-0.5c-0.2-0.1-0.3-0.2-0.2-0.4
		l0.7-1.9c0.1-0.2,0.2-0.2,0.4-0.2l1.4,0.5c1.1,0.3,2.3,0.5,3.3,0.5c2.3,0,3.6-1.3,3.7-3.4c0-1.9-1.1-3.1-3.4-3.1
		c-0.5,0-1.4,0.1-2.2,0.2l-2.3,0.3c-0.2,0-0.3,0-0.4-0.1l-0.2-0.2c-0.1-0.1-0.2-0.2-0.2-0.3v-8.8c0-0.2,0.1-0.3,0.3-0.3h9.9
		c0.2,0,0.3,0.1,0.2,0.3L147.9,182.2z"/>
	<path d="M155.3,197.8c-0.2,0-0.3-0.1-0.3-0.3v-12c0-0.7,0.1-1.4,0.1-1.8c0-0.2-0.1-0.3-0.2-0.3c-0.1,0-0.1,0-0.2,0
		c-0.1,0.1-0.2,0.1-0.3,0.2l-1.7,0.7c-0.2,0.1-0.3,0-0.4-0.2l-0.7-1.9c-0.1-0.2,0-0.3,0.2-0.4l5.3-2.3c0.2-0.1,0.3,0,0.4,0.1
		l0.2,0.1c0.1,0.1,0.2,0.2,0.2,0.3v17.3c0,0.2-0.1,0.3-0.3,0.3H155.3z"/>
	<path d="M180.2,188.8c0,5.7-2.6,9.2-6.9,9.2c-4.3,0-6.8-3.5-6.8-9.2s2.6-9.2,6.8-9.2C177.6,179.6,180.2,183.1,180.2,188.8z
		 M169.4,188.8c0,4.2,1.5,6.6,3.9,6.6c2.5,0,4-2.5,4-6.6c0-4.2-1.5-6.7-4-6.7C170.9,182.2,169.4,184.7,169.4,188.8z"/>
	<path d="M190.2,192.7c0.4-0.6,0.9-1.2,1.3-1.6c0.2-0.3,0.1-0.5-0.3-0.3c-0.8,0.4-1.8,0.6-2.8,0.6c-3.2,0-5.7-2.2-5.7-5.8
		c0-3.7,2.4-5.9,6.6-5.9c4.2,0,6.6,2.3,6.6,6.2c0,2.9-0.8,4.9-3.3,8.2l-2.7,3.7c-0.1,0.1-0.2,0.2-0.3,0.2h-2.7
		c-0.3,0-0.3-0.2-0.2-0.3L190.2,192.7z M185.7,185.5c0,2.1,1.4,3.3,3.7,3.3c2.3,0,3.7-1.3,3.7-3.3c0-2.1-1.4-3.4-3.7-3.4
		S185.7,183.4,185.7,185.5z"/>
	<path d="M212.4,188.8c0,5.7-2.6,9.2-6.9,9.2c-4.3,0-6.8-3.5-6.8-9.2s2.6-9.2,6.8-9.2C209.8,179.6,212.4,183.1,212.4,188.8z
		 M201.6,188.8c0,4.2,1.5,6.6,3.9,6.6c2.5,0,4-2.5,4-6.6c0-4.2-1.5-6.7-4-6.7C203.1,182.2,201.6,184.7,201.6,188.8z"/>
</g>
<g class="st2">
	<path d="M107.3,219.5c-0.7,0.2-1.4,0.3-2.2,0.3c-2.8,0-4.5-2-4.5-5.1c0-3.1,1.7-5.1,4.5-5.1c2.3,0,3.7,1.1,3.7,3
		c0,1.4-0.9,2.3-2.7,2.6l-4,0.7c0.3,1.7,1.4,2.7,3.1,2.7c0.7,0,1.3-0.1,1.9-0.3l0.6-0.2c0.1,0,0.2,0,0.2,0.1l0.2,0.8
		c0,0.1,0,0.2-0.1,0.2L107.3,219.5z M105.8,214.1c1.1-0.2,1.6-0.7,1.6-1.4c0-1.1-0.9-1.8-2.4-1.8c-1.9,0-3.1,1.3-3.1,3.9
		L105.8,214.1z"/>
	<path d="M116.3,214c-0.2,0.3-0.4,0.5-0.6,0.6c0,0-0.1,0-0.1,0.1c0,0.1,0.1,0.1,0.2,0.1c0.1,0.1,0.3,0.3,0.5,0.6l2.8,4.1
		c0.1,0.1,0,0.2-0.1,0.2h-1.1c-0.1,0-0.2,0-0.2-0.1l-2.6-3.8c-0.1-0.1-0.2-0.1-0.3,0l-2.6,3.8c-0.1,0.1-0.1,0.1-0.2,0.1h-1.1
		c-0.1,0-0.2-0.1-0.1-0.2l2.8-4.1c0.2-0.3,0.3-0.5,0.5-0.6c0.1,0,0.1-0.1,0.1-0.1c0,0,0-0.1-0.1-0.1c-0.2-0.1-0.3-0.3-0.6-0.6
		l-2.7-3.9c-0.1-0.1,0-0.2,0.1-0.2h1.1c0.1,0,0.2,0,0.2,0.1l2.6,3.7c0.1,0.1,0.1,0.1,0.2,0.1c0.1,0,0.1-0.1,0.1-0.2l2.5-3.6
		c0.1-0.1,0.1-0.1,0.2-0.1h1.1c0.1,0,0.2,0.1,0.1,0.2L116.3,214z"/>
	<path d="M122.9,211.2c0,0.2,0.2,0.2,0.3,0c0.8-1.1,1.8-1.6,3.1-1.6c2.6,0,4.2,1.9,4.2,5.1c0,3.2-1.6,5.1-4.4,5.1
		c-0.9,0-1.6-0.1-2.3-0.5l-0.6-0.3v4.7c0,0.1-0.1,0.2-0.2,0.2h-1c-0.1,0-0.2-0.1-0.2-0.2V210c0-0.1,0.1-0.2,0.2-0.2h0.6
		c0.1,0,0.2,0.1,0.2,0.2L122.9,211.2z M123.9,218.2c0.6,0.3,1.3,0.4,2.1,0.4c2,0,3.1-1.5,3.1-3.9c0-2.4-1.1-3.9-3-3.9
		c-2,0-3.1,1.8-3.1,4.1v2.8L123.9,218.2z"/>
	<path d="M141.5,214.7c0,3.2-1.7,5.1-4.5,5.1c-2.8,0-4.5-2-4.5-5.1c0-3.1,1.7-5.1,4.5-5.1C139.8,209.6,141.5,211.6,141.5,214.7z
		 M133.9,214.7c0,2.4,1.2,3.9,3.1,3.9c2,0,3.2-1.5,3.2-3.9c0-2.4-1.2-3.9-3.2-3.9C135,210.8,133.9,212.3,133.9,214.7z"/>
	<path d="M149.1,210.7c0,0.1-0.1,0.2-0.2,0.2c-2.2,0.1-3.4,1.9-3.4,5.4v3.2c0,0.1-0.1,0.2-0.2,0.2h-1c-0.1,0-0.2-0.1-0.2-0.2V210
		c0-0.1,0.1-0.2,0.2-0.2h0.6c0.1,0,0.2,0.1,0.2,0.2l0.1,1.5c0,0.2,0.2,0.2,0.3,0c0.8-1.2,1.8-1.9,3.3-2c0.1,0,0.2,0.1,0.2,0.2V210.7
		z"/>
	<path d="M156,209.8c0.1,0,0.2,0.1,0.2,0.2v0.8c0,0.1-0.1,0.2-0.2,0.2h-2.3v6.2c0,0.9,0.4,1.4,1.1,1.4c0.2,0,0.3,0,0.5-0.1
		c0.1,0,0.2,0,0.2,0.1l0.3,0.8c0,0.1,0,0.2-0.1,0.2c-0.3,0.1-0.7,0.2-1,0.2c-1.5,0-2.4-0.9-2.4-2.6V211h-0.9c-0.1,0-0.2-0.1-0.2-0.2
		V210c0-0.1,0.1-0.2,0.2-0.2h0.9v-2.5c0-0.1,0-0.2,0.1-0.2l1-0.3c0.1,0,0.2,0,0.2,0.2v2.8H156z"/>
</g>
<g class="st2">
	<path d="M56.1,113c0.1,0,0.2,0.1,0.2,0.2v0.8c0,0.1-0.1,0.2-0.2,0.2h-2.3v6.2c0,0.9,0.4,1.4,1.1,1.4c0.2,0,0.3,0,0.5-0.1
		c0.1,0,0.2,0,0.2,0.1l0.3,0.8c0,0.1,0,0.2-0.1,0.2c-0.3,0.1-0.7,0.2-1,0.2c-1.5,0-2.4-0.9-2.4-2.6v-6.2h-0.9
		c-0.1,0-0.2-0.1-0.2-0.2v-0.8c0-0.1,0.1-0.2,0.2-0.2h0.9v-2.5c0-0.1,0-0.2,0.1-0.2l1-0.3c0.1,0,0.2,0,0.2,0.2v2.8H56.1z"/>
	<path d="M66.9,117.9c0,3.2-1.7,5.1-4.5,5.1c-2.8,0-4.5-2-4.5-5.1c0-3.1,1.7-5.1,4.5-5.1C65.2,112.8,66.9,114.7,66.9,117.9z
		 M59.3,117.9c0,2.4,1.2,3.9,3.1,3.9s3.2-1.5,3.2-3.9c0-2.4-1.2-3.9-3.2-3.9S59.3,115.5,59.3,117.9z"/>
	<path d="M73.6,113c0.1,0,0.2,0.1,0.2,0.2v0.8c0,0.1-0.1,0.2-0.2,0.2h-2.3v6.2c0,0.9,0.4,1.4,1.1,1.4c0.2,0,0.3,0,0.5-0.1
		c0.1,0,0.2,0,0.2,0.1l0.3,0.8c0,0.1,0,0.2-0.1,0.2c-0.3,0.1-0.7,0.2-1,0.2c-1.5,0-2.4-0.9-2.4-2.6v-6.2h-0.9
		c-0.1,0-0.2-0.1-0.2-0.2v-0.8c0-0.1,0.1-0.2,0.2-0.2H70v-2.5c0-0.1,0-0.2,0.1-0.2l1-0.3c0.1,0,0.2,0,0.2,0.2v2.8H73.6z"/>
	<path d="M77.2,113.1c0.6-0.2,1.3-0.3,2.2-0.3c2.5,0,4.1,1.5,4.1,4v5.9c0,0.1-0.1,0.2-0.2,0.2h-0.6c-0.1,0-0.2-0.1-0.2-0.2l-0.1-0.9
		c-0.1-0.3-0.2-0.2-0.4,0c-0.7,0.9-1.7,1.3-3.3,1.3c-2.1,0-3.3-1.1-3.3-3c0-1.8,1.3-3,3.6-3h3.1v-0.3c0-1.7-1-2.7-2.7-2.7
		c-0.7,0-1.4,0.1-1.9,0.2l-0.7,0.2c-0.1,0-0.2,0-0.2-0.1l-0.2-0.8c0-0.1,0-0.2,0.1-0.2L77.2,113.1z M79,118.2
		c-1.6,0-2.3,0.7-2.3,1.8c0,1.1,0.7,1.8,2,1.8c2.1,0,3.3-1.2,3.3-3.3v-0.3H79z"/>
	<path d="M87.8,121c0,0.5,0.2,0.7,0.5,0.7c0.1,0,0.1,0,0.2,0c0.1,0,0.2,0,0.2,0.1l0.3,0.8c0,0.1,0,0.2-0.1,0.2
		c-0.2,0.1-0.4,0.1-0.7,0.1c-1.2,0-1.9-0.7-1.9-2v-12.5c0-0.1,0.1-0.2,0.2-0.2h1c0.1,0,0.2,0.1,0.2,0.2V121z"/>
</g>
</svg>
