<?xml version="1.0" encoding="utf-8"?>
<!-- Generator: Adobe Illustrator 24.1.2, SVG Export Plug-In . SVG Version: 6.00 Build 0)  -->
<svg version="1.1" id="Слой_1" xmlns="http://www.w3.org/2000/svg" xmlns:xlink="http://www.w3.org/1999/xlink" x="0px" y="0px"
	 viewBox="0 0 305.8 364.1" style="enable-background:new 0 0 305.8 364.1;" xml:space="preserve">
<style type="text/css">
	.st0{fill:#FFFFFF;}
	.st1{fill:#FFCE6D;}
	.st2{enable-background:new    ;}
</style>
<path class="st0" d="M283.8,196.9c0,79.6-63.5,144.1-141.9,144.1S0,276.5,0,196.9C0,126.5,111,24.6,136.7,2c3-2.6,7.5-2.6,10.5,0
	C172.8,24.6,283.8,126.5,283.8,196.9z"/>
<path class="st1" d="M305.9,259.3c0,57.7-46.1,104.5-102.9,104.5S100,317,100,259.3c0-51.1,80.5-125,99.1-141.4
	c2.2-1.9,5.4-1.9,7.6,0C225.4,134.3,305.9,208.2,305.9,259.3z"/>
<g class="st2">
	<path d="M99.4,88.7c0,1.7-0.9,3.1-2.6,3.7c-0.3,0.1-0.3,0.3,0,0.4c1.9,0.7,3.2,2.2,3.2,4.4c0,3.2-2.5,5.2-6.6,5.2
		c-4.1,0-6.6-2-6.6-5.2c0-2.2,1.3-3.7,3.2-4.4c0.3-0.1,0.3-0.3,0-0.4c-1.7-0.7-2.6-2-2.6-3.7c0-2.9,2.3-4.7,6-4.7
		S99.4,85.8,99.4,88.7z M89.8,97c0,1.8,1.4,2.8,3.7,2.8c2.3,0,3.7-1,3.7-2.8c0-1.8-1.5-3-3.7-3S89.8,95.1,89.8,97z M90.3,89
		c0,1.5,1.2,2.4,3.1,2.4c1.9,0,3.1-0.9,3.1-2.4c0-1.6-1.2-2.5-3.1-2.5C91.5,86.5,90.3,87.4,90.3,89z"/>
	<path d="M110.2,84.6c1.2-0.4,2.4-0.6,3.7-0.6c3.6,0,5.8,1.8,5.8,4.9c0,1.8-0.7,2.9-2.3,3.6c-0.3,0.1-0.3,0.3,0,0.4
		c1.9,0.8,2.8,2.4,2.8,4.4c0,3.2-2.4,5.2-6.4,5.2c-1.5,0-2.8-0.3-4-0.7l-1.5-0.5c-0.2-0.1-0.3-0.2-0.2-0.4l0.7-1.9
		c0.1-0.2,0.2-0.2,0.4-0.2l1.5,0.5c1,0.3,2.2,0.5,3.2,0.5c2.2,0,3.5-1.1,3.5-2.9c0-1.8-1.3-2.9-3.4-2.9h-1.2c-0.2,0-0.3-0.1-0.3-0.3
		v-2c0-0.2,0.1-0.3,0.3-0.3h1.2c1.8,0,2.9-0.9,2.9-2.4c0-1.6-1.2-2.6-2.9-2.6c-1.1,0-2,0.2-2.9,0.5l-1.3,0.4c-0.2,0.1-0.3,0-0.4-0.2
		l-0.6-1.9c-0.1-0.2,0-0.3,0.2-0.4L110.2,84.6z"/>
	<path d="M126.1,102.1c-0.2,0-0.3-0.1-0.3-0.3v-12c0-0.7,0.1-1.4,0.1-1.8c0-0.2-0.1-0.3-0.2-0.3c-0.1,0-0.1,0-0.2,0
		c-0.1,0.1-0.2,0.1-0.3,0.2l-1.7,0.7c-0.2,0.1-0.3,0-0.4-0.2l-0.7-1.9c-0.1-0.2,0-0.3,0.2-0.4L128,84c0.2-0.1,0.3,0,0.4,0.1l0.2,0.1
		c0.1,0.1,0.2,0.2,0.2,0.3v17.3c0,0.2-0.1,0.3-0.3,0.3H126.1z"/>
	<path d="M142.9,86.5c-0.1,0.2-0.2,0.2-0.3,0.2h-6.7v2.7c0,0.4,0,1-0.1,1.4c-0.1,0.3,0.1,0.3,0.4,0.2l0.7-0.1
		c0.6-0.1,1.3-0.2,1.8-0.2c3.6,0,5.8,2.1,5.8,5.6c0,3.7-2.5,5.9-6.6,5.9c-1.6,0-2.9-0.3-4.1-0.7l-1.5-0.5c-0.2-0.1-0.3-0.2-0.2-0.4
		l0.7-1.9c0.1-0.2,0.2-0.2,0.4-0.2l1.4,0.5c1.1,0.3,2.3,0.5,3.3,0.5c2.3,0,3.6-1.3,3.7-3.4c0-1.9-1.1-3.1-3.4-3.1
		c-0.5,0-1.4,0.1-2.2,0.2l-2.3,0.3c-0.2,0-0.3,0-0.4-0.1l-0.2-0.2c-0.1-0.1-0.2-0.2-0.2-0.3v-8.8c0-0.2,0.1-0.3,0.3-0.3h9.9
		c0.2,0,0.3,0.1,0.2,0.3L142.9,86.5z"/>
	<path d="M165.2,88.7c0,1.7-0.9,3.1-2.6,3.7c-0.3,0.1-0.3,0.3,0,0.4c1.9,0.7,3.2,2.2,3.2,4.4c0,3.2-2.5,5.2-6.6,5.2
		c-4.1,0-6.6-2-6.6-5.2c0-2.2,1.3-3.7,3.2-4.4c0.3-0.1,0.3-0.3,0-0.4c-1.7-0.7-2.6-2-2.6-3.7c0-2.9,2.3-4.7,6-4.7
		S165.2,85.8,165.2,88.7z M155.6,97c0,1.8,1.4,2.8,3.7,2.8c2.3,0,3.7-1,3.7-2.8c0-1.8-1.5-3-3.7-3S155.6,95.1,155.6,97z M156.1,89
		c0,1.5,1.2,2.4,3.1,2.4c1.9,0,3.1-0.9,3.1-2.4c0-1.6-1.2-2.5-3.1-2.5C157.3,86.5,156.1,87.4,156.1,89z"/>
	<path d="M181.2,88.7c0,1.7-0.9,3.1-2.6,3.7c-0.3,0.1-0.3,0.3,0,0.4c1.9,0.7,3.2,2.2,3.2,4.4c0,3.2-2.5,5.2-6.6,5.2
		c-4.1,0-6.6-2-6.6-5.2c0-2.2,1.3-3.7,3.2-4.4c0.3-0.1,0.3-0.3,0-0.4c-1.7-0.7-2.6-2-2.6-3.7c0-2.9,2.3-4.7,6-4.7
		S181.2,85.8,181.2,88.7z M171.6,97c0,1.8,1.4,2.8,3.7,2.8c2.3,0,3.7-1,3.7-2.8c0-1.8-1.5-3-3.7-3S171.6,95.1,171.6,97z M172.1,89
		c0,1.5,1.2,2.4,3.1,2.4c1.9,0,3.1-0.9,3.1-2.4c0-1.6-1.2-2.5-3.1-2.5C173.3,86.5,172.1,87.4,172.1,89z"/>
	<path d="M186.7,84.6c1.4-0.4,2.7-0.7,4.1-0.7c3.6,0,5.9,1.8,5.9,4.9c0,1.7-0.9,3-3,4.4l-4.1,2.7c-1.3,0.8-1.8,2.2-1.8,3.6h8.3
		c0.2,0,0.3,0.1,0.3,0.3v2c0,0.2-0.1,0.3-0.3,0.3h-10.9c-0.2,0-0.3-0.1-0.3-0.3v-1.2c0-3.1,1-5.4,3.3-6.9l4-2.7
		c1-0.7,1.5-1.4,1.5-2.2c0-1.4-1.1-2.4-3-2.4c-1.2,0-2.3,0.2-3.2,0.5l-1.5,0.5c-0.2,0.1-0.3,0-0.3-0.2l-0.6-1.9
		c-0.1-0.2,0-0.3,0.2-0.3L186.7,84.6z"/>
</g>
<g class="st2">
	<path d="M159.1,225.9c-0.1,0.2-0.2,0.2-0.3,0.2h-6.7v2.7c0,0.4,0,1-0.1,1.4c-0.1,0.3,0.1,0.3,0.4,0.2l0.7-0.1
		c0.6-0.1,1.3-0.2,1.8-0.2c3.6,0,5.8,2.1,5.8,5.6c0,3.7-2.5,5.9-6.6,5.9c-1.6,0-2.9-0.3-4.1-0.7l-1.5-0.5c-0.2-0.1-0.3-0.2-0.2-0.4
		l0.7-1.9c0.1-0.2,0.2-0.2,0.4-0.2l1.4,0.5c1.1,0.3,2.3,0.5,3.3,0.5c2.3,0,3.6-1.3,3.7-3.4c0-1.9-1.1-3.1-3.4-3.1
		c-0.5,0-1.4,0.1-2.2,0.2l-2.3,0.3c-0.2,0-0.3,0-0.4-0.1l-0.2-0.2c-0.1-0.1-0.2-0.2-0.2-0.3v-8.8c0-0.2,0.1-0.3,0.3-0.3h9.9
		c0.2,0,0.3,0.1,0.2,0.3L159.1,225.9z"/>
	<path d="M181.5,223.9c0.1,0.2,0.1,0.3,0,0.4c-0.7,1.2-1.2,2.1-1.7,3.4l-5.7,13.5c-0.1,0.1-0.2,0.2-0.3,0.2h-2.4
		c-0.2,0-0.3-0.1-0.2-0.3l5.4-12.6c0.3-0.7,0.6-1.3,1.1-2c0.2-0.3,0.1-0.4-0.3-0.4h-8.4c-0.2,0-0.3-0.1-0.3-0.3v-2
		c0-0.2,0.1-0.3,0.3-0.3h12.1c0.2,0,0.3,0.1,0.3,0.2L181.5,223.9z"/>
	<path d="M194.3,225.9c-0.1,0.2-0.2,0.2-0.3,0.2h-6.7v2.7c0,0.4,0,1-0.1,1.4c-0.1,0.3,0.1,0.3,0.4,0.2l0.7-0.1
		c0.6-0.1,1.3-0.2,1.8-0.2c3.6,0,5.8,2.1,5.8,5.6c0,3.7-2.5,5.9-6.6,5.9c-1.6,0-2.9-0.3-4.1-0.7l-1.5-0.5c-0.2-0.1-0.3-0.2-0.2-0.4
		l0.7-1.9c0.1-0.2,0.2-0.2,0.4-0.2l1.4,0.5c1.1,0.3,2.3,0.5,3.3,0.5c2.3,0,3.6-1.3,3.7-3.4c0-1.9-1.1-3.1-3.4-3.1
		c-0.5,0-1.4,0.1-2.2,0.2l-2.3,0.3c-0.2,0-0.3,0-0.4-0.1l-0.2-0.2c-0.1-0.1-0.2-0.2-0.2-0.3v-8.8c0-0.2,0.1-0.3,0.3-0.3h9.9
		c0.2,0,0.3,0.1,0.2,0.3L194.3,225.9z"/>
	<path d="M209.5,225.9c-0.1,0.2-0.2,0.2-0.3,0.2h-6.7v2.7c0,0.4,0,1-0.1,1.4c-0.1,0.3,0.1,0.3,0.4,0.2l0.7-0.1
		c0.6-0.1,1.3-0.2,1.8-0.2c3.6,0,5.8,2.1,5.8,5.6c0,3.7-2.5,5.9-6.6,5.9c-1.6,0-2.9-0.3-4.1-0.7l-1.5-0.5c-0.2-0.1-0.3-0.2-0.2-0.4
		l0.7-1.9c0.1-0.2,0.2-0.2,0.4-0.2l1.4,0.5c1.1,0.3,2.3,0.5,3.3,0.5c2.3,0,3.6-1.3,3.7-3.4c0-1.9-1.1-3.1-3.4-3.1
		c-0.5,0-1.4,0.1-2.2,0.2l-2.3,0.3c-0.2,0-0.3,0-0.4-0.1l-0.2-0.2c-0.1-0.1-0.2-0.2-0.2-0.3v-8.8c0-0.2,0.1-0.3,0.3-0.3h9.9
		c0.2,0,0.3,0.1,0.2,0.3L209.5,225.9z"/>
	<path d="M225,228.6c-0.4,0.6-0.9,1.2-1.3,1.6c-0.2,0.3-0.1,0.5,0.3,0.3c0.8-0.4,1.8-0.6,2.8-0.6c3.2,0,5.7,2.2,5.7,5.8
		c0,3.7-2.4,5.9-6.6,5.9c-4.2,0-6.6-2.3-6.6-6.2c0-2.9,0.8-4.9,3.3-8.2l2.7-3.7c0.1-0.1,0.2-0.2,0.3-0.2h2.7c0.3,0,0.3,0.2,0.2,0.3
		L225,228.6z M229.5,235.8c0-2.1-1.4-3.3-3.7-3.3c-2.3,0-3.7,1.3-3.7,3.3c0,2.1,1.4,3.4,3.7,3.4S229.5,237.9,229.5,235.8z"/>
	<path d="M240.8,228.6c-0.4,0.6-0.9,1.2-1.3,1.6c-0.2,0.3-0.1,0.5,0.3,0.3c0.8-0.4,1.8-0.6,2.8-0.6c3.2,0,5.7,2.2,5.7,5.8
		c0,3.7-2.4,5.9-6.6,5.9c-4.2,0-6.6-2.3-6.6-6.2c0-2.9,0.8-4.9,3.3-8.2l2.7-3.7c0.1-0.1,0.2-0.2,0.3-0.2h2.7c0.3,0,0.3,0.2,0.2,0.3
		L240.8,228.6z M245.3,235.8c0-2.1-1.4-3.3-3.7-3.3c-2.3,0-3.7,1.3-3.7,3.3c0,2.1,1.4,3.4,3.7,3.4S245.3,237.9,245.3,235.8z"/>
	<path d="M253.3,241.5c-0.2,0-0.3-0.1-0.3-0.3v-12c0-0.7,0.1-1.4,0.1-1.8c0-0.2-0.1-0.3-0.2-0.3c-0.1,0-0.1,0-0.2,0
		c-0.1,0.1-0.2,0.1-0.3,0.2l-1.7,0.7c-0.2,0.1-0.3,0-0.4-0.2l-0.7-1.9c-0.1-0.2,0-0.3,0.2-0.4l5.3-2.3c0.2-0.1,0.3,0,0.4,0.1
		l0.2,0.1c0.1,0.1,0.2,0.2,0.2,0.3v17.3c0,0.2-0.1,0.3-0.3,0.3H253.3z"/>
</g>
<g class="st2">
	<path d="M154.7,264.7c-0.7,0.2-1.4,0.3-2.2,0.3c-2.8,0-4.5-2-4.5-5.1c0-3.1,1.7-5.1,4.5-5.1c2.3,0,3.7,1.1,3.7,3
		c0,1.4-0.9,2.3-2.7,2.6l-4,0.7c0.3,1.7,1.4,2.7,3.1,2.7c0.7,0,1.3-0.1,1.9-0.3l0.6-0.2c0.1,0,0.2,0,0.2,0.1l0.2,0.8
		c0,0.1,0,0.2-0.1,0.2L154.7,264.7z M153.2,259.3c1.1-0.2,1.6-0.7,1.6-1.4c0-1.1-0.9-1.8-2.4-1.8c-1.9,0-3.1,1.3-3.1,3.9
		L153.2,259.3z"/>
	<path d="M163.6,259.1c-0.2,0.3-0.4,0.5-0.6,0.6c0,0-0.1,0-0.1,0.1c0,0.1,0.1,0.1,0.2,0.1c0.1,0.1,0.3,0.3,0.5,0.6l2.8,4.1
		c0.1,0.1,0,0.2-0.1,0.2h-1.1c-0.1,0-0.2,0-0.2-0.1l-2.6-3.8c-0.1-0.1-0.2-0.1-0.3,0l-2.6,3.8c-0.1,0.1-0.1,0.1-0.2,0.1h-1.1
		c-0.1,0-0.2-0.1-0.1-0.2l2.8-4.1c0.2-0.3,0.3-0.5,0.5-0.6c0.1,0,0.1-0.1,0.1-0.1c0,0,0-0.1-0.1-0.1c-0.2-0.1-0.3-0.3-0.6-0.6
		l-2.7-3.9c-0.1-0.1,0-0.2,0.1-0.2h1.1c0.1,0,0.2,0,0.2,0.1l2.6,3.7c0.1,0.1,0.1,0.1,0.2,0.1c0.1,0,0.1-0.1,0.1-0.2l2.5-3.6
		c0.1-0.1,0.1-0.1,0.2-0.1h1.1c0.1,0,0.2,0.1,0.1,0.2L163.6,259.1z"/>
	<path d="M170.2,256.4c0,0.2,0.2,0.2,0.3,0c0.8-1.1,1.8-1.6,3.1-1.6c2.6,0,4.2,1.9,4.2,5.1c0,3.2-1.6,5.1-4.4,5.1
		c-0.9,0-1.6-0.1-2.3-0.5l-0.6-0.3v4.7c0,0.1-0.1,0.2-0.2,0.2h-1c-0.1,0-0.2-0.1-0.2-0.2v-13.8c0-0.1,0.1-0.2,0.2-0.2h0.6
		c0.1,0,0.2,0.1,0.2,0.2L170.2,256.4z M171.3,263.3c0.6,0.3,1.3,0.4,2.1,0.4c2,0,3.1-1.5,3.1-3.9c0-2.4-1.1-3.9-3-3.9
		c-2,0-3.1,1.8-3.1,4.1v2.8L171.3,263.3z"/>
	<path d="M188.8,259.9c0,3.2-1.7,5.1-4.5,5.1c-2.8,0-4.5-2-4.5-5.1c0-3.1,1.7-5.1,4.5-5.1C187.1,254.8,188.8,256.7,188.8,259.9z
		 M181.2,259.9c0,2.4,1.2,3.9,3.1,3.9c2,0,3.2-1.5,3.2-3.9c0-2.4-1.2-3.9-3.2-3.9C182.4,256,181.2,257.4,181.2,259.9z"/>
	<path d="M196.4,255.8c0,0.1-0.1,0.2-0.2,0.2c-2.2,0.1-3.4,1.9-3.4,5.4v3.2c0,0.1-0.1,0.2-0.2,0.2h-1c-0.1,0-0.2-0.1-0.2-0.2v-9.4
		c0-0.1,0.1-0.2,0.2-0.2h0.6c0.1,0,0.2,0.1,0.2,0.2l0.1,1.5c0,0.2,0.2,0.2,0.3,0c0.8-1.2,1.8-1.9,3.3-2c0.1,0,0.2,0.1,0.2,0.2V255.8
		z"/>
	<path d="M203.3,255c0.1,0,0.2,0.1,0.2,0.2v0.8c0,0.1-0.1,0.2-0.2,0.2h-2.3v6.2c0,0.9,0.4,1.4,1.1,1.4c0.2,0,0.3,0,0.5-0.1
		c0.1,0,0.2,0,0.2,0.1l0.3,0.8c0,0.1,0,0.2-0.1,0.2c-0.3,0.1-0.7,0.2-1,0.2c-1.5,0-2.4-0.9-2.4-2.6v-6.2h-0.9
		c-0.1,0-0.2-0.1-0.2-0.2v-0.8c0-0.1,0.1-0.2,0.2-0.2h0.9v-2.5c0-0.1,0-0.2,0.1-0.2l1-0.3c0.1,0,0.2,0,0.2,0.2v2.8H203.3z"/>
</g>
<g class="st2">
	<path d="M88.5,116.7c0.1,0,0.2,0.1,0.2,0.2v0.8c0,0.1-0.1,0.2-0.2,0.2h-2.3v6.2c0,0.9,0.4,1.4,1.1,1.4c0.2,0,0.3,0,0.5-0.1
		c0.1,0,0.2,0,0.2,0.1l0.3,0.8c0,0.1,0,0.2-0.1,0.2c-0.3,0.1-0.7,0.2-1,0.2c-1.5,0-2.4-0.9-2.4-2.6v-6.2H84c-0.1,0-0.2-0.1-0.2-0.2
		v-0.8c0-0.1,0.1-0.2,0.2-0.2h0.9v-2.5c0-0.1,0-0.2,0.1-0.2l1-0.3c0.1,0,0.2,0,0.2,0.2v2.8H88.5z"/>
	<path d="M99.4,121.6c0,3.2-1.7,5.1-4.5,5.1s-4.5-2-4.5-5.1c0-3.1,1.7-5.1,4.5-5.1S99.4,118.5,99.4,121.6z M91.8,121.6
		c0,2.4,1.2,3.9,3.1,3.9c2,0,3.2-1.5,3.2-3.9c0-2.4-1.2-3.9-3.2-3.9C93,117.7,91.8,119.2,91.8,121.6z"/>
	<path d="M106.1,116.7c0.1,0,0.2,0.1,0.2,0.2v0.8c0,0.1-0.1,0.2-0.2,0.2h-2.3v6.2c0,0.9,0.4,1.4,1.1,1.4c0.2,0,0.3,0,0.5-0.1
		c0.1,0,0.2,0,0.2,0.1l0.3,0.8c0,0.1,0,0.2-0.1,0.2c-0.3,0.1-0.7,0.2-1,0.2c-1.5,0-2.4-0.9-2.4-2.6v-6.2h-0.9
		c-0.1,0-0.2-0.1-0.2-0.2v-0.8c0-0.1,0.1-0.2,0.2-0.2h0.9v-2.5c0-0.1,0-0.2,0.1-0.2l1-0.3c0.1,0,0.2,0,0.2,0.2v2.8H106.1z"/>
	<path d="M109.7,116.8c0.6-0.2,1.3-0.3,2.2-0.3c2.5,0,4.1,1.5,4.1,4v5.9c0,0.1-0.1,0.2-0.2,0.2h-0.6c-0.1,0-0.2-0.1-0.2-0.2
		l-0.1-0.9c-0.1-0.3-0.2-0.2-0.4,0c-0.7,0.9-1.7,1.3-3.3,1.3c-2.1,0-3.3-1.1-3.3-3c0-1.8,1.3-3,3.6-3h3.1v-0.3c0-1.7-1-2.7-2.7-2.7
		c-0.7,0-1.4,0.1-1.9,0.2l-0.7,0.2c-0.1,0-0.2,0-0.2-0.1l-0.2-0.8c0-0.1,0-0.2,0.1-0.2L109.7,116.8z M111.5,121.9
		c-1.6,0-2.3,0.7-2.3,1.8c0,1.1,0.7,1.8,2,1.8c2.1,0,3.3-1.2,3.3-3.3v-0.3H111.5z"/>
	<path d="M120.3,124.7c0,0.5,0.2,0.7,0.5,0.7c0.1,0,0.1,0,0.2,0c0.1,0,0.2,0,0.2,0.1l0.3,0.8c0,0.1,0,0.2-0.1,0.2
		c-0.2,0.1-0.4,0.1-0.7,0.1c-1.2,0-1.9-0.7-1.9-2v-12.5c0-0.1,0.1-0.2,0.2-0.2h1c0.1,0,0.2,0.1,0.2,0.2V124.7z"/>
</g>
</svg>
