<?xml version="1.0" encoding="utf-8"?>
<!-- Generator: Adobe Illustrator 24.1.2, SVG Export Plug-In . SVG Version: 6.00 Build 0)  -->
<svg version="1.1" id="Слой_1" xmlns="http://www.w3.org/2000/svg" xmlns:xlink="http://www.w3.org/1999/xlink" x="0px" y="0px"
	 viewBox="0 0 335.5 398.1" style="enable-background:new 0 0 335.5 398.1;" xml:space="preserve">
<style type="text/css">
	.st0{fill:#FFFFFF;}
	.st1{fill:#FFCE6D;}
	.st2{enable-background:new    ;}
</style>
<path class="st0" d="M310.5,215.5c0,87.1-69.5,157.7-155.3,157.7S0,302.5,0,215.5C0,138.5,121.4,27,149.5,2.2
	c3.3-2.9,8.2-2.9,11.5,0C189.1,26.9,310.5,138.4,310.5,215.5z"/>
<path class="st1" d="M334.7,283.7c0,63.2-50.4,114.4-112.6,114.4s-112.6-51.2-112.6-114.4c0-55.9,88.1-136.7,108.4-154.7
	c2.4-2.1,6-2.1,8.3,0C246.6,146.9,334.7,227.8,334.7,283.7z"/>
<g class="st2">
	<path d="M164.7,264.2c-0.2,0-0.3-0.1-0.3-0.3v-12c0-0.7,0.1-1.4,0.1-1.8c0-0.2-0.1-0.3-0.2-0.3c-0.1,0-0.1,0-0.2,0
		c-0.1,0.1-0.2,0.1-0.3,0.2l-1.7,0.7c-0.2,0.1-0.3,0-0.4-0.2l-0.7-1.9c-0.1-0.2,0-0.3,0.2-0.4l5.3-2.3c0.2-0.1,0.3,0,0.4,0.1
		l0.2,0.1c0.1,0.1,0.2,0.2,0.2,0.3v17.3c0,0.2-0.1,0.3-0.3,0.3H164.7z"/>
	<path d="M176.4,251.4c-0.4,0.6-0.9,1.2-1.3,1.6c-0.2,0.3-0.1,0.5,0.3,0.3c0.8-0.4,1.8-0.6,2.8-0.6c3.2,0,5.7,2.2,5.7,5.8
		c0,3.7-2.4,5.9-6.6,5.9c-4.2,0-6.6-2.3-6.6-6.2c0-2.9,0.8-4.9,3.3-8.2l2.7-3.7c0.1-0.1,0.2-0.2,0.3-0.2h2.7c0.3,0,0.3,0.2,0.2,0.3
		L176.4,251.4z M180.8,258.5c0-2.1-1.4-3.3-3.7-3.3c-2.3,0-3.7,1.3-3.7,3.3c0,2.1,1.4,3.4,3.7,3.4S180.8,260.6,180.8,258.5z"/>
	<path d="M199,259.1c0.4-0.6,0.9-1.2,1.3-1.6c0.2-0.3,0.1-0.5-0.3-0.3c-0.8,0.4-1.8,0.6-2.8,0.6c-3.2,0-5.7-2.2-5.7-5.8
		c0-3.7,2.4-5.9,6.6-5.9c4.2,0,6.6,2.3,6.6,6.2c0,2.9-0.8,4.9-3.3,8.2l-2.7,3.7c-0.1,0.1-0.2,0.2-0.3,0.2h-2.7
		c-0.3,0-0.3-0.2-0.2-0.3L199,259.1z M194.5,251.9c0,2.1,1.4,3.3,3.7,3.3c2.3,0,3.7-1.3,3.7-3.3c0-2.1-1.4-3.4-3.7-3.4
		C195.9,248.6,194.5,249.8,194.5,251.9z"/>
	<path d="M220.5,259.3c0,0.2-0.1,0.3-0.3,0.3h-1.6v4.3c0,0.2-0.1,0.3-0.3,0.3h-2.3c-0.2,0-0.3-0.1-0.3-0.3v-4.3h-8.6
		c-0.2,0-0.3-0.1-0.3-0.3v-2.2c0-0.2,0-0.3,0.1-0.4c0.6-0.7,1.2-1.4,1.8-2.3l4.7-6.1c0.5-0.6,0.9-1.3,1.3-2c0.1-0.1,0.2-0.2,0.4-0.2
		h3.1c0.2,0,0.3,0.1,0.3,0.3V257h1.6c0.2,0,0.3,0.1,0.3,0.3V259.3z M215.8,252.6c0-0.8,0.1-1.6,0.2-2.5c0.1-0.3-0.2-0.4-0.4-0.1
		l-4.2,5.3c-0.3,0.5-0.8,1-1.2,1.4c-0.2,0.2-0.1,0.4,0.1,0.4h5.4V252.6z"/>
	<path d="M228.8,251.4c-0.4,0.6-0.9,1.2-1.3,1.6c-0.2,0.3-0.1,0.5,0.3,0.3c0.8-0.4,1.8-0.6,2.8-0.6c3.2,0,5.7,2.2,5.7,5.8
		c0,3.7-2.4,5.9-6.6,5.9c-4.2,0-6.6-2.3-6.6-6.2c0-2.9,0.8-4.9,3.3-8.2l2.7-3.7c0.1-0.1,0.2-0.2,0.3-0.2h2.7c0.3,0,0.3,0.2,0.2,0.3
		L228.8,251.4z M233.3,258.5c0-2.1-1.4-3.3-3.7-3.3c-2.3,0-3.7,1.3-3.7,3.3c0,2.1,1.4,3.4,3.7,3.4S233.3,260.6,233.3,258.5z"/>
	<path d="M247.4,264.2c-0.2,0-0.3-0.1-0.3-0.3v-12c0-0.7,0.1-1.4,0.1-1.8c0-0.2-0.1-0.3-0.2-0.3c-0.1,0-0.1,0-0.2,0
		c-0.1,0.1-0.2,0.1-0.3,0.2l-1.7,0.7c-0.2,0.1-0.3,0-0.4-0.2l-0.7-1.9c-0.1-0.2,0-0.3,0.2-0.4l5.3-2.3c0.2-0.1,0.3,0,0.4,0.1
		l0.2,0.1c0.1,0.1,0.2,0.2,0.2,0.3v17.3c0,0.2-0.1,0.3-0.3,0.3H247.4z"/>
	<path d="M266.7,259.3c0,0.2-0.1,0.3-0.3,0.3h-1.6v4.3c0,0.2-0.1,0.3-0.3,0.3h-2.3c-0.2,0-0.3-0.1-0.3-0.3v-4.3h-8.6
		c-0.2,0-0.3-0.1-0.3-0.3v-2.2c0-0.2,0-0.3,0.1-0.4c0.6-0.7,1.2-1.4,1.8-2.3l4.7-6.1c0.5-0.6,0.9-1.3,1.3-2c0.1-0.1,0.2-0.2,0.4-0.2
		h3.1c0.2,0,0.3,0.1,0.3,0.3V257h1.6c0.2,0,0.3,0.1,0.3,0.3V259.3z M262,252.6c0-0.8,0.1-1.6,0.2-2.5c0.1-0.3-0.2-0.4-0.4-0.1
		l-4.2,5.3c-0.3,0.5-0.8,1-1.2,1.4c-0.2,0.2-0.1,0.4,0.1,0.4h5.4V252.6z"/>
	<path d="M275,251.4c-0.4,0.6-0.9,1.2-1.3,1.6c-0.2,0.3-0.1,0.5,0.3,0.3c0.8-0.4,1.8-0.6,2.8-0.6c3.2,0,5.7,2.2,5.7,5.8
		c0,3.7-2.4,5.9-6.6,5.9c-4.2,0-6.6-2.3-6.6-6.2c0-2.9,0.8-4.9,3.3-8.2l2.7-3.7c0.1-0.1,0.2-0.2,0.3-0.2h2.7c0.3,0,0.3,0.2,0.2,0.3
		L275,251.4z M279.5,258.5c0-2.1-1.4-3.3-3.7-3.3c-2.3,0-3.7,1.3-3.7,3.3c0,2.1,1.4,3.4,3.7,3.4S279.5,260.6,279.5,258.5z"/>
</g>
<g class="st2">
	<path d="M168,287.3c-0.7,0.2-1.4,0.3-2.2,0.3c-2.8,0-4.5-2-4.5-5.1c0-3.1,1.7-5.1,4.5-5.1c2.3,0,3.7,1.1,3.7,3
		c0,1.4-0.9,2.3-2.7,2.6l-4,0.7c0.3,1.7,1.4,2.7,3.1,2.7c0.7,0,1.3-0.1,1.9-0.3l0.6-0.2c0.1,0,0.2,0,0.2,0.1l0.2,0.8
		c0,0.1,0,0.2-0.1,0.2L168,287.3z M166.5,281.8c1.1-0.2,1.6-0.7,1.6-1.4c0-1.1-0.9-1.8-2.4-1.8c-1.9,0-3.1,1.3-3.1,3.9L166.5,281.8z
		"/>
	<path d="M177,281.7c-0.2,0.3-0.4,0.5-0.6,0.6c0,0-0.1,0-0.1,0.1c0,0.1,0.1,0.1,0.2,0.1c0.1,0.1,0.3,0.3,0.5,0.6l2.8,4.1
		c0.1,0.1,0,0.2-0.1,0.2h-1.1c-0.1,0-0.2,0-0.2-0.1l-2.6-3.8c-0.1-0.1-0.2-0.1-0.3,0l-2.6,3.8c-0.1,0.1-0.1,0.1-0.2,0.1h-1.1
		c-0.1,0-0.2-0.1-0.1-0.2l2.8-4.1c0.2-0.3,0.3-0.5,0.5-0.6c0.1,0,0.1-0.1,0.1-0.1c0,0,0-0.1-0.1-0.1c-0.2-0.1-0.3-0.3-0.6-0.6
		l-2.7-3.9c-0.1-0.1,0-0.2,0.1-0.2h1.1c0.1,0,0.2,0,0.2,0.1l2.6,3.7c0.1,0.1,0.1,0.1,0.2,0.1c0.1,0,0.1-0.1,0.1-0.2l2.5-3.6
		c0.1-0.1,0.1-0.1,0.2-0.1h1.1c0.1,0,0.2,0.1,0.1,0.2L177,281.7z"/>
	<path d="M183.6,279c0,0.2,0.2,0.2,0.3,0c0.8-1.1,1.8-1.6,3.1-1.6c2.6,0,4.2,1.9,4.2,5.1c0,3.2-1.6,5.1-4.4,5.1
		c-0.9,0-1.6-0.1-2.3-0.5l-0.6-0.3v4.7c0,0.1-0.1,0.2-0.2,0.2h-1c-0.1,0-0.2-0.1-0.2-0.2v-13.8c0-0.1,0.1-0.2,0.2-0.2h0.6
		c0.1,0,0.2,0.1,0.2,0.2L183.6,279z M184.6,285.9c0.6,0.3,1.3,0.4,2.1,0.4c2,0,3.1-1.5,3.1-3.9c0-2.4-1.1-3.9-3-3.9
		c-2,0-3.1,1.8-3.1,4.1v2.8L184.6,285.9z"/>
	<path d="M202.2,282.4c0,3.2-1.7,5.1-4.5,5.1c-2.8,0-4.5-2-4.5-5.1c0-3.1,1.7-5.1,4.5-5.1C200.5,277.3,202.2,279.3,202.2,282.4z
		 M194.6,282.4c0,2.4,1.2,3.9,3.1,3.9c2,0,3.2-1.5,3.2-3.9c0-2.4-1.2-3.9-3.2-3.9C195.7,278.6,194.6,280,194.6,282.4z"/>
	<path d="M209.8,278.4c0,0.1-0.1,0.2-0.2,0.2c-2.2,0.1-3.4,1.9-3.4,5.4v3.2c0,0.1-0.1,0.2-0.2,0.2h-1c-0.1,0-0.2-0.1-0.2-0.2v-9.4
		c0-0.1,0.1-0.2,0.2-0.2h0.6c0.1,0,0.2,0.1,0.2,0.2l0.1,1.5c0,0.2,0.2,0.2,0.3,0c0.8-1.2,1.8-1.9,3.3-2c0.1,0,0.2,0.1,0.2,0.2V278.4
		z"/>
	<path d="M216.7,277.5c0.1,0,0.2,0.1,0.2,0.2v0.8c0,0.1-0.1,0.2-0.2,0.2h-2.3v6.2c0,0.9,0.4,1.4,1.1,1.4c0.2,0,0.3,0,0.5-0.1
		c0.1,0,0.2,0,0.2,0.1l0.3,0.8c0,0.1,0,0.2-0.1,0.2c-0.3,0.1-0.7,0.2-1,0.2c-1.5,0-2.4-0.9-2.4-2.6v-6.2h-0.9
		c-0.1,0-0.2-0.1-0.2-0.2v-0.8c0-0.1,0.1-0.2,0.2-0.2h0.9v-2.5c0-0.1,0-0.2,0.1-0.2l1-0.3c0.1,0,0.2,0,0.2,0.2v2.8H216.7z"/>
</g>
<g class="st2">
	<path d="M102.1,128.1c0.1,0,0.2,0.1,0.2,0.2v0.8c0,0.1-0.1,0.2-0.2,0.2h-2.3v6.2c0,0.9,0.4,1.4,1.1,1.4c0.2,0,0.3,0,0.5-0.1
		c0.1,0,0.2,0,0.2,0.1l0.3,0.8c0,0.1,0,0.2-0.1,0.2c-0.3,0.1-0.7,0.2-1,0.2c-1.5,0-2.4-0.9-2.4-2.6v-6.2h-0.9
		c-0.1,0-0.2-0.1-0.2-0.2v-0.8c0-0.1,0.1-0.2,0.2-0.2h0.9v-2.5c0-0.1,0-0.2,0.1-0.2l1-0.3c0.1,0,0.2,0,0.2,0.2v2.8H102.1z"/>
	<path d="M112.9,133c0,3.2-1.7,5.1-4.5,5.1c-2.8,0-4.5-2-4.5-5.1c0-3.1,1.7-5.1,4.5-5.1C111.2,127.9,112.9,129.9,112.9,133z
		 M105.3,133c0,2.4,1.2,3.9,3.1,3.9s3.2-1.5,3.2-3.9c0-2.4-1.2-3.9-3.2-3.9S105.3,130.6,105.3,133z"/>
	<path d="M119.6,128.1c0.1,0,0.2,0.1,0.2,0.2v0.8c0,0.1-0.1,0.2-0.2,0.2h-2.3v6.2c0,0.9,0.4,1.4,1.1,1.4c0.2,0,0.3,0,0.5-0.1
		c0.1,0,0.2,0,0.2,0.1l0.3,0.8c0,0.1,0,0.2-0.1,0.2c-0.3,0.1-0.7,0.2-1,0.2c-1.5,0-2.4-0.9-2.4-2.6v-6.2h-0.9
		c-0.1,0-0.2-0.1-0.2-0.2v-0.8c0-0.1,0.1-0.2,0.2-0.2h0.9v-2.5c0-0.1,0-0.2,0.1-0.2l1-0.3c0.1,0,0.2,0,0.2,0.2v2.8H119.6z"/>
	<path d="M123.2,128.2c0.6-0.2,1.3-0.3,2.2-0.3c2.5,0,4.1,1.5,4.1,4v5.9c0,0.1-0.1,0.2-0.2,0.2h-0.6c-0.1,0-0.2-0.1-0.2-0.2
		l-0.1-0.9c-0.1-0.3-0.2-0.2-0.4,0c-0.7,0.9-1.7,1.3-3.3,1.3c-2.1,0-3.3-1.1-3.3-3c0-1.8,1.3-3,3.6-3h3.1v-0.3c0-1.7-1-2.7-2.7-2.7
		c-0.7,0-1.4,0.1-1.9,0.2l-0.7,0.2c-0.1,0-0.2,0-0.2-0.1l-0.2-0.8c0-0.1,0-0.2,0.1-0.2L123.2,128.2z M125,133.3
		c-1.6,0-2.3,0.7-2.3,1.8c0,1.1,0.7,1.8,2,1.8c2.1,0,3.3-1.2,3.3-3.3v-0.3H125z"/>
	<path d="M133.8,136.2c0,0.5,0.2,0.7,0.5,0.7c0.1,0,0.1,0,0.2,0c0.1,0,0.2,0,0.2,0.1l0.3,0.8c0,0.1,0,0.2-0.1,0.2
		c-0.2,0.1-0.4,0.1-0.7,0.1c-1.2,0-1.9-0.7-1.9-2v-12.5c0-0.1,0.1-0.2,0.2-0.2h1c0.1,0,0.2,0.1,0.2,0.2V136.2z"/>
</g>
<g class="st2">
	<path d="M100.6,94.2c1.2-0.4,2.4-0.6,3.7-0.6c3.6,0,5.8,1.8,5.8,4.9c0,1.8-0.7,2.9-2.3,3.6c-0.3,0.1-0.3,0.3,0,0.4
		c1.9,0.8,2.8,2.4,2.8,4.4c0,3.2-2.4,5.2-6.4,5.2c-1.5,0-2.8-0.3-4-0.7l-1.5-0.5c-0.2-0.1-0.3-0.2-0.2-0.4l0.7-1.9
		c0.1-0.2,0.2-0.2,0.4-0.2l1.5,0.5c1.1,0.3,2.2,0.5,3.2,0.5c2.2,0,3.5-1.1,3.5-2.9c0-1.8-1.3-2.9-3.4-2.9h-1.2
		c-0.2,0-0.3-0.1-0.3-0.3v-2c0-0.2,0.1-0.3,0.3-0.3h1.2c1.8,0,2.9-0.9,2.9-2.4c0-1.6-1.2-2.6-2.9-2.6c-1.1,0-2,0.2-2.9,0.5l-1.3,0.4
		c-0.2,0.1-0.3,0-0.4-0.2l-0.6-1.9c-0.1-0.2,0-0.3,0.2-0.4L100.6,94.2z"/>
	<path d="M127.1,102.8c0,5.7-2.6,9.2-6.9,9.2c-4.3,0-6.8-3.5-6.8-9.2s2.6-9.2,6.8-9.2C124.5,93.5,127.1,97.1,127.1,102.8z
		 M116.3,102.8c0,4.2,1.5,6.6,3.9,6.6c2.5,0,4-2.5,4-6.6c0-4.2-1.5-6.7-4-6.7C117.8,96.1,116.3,98.6,116.3,102.8z"/>
	<path d="M147.8,98.3c0,1.7-0.9,3.1-2.6,3.7c-0.3,0.1-0.3,0.3,0,0.4c1.9,0.7,3.2,2.2,3.2,4.4c0,3.2-2.5,5.2-6.6,5.2s-6.6-2-6.6-5.2
		c0-2.2,1.3-3.7,3.2-4.4c0.3-0.1,0.3-0.3,0-0.4c-1.7-0.7-2.6-2-2.6-3.7c0-2.9,2.3-4.7,6-4.7S147.8,95.4,147.8,98.3z M138.1,106.6
		c0,1.8,1.4,2.8,3.7,2.8c2.3,0,3.7-1,3.7-2.8c0-1.8-1.5-3-3.7-3C139.7,103.6,138.1,104.7,138.1,106.6z M138.7,98.6
		c0,1.5,1.2,2.4,3.1,2.4s3.1-0.9,3.1-2.4c0-1.6-1.2-2.5-3.1-2.5C139.9,96.1,138.7,97,138.7,98.6z"/>
	<path d="M154.2,111.7c-0.2,0-0.3-0.1-0.3-0.3v-12c0-0.7,0.1-1.4,0.1-1.8c0-0.2-0.1-0.3-0.2-0.3c-0.1,0-0.1,0-0.2,0
		c-0.1,0.1-0.2,0.1-0.3,0.2l-1.7,0.7c-0.2,0.1-0.3,0-0.4-0.2l-0.7-1.9c-0.1-0.2,0-0.3,0.2-0.4l5.3-2.3c0.2-0.1,0.3,0,0.4,0.1
		l0.2,0.1c0.1,0.1,0.2,0.2,0.2,0.3v17.3c0,0.2-0.1,0.3-0.3,0.3H154.2z"/>
	<path d="M163.3,111.7c-0.2,0-0.3-0.1-0.3-0.3v-12c0-0.7,0.1-1.4,0.1-1.8c0-0.2-0.1-0.3-0.2-0.3c-0.1,0-0.1,0-0.2,0
		c-0.1,0.1-0.2,0.1-0.3,0.2l-1.7,0.7c-0.2,0.1-0.3,0-0.4-0.2l-0.7-1.9c-0.1-0.2,0-0.3,0.2-0.4l5.3-2.3c0.2-0.1,0.3,0,0.4,0.1
		l0.2,0.1c0.1,0.1,0.2,0.2,0.2,0.3v17.3c0,0.2-0.1,0.3-0.3,0.3H163.3z"/>
	<path d="M177.8,111.7c-0.2,0-0.3-0.1-0.3-0.3v-12c0-0.7,0.1-1.4,0.1-1.8c0-0.2-0.1-0.3-0.2-0.3c-0.1,0-0.1,0-0.2,0
		c-0.1,0.1-0.2,0.1-0.3,0.2l-1.7,0.7c-0.2,0.1-0.3,0-0.4-0.2l-0.7-1.9c-0.1-0.2,0-0.3,0.2-0.4l5.3-2.3c0.2-0.1,0.3,0,0.4,0.1
		l0.2,0.1c0.1,0.1,0.2,0.2,0.2,0.3v17.3c0,0.2-0.1,0.3-0.3,0.3H177.8z"/>
	<path d="M196.4,94.2c0.1,0.2,0.1,0.3,0,0.4c-0.7,1.2-1.2,2.1-1.7,3.4l-5.7,13.5c-0.1,0.1-0.2,0.2-0.3,0.2h-2.4
		c-0.2,0-0.3-0.1-0.2-0.3l5.4-12.6c0.3-0.7,0.6-1.3,1.1-2c0.2-0.3,0.1-0.4-0.3-0.4h-8.4c-0.2,0-0.3-0.1-0.3-0.3v-2
		c0-0.2,0.1-0.3,0.3-0.3H196c0.2,0,0.3,0.1,0.3,0.2L196.4,94.2z"/>
	<path d="M202.8,98.9c-0.4,0.6-0.9,1.2-1.3,1.6c-0.2,0.3-0.1,0.5,0.3,0.3c0.8-0.4,1.8-0.6,2.8-0.6c3.2,0,5.7,2.2,5.7,5.8
		c0,3.7-2.4,5.9-6.6,5.9c-4.2,0-6.6-2.3-6.6-6.2c0-2.9,0.8-4.9,3.3-8.2L203,94c0.1-0.1,0.2-0.2,0.3-0.2h2.7c0.3,0,0.3,0.2,0.2,0.3
		L202.8,98.9z M207.3,106c0-2.1-1.4-3.3-3.7-3.3c-2.3,0-3.7,1.3-3.7,3.3c0,2.1,1.4,3.4,3.7,3.4C205.9,109.4,207.3,108.1,207.3,106z"
		/>
</g>
</svg>
