<?xml version="1.0" encoding="utf-8"?>
<!-- Generator: Adobe Illustrator 24.1.2, SVG Export Plug-In . SVG Version: 6.00 Build 0)  -->
<svg version="1.1" id="Слой_1" xmlns="http://www.w3.org/2000/svg" xmlns:xlink="http://www.w3.org/1999/xlink" x="0px" y="0px"
	 viewBox="0 0 250 301" style="enable-background:new 0 0 250 301;" xml:space="preserve">
<style type="text/css">
	.st0{fill:#FFBF3C;}
	.st1{fill:#FFFFFF;}
</style>
<g>
	<path class="st0" d="M129.6,2.1c-2.6-2.3-6.6-2.3-9.3,0C97.8,22,0,111.8,0,173.8c0,70.1,56,126.9,125,126.9
		c69,0,125-56.8,125-126.9C250,111.8,152.2,22,129.6,2.1z M126.5,92.8c-24.7,0-47.4,8.6-65.3,23c16.1-22.5,38.6-47.8,65.3-73
		c26.7,25.2,49.2,50.5,65.3,73C173.9,101.4,151.2,92.8,126.5,92.8z"/>
	<g>
		<path class="st1" d="M79.3,261.1c0.1,0,0.2,0.1,0.2,0.2v1.2c0,0.1-0.1,0.2-0.2,0.2h-1.7v3.7c0,0.5,0.2,0.8,0.6,0.8
			c0.1,0,0.3,0,0.4-0.1c0.1,0,0.2,0,0.2,0.1l0.5,1c0,0.1,0,0.2-0.1,0.2c-0.3,0.2-0.7,0.3-1,0.3c-1.4,0-2.3-0.9-2.3-2.3v-3.7h-0.7
			c-0.1,0-0.2-0.1-0.2-0.2v-1.2c0-0.1,0.1-0.2,0.2-0.2H76v-1.7c0-0.1,0-0.2,0.1-0.2l1.3-0.5c0.1,0,0.2,0,0.2,0.1v2.2H79.3z"/>
		<path class="st1" d="M87.6,264.7c0,2.4-1.3,3.8-3.5,3.8c-2.2,0-3.5-1.5-3.5-3.8c0-2.3,1.3-3.8,3.5-3.8
			C86.3,260.9,87.6,262.4,87.6,264.7z M82.3,264.7c0,1.4,0.7,2.3,1.8,2.3c1.1,0,1.8-0.9,1.8-2.3c0-1.4-0.7-2.3-1.8-2.3
			C83,262.4,82.3,263.3,82.3,264.7z"/>
		<path class="st1" d="M90.5,261.8c0.1,0.2,0.2,0.2,0.3,0c0.6-0.7,1.3-0.9,2.1-0.9c1.7,0,2.8,1.1,2.8,2.9v4.5c0,0.1-0.1,0.2-0.2,0.2
			h-1.3c-0.1,0-0.2-0.1-0.2-0.2V264c0-1-0.5-1.5-1.3-1.5c-1.1,0-1.8,0.8-1.8,2.3v3.5c0,0.1-0.1,0.2-0.2,0.2h-1.3
			c-0.1,0-0.2-0.1-0.2-0.2v-7c0-0.1,0.1-0.2,0.2-0.2h0.8c0.1,0,0.2,0,0.2,0.2L90.5,261.8z"/>
		<path class="st1" d="M99.3,265.2c-1.3-0.3-1.8-1-1.8-2.1c0-1.4,1-2.2,2.8-2.2c0.7,0,1.4,0.1,1.9,0.2l0.7,0.2
			c0.1,0,0.2,0.1,0.1,0.2l-0.3,1.1c0,0.1-0.1,0.2-0.2,0.1l-0.7-0.2c-0.4-0.1-1-0.2-1.5-0.2c-0.7,0-1.1,0.3-1.1,0.7
			c0,0.3,0.2,0.6,0.7,0.7l1.5,0.4c1.3,0.3,1.9,1,1.9,2.1c0,1.4-1.1,2.3-2.8,2.3c-0.8,0-1.6-0.1-2.3-0.3l-0.6-0.2
			c-0.1,0-0.2-0.1-0.1-0.2l0.3-1.1c0-0.1,0.1-0.1,0.2-0.1l0.5,0.2c0.6,0.2,1.4,0.3,1.9,0.3c0.7,0,1.2-0.3,1.2-0.8
			c0-0.4-0.2-0.6-0.7-0.7L99.3,265.2z"/>
		<path class="st1" d="M109.2,261.9c0.1,0.2,0.2,0.2,0.3,0c0.6-0.7,1.3-0.9,2.1-0.9c2,0,3.2,1.5,3.2,3.8c0,2.4-1.3,3.8-3.4,3.8
			c-0.5,0-0.9-0.1-1.4-0.3l-0.4-0.2v3.4c0,0.1-0.1,0.2-0.2,0.2h-1.3c-0.1,0-0.2-0.1-0.2-0.2v-10.2c0-0.1,0.1-0.2,0.2-0.2h0.8
			c0.1,0,0.2,0,0.2,0.1L109.2,261.9z M110.1,266.8c0.4,0.2,0.8,0.3,1.2,0.3c1.2,0,1.8-0.9,1.8-2.3c0-1.4-0.7-2.3-1.8-2.3
			c-1.1,0-1.7,0.9-1.7,2.2v1.9L110.1,266.8z"/>
		<path class="st1" d="M121.2,268.4c-0.5,0.1-1.1,0.2-1.5,0.2c-2.3,0-3.6-1.5-3.6-3.8c0-2.4,1.3-3.8,3.5-3.8c1.8,0,2.9,0.9,2.9,2.4
			c0,1.2-0.7,1.8-2.2,2.1l-2.4,0.4c0.2,0.8,0.8,1.3,1.7,1.3c0.4,0,0.9,0,1.2-0.2l0.7-0.2c0.1,0,0.2,0,0.2,0.1l0.3,1.1
			c0,0.1,0,0.2-0.1,0.2L121.2,268.4z M120,264.1c0.5-0.1,0.8-0.3,0.8-0.7c0-0.6-0.5-0.9-1.3-0.9c-1,0-1.7,0.6-1.8,2L120,264.1z"/>
		<path class="st1" d="M128.4,262.3c0,0.1-0.1,0.2-0.2,0.2c-1.6,0.1-2.4,1.2-2.4,4v1.8c0,0.1-0.1,0.2-0.2,0.2h-1.3
			c-0.1,0-0.2-0.1-0.2-0.2v-7c0-0.1,0.1-0.2,0.2-0.2h0.8c0.1,0,0.2,0,0.2,0.1l0.2,0.9c0.1,0.2,0.2,0.2,0.3,0
			c0.6-0.8,1.3-1.2,2.4-1.2c0.1,0,0.2,0.1,0.2,0.2V262.3z"/>
		<path class="st1" d="M134.5,261.8c0.1,0.2,0.2,0.2,0.4,0c0.6-0.6,1.2-0.9,2-0.9c0.9,0,1.6,0.4,2,1c0.2,0.2,0.3,0.2,0.5,0
			c0.7-0.8,1.3-1,2.1-1c1.7,0,2.7,1.1,2.7,2.9v4.5c0,0.1-0.1,0.2-0.2,0.2h-1.4c-0.1,0-0.2-0.1-0.2-0.2V264c0-1-0.4-1.5-1.2-1.5
			c-1.1,0-1.7,0.9-1.7,2.3v3.5c0,0.1-0.1,0.2-0.2,0.2h-1.4c-0.1,0-0.2-0.1-0.2-0.2V264c0-0.9-0.4-1.5-1.2-1.5
			c-1.2,0-1.7,0.9-1.7,2.3v3.5c0,0.1-0.1,0.2-0.2,0.2h-1.3c-0.1,0-0.2-0.1-0.2-0.2v-7c0-0.1,0.1-0.2,0.2-0.2h0.8
			c0.1,0,0.2,0,0.2,0.2L134.5,261.8z"/>
		<path class="st1" d="M152.5,264.7c0,2.4-1.3,3.8-3.5,3.8c-2.2,0-3.5-1.5-3.5-3.8c0-2.3,1.3-3.8,3.5-3.8
			C151.2,260.9,152.5,262.4,152.5,264.7z M147.2,264.7c0,1.4,0.7,2.3,1.8,2.3c1.1,0,1.8-0.9,1.8-2.3c0-1.4-0.7-2.3-1.8-2.3
			C147.9,262.4,147.2,263.3,147.2,264.7z"/>
		<path class="st1" d="M155.4,261.8c0.1,0.2,0.2,0.2,0.3,0c0.6-0.7,1.3-0.9,2.1-0.9c1.7,0,2.8,1.1,2.8,2.9v4.5
			c0,0.1-0.1,0.2-0.2,0.2h-1.3c-0.1,0-0.2-0.1-0.2-0.2V264c0-1-0.5-1.5-1.3-1.5c-1.1,0-1.8,0.8-1.8,2.3v3.5c0,0.1-0.1,0.2-0.2,0.2
			h-1.3c-0.1,0-0.2-0.1-0.2-0.2v-7c0-0.1,0.1-0.2,0.2-0.2h0.8c0.1,0,0.2,0,0.2,0.2L155.4,261.8z"/>
		<path class="st1" d="M166.4,261.1c0.1,0,0.2,0.1,0.2,0.2v1.2c0,0.1-0.1,0.2-0.2,0.2h-1.7v3.7c0,0.5,0.2,0.8,0.6,0.8
			c0.1,0,0.3,0,0.4-0.1c0.1,0,0.2,0,0.2,0.1l0.5,1c0,0.1,0,0.2-0.1,0.2c-0.3,0.2-0.7,0.3-1,0.3c-1.4,0-2.3-0.9-2.3-2.3v-3.7h-0.7
			c-0.1,0-0.2-0.1-0.2-0.2v-1.2c0-0.1,0.1-0.2,0.2-0.2h0.7v-1.7c0-0.1,0-0.2,0.1-0.2l1.3-0.5c0.1,0,0.2,0,0.2,0.1v2.2H166.4z"/>
		<path class="st1" d="M169.9,260c0,0.7-0.1,1.2-0.2,1.7c-0.1,0.2,0,0.3,0.2,0.1c0.5-0.6,1.2-0.9,2-0.9c1.7,0,2.8,1.1,2.8,2.9v4.5
			c0,0.1-0.1,0.2-0.2,0.2h-1.3c-0.1,0-0.2-0.1-0.2-0.2V264c0-1-0.5-1.5-1.3-1.5c-1.2,0-1.8,1-1.8,2.3v3.5c0,0.1-0.1,0.2-0.2,0.2
			h-1.3c-0.1,0-0.2-0.1-0.2-0.2v-10.5c0-0.1,0.1-0.2,0.2-0.2h1.3c0.1,0,0.2,0.1,0.2,0.2V260z"/>
	</g>
	<g>
		<path class="st1" d="M72.1,213.7c2.7-0.9,4.9-1.2,7.1-1.2c6.5,0,10.3,3.3,10.3,8.9c0,3.2-1.7,5.4-5.2,7.6l-6.5,4
			c-1.5,0.9-2.2,2.7-2.2,4.4h12.8c0.3,0,0.6,0.2,0.6,0.6v4.8c0,0.3-0.2,0.6-0.6,0.6H69.3c-0.3,0-0.6-0.2-0.6-0.6v-2.6
			c0-6,1.9-10,5.9-12.4l6.3-3.9c1.2-0.7,1.7-1.5,1.7-2.4c0-1.8-1.3-2.9-3.5-2.9c-1.8,0-3.4,0.3-5.1,0.9l-2.8,0.9
			c-0.3,0.1-0.6,0-0.7-0.3l-1.6-4.7c-0.1-0.3,0-0.6,0.3-0.7L72.1,213.7z"/>
		<path class="st1" d="M124.5,220.6c0,2.9-1.5,5-4,6.2c-0.4,0.2-0.4,0.6,0,0.7c2.8,1.3,5,3.4,5,7.2c0,5.6-4.4,9-11.5,9
			c-7.1,0-11.5-3.4-11.5-9c0-3.8,2.2-5.9,5-7.2c0.5-0.2,0.5-0.5,0-0.7c-2.5-1.2-4-3.3-4-6.2c0-5,4-8.1,10.4-8.1
			C120.5,212.5,124.5,215.6,124.5,220.6z M109.4,234c0,2.4,1.8,3.7,4.6,3.7c3,0,4.7-1.3,4.7-3.7c0-2.3-1.8-3.7-4.7-3.7
			C111.2,230.3,109.4,231.7,109.4,234z M110.5,221.5c0,1.7,1.3,2.9,3.6,2.9c2.3,0,3.6-1.2,3.6-2.9c0-2-1.3-3-3.6-3
			C111.8,218.5,110.5,219.6,110.5,221.5z"/>
		<path class="st1" d="M153.6,228.1c0,9.6-4.6,15.6-12,15.6s-12-6-12-15.6s4.6-15.6,12-15.6S153.6,218.5,153.6,228.1z M136.5,228.1
			c0,6,1.9,9.6,5.2,9.6c3.3,0,5.2-3.6,5.2-9.6s-1.9-9.6-5.2-9.6C138.4,218.5,136.5,222.1,136.5,228.1z"/>
		<path class="st1" d="M181.6,228.1c0,9.6-4.6,15.6-12,15.6c-7.4,0-12-6-12-15.6s4.6-15.6,12-15.6
			C177,212.5,181.6,218.5,181.6,228.1z M164.4,228.1c0,6,1.9,9.6,5.2,9.6c3.3,0,5.2-3.6,5.2-9.6s-1.9-9.6-5.2-9.6
			C166.3,218.5,164.4,222.1,164.4,228.1z"/>
	</g>
	<g>
		<g>
			<path class="st1" d="M80.2,123.2c3.8,0,6,2.1,6,5.5c0,3.7-2.5,5.8-7.1,5.8h-2.7v5.9c0,0.2-0.1,0.3-0.3,0.3h-2.3
				c-0.2,0-0.3-0.1-0.3-0.3v-16.9c0-0.2,0.1-0.3,0.3-0.3H80.2z M76.4,132h2.7c2.8,0,4.3-1.2,4.3-3.3c0-1.9-1.2-3-3.1-3h-3.8V132z"/>
			<path class="st1" d="M90.3,128.6c0.8-0.2,1.7-0.4,2.7-0.4c3.4,0,5.4,1.7,5.4,4.8v7.3c0,0.2-0.1,0.3-0.3,0.3H97
				c-0.2,0-0.3-0.1-0.3-0.2l-0.2-0.8c-0.1-0.3-0.3-0.3-0.6,0c-0.8,0.8-1.9,1.3-3.4,1.3c-2.8,0-4.3-1.4-4.3-3.8s1.6-3.8,4.5-3.8h3.1
				v-0.1c0-1.5-1-2.3-2.8-2.3c-0.7,0-1.3,0.1-1.9,0.2l-0.9,0.3c-0.2,0-0.3,0-0.3-0.2l-0.5-1.8c0-0.2,0-0.3,0.2-0.3L90.3,128.6z
				 M92.6,135.5c-1.2,0-1.8,0.6-1.8,1.4c0,1,0.7,1.6,1.9,1.6c2,0,3-1,3-2.8v-0.2H92.6z"/>
			<path class="st1" d="M109.3,140.6c-0.7,0.2-1.5,0.3-2.3,0.3c-3.8,0-5.9-2.4-5.9-6.3c0-3.9,2.1-6.3,6-6.3c0.6,0,1.4,0.1,2.1,0.3
				l1.1,0.3c0.2,0.1,0.2,0.2,0.2,0.3l-0.6,1.9c0,0.1-0.2,0.2-0.3,0.2l-0.8-0.2c-0.6-0.2-1.2-0.3-1.7-0.3c-2.2,0-3.2,1.4-3.2,3.8
				c0,2.4,1.1,3.8,3.2,3.8c0.5,0,1.2-0.1,1.8-0.3l0.8-0.2c0.2,0,0.3,0,0.3,0.2l0.6,1.9c0.1,0.2,0,0.3-0.2,0.3L109.3,140.6z"/>
			<path class="st1" d="M124.1,140.3c0.1,0.2,0,0.3-0.2,0.3h-2.5c-0.1,0-0.2,0-0.3-0.2l-1.7-2.8c-0.7-1-1.4-1.9-2.8-1.9h-0.4v4.6
				c0,0.2-0.1,0.3-0.3,0.3h-2.2c-0.2,0-0.3-0.1-0.3-0.3V123c0-0.2,0.1-0.3,0.3-0.3h2.2c0.2,0,0.3,0.1,0.3,0.3v10.2h0.4
				c1.2,0,1.9-1.1,2.6-2l1.6-2.5c0.1-0.1,0.2-0.2,0.3-0.2h2.4c0.2,0,0.3,0.1,0.2,0.3l-2.2,3.5c-0.6,0.9-1.4,1.6-2.2,1.9
				c-0.1,0.1-0.1,0.1,0,0.2c0.9,0.4,1.7,1.1,2.3,2L124.1,140.3z"/>
			<path class="st1" d="M128,128.6c0.8-0.2,1.7-0.4,2.7-0.4c3.4,0,5.4,1.7,5.4,4.8v7.3c0,0.2-0.1,0.3-0.3,0.3h-1.2
				c-0.2,0-0.3-0.1-0.3-0.2l-0.2-0.8c-0.1-0.3-0.3-0.3-0.6,0c-0.8,0.8-1.9,1.3-3.4,1.3c-2.8,0-4.3-1.4-4.3-3.8s1.6-3.8,4.5-3.8h3.1
				v-0.1c0-1.5-1-2.3-2.8-2.3c-0.7,0-1.3,0.1-1.9,0.2l-0.9,0.3c-0.2,0-0.3,0-0.3-0.2l-0.5-1.8c0-0.2,0-0.3,0.2-0.3L128,128.6z
				 M130.3,135.5c-1.2,0-1.8,0.6-1.8,1.4c0,1,0.7,1.6,1.9,1.6c2,0,3-1,3-2.8v-0.2H130.3z"/>
			<path class="st1" d="M141.8,143.5c0.5,0.1,1.4,0.3,2.1,0.3c1.7,0,3.3-0.7,3.7-2.7c0.1-1.1,0.1-1,0.1-1.5c0-0.2-0.1-0.3-0.3-0.1
				c-0.8,0.9-2,1.4-3.4,1.4c-3.3,0-5.3-2.4-5.3-6.3c0-4,2.2-6.4,5.8-6.4c1,0,2.1,0.2,3.1,0.6l2.2,0.9c0.1,0,0.2,0.1,0.2,0.3v10.4
				c0,3.7-2.2,5.7-6,5.7c-0.9,0-2-0.1-2.7-0.3l-1.2-0.3c-0.2-0.1-0.2-0.2-0.2-0.3l0.6-1.8c0-0.1,0.2-0.2,0.3-0.2L141.8,143.5z
				 M146.5,131.2c-0.5-0.3-1.3-0.4-2-0.4c-1.9,0-3,1.4-3,3.8c0,2.3,1,3.8,2.9,3.8c1.9,0,2.9-1.4,2.9-3.8v-3.1L146.5,131.2z"/>
			<path class="st1" d="M161,140.6c-0.9,0.2-1.7,0.3-2.5,0.3c-3.8,0-5.9-2.4-5.9-6.3c0-3.9,2.1-6.3,5.8-6.3c3,0,4.8,1.5,4.8,4
				c0,1.9-1.2,3-3.7,3.4l-3.9,0.6c0.3,1.3,1.3,2.1,2.8,2.1c0.7,0,1.4-0.1,2-0.2l1.1-0.3c0.2,0,0.3,0,0.3,0.2l0.5,1.9
				c0,0.2,0,0.3-0.2,0.3L161,140.6z M159.1,133.5c0.9-0.1,1.3-0.5,1.3-1.2c0-1-0.8-1.5-2.1-1.5c-1.6,0-2.8,1-3,3.3L159.1,133.5z"/>
			<path class="st1" d="M176.6,140.3c0,0.2-0.1,0.3-0.3,0.3h-1.2c-0.2,0-0.3-0.1-0.3-0.2l-0.3-1c-0.1-0.2-0.2-0.3-0.5,0
				c-0.9,1-2.1,1.5-3.5,1.5c-3.3,0-5.2-2.4-5.2-6.3c0-3.9,2.1-6.3,5.6-6.3c0.8,0,1.5,0.1,2.2,0.4l0.7,0.3v-6c0-0.2,0.1-0.3,0.3-0.3
				h2.2c0.2,0,0.3,0.1,0.3,0.3V140.3z M173.1,131.2c-0.6-0.3-1.3-0.4-2-0.4c-1.9,0-3,1.4-3,3.8c0,2.4,1.1,3.8,2.9,3.8
				c1.9,0,2.9-1.6,2.9-3.7v-3.2L173.1,131.2z"/>
			<path class="st1" d="M79.7,156.4c0.1,0.3,0.3,0.2,0.5,0c1-1.1,2.1-1.5,3.5-1.5c3.3,0,5.2,2.4,5.2,6.3c0,3.9-2.1,6.3-5.6,6.3
				c-0.9,0-1.5-0.1-2.3-0.5l-0.7-0.3v5.6c0,0.2-0.1,0.3-0.3,0.3h-2.2c-0.2,0-0.3-0.1-0.3-0.3v-16.9c0-0.2,0.1-0.3,0.3-0.3h1.2
				c0.2,0,0.3,0.1,0.3,0.2L79.7,156.4z M81.1,164.6c0.6,0.3,1.3,0.4,2,0.4c1.9,0,3-1.4,3-3.8c0-2.4-1.1-3.8-2.9-3.8
				c-1.9,0-2.9,1.5-2.9,3.7v3.1L81.1,164.6z"/>
			<path class="st1" d="M98.6,157.1c0,0.2-0.1,0.3-0.3,0.3c-2.7,0.1-3.9,2-3.9,6.6v3c0,0.2-0.1,0.3-0.3,0.3h-2.2
				c-0.2,0-0.3-0.1-0.3-0.3v-11.5c0-0.2,0.1-0.3,0.3-0.3h1.2c0.2,0,0.3,0.1,0.3,0.2l0.4,1.4c0.1,0.3,0.3,0.3,0.5,0.1
				c1-1.3,2.1-1.9,3.9-2c0.2,0,0.3,0.1,0.3,0.3V157.1z"/>
			<path class="st1" d="M112.1,161.2c0,3.9-2.2,6.3-5.7,6.3c-3.6,0-5.8-2.4-5.8-6.3c0-3.8,2.2-6.3,5.8-6.3
				C109.9,154.9,112.1,157.3,112.1,161.2z M103.4,161.2c0,2.4,1.1,3.8,3,3.8c1.8,0,3-1.4,3-3.8c0-2.4-1.1-3.8-3-3.8
				C104.5,157.4,103.4,158.8,103.4,161.2z"/>
			<path class="st1" d="M125.6,167c0,0.2-0.1,0.3-0.3,0.3H124c-0.2,0-0.3-0.1-0.3-0.2l-0.3-1c-0.1-0.2-0.2-0.3-0.5,0
				c-0.9,1-2.1,1.5-3.5,1.5c-3.3,0-5.2-2.4-5.2-6.3c0-3.9,2.1-6.3,5.6-6.3c0.8,0,1.5,0.1,2.2,0.4l0.7,0.3v-6c0-0.2,0.1-0.3,0.3-0.3
				h2.2c0.2,0,0.3,0.1,0.3,0.3V167z M122.1,157.8c-0.6-0.3-1.3-0.4-2-0.4c-1.9,0-3,1.4-3,3.8c0,2.4,1.1,3.8,2.9,3.8
				c1.9,0,2.9-1.6,2.9-3.7v-3.2L122.1,157.8z"/>
			<path class="st1" d="M137.4,166c-0.1-0.3-0.3-0.3-0.6,0c-1,1.1-2.2,1.5-3.4,1.5c-2.8,0-4.6-1.8-4.6-4.7v-7.4
				c0-0.2,0.1-0.3,0.3-0.3h2.2c0.2,0,0.3,0.1,0.3,0.3v7.1c0,1.6,0.8,2.5,2.2,2.5c1.8,0,2.9-1.3,2.9-3.8v-5.8c0-0.2,0.1-0.3,0.3-0.3
				h2.2c0.2,0,0.3,0.1,0.3,0.3V167c0,0.2-0.1,0.3-0.3,0.3h-1.2c-0.2,0-0.3-0.1-0.3-0.2L137.4,166z"/>
			<path class="st1" d="M150.4,167.2c-0.7,0.2-1.5,0.3-2.3,0.3c-3.8,0-5.9-2.4-5.9-6.3c0-3.9,2.1-6.3,6-6.3c0.6,0,1.4,0.1,2.1,0.3
				l1.1,0.3c0.2,0.1,0.2,0.2,0.2,0.3l-0.6,1.9c0,0.1-0.2,0.2-0.3,0.2l-0.8-0.2c-0.6-0.2-1.2-0.3-1.7-0.3c-2.2,0-3.2,1.4-3.2,3.8
				c0,2.4,1.1,3.8,3.2,3.8c0.5,0,1.2-0.1,1.8-0.3l0.8-0.2c0.2,0,0.3,0,0.3,0.2l0.6,1.9c0.1,0.2,0,0.3-0.2,0.3L150.4,167.2z"/>
			<path class="st1" d="M160.9,155.1c0.2,0,0.3,0.1,0.3,0.3v1.9c0,0.2-0.1,0.3-0.3,0.3h-2.8v6.1c0,0.8,0.4,1.3,1,1.3
				c0.2,0,0.4,0,0.6-0.1c0.2-0.1,0.3,0,0.4,0.1l0.8,1.7c0.1,0.1,0,0.3-0.1,0.4c-0.4,0.2-1.1,0.4-1.7,0.4c-2.4,0-3.7-1.4-3.7-3.8
				v-6.1h-1.2c-0.2,0-0.3-0.1-0.3-0.3v-1.9c0-0.2,0.1-0.3,0.3-0.3h1.2v-2.9c0-0.1,0.1-0.2,0.2-0.3l2.2-0.7c0.2,0,0.3,0,0.3,0.2v3.7
				H160.9z"/>
			<path class="st1" d="M166.6,161.9c-2.1-0.5-3-1.6-3-3.4c0-2.2,1.7-3.6,4.6-3.6c1.1,0,2.3,0.2,3.1,0.4l1.1,0.3
				c0.2,0,0.2,0.2,0.2,0.3l-0.5,1.9c0,0.2-0.2,0.2-0.3,0.2l-1.1-0.3c-0.7-0.2-1.7-0.3-2.4-0.3c-1.1,0-1.8,0.4-1.8,1.1
				c0,0.6,0.3,0.9,1.1,1.1l2.5,0.6c2.2,0.5,3.1,1.7,3.1,3.5c0,2.3-1.7,3.8-4.7,3.8c-1.3,0-2.6-0.2-3.8-0.5l-1-0.3
				c-0.2-0.1-0.2-0.2-0.2-0.3l0.6-1.9c0-0.1,0.2-0.2,0.3-0.2l0.9,0.2c0.9,0.3,2.3,0.4,3.2,0.4c1.2,0,1.9-0.5,1.9-1.2
				c0-0.6-0.3-1-1.2-1.2L166.6,161.9z"/>
			<path class="st1" d="M47.4,183c0.1,0.3,0.3,0.3,0.6,0c0.9-1.1,2-1.5,3.2-1.5c1.4,0,2.6,0.7,3.2,1.7c0.3,0.3,0.5,0.3,0.8,0
				c1.1-1.3,2.2-1.7,3.4-1.7c2.8,0,4.4,1.8,4.4,4.7v7.4c0,0.2-0.1,0.3-0.3,0.3h-2.2c-0.2,0-0.3-0.1-0.3-0.3v-7.1
				c0-1.6-0.6-2.5-2-2.5c-1.9,0-2.7,1.5-2.7,3.8v5.8c0,0.2-0.1,0.3-0.3,0.3h-2.2c-0.2,0-0.3-0.1-0.3-0.3v-7.1c0-1.5-0.7-2.5-2-2.5
				c-1.9,0-2.7,1.5-2.7,3.8v5.8c0,0.2-0.1,0.3-0.3,0.3h-2.2c-0.2,0-0.3-0.1-0.3-0.3V182c0-0.2,0.1-0.3,0.3-0.3h1.2
				c0.2,0,0.3,0.1,0.3,0.2L47.4,183z"/>
			<path class="st1" d="M67.8,181.9c0.8-0.2,1.7-0.4,2.7-0.4c3.4,0,5.4,1.7,5.4,4.8v7.3c0,0.2-0.1,0.3-0.3,0.3h-1.2
				c-0.2,0-0.3-0.1-0.3-0.2l-0.2-0.8c-0.1-0.3-0.3-0.3-0.6,0c-0.8,0.8-1.9,1.3-3.4,1.3c-2.8,0-4.3-1.4-4.3-3.8s1.6-3.8,4.5-3.8h3.1
				v-0.1c0-1.5-1-2.3-2.8-2.3c-0.7,0-1.3,0.1-1.9,0.2l-0.9,0.3c-0.2,0-0.3,0-0.3-0.2l-0.5-1.8c-0.1-0.2,0-0.3,0.2-0.3L67.8,181.9z
				 M70.1,188.7c-1.2,0-1.8,0.6-1.8,1.4c0,1,0.7,1.6,1.9,1.6c2,0,3-1,3-2.8v-0.2H70.1z"/>
			<path class="st1" d="M81.2,183c0.1,0.3,0.3,0.3,0.6,0c1-1.1,2.2-1.5,3.4-1.5c2.8,0,4.6,1.8,4.6,4.7v7.4c0,0.2-0.1,0.3-0.3,0.3
				h-2.2c-0.2,0-0.3-0.1-0.3-0.3v-7.1c0-1.6-0.8-2.5-2.2-2.5c-1.8,0-2.9,1.3-2.9,3.8v5.8c0,0.2-0.1,0.3-0.3,0.3h-2.2
				c-0.2,0-0.3-0.1-0.3-0.3V182c0-0.2,0.1-0.3,0.3-0.3h1.2c0.2,0,0.3,0.1,0.3,0.2L81.2,183z"/>
			<path class="st1" d="M101.4,192.6c-0.1-0.3-0.3-0.3-0.6,0c-1,1.1-2.2,1.5-3.4,1.5c-2.8,0-4.6-1.8-4.6-4.7V182
				c0-0.2,0.1-0.3,0.3-0.3h2.2c0.2,0,0.3,0.1,0.3,0.3v7.1c0,1.6,0.8,2.5,2.2,2.5c1.8,0,2.9-1.3,2.9-3.8V182c0-0.2,0.1-0.3,0.3-0.3
				h2.2c0.2,0,0.3,0.1,0.3,0.3v11.5c0,0.2-0.1,0.3-0.3,0.3h-1.2c-0.2,0-0.3-0.1-0.3-0.2L101.4,192.6z"/>
			<path class="st1" d="M107.7,180.1c0-2.8,1.6-4.4,4.3-4.4c0.5,0,1,0.1,1.6,0.3l0.4,0.1c0.1,0.1,0.2,0.2,0.2,0.3l-0.6,1.8
				c-0.1,0.1-0.2,0.2-0.3,0.2l-0.4-0.1c-0.3-0.1-0.6-0.2-0.9-0.2c-1,0-1.6,0.7-1.6,1.9v1.6h2.8c0.2,0,0.3,0.1,0.3,0.3v1.9
				c0,0.2-0.1,0.3-0.3,0.3h-2.8v9.3c0,0.2-0.1,0.3-0.3,0.3h-2.2c-0.2,0-0.3-0.1-0.3-0.3v-9.3h-1.2c-0.2,0-0.3-0.1-0.3-0.3V182
				c0-0.2,0.1-0.3,0.3-0.3h1.2V180.1z"/>
			<path class="st1" d="M117.1,181.9c0.8-0.2,1.7-0.4,2.7-0.4c3.4,0,5.4,1.7,5.4,4.8v7.3c0,0.2-0.1,0.3-0.3,0.3h-1.2
				c-0.2,0-0.3-0.1-0.3-0.2l-0.2-0.8c-0.1-0.3-0.3-0.3-0.6,0c-0.8,0.8-1.9,1.3-3.4,1.3c-2.8,0-4.3-1.4-4.3-3.8s1.6-3.8,4.5-3.8h3.1
				v-0.1c0-1.5-1-2.3-2.8-2.3c-0.7,0-1.3,0.1-1.9,0.2l-0.9,0.3c-0.2,0-0.3,0-0.3-0.2l-0.5-1.8c-0.1-0.2,0-0.3,0.2-0.3L117.1,181.9z
				 M119.4,188.7c-1.2,0-1.8,0.6-1.8,1.4c0,1,0.7,1.6,1.9,1.6c2,0,3-1,3-2.8v-0.2H119.4z"/>
			<path class="st1" d="M136,193.8c-0.7,0.2-1.5,0.3-2.3,0.3c-3.8,0-5.9-2.4-5.9-6.3c0-3.9,2.1-6.3,6-6.3c0.6,0,1.4,0.1,2.1,0.3
				l1.1,0.3c0.2,0.1,0.2,0.2,0.2,0.3l-0.6,1.9c0,0.1-0.2,0.2-0.3,0.2l-0.8-0.2c-0.6-0.2-1.2-0.3-1.7-0.3c-2.2,0-3.2,1.4-3.2,3.8
				c0,2.4,1.1,3.8,3.2,3.8c0.5,0,1.2-0.1,1.8-0.3l0.8-0.2c0.2,0,0.3,0,0.3,0.2l0.6,1.9c0.1,0.2,0,0.3-0.2,0.3L136,193.8z"/>
			<path class="st1" d="M146.6,181.8c0.2,0,0.3,0.1,0.3,0.3v1.9c0,0.2-0.1,0.3-0.3,0.3h-2.8v6.1c0,0.8,0.4,1.3,1,1.3
				c0.2,0,0.4,0,0.6-0.1c0.2-0.1,0.3,0,0.4,0.1l0.8,1.7c0.1,0.1,0,0.3-0.1,0.4c-0.4,0.2-1.1,0.4-1.7,0.4c-2.4,0-3.7-1.4-3.7-3.8
				v-6.1h-1.2c-0.2,0-0.3-0.1-0.3-0.3V182c0-0.2,0.1-0.3,0.3-0.3h1.2v-2.9c0-0.1,0.1-0.2,0.2-0.3l2.2-0.7c0.2,0,0.3,0,0.3,0.2v3.7
				H146.6z"/>
			<path class="st1" d="M158.1,192.6c-0.1-0.3-0.3-0.3-0.6,0c-1,1.1-2.2,1.5-3.4,1.5c-2.8,0-4.6-1.8-4.6-4.7V182
				c0-0.2,0.1-0.3,0.3-0.3h2.2c0.2,0,0.3,0.1,0.3,0.3v7.1c0,1.6,0.8,2.5,2.2,2.5c1.8,0,2.9-1.3,2.9-3.8V182c0-0.2,0.1-0.3,0.3-0.3
				h2.2c0.2,0,0.3,0.1,0.3,0.3v11.5c0,0.2-0.1,0.3-0.3,0.3h-1.2c-0.2,0-0.3-0.1-0.3-0.2L158.1,192.6z"/>
			<path class="st1" d="M170.4,183.7c0,0.2-0.1,0.3-0.3,0.3c-2.7,0.1-3.9,2-3.9,6.6v3c0,0.2-0.1,0.3-0.3,0.3h-2.2
				c-0.2,0-0.3-0.1-0.3-0.3V182c0-0.2,0.1-0.3,0.3-0.3h1.2c0.2,0,0.3,0.1,0.3,0.2l0.4,1.4c0.1,0.3,0.3,0.3,0.5,0.1
				c1-1.3,2.1-1.9,3.9-2c0.2,0,0.3,0.1,0.3,0.3V183.7z"/>
			<path class="st1" d="M176.9,193.6c0,0.2-0.1,0.3-0.3,0.3h-2.2c-0.2,0-0.3-0.1-0.3-0.3v-9.3H173c-0.2,0-0.3-0.1-0.3-0.3V182
				c0-0.2,0.1-0.3,0.3-0.3h3.7c0.2,0,0.3,0.1,0.3,0.3V193.6z M176.9,177.4c0,1.1-0.6,1.7-1.6,1.7s-1.7-0.6-1.7-1.7
				c0-1,0.6-1.7,1.7-1.7S176.9,176.4,176.9,177.4z"/>
			<path class="st1" d="M182.3,183c0.1,0.3,0.3,0.3,0.6,0c1-1.1,2.2-1.5,3.4-1.5c2.8,0,4.6,1.8,4.6,4.7v7.4c0,0.2-0.1,0.3-0.3,0.3
				h-2.2c-0.2,0-0.3-0.1-0.3-0.3v-7.1c0-1.6-0.8-2.5-2.2-2.5c-1.8,0-2.9,1.3-2.9,3.8v5.8c0,0.2-0.1,0.3-0.3,0.3h-2.2
				c-0.2,0-0.3-0.1-0.3-0.3V182c0-0.2,0.1-0.3,0.3-0.3h1.2c0.2,0,0.3,0.1,0.3,0.2L182.3,183z"/>
			<path class="st1" d="M196.6,196.7c0.5,0.1,1.4,0.3,2.1,0.3c1.7,0,3.3-0.7,3.7-2.7c0.1-1.1,0.1-1,0.1-1.5c0-0.2-0.1-0.3-0.3-0.1
				c-0.8,0.9-2,1.4-3.4,1.4c-3.3,0-5.3-2.4-5.3-6.3c0-4,2.2-6.4,5.8-6.4c1,0,2.1,0.2,3.1,0.6l2.2,0.9c0.1,0,0.2,0.1,0.2,0.3v10.4
				c0,3.7-2.2,5.7-6,5.7c-0.9,0-2-0.1-2.7-0.3l-1.2-0.3c-0.2-0.1-0.2-0.2-0.2-0.3l0.6-1.8c0-0.1,0.2-0.2,0.3-0.2L196.6,196.7z
				 M201.3,184.4c-0.5-0.3-1.3-0.4-2-0.4c-1.9,0-3,1.4-3,3.8c0,2.3,1,3.8,2.9,3.8c1.9,0,2.9-1.4,2.9-3.8v-3.1L201.3,184.4z"/>
		</g>
	</g>
</g>
</svg>
