<?xml version="1.0" encoding="utf-8"?>
<!-- Generator: Adobe Illustrator 24.1.2, SVG Export Plug-In . SVG Version: 6.00 Build 0)  -->
<svg version="1.1" id="Слой_1" xmlns="http://www.w3.org/2000/svg" xmlns:xlink="http://www.w3.org/1999/xlink" x="0px" y="0px"
	 viewBox="0 0 297 357" style="enable-background:new 0 0 297 357;" xml:space="preserve">
<style type="text/css">
	.st0{fill:#FFBF3C;}
	.st1{fill:#FFFFFF;}
</style>
<g>
	<path class="st0" d="M154,2.1c-3.1-2.8-7.8-2.8-11,0C116.1,25.8,0,132.5,0,206.1c0,83.3,66.5,150.8,148.5,150.8
		c82,0,148.5-67.5,148.5-150.8C297,132.5,180.9,25.8,154,2.1z M150.3,110c-29.4,0-56.3,10.2-77.5,27.3
		c19.1-26.7,45.8-56.8,77.5-86.7c31.7,29.9,58.4,60,77.5,86.7C206.6,120.2,179.7,110,150.3,110z"/>
	<g>
		<path class="st1" d="M94.2,309.9c0.1,0,0.2,0.1,0.2,0.2v1.4c0,0.1-0.1,0.2-0.2,0.2h-2v4.4c0,0.6,0.3,0.9,0.7,0.9
			c0.2,0,0.3,0,0.5-0.1c0.1-0.1,0.2,0,0.3,0.1l0.6,1.2c0.1,0.1,0,0.2-0.1,0.3c-0.3,0.2-0.8,0.3-1.2,0.3c-1.7,0-2.7-1-2.7-2.8v-4.4
			h-0.9c-0.1,0-0.2-0.1-0.2-0.2v-1.4c0-0.1,0.1-0.2,0.2-0.2h0.9v-2.1c0-0.1,0.1-0.2,0.2-0.2l1.6-0.5c0.1,0,0.2,0,0.2,0.2v2.7H94.2z"
			/>
		<path class="st1" d="M104.1,314.2c0,2.8-1.6,4.6-4.1,4.6c-2.6,0-4.1-1.8-4.1-4.6c0-2.8,1.6-4.5,4.1-4.5
			C102.5,309.7,104.1,311.5,104.1,314.2z M97.8,314.2c0,1.7,0.8,2.7,2.2,2.7c1.3,0,2.2-1,2.2-2.7c0-1.7-0.8-2.7-2.2-2.7
			C98.6,311.5,97.8,312.5,97.8,314.2z"/>
		<path class="st1" d="M107.5,310.8c0.1,0.2,0.2,0.2,0.4,0c0.7-0.8,1.6-1.1,2.5-1.1c2,0,3.3,1.3,3.3,3.4v5.3c0,0.1-0.1,0.2-0.2,0.2
			h-1.6c-0.1,0-0.2-0.1-0.2-0.2v-5.1c0-1.1-0.6-1.8-1.6-1.8c-1.3,0-2.1,1-2.1,2.7v4.2c0,0.1-0.1,0.2-0.2,0.2h-1.6
			c-0.1,0-0.2-0.1-0.2-0.2v-8.3c0-0.1,0.1-0.2,0.2-0.2h0.9c0.1,0,0.2,0.1,0.2,0.2L107.5,310.8z"/>
		<path class="st1" d="M118,314.7c-1.5-0.4-2.2-1.1-2.2-2.4c0-1.6,1.2-2.6,3.3-2.6c0.8,0,1.6,0.1,2.2,0.3l0.8,0.2
			c0.1,0,0.2,0.1,0.1,0.3l-0.4,1.3c0,0.1-0.1,0.2-0.3,0.1l-0.8-0.2c-0.5-0.1-1.2-0.2-1.7-0.2c-0.8,0-1.3,0.3-1.3,0.8
			c0,0.4,0.3,0.7,0.8,0.8l1.8,0.5c1.6,0.4,2.3,1.2,2.3,2.5c0,1.7-1.3,2.7-3.4,2.7c-0.9,0-1.9-0.1-2.7-0.4l-0.7-0.2
			c-0.1,0-0.2-0.1-0.1-0.3l0.4-1.3c0-0.1,0.1-0.2,0.2-0.1l0.6,0.2c0.7,0.2,1.6,0.3,2.3,0.3c0.9,0,1.4-0.3,1.4-0.9
			c0-0.4-0.3-0.7-0.8-0.9L118,314.7z"/>
		<path class="st1" d="M129.7,310.8c0.1,0.2,0.2,0.2,0.3,0c0.7-0.8,1.5-1.1,2.5-1.1c2.3,0,3.8,1.7,3.8,4.5c0,2.8-1.5,4.6-4,4.6
			c-0.6,0-1.1-0.1-1.6-0.3l-0.5-0.2v4c0,0.1-0.1,0.2-0.2,0.2h-1.6c-0.1,0-0.2-0.1-0.2-0.2v-12.2c0-0.1,0.1-0.2,0.2-0.2h0.9
			c0.1,0,0.2,0.1,0.2,0.2L129.7,310.8z M130.7,316.7c0.4,0.2,0.9,0.3,1.5,0.3c1.4,0,2.2-1,2.2-2.7c0-1.7-0.8-2.7-2.1-2.7
			c-1.3,0-2.1,1.1-2.1,2.7v2.2L130.7,316.7z"/>
		<path class="st1" d="M144,318.5c-0.6,0.2-1.3,0.2-1.8,0.2c-2.7,0-4.2-1.8-4.2-4.5c0-2.8,1.5-4.5,4.2-4.5c2.2,0,3.5,1.1,3.5,2.9
			c0,1.4-0.8,2.2-2.6,2.4l-2.8,0.4c0.2,0.9,0.9,1.5,2,1.5c0.5,0,1-0.1,1.4-0.2l0.8-0.2c0.1,0,0.2,0,0.3,0.1l0.4,1.3
			c0,0.1,0,0.2-0.1,0.3L144,318.5z M142.6,313.4c0.6-0.1,1-0.4,1-0.9c0-0.7-0.6-1.1-1.5-1.1c-1.2,0-2,0.7-2.1,2.4L142.6,313.4z"/>
		<path class="st1" d="M152.5,311.3c0,0.1-0.1,0.2-0.2,0.2c-2,0.1-2.8,1.5-2.8,4.8v2.1c0,0.1-0.1,0.2-0.2,0.2h-1.6
			c-0.1,0-0.2-0.1-0.2-0.2v-8.3c0-0.1,0.1-0.2,0.2-0.2h0.9c0.1,0,0.2,0.1,0.2,0.2l0.3,1c0.1,0.2,0.2,0.2,0.4,0.1
			c0.7-0.9,1.5-1.4,2.8-1.4c0.1,0,0.2,0.1,0.2,0.2V311.3z"/>
		<path class="st1" d="M159.7,310.8c0.1,0.2,0.2,0.2,0.4,0c0.7-0.8,1.5-1.1,2.3-1.1c1,0,1.8,0.5,2.3,1.2c0.2,0.3,0.4,0.2,0.6,0
			c0.8-0.9,1.6-1.2,2.5-1.2c2,0,3.2,1.3,3.2,3.4v5.3c0,0.1-0.1,0.2-0.2,0.2h-1.6c-0.1,0-0.2-0.1-0.2-0.2v-5.1c0-1.1-0.5-1.8-1.4-1.8
			c-1.4,0-2,1.1-2,2.7v4.2c0,0.1-0.1,0.2-0.2,0.2h-1.6c-0.1,0-0.2-0.1-0.2-0.2v-5.1c0-1.1-0.5-1.8-1.4-1.8c-1.4,0-2,1.1-2,2.7v4.2
			c0,0.1-0.1,0.2-0.2,0.2h-1.6c-0.1,0-0.2-0.1-0.2-0.2v-8.3c0-0.1,0.1-0.2,0.2-0.2h0.9c0.1,0,0.2,0.1,0.2,0.2L159.7,310.8z"/>
		<path class="st1" d="M181.2,314.2c0,2.8-1.6,4.6-4.1,4.6c-2.6,0-4.1-1.8-4.1-4.6c0-2.8,1.6-4.5,4.1-4.5
			C179.6,309.7,181.2,311.5,181.2,314.2z M174.9,314.2c0,1.7,0.8,2.7,2.2,2.7c1.3,0,2.2-1,2.2-2.7c0-1.7-0.8-2.7-2.2-2.7
			C175.7,311.5,174.9,312.5,174.9,314.2z"/>
		<path class="st1" d="M184.6,310.8c0.1,0.2,0.2,0.2,0.4,0c0.7-0.8,1.6-1.1,2.5-1.1c2,0,3.3,1.3,3.3,3.4v5.3c0,0.1-0.1,0.2-0.2,0.2
			H189c-0.1,0-0.2-0.1-0.2-0.2v-5.1c0-1.1-0.6-1.8-1.6-1.8c-1.3,0-2.1,1-2.1,2.7v4.2c0,0.1-0.1,0.2-0.2,0.2h-1.6
			c-0.1,0-0.2-0.1-0.2-0.2v-8.3c0-0.1,0.1-0.2,0.2-0.2h0.9c0.1,0,0.2,0.1,0.2,0.2L184.6,310.8z"/>
		<path class="st1" d="M197.7,309.9c0.1,0,0.2,0.1,0.2,0.2v1.4c0,0.1-0.1,0.2-0.2,0.2h-2v4.4c0,0.6,0.3,0.9,0.7,0.9
			c0.2,0,0.3,0,0.5-0.1c0.1-0.1,0.2,0,0.3,0.1l0.6,1.2c0.1,0.1,0,0.2-0.1,0.3c-0.3,0.2-0.8,0.3-1.2,0.3c-1.7,0-2.7-1-2.7-2.8v-4.4
			h-0.9c-0.1,0-0.2-0.1-0.2-0.2v-1.4c0-0.1,0.1-0.2,0.2-0.2h0.9v-2.1c0-0.1,0.1-0.2,0.2-0.2l1.6-0.5c0.1,0,0.2,0,0.2,0.2v2.7H197.7z
			"/>
		<path class="st1" d="M201.8,308.5c0,0.9-0.1,1.4-0.3,2c-0.1,0.2,0,0.3,0.3,0.2c0.6-0.7,1.4-1,2.4-1c2,0,3.3,1.3,3.3,3.4v5.3
			c0,0.1-0.1,0.2-0.2,0.2h-1.6c-0.1,0-0.2-0.1-0.2-0.2v-5.1c0-1.1-0.6-1.8-1.6-1.8c-1.5,0-2.1,1.1-2.1,2.7v4.2
			c0,0.1-0.1,0.2-0.2,0.2H200c-0.1,0-0.2-0.1-0.2-0.2v-12.5c0-0.1,0.1-0.2,0.2-0.2h1.6c0.1,0,0.2,0.1,0.2,0.2V308.5z"/>
	</g>
	<g>
		<path class="st1" d="M104.3,251.8c-0.1,0.4-0.4,0.6-0.7,0.6H92v2.9c0,0.8-0.1,2.2-0.2,3c-0.1,0.6,0.2,0.5,0.9,0.4l1.4-0.2
			c0.8-0.1,1.4-0.2,2.2-0.2c7-0.1,11.6,4.3,11.6,11.4c0,7.7-5,12.2-13.5,12.2c-3.1,0-5.7-0.6-8.6-1.5l-3.5-1.2
			c-0.5-0.1-0.6-0.4-0.4-0.8l2.1-5.4c0.2-0.4,0.5-0.5,0.9-0.4l3.2,1.2c2.3,0.7,4.6,1.1,6.3,1.1c3.3,0,5.2-1.9,5.3-5.1
			c0.1-2.5-1.4-4.3-4.9-4.3c-1,0-2.3,0.2-3.8,0.4l-5.5,0.8c-0.4,0.1-0.6-0.1-0.9-0.3l-0.4-0.4c-0.3-0.2-0.4-0.5-0.4-0.8v-19.1
			c0-0.4,0.3-0.7,0.7-0.7h20.7c0.5,0,0.7,0.3,0.6,0.8L104.3,251.8z"/>
		<path class="st1" d="M145.2,251.8c-0.1,0.4-0.4,0.6-0.7,0.6h-11.6v2.9c0,0.8-0.1,2.2-0.2,3c-0.1,0.6,0.2,0.5,0.9,0.4l1.4-0.2
			c0.8-0.1,1.4-0.2,2.2-0.2c7-0.1,11.6,4.3,11.6,11.4c0,7.7-5,12.2-13.5,12.2c-3.1,0-5.7-0.6-8.6-1.5l-3.5-1.2
			c-0.5-0.1-0.6-0.4-0.4-0.8l2.1-5.4c0.2-0.4,0.5-0.5,0.9-0.4l3.2,1.2c2.3,0.7,4.6,1.1,6.3,1.1c3.3,0,5.2-1.9,5.3-5.1
			c0.1-2.5-1.4-4.3-4.9-4.3c-1,0-2.3,0.2-3.8,0.4l-5.5,0.8c-0.4,0.1-0.6-0.1-0.9-0.3l-0.4-0.4c-0.3-0.2-0.4-0.5-0.4-0.8v-19.1
			c0-0.4,0.3-0.7,0.7-0.7h20.7c0.5,0,0.7,0.3,0.6,0.8L145.2,251.8z"/>
		<path class="st1" d="M182,263.3c0,11.4-5.4,18.5-14.3,18.5c-8.8,0-14.3-7.1-14.3-18.5c0-11.4,5.4-18.6,14.3-18.6
			C176.6,244.7,182,251.9,182,263.3z M161.6,263.3c0,7.2,2.3,11.4,6.1,11.4c3.9,0,6.1-4.3,6.1-11.4c0-7.2-2.2-11.4-6.1-11.4
			C163.9,251.9,161.6,256.2,161.6,263.3z"/>
		<path class="st1" d="M215.2,263.3c0,11.4-5.4,18.5-14.3,18.5c-8.8,0-14.3-7.1-14.3-18.5c0-11.4,5.4-18.6,14.3-18.6
			C209.8,244.7,215.2,251.9,215.2,263.3z M194.8,263.3c0,7.2,2.3,11.4,6.1,11.4c3.9,0,6.1-4.3,6.1-11.4c0-7.2-2.2-11.4-6.1-11.4
			C197.1,251.9,194.8,256.2,194.8,263.3z"/>
	</g>
	<g>
		<g>
			<path class="st1" d="M53.7,172.9c-3.6-1.4-4.9-2.9-4.9-5.8c0-3.6,2.7-5.6,7-5.6c1.6,0,3.2,0.3,4.6,0.7l1.7,0.6
				c0.2,0.1,0.3,0.2,0.2,0.4l-0.8,2.3c-0.1,0.2-0.2,0.3-0.4,0.2l-1.6-0.5c-1.2-0.4-2.4-0.6-3.8-0.6c-2.1,0-3.6,1-3.6,2.5
				c0,1.2,0.7,2.1,2.9,2.9l3.3,1.2c3.5,1.3,5,2.8,5,5.7c0,3.8-2.8,5.9-7.4,5.9c-2,0-3.6-0.3-5.7-1l-1.5-0.5
				c-0.2-0.1-0.3-0.2-0.2-0.4l0.8-2.3c0.1-0.2,0.2-0.3,0.4-0.2l1.6,0.5c1.6,0.5,3,0.8,4.6,0.8c2.2,0,4-0.8,4-2.8
				c0-1.3-1.3-2.2-2.9-2.8L53.7,172.9z"/>
			<path class="st1" d="M76.8,181.1c-0.2-0.4-0.4-0.3-0.7,0c-1.2,1.3-2.6,1.8-4.1,1.8c-3.4,0-5.4-2.1-5.4-5.6v-8.7
				c0-0.2,0.1-0.3,0.3-0.3h2.6c0.2,0,0.3,0.1,0.3,0.3v8.4c0,1.9,1,3,2.6,3c2.2,0,3.5-1.6,3.5-4.5v-6.9c0-0.2,0.1-0.3,0.3-0.3h2.6
				c0.2,0,0.3,0.1,0.3,0.3v13.7c0,0.2-0.1,0.3-0.3,0.3h-1.5c-0.2,0-0.3-0.1-0.4-0.3L76.8,181.1z"/>
			<path class="st1" d="M85.7,169.7c0.2,0.4,0.4,0.3,0.7,0c1.2-1.3,2.6-1.8,4.1-1.8c3.4,0,5.4,2.1,5.4,5.6v8.7
				c0,0.2-0.1,0.3-0.3,0.3h-2.6c-0.2,0-0.3-0.1-0.3-0.3v-8.4c0-1.9-1-3-2.6-3c-2.2,0-3.5,1.6-3.5,4.5v6.9c0,0.2-0.1,0.3-0.3,0.3
				h-2.6c-0.2,0-0.3-0.1-0.3-0.3v-13.7c0-0.2,0.1-0.3,0.3-0.3H85c0.2,0,0.3,0.1,0.4,0.3L85.7,169.7z"/>
			<path class="st1" d="M100.6,166.2c0-3.2,1.9-5.2,5-5.2c0.5,0,1.1,0.1,1.7,0.3l0.2,0.1c0.2,0.1,0.3,0.2,0.2,0.4l-0.7,2.2
				c-0.1,0.2-0.2,0.3-0.4,0.2l-0.1-0.1c-0.3-0.1-0.6-0.1-0.9-0.1c-1.1,0-1.7,0.8-1.7,2.2v2h3.3c0.2,0,0.3,0.1,0.3,0.3v2.3
				c0,0.2-0.1,0.3-0.3,0.3h-3.3v11.1c0,0.2-0.1,0.3-0.3,0.3h-2.6c-0.2,0-0.3-0.1-0.3-0.3v-11.1h-1.5c-0.2,0-0.3-0.1-0.3-0.3v-2.3
				c0-0.2,0.1-0.3,0.3-0.3h1.5V166.2z"/>
			<path class="st1" d="M114,179.1c0,0.5,0.2,0.8,0.6,0.8c0.1,0,0.1,0,0.2,0c0.2,0,0.3,0,0.4,0.2l0.9,2.1c0.1,0.2,0,0.4-0.1,0.4
				c-0.4,0.2-0.9,0.3-1.4,0.3c-2.4,0-3.9-1.4-3.9-3.8v-17.4c0-0.2,0.1-0.3,0.3-0.3h2.6c0.2,0,0.3,0.1,0.3,0.3V179.1z"/>
			<path class="st1" d="M131.6,175.4c0,4.6-2.6,7.5-6.8,7.5c-4.2,0-6.8-2.9-6.8-7.5c0-4.6,2.6-7.5,6.8-7.5
				C129,167.9,131.6,170.8,131.6,175.4z M121.2,175.4c0,2.8,1.3,4.5,3.6,4.5c2.2,0,3.6-1.7,3.6-4.5c0-2.8-1.4-4.5-3.6-4.5
				C122.6,170.9,121.2,172.6,121.2,175.4z"/>
			<path class="st1" d="M152.3,176.8c-0.7,2.3-1.1,3.8-1.5,5.5c0,0.2-0.1,0.3-0.4,0.3h-3.3c-0.2,0-0.3-0.1-0.4-0.3
				c-0.3-1-0.6-2-0.9-3.1l-1.1-3.1c-0.2-0.6-0.4-1.6-0.5-2.2c-0.1-0.4-0.3-0.4-0.4,0c-0.1,0.6-0.4,1.6-0.5,2.2l-1,3.1
				c-0.3,1.1-0.7,2.1-0.9,3.1c0,0.2-0.1,0.3-0.4,0.3h-3.3c-0.2,0-0.3-0.1-0.4-0.3c-0.4-1.7-0.8-3.1-1.5-5.5l-2.4-8.2
				c-0.1-0.2,0-0.4,0.3-0.4h2.7c0.2,0,0.3,0.1,0.4,0.3l1.5,5.2c0.5,1.9,0.8,3.3,1.1,4.7c0.1,0.3,0.4,0.3,0.5,0
				c0.4-1.5,0.9-3.3,1.4-5.2l1.6-4.7c0.1-0.2,0.2-0.3,0.4-0.3h1.8c0.2,0,0.3,0.1,0.4,0.3l1.6,4.7c0.6,1.9,1.1,3.8,1.4,5.2
				c0.1,0.3,0.4,0.3,0.5,0c0.3-1.5,0.6-2.8,1.1-4.7l1.5-5.2c0.1-0.2,0.2-0.3,0.4-0.3h2.7c0.2,0,0.4,0.1,0.3,0.4L152.3,176.8z"/>
			<path class="st1" d="M166.9,182.5c-1.1,0.3-2.1,0.4-3,0.4c-4.5,0-7-2.9-7-7.5c0-4.6,2.5-7.5,6.9-7.5c3.6,0,5.7,1.8,5.7,4.7
				c0,2.3-1.4,3.6-4.4,4l-4.7,0.7c0.3,1.6,1.5,2.5,3.4,2.5c0.8,0,1.7-0.1,2.3-0.3l1.3-0.3c0.2-0.1,0.4,0,0.4,0.2l0.6,2.2
				c0.1,0.2,0,0.4-0.2,0.4L166.9,182.5z M164.6,174.1c1-0.2,1.6-0.7,1.6-1.4c0-1.2-0.9-1.8-2.5-1.8c-2,0-3.3,1.2-3.5,3.9
				L164.6,174.1z"/>
			<path class="st1" d="M181,170.5c0,0.2-0.1,0.3-0.3,0.3c-3.2,0.1-4.7,2.4-4.7,7.8v3.5c0,0.2-0.1,0.3-0.3,0.3H173
				c-0.2,0-0.3-0.1-0.3-0.3v-13.7c0-0.2,0.1-0.3,0.3-0.3h1.5c0.2,0,0.3,0.1,0.4,0.3l0.5,1.7c0.2,0.3,0.3,0.4,0.6,0.1
				c1.2-1.5,2.5-2.3,4.7-2.3c0.2,0,0.3,0.1,0.3,0.3V170.5z"/>
			<path class="st1" d="M193.5,185.9c0.6,0.2,1.7,0.3,2.5,0.3c2,0,3.9-0.8,4.4-3.2c0.1-1.3,0.1-1.2,0.1-1.8c0-0.2-0.1-0.4-0.4-0.1
				c-1,1.1-2.4,1.7-4.1,1.7c-3.9,0-6.3-2.9-6.3-7.4c0-4.8,2.6-7.6,6.9-7.6c1.2,0,2.5,0.2,3.6,0.7l2.6,1.1c0.2,0.1,0.3,0.2,0.3,0.4
				v12.4c0,4.4-2.6,6.8-7.1,6.8c-1.1,0-2.4-0.1-3.2-0.4l-1.5-0.4c-0.2-0.1-0.3-0.2-0.2-0.4l0.7-2.2c0.1-0.2,0.2-0.3,0.4-0.2
				L193.5,185.9z M199.1,171.4c-0.7-0.3-1.5-0.5-2.4-0.5c-2.3,0-3.6,1.7-3.6,4.5c0,2.7,1.2,4.5,3.4,4.5c2.3,0,3.5-1.6,3.5-4.5v-3.6
				L199.1,171.4z"/>
			<path class="st1" d="M215.3,170.5c0,0.2-0.1,0.3-0.3,0.3c-3.2,0.1-4.7,2.4-4.7,7.8v3.5c0,0.2-0.1,0.3-0.3,0.3h-2.6
				c-0.2,0-0.3-0.1-0.3-0.3v-13.7c0-0.2,0.1-0.3,0.3-0.3h1.5c0.2,0,0.3,0.1,0.4,0.3l0.5,1.7c0.2,0.3,0.3,0.4,0.6,0.1
				c1.2-1.5,2.5-2.3,4.7-2.3c0.2,0,0.3,0.1,0.3,0.3V170.5z"/>
			<path class="st1" d="M223,182.2c0,0.2-0.1,0.3-0.3,0.3h-2.6c-0.2,0-0.3-0.1-0.3-0.3v-11.1h-1.5c-0.2,0-0.3-0.1-0.3-0.3v-2.3
				c0-0.2,0.1-0.3,0.3-0.3h4.4c0.2,0,0.3,0.1,0.3,0.3V182.2z M223,163.1c0,1.3-0.7,2-2,2c-1.2,0-2-0.7-2-2c0-1.2,0.7-2,2-2
				C222.3,161.1,223,161.8,223,163.1z"/>
			<path class="st1" d="M230.3,176.2c-2.5-0.6-3.6-1.9-3.6-4c0-2.7,2-4.3,5.4-4.3c1.3,0,2.7,0.2,3.7,0.5l1.3,0.3
				c0.2,0.1,0.3,0.2,0.2,0.4l-0.6,2.2c-0.1,0.2-0.2,0.3-0.4,0.2l-1.3-0.4c-0.8-0.2-2-0.4-2.9-0.4c-1.4,0-2.2,0.5-2.2,1.3
				c0,0.7,0.4,1.1,1.3,1.4l3,0.8c2.6,0.7,3.7,2,3.7,4.1c0,2.8-2.1,4.5-5.6,4.5c-1.5,0-3.1-0.2-4.5-0.6l-1.2-0.3
				c-0.2-0.1-0.3-0.2-0.2-0.4l0.7-2.2c0.1-0.2,0.2-0.3,0.4-0.2l1.1,0.3c1.1,0.3,2.7,0.5,3.8,0.5c1.5,0,2.3-0.6,2.3-1.5
				c0-0.7-0.4-1.2-1.4-1.5L230.3,176.2z"/>
			<path class="st1" d="M248.5,168.2c0.2,0,0.3,0.1,0.3,0.3v2.3c0,0.2-0.1,0.3-0.3,0.3h-3.3v7.2c0,1,0.4,1.6,1.2,1.6
				c0.3,0,0.5,0,0.8-0.1c0.2-0.1,0.4-0.1,0.4,0.1l0.9,2c0.1,0.2,0,0.3-0.1,0.4c-0.5,0.3-1.3,0.5-2,0.5c-2.8,0-4.4-1.7-4.4-4.6v-7.2
				h-1.5c-0.2,0-0.3-0.1-0.3-0.3v-2.3c0-0.2,0.1-0.3,0.3-0.3h1.5v-3.4c0-0.2,0.1-0.3,0.3-0.4l2.6-0.9c0.2-0.1,0.4,0,0.4,0.3v4.4
				H248.5z"/>
			<path class="st1" d="M81.3,201.3c0.1,0.3,0.4,0.3,0.6,0c1.2-1.3,2.5-1.8,4.1-1.8c3.9,0,6.2,2.9,6.2,7.5c0,4.6-2.5,7.5-6.6,7.5
				c-1.1,0-1.8-0.2-2.7-0.6l-0.8-0.4v6.6c0,0.2-0.1,0.3-0.3,0.3h-2.6c-0.2,0-0.3-0.1-0.3-0.3v-20.1c0-0.2,0.1-0.3,0.3-0.3h1.5
				c0.2,0,0.3,0.1,0.4,0.3L81.3,201.3z M82.9,211c0.7,0.4,1.5,0.5,2.4,0.5c2.3,0,3.6-1.7,3.6-4.5c0-2.8-1.3-4.5-3.5-4.5
				c-2.2,0-3.4,1.8-3.4,4.4v3.7L82.9,211z"/>
			<path class="st1" d="M103.7,202.2c0,0.2-0.1,0.3-0.3,0.3c-3.2,0.1-4.7,2.4-4.7,7.8v3.5c0,0.2-0.1,0.3-0.3,0.3h-2.6
				c-0.2,0-0.3-0.1-0.3-0.3v-13.7c0-0.2,0.1-0.3,0.3-0.3h1.5c0.2,0,0.3,0.1,0.4,0.3l0.5,1.7c0.2,0.3,0.3,0.4,0.6,0.1
				c1.2-1.5,2.5-2.3,4.7-2.3c0.2,0,0.3,0.1,0.3,0.3V202.2z"/>
			<path class="st1" d="M119.8,207c0,4.6-2.6,7.5-6.8,7.5c-4.2,0-6.8-2.9-6.8-7.5c0-4.6,2.6-7.5,6.8-7.5
				C117.2,199.5,119.8,202.4,119.8,207z M109.4,207c0,2.8,1.3,4.5,3.6,4.5c2.2,0,3.6-1.7,3.6-4.5c0-2.8-1.4-4.5-3.6-4.5
				C110.7,202.5,109.4,204.2,109.4,207z"/>
			<path class="st1" d="M135.7,213.9c0,0.2-0.1,0.3-0.3,0.3h-1.5c-0.2,0-0.3-0.1-0.4-0.3l-0.3-1.2c-0.1-0.3-0.3-0.3-0.6,0
				c-1.1,1.2-2.5,1.8-4.1,1.8c-3.9,0-6.2-2.9-6.2-7.5c0-4.6,2.5-7.5,6.6-7.5c1,0,1.8,0.1,2.6,0.5l0.9,0.4v-7.1
				c0-0.2,0.1-0.3,0.3-0.3h2.6c0.2,0,0.3,0.1,0.3,0.3V213.9z M131.6,203c-0.7-0.3-1.5-0.5-2.4-0.5c-2.3,0-3.6,1.7-3.6,4.5
				c0,2.8,1.3,4.5,3.5,4.5c2.2,0,3.4-1.9,3.4-4.4v-3.8L131.6,203z"/>
			<path class="st1" d="M149.7,212.7c-0.2-0.4-0.4-0.3-0.7,0c-1.2,1.3-2.6,1.8-4.1,1.8c-3.4,0-5.4-2.1-5.4-5.6v-8.7
				c0-0.2,0.1-0.3,0.3-0.3h2.6c0.2,0,0.3,0.1,0.3,0.3v8.4c0,1.9,1,3,2.6,3c2.2,0,3.5-1.6,3.5-4.5v-6.9c0-0.2,0.1-0.3,0.3-0.3h2.6
				c0.2,0,0.3,0.1,0.3,0.3v13.7c0,0.2-0.1,0.3-0.3,0.3h-1.5c-0.2,0-0.3-0.1-0.4-0.3L149.7,212.7z"/>
			<path class="st1" d="M165.2,214.1c-0.9,0.2-1.8,0.4-2.8,0.4c-4.5,0-7-2.9-7-7.5c0-4.6,2.5-7.5,7.1-7.5c0.8,0,1.6,0.1,2.5,0.4
				l1.3,0.4c0.2,0.1,0.3,0.2,0.2,0.4l-0.7,2.2c-0.1,0.2-0.2,0.3-0.4,0.2l-1-0.3c-0.7-0.2-1.5-0.3-2-0.3c-2.6,0-3.9,1.7-3.9,4.5
				c0,2.9,1.3,4.6,3.8,4.6c0.6,0,1.5-0.1,2.2-0.3l1-0.3c0.2-0.1,0.4,0,0.4,0.2l0.7,2.2c0.1,0.2,0,0.4-0.2,0.4L165.2,214.1z"/>
			<path class="st1" d="M177.7,199.8c0.2,0,0.3,0.1,0.3,0.3v2.3c0,0.2-0.1,0.3-0.3,0.3h-3.3v7.2c0,1,0.4,1.6,1.2,1.6
				c0.3,0,0.5,0,0.8-0.1c0.2-0.1,0.4-0.1,0.4,0.1l0.9,2c0.1,0.2,0,0.3-0.1,0.4c-0.5,0.3-1.3,0.5-2,0.5c-2.8,0-4.4-1.7-4.4-4.6v-7.2
				h-1.5c-0.2,0-0.3-0.1-0.3-0.3v-2.3c0-0.2,0.1-0.3,0.3-0.3h1.5v-3.4c0-0.2,0.1-0.3,0.3-0.4l2.6-0.9c0.2-0.1,0.4,0,0.4,0.3v4.4
				H177.7z"/>
			<path class="st1" d="M185.6,213.9c0,0.2-0.1,0.3-0.3,0.3h-2.6c-0.2,0-0.3-0.1-0.3-0.3v-11.1h-1.5c-0.2,0-0.3-0.1-0.3-0.3v-2.3
				c0-0.2,0.1-0.3,0.3-0.3h4.4c0.2,0,0.3,0.1,0.3,0.3V213.9z M185.6,194.7c0,1.3-0.7,2-2,2s-2-0.7-2-2c0-1.2,0.7-2,2-2
				S185.6,193.4,185.6,194.7z"/>
			<path class="st1" d="M202.5,207c0,4.6-2.6,7.5-6.8,7.5c-4.2,0-6.8-2.9-6.8-7.5c0-4.6,2.6-7.5,6.8-7.5
				C199.9,199.5,202.5,202.4,202.5,207z M192.1,207c0,2.8,1.3,4.5,3.6,4.5c2.2,0,3.6-1.7,3.6-4.5c0-2.8-1.4-4.5-3.6-4.5
				C193.4,202.5,192.1,204.2,192.1,207z"/>
			<path class="st1" d="M208.2,201.3c0.2,0.4,0.4,0.3,0.7,0c1.2-1.3,2.6-1.8,4.1-1.8c3.4,0,5.4,2.1,5.4,5.6v8.7
				c0,0.2-0.1,0.3-0.3,0.3h-2.6c-0.2,0-0.3-0.1-0.3-0.3v-8.4c0-1.9-1-3-2.6-3c-2.2,0-3.5,1.6-3.5,4.5v6.9c0,0.2-0.1,0.3-0.3,0.3
				h-2.6c-0.2,0-0.3-0.1-0.3-0.3v-13.7c0-0.2,0.1-0.3,0.3-0.3h1.5c0.2,0,0.3,0.1,0.4,0.3L208.2,201.3z"/>
		</g>
	</g>
</g>
</svg>
