<?xml version="1.0" encoding="utf-8"?>
<!-- Generator: Adobe Illustrator 24.1.2, SVG Export Plug-In . SVG Version: 6.00 Build 0)  -->
<svg version="1.1" id="Слой_1" xmlns="http://www.w3.org/2000/svg" xmlns:xlink="http://www.w3.org/1999/xlink" x="0px" y="0px"
	 viewBox="0 0 316 380" style="enable-background:new 0 0 316 380;" xml:space="preserve">
<style type="text/css">
	.st0{fill:#FFBF3C;}
	.st1{fill:#FFFFFF;}
</style>
<g>
	<path class="st0" d="M163.8,2.4c-3.3-2.9-8.4-2.9-11.7,0C123.6,27.6,0,141,0,219.4C0,308,70.7,379.9,158,379.9
		c87.3,0,158-71.8,158-160.5C316,141,192.4,27.6,163.8,2.4z M159.9,117.1c-31.2,0-59.9,10.9-82.5,29.1
		c20.3-28.4,48.7-60.4,82.5-92.2c33.8,31.8,62.2,63.8,82.5,92.2C219.8,128,191.2,117.1,159.9,117.1z"/>
	<g>
		<path class="st1" d="M100.3,329.8c0.1,0,0.2,0.1,0.2,0.2v1.5c0,0.1-0.1,0.2-0.2,0.2h-2.1v4.6c0,0.6,0.3,1,0.7,1
			c0.2,0,0.3,0,0.5-0.1c0.1-0.1,0.2,0,0.3,0.1l0.6,1.3c0.1,0.1,0,0.2-0.1,0.3c-0.3,0.2-0.8,0.3-1.3,0.3c-1.8,0-2.9-1.1-2.9-2.9v-4.6
			h-0.9c-0.1,0-0.2-0.1-0.2-0.2V330c0-0.1,0.1-0.2,0.2-0.2H96v-2.2c0-0.1,0.1-0.2,0.2-0.2l1.7-0.6c0.2,0,0.2,0,0.2,0.2v2.8H100.3z"
			/>
		<path class="st1" d="M110.7,334.4c0,3-1.7,4.8-4.4,4.8c-2.7,0-4.4-1.9-4.4-4.8c0-2.9,1.7-4.8,4.4-4.8
			C109,329.6,110.7,331.5,110.7,334.4z M104,334.4c0,1.8,0.9,2.9,2.3,2.9c1.4,0,2.3-1.1,2.3-2.9c0-1.8-0.9-2.9-2.3-2.9
			C104.9,331.5,104,332.6,104,334.4z"/>
		<path class="st1" d="M114.4,330.7c0.1,0.2,0.2,0.2,0.4,0c0.7-0.8,1.7-1.2,2.6-1.2c2.2,0,3.5,1.4,3.5,3.6v5.6
			c0,0.1-0.1,0.2-0.2,0.2H119c-0.1,0-0.2-0.1-0.2-0.2v-5.4c0-1.2-0.6-1.9-1.7-1.9c-1.4,0-2.2,1-2.2,2.9v4.4c0,0.1-0.1,0.2-0.2,0.2
			H113c-0.1,0-0.2-0.1-0.2-0.2V330c0-0.1,0.1-0.2,0.2-0.2h1c0.1,0,0.2,0.1,0.2,0.2L114.4,330.7z"/>
		<path class="st1" d="M125.5,334.9c-1.6-0.4-2.3-1.2-2.3-2.6c0-1.7,1.3-2.7,3.5-2.7c0.9,0,1.7,0.1,2.4,0.3l0.8,0.2
			c0.1,0,0.2,0.1,0.2,0.3l-0.4,1.4c0,0.1-0.1,0.2-0.3,0.2l-0.8-0.2c-0.5-0.2-1.3-0.2-1.8-0.2c-0.9,0-1.4,0.3-1.4,0.8
			c0,0.4,0.3,0.7,0.9,0.9l1.9,0.5c1.7,0.4,2.4,1.3,2.4,2.7c0,1.8-1.3,2.9-3.6,2.9c-1,0-2-0.1-2.9-0.4l-0.7-0.2
			c-0.1,0-0.2-0.1-0.2-0.3l0.4-1.4c0-0.1,0.1-0.2,0.2-0.1l0.7,0.2c0.7,0.2,1.7,0.3,2.4,0.3c0.9,0,1.5-0.4,1.5-1
			c0-0.5-0.3-0.7-0.9-0.9L125.5,334.9z"/>
		<path class="st1" d="M138,330.8c0.1,0.2,0.2,0.2,0.4,0c0.7-0.8,1.6-1.2,2.7-1.2c2.5,0,4,1.9,4,4.8c0,3-1.6,4.8-4.3,4.8
			c-0.7,0-1.2-0.1-1.7-0.4l-0.5-0.2v4.3c0,0.1-0.1,0.2-0.2,0.2h-1.7c-0.1,0-0.2-0.1-0.2-0.2V330c0-0.1,0.1-0.2,0.2-0.2h1
			c0.1,0,0.2,0.1,0.2,0.2L138,330.8z M139.1,337c0.5,0.2,1,0.3,1.6,0.3c1.5,0,2.3-1.1,2.3-2.9c0-1.8-0.8-2.9-2.3-2.9
			c-1.4,0-2.2,1.2-2.2,2.8v2.4L139.1,337z"/>
		<path class="st1" d="M153.2,339c-0.7,0.2-1.3,0.2-1.9,0.2c-2.9,0-4.5-1.9-4.5-4.8c0-3,1.6-4.8,4.4-4.8c2.3,0,3.7,1.1,3.7,3
			c0,1.5-0.9,2.3-2.8,2.6l-3,0.5c0.2,1,1,1.6,2.2,1.6c0.5,0,1.1-0.1,1.5-0.2l0.8-0.2c0.1,0,0.2,0,0.3,0.2l0.4,1.4
			c0,0.1,0,0.2-0.2,0.3L153.2,339z M151.7,333.6c0.7-0.1,1-0.4,1-0.9c0-0.8-0.6-1.2-1.6-1.2c-1.3,0-2.1,0.8-2.3,2.5L151.7,333.6z"/>
		<path class="st1" d="M162.2,331.3c0,0.1-0.1,0.2-0.2,0.2c-2.1,0.1-3,1.5-3,5.1v2.3c0,0.1-0.1,0.2-0.2,0.2h-1.7
			c-0.1,0-0.2-0.1-0.2-0.2V330c0-0.1,0.1-0.2,0.2-0.2h1c0.1,0,0.2,0.1,0.2,0.2l0.3,1.1c0.1,0.2,0.2,0.2,0.4,0.1c0.8-1,1.6-1.5,3-1.5
			c0.1,0,0.2,0.1,0.2,0.2V331.3z"/>
		<path class="st1" d="M170,330.7c0.1,0.2,0.2,0.2,0.5,0c0.7-0.8,1.6-1.1,2.5-1.1c1.1,0,2,0.5,2.5,1.3c0.2,0.3,0.4,0.2,0.6,0
			c0.8-1,1.7-1.3,2.6-1.3c2.1,0,3.4,1.4,3.4,3.6v5.6c0,0.1-0.1,0.2-0.2,0.2h-1.7c-0.1,0-0.2-0.1-0.2-0.2v-5.4c0-1.2-0.5-1.9-1.5-1.9
			c-1.4,0-2.1,1.1-2.1,2.9v4.4c0,0.1-0.1,0.2-0.2,0.2h-1.7c-0.1,0-0.2-0.1-0.2-0.2v-5.4c0-1.2-0.5-1.9-1.5-1.9
			c-1.5,0-2.1,1.1-2.1,2.9v4.4c0,0.1-0.1,0.2-0.2,0.2h-1.7c-0.1,0-0.2-0.1-0.2-0.2V330c0-0.1,0.1-0.2,0.2-0.2h1
			c0.1,0,0.2,0.1,0.2,0.2L170,330.7z"/>
		<path class="st1" d="M192.8,334.4c0,3-1.7,4.8-4.4,4.8c-2.7,0-4.4-1.9-4.4-4.8c0-2.9,1.7-4.8,4.4-4.8
			C191.1,329.6,192.8,331.5,192.8,334.4z M186.1,334.4c0,1.8,0.9,2.9,2.3,2.9c1.4,0,2.3-1.1,2.3-2.9c0-1.8-0.9-2.9-2.3-2.9
			C186.9,331.5,186.1,332.6,186.1,334.4z"/>
		<path class="st1" d="M196.4,330.7c0.1,0.2,0.2,0.2,0.4,0c0.7-0.8,1.7-1.2,2.6-1.2c2.2,0,3.5,1.4,3.5,3.6v5.6
			c0,0.1-0.1,0.2-0.2,0.2h-1.7c-0.1,0-0.2-0.1-0.2-0.2v-5.4c0-1.2-0.6-1.9-1.7-1.9c-1.4,0-2.2,1-2.2,2.9v4.4c0,0.1-0.1,0.2-0.2,0.2
			h-1.7c-0.1,0-0.2-0.1-0.2-0.2V330c0-0.1,0.1-0.2,0.2-0.2h1c0.1,0,0.2,0.1,0.2,0.2L196.4,330.7z"/>
		<path class="st1" d="M210.3,329.8c0.1,0,0.2,0.1,0.2,0.2v1.5c0,0.1-0.1,0.2-0.2,0.2h-2.1v4.6c0,0.6,0.3,1,0.7,1
			c0.2,0,0.3,0,0.5-0.1c0.1-0.1,0.2,0,0.3,0.1l0.6,1.3c0.1,0.1,0,0.2-0.1,0.3c-0.3,0.2-0.8,0.3-1.3,0.3c-1.8,0-2.9-1.1-2.9-2.9v-4.6
			h-0.9c-0.1,0-0.2-0.1-0.2-0.2V330c0-0.1,0.1-0.2,0.2-0.2h0.9v-2.2c0-0.1,0.1-0.2,0.2-0.2l1.7-0.6c0.2,0,0.2,0,0.2,0.2v2.8H210.3z"
			/>
		<path class="st1" d="M214.8,328.4c0,0.9-0.1,1.5-0.3,2.2c-0.1,0.2,0,0.3,0.3,0.2c0.6-0.7,1.5-1.1,2.6-1.1c2.2,0,3.5,1.4,3.5,3.6
			v5.6c0,0.1-0.1,0.2-0.2,0.2h-1.7c-0.1,0-0.2-0.1-0.2-0.2v-5.4c0-1.2-0.6-1.9-1.7-1.9c-1.5,0-2.2,1.2-2.2,2.9v4.4
			c0,0.1-0.1,0.2-0.2,0.2h-1.7c-0.1,0-0.2-0.1-0.2-0.2v-13.3c0-0.1,0.1-0.2,0.2-0.2h1.7c0.1,0,0.2,0.1,0.2,0.2V328.4z"/>
	</g>
	<g>
		<path class="st1" d="M100.7,278.2c-1.1,1.5-2.1,2.6-3.1,3.4c-0.6,0.5-0.3,1.1,0.5,0.8c1.4-0.4,3.2-0.6,4.7-0.6
			c5.8,0,11.5,4.8,11.5,12.8c0,8.3-5.4,13.2-14.5,13.2c-9.2,0-14.7-5.1-14.6-13.7c0.1-6.4,1.7-10.8,8.2-19.6l3.8-5.2
			c0.2-0.3,0.5-0.4,0.9-0.4h8.4c0.6,0,0.8,0.4,0.4,0.9L100.7,278.2z M105.6,294.6c0-3.3-2.2-5.5-5.9-5.5c-3.8,0-6,2.2-6,5.5
			c0,3.6,2.3,5.7,6,5.7C103.4,300.2,105.6,298.1,105.6,294.6z"/>
		<path class="st1" d="M160.3,288.1c0,12.2-5.8,19.7-15.2,19.7c-9.4,0-15.2-7.6-15.2-19.7s5.8-19.8,15.2-19.8
			C154.5,268.3,160.3,275.9,160.3,288.1z M138.6,288.1c0,7.6,2.4,12.2,6.5,12.2c4.2,0,6.5-4.5,6.5-12.2s-2.4-12.2-6.5-12.2
			C141,275.9,138.6,280.5,138.6,288.1z"/>
		<path class="st1" d="M195.6,288.1c0,12.2-5.8,19.7-15.2,19.7s-15.2-7.6-15.2-19.7s5.8-19.8,15.2-19.8S195.6,275.9,195.6,288.1z
			 M173.9,288.1c0,7.6,2.4,12.2,6.5,12.2c4.2,0,6.5-4.5,6.5-12.2s-2.4-12.2-6.5-12.2C176.3,275.9,173.9,280.5,173.9,288.1z"/>
		<path class="st1" d="M230.9,288.1c0,12.2-5.8,19.7-15.2,19.7c-9.4,0-15.2-7.6-15.2-19.7s5.8-19.8,15.2-19.8
			C225.1,268.3,230.9,275.9,230.9,288.1z M209.2,288.1c0,7.6,2.4,12.2,6.5,12.2c4.2,0,6.5-4.5,6.5-12.2s-2.4-12.2-6.5-12.2
			C211.6,275.9,209.2,280.5,209.2,288.1z"/>
	</g>
	<g>
		<g>
			<path class="st1" d="M107.7,168.6c0,5.8-3.1,9.2-8.5,9.2s-8.5-3.4-8.5-9.2v-12.8c0-0.2,0.1-0.3,0.3-0.3H94c0.2,0,0.3,0.1,0.3,0.3
				v12.8c0,3.8,1.8,5.9,4.9,5.9c3.1,0,4.9-2.1,4.9-5.9v-12.8c0-0.2,0.1-0.3,0.3-0.3h2.9c0.2,0,0.3,0.1,0.3,0.3V168.6z"/>
			<path class="st1" d="M114.5,163.8c0.2,0.4,0.4,0.3,0.7,0c1.2-1.4,2.8-1.9,4.3-1.9c3.6,0,5.8,2.2,5.8,6v9.3c0,0.2-0.1,0.3-0.3,0.3
				h-2.8c-0.2,0-0.3-0.1-0.3-0.3v-8.9c0-2-1-3.2-2.7-3.2c-2.3,0-3.7,1.7-3.7,4.8v7.3c0,0.2-0.1,0.3-0.3,0.3h-2.8
				c-0.2,0-0.3-0.1-0.3-0.3v-14.6c0-0.2,0.1-0.3,0.3-0.3h1.6c0.2,0,0.3,0.1,0.4,0.3L114.5,163.8z"/>
			<path class="st1" d="M138.2,164.7c0,0.2-0.1,0.3-0.3,0.3c-3.4,0.2-4.9,2.6-4.9,8.3v3.7c0,0.2-0.1,0.3-0.3,0.3h-2.8
				c-0.2,0-0.3-0.1-0.3-0.3v-14.6c0-0.2,0.1-0.3,0.3-0.3h1.6c0.2,0,0.3,0.1,0.4,0.3l0.5,1.8c0.2,0.3,0.3,0.4,0.6,0.1
				c1.3-1.6,2.7-2.4,5-2.5c0.2,0,0.3,0.1,0.3,0.3V164.7z"/>
			<path class="st1" d="M151.4,177.4c-1.1,0.3-2.2,0.4-3.2,0.4c-4.8,0-7.4-3.1-7.4-8c0-4.9,2.7-8,7.3-8c3.8,0,6.1,1.9,6.1,5
				c0,2.4-1.5,3.8-4.6,4.3l-4.9,0.8c0.3,1.7,1.6,2.7,3.6,2.7c0.9,0,1.8-0.1,2.5-0.3l1.4-0.3c0.2-0.1,0.4,0,0.4,0.3l0.6,2.4
				c0.1,0.2,0,0.4-0.3,0.4L151.4,177.4z M149,168.5c1.1-0.2,1.7-0.7,1.7-1.5c0-1.3-1-1.9-2.7-1.9c-2.1,0-3.5,1.3-3.7,4.2L149,168.5z
				"/>
			<path class="st1" d="M158.7,160c0-3.4,2-5.5,5.3-5.5c0.5,0,1.1,0.1,1.8,0.3l0.3,0.1c0.2,0.1,0.3,0.2,0.3,0.4l-0.7,2.3
				c-0.1,0.2-0.2,0.3-0.4,0.3l-0.2-0.1c-0.3-0.1-0.6-0.1-1-0.1c-1.1,0-1.8,0.9-1.8,2.3v2.2h3.5c0.2,0,0.3,0.1,0.3,0.3v2.4
				c0,0.2-0.1,0.3-0.3,0.3h-3.5v11.8c0,0.2-0.1,0.3-0.3,0.3H159c-0.2,0-0.3-0.1-0.3-0.3v-11.8h-1.5c-0.2,0-0.3-0.1-0.3-0.3v-2.4
				c0-0.2,0.1-0.3,0.3-0.3h1.5V160z"/>
			<path class="st1" d="M173.9,177.2c0,0.2-0.1,0.3-0.3,0.3h-2.8c-0.2,0-0.3-0.1-0.3-0.3v-11.8h-1.5c-0.2,0-0.3-0.1-0.3-0.3v-2.4
				c0-0.2,0.1-0.3,0.3-0.3h4.7c0.2,0,0.3,0.1,0.3,0.3V177.2z M173.9,156.8c0,1.4-0.8,2.1-2.1,2.1s-2.1-0.8-2.1-2.1
				c0-1.3,0.8-2.1,2.1-2.1S173.9,155.4,173.9,156.8z"/>
			<path class="st1" d="M180.7,163.8c0.2,0.4,0.4,0.3,0.7,0c1.2-1.4,2.8-1.9,4.3-1.9c3.6,0,5.8,2.2,5.8,6v9.3c0,0.2-0.1,0.3-0.3,0.3
				h-2.8c-0.2,0-0.3-0.1-0.3-0.3v-8.9c0-2-1-3.2-2.7-3.2c-2.3,0-3.7,1.7-3.7,4.8v7.3c0,0.2-0.1,0.3-0.3,0.3h-2.8
				c-0.2,0-0.3-0.1-0.3-0.3v-14.6c0-0.2,0.1-0.3,0.3-0.3h1.6c0.2,0,0.3,0.1,0.4,0.3L180.7,163.8z"/>
			<path class="st1" d="M205.5,177.4c-1.1,0.3-2.2,0.4-3.2,0.4c-4.8,0-7.4-3.1-7.4-8c0-4.9,2.7-8,7.3-8c3.8,0,6.1,1.9,6.1,5
				c0,2.4-1.5,3.8-4.6,4.3l-4.9,0.8c0.3,1.7,1.6,2.7,3.6,2.7c0.9,0,1.8-0.1,2.5-0.3l1.4-0.3c0.2-0.1,0.4,0,0.4,0.3l0.6,2.4
				c0.1,0.2,0,0.4-0.3,0.4L205.5,177.4z M203.1,168.5c1.1-0.2,1.7-0.7,1.7-1.5c0-1.3-1-1.9-2.7-1.9c-2.1,0-3.5,1.3-3.7,4.2
				L203.1,168.5z"/>
			<path class="st1" d="M225.2,177.2c0,0.2-0.1,0.3-0.3,0.3h-1.6c-0.2,0-0.3-0.1-0.4-0.3l-0.3-1.3c-0.1-0.3-0.3-0.3-0.6,0
				c-1.1,1.3-2.6,2-4.4,2c-4.1,0-6.6-3.1-6.6-8s2.6-7.9,7.1-7.9c1.1,0,1.9,0.1,2.8,0.5l0.9,0.4v-7.6c0-0.2,0.1-0.3,0.3-0.3h2.8
				c0.2,0,0.3,0.1,0.3,0.3V177.2z M220.8,165.6c-0.8-0.3-1.6-0.5-2.6-0.5c-2.4,0-3.8,1.8-3.8,4.8c0,3,1.4,4.8,3.7,4.8
				c2.4,0,3.6-2,3.6-4.6v-4L220.8,165.6z"/>
			<path class="st1" d="M72.9,204.4c-2.6-0.7-3.8-2-3.8-4.3c0-2.8,2.1-4.5,5.8-4.5c1.4,0,2.9,0.2,3.9,0.5l1.4,0.3
				c0.2,0.1,0.3,0.2,0.3,0.4l-0.7,2.4c-0.1,0.2-0.2,0.3-0.4,0.3l-1.4-0.4c-0.9-0.3-2.1-0.4-3.1-0.4c-1.4,0-2.3,0.5-2.3,1.4
				c0,0.7,0.4,1.2,1.4,1.4l3.2,0.8c2.7,0.7,4,2.1,4,4.4c0,3-2.2,4.8-5.9,4.8c-1.6,0-3.3-0.2-4.8-0.7l-1.2-0.3
				c-0.2-0.1-0.3-0.2-0.3-0.4l0.7-2.4c0.1-0.2,0.2-0.3,0.4-0.2l1.1,0.3c1.2,0.3,2.9,0.5,4,0.5c1.5,0,2.4-0.6,2.4-1.6
				c0-0.8-0.4-1.2-1.5-1.5L72.9,204.4z"/>
			<path class="st1" d="M95.1,209.6c-0.2-0.4-0.4-0.3-0.7,0c-1.2,1.4-2.8,1.9-4.3,1.9c-3.6,0-5.8-2.2-5.8-6v-9.3
				c0-0.2,0.1-0.3,0.3-0.3h2.8c0.2,0,0.3,0.1,0.3,0.3v8.9c0,2,1,3.2,2.7,3.2c2.3,0,3.7-1.7,3.7-4.8v-7.3c0-0.2,0.1-0.3,0.3-0.3h2.8
				c0.2,0,0.3,0.1,0.3,0.3v14.6c0,0.2-0.1,0.3-0.3,0.3h-1.6c-0.2,0-0.3-0.1-0.4-0.3L95.1,209.6z"/>
			<path class="st1" d="M104.4,197.4c0.2,0.4,0.4,0.3,0.7,0c1.2-1.4,2.8-1.9,4.3-1.9c3.6,0,5.8,2.2,5.8,6v9.3c0,0.2-0.1,0.3-0.3,0.3
				h-2.8c-0.2,0-0.3-0.1-0.3-0.3v-8.9c0-2-1-3.2-2.7-3.2c-2.3,0-3.7,1.7-3.7,4.8v7.3c0,0.2-0.1,0.3-0.3,0.3h-2.8
				c-0.2,0-0.3-0.1-0.3-0.3v-14.6c0-0.2,0.1-0.3,0.3-0.3h1.6c0.2,0,0.3,0.1,0.4,0.3L104.4,197.4z"/>
			<path class="st1" d="M120.3,193.7c0-3.4,2-5.5,5.3-5.5c0.5,0,1.1,0.1,1.8,0.3l0.3,0.1c0.2,0.1,0.3,0.2,0.3,0.4l-0.7,2.3
				c-0.1,0.2-0.2,0.3-0.4,0.3l-0.2-0.1c-0.3-0.1-0.6-0.1-1-0.1c-1.1,0-1.8,0.9-1.8,2.3v2.2h3.5c0.2,0,0.3,0.1,0.3,0.3v2.4
				c0,0.2-0.1,0.3-0.3,0.3h-3.5v11.8c0,0.2-0.1,0.3-0.3,0.3h-2.8c-0.2,0-0.3-0.1-0.3-0.3V199h-1.5c-0.2,0-0.3-0.1-0.3-0.3v-2.4
				c0-0.2,0.1-0.3,0.3-0.3h1.5V193.7z"/>
			<path class="st1" d="M134.6,207.5c0,0.5,0.2,0.9,0.6,0.9c0.1,0,0.2,0,0.2,0c0.2,0,0.3,0,0.4,0.2l0.9,2.2c0.1,0.2,0,0.4-0.2,0.5
				c-0.4,0.2-1,0.3-1.4,0.3c-2.6,0-4.1-1.5-4.1-4v-18.6c0-0.2,0.1-0.3,0.3-0.3h2.8c0.2,0,0.3,0.1,0.3,0.3V207.5z"/>
			<path class="st1" d="M153.4,203.5c0,4.9-2.8,8-7.2,8c-4.5,0-7.3-3.1-7.3-8c0-4.9,2.8-7.9,7.3-7.9
				C150.6,195.5,153.4,198.6,153.4,203.5z M142.3,203.5c0,3,1.4,4.8,3.8,4.8c2.3,0,3.8-1.8,3.8-4.8c0-3-1.4-4.8-3.8-4.8
				C143.7,198.7,142.3,200.5,142.3,203.5z"/>
			<path class="st1" d="M175.3,205c-0.7,2.5-1.2,4-1.6,5.9c0,0.2-0.2,0.3-0.4,0.3h-3.5c-0.2,0-0.3-0.1-0.4-0.3
				c-0.3-1.1-0.6-2.2-0.9-3.3l-1.1-3.3c-0.2-0.6-0.4-1.7-0.6-2.3c-0.1-0.4-0.3-0.4-0.4,0c-0.1,0.7-0.4,1.7-0.6,2.3l-1.1,3.3
				c-0.3,1.1-0.7,2.2-0.9,3.3c0,0.2-0.2,0.3-0.4,0.3h-3.5c-0.2,0-0.3-0.1-0.4-0.3c-0.4-1.9-0.9-3.3-1.6-5.9l-2.6-8.7
				c-0.1-0.2,0-0.4,0.3-0.4h2.8c0.2,0,0.3,0.1,0.4,0.3l1.6,5.5c0.5,2,0.9,3.5,1.1,5c0.1,0.3,0.4,0.3,0.5,0c0.4-1.6,0.9-3.5,1.5-5.6
				l1.7-5c0.1-0.2,0.2-0.3,0.4-0.3h1.9c0.2,0,0.3,0.1,0.4,0.3l1.7,5c0.6,2,1.2,4,1.5,5.6c0.1,0.3,0.4,0.3,0.5,0c0.3-1.6,0.6-3,1.1-5
				l1.6-5.5c0.1-0.2,0.2-0.3,0.4-0.3h2.8c0.3,0,0.4,0.2,0.3,0.4L175.3,205z"/>
			<path class="st1" d="M190.9,211.1c-1.1,0.3-2.2,0.4-3.2,0.4c-4.8,0-7.4-3.1-7.4-8c0-4.9,2.7-8,7.3-8c3.8,0,6.1,1.9,6.1,5
				c0,2.4-1.5,3.8-4.6,4.3l-4.9,0.8c0.3,1.7,1.6,2.7,3.6,2.7c0.9,0,1.8-0.1,2.5-0.3l1.4-0.3c0.2-0.1,0.4,0,0.4,0.3l0.6,2.4
				c0.1,0.2,0,0.4-0.3,0.4L190.9,211.1z M188.4,202.1c1.1-0.2,1.7-0.7,1.7-1.5c0-1.3-1-1.9-2.7-1.9c-2.1,0-3.5,1.3-3.7,4.2
				L188.4,202.1z"/>
			<path class="st1" d="M205.9,198.4c0,0.2-0.1,0.3-0.3,0.3c-3.4,0.2-4.9,2.6-4.9,8.3v3.7c0,0.2-0.1,0.3-0.3,0.3h-2.8
				c-0.2,0-0.3-0.1-0.3-0.3v-14.6c0-0.2,0.1-0.3,0.3-0.3h1.6c0.2,0,0.3,0.1,0.4,0.3l0.5,1.8c0.2,0.3,0.3,0.4,0.6,0.1
				c1.3-1.6,2.7-2.4,5-2.5c0.2,0,0.3,0.1,0.3,0.3V198.4z"/>
			<path class="st1" d="M229.8,203.5c0,4.9-2.8,8-7.2,8c-4.5,0-7.3-3.1-7.3-8c0-4.9,2.8-7.9,7.3-7.9
				C227,195.5,229.8,198.6,229.8,203.5z M218.7,203.5c0,3,1.4,4.8,3.8,4.8c2.3,0,3.8-1.8,3.8-4.8c0-3-1.4-4.8-3.8-4.8
				C220.2,198.7,218.7,200.5,218.7,203.5z"/>
			<path class="st1" d="M237.6,210.8c0,0.2-0.1,0.3-0.3,0.3h-2.8c-0.2,0-0.3-0.1-0.3-0.3V199h-1.5c-0.2,0-0.3-0.1-0.3-0.3v-2.4
				c0-0.2,0.1-0.3,0.3-0.3h4.7c0.2,0,0.3,0.1,0.3,0.3V210.8z M237.6,190.4c0,1.4-0.8,2.1-2.1,2.1s-2.1-0.8-2.1-2.1
				c0-1.3,0.8-2.1,2.1-2.1S237.6,189.1,237.6,190.4z"/>
			<path class="st1" d="M245.4,207.5c0,0.5,0.2,0.9,0.6,0.9c0.1,0,0.2,0,0.2,0c0.2,0,0.3,0,0.4,0.2l0.9,2.2c0.1,0.2,0,0.4-0.2,0.5
				c-0.4,0.2-1,0.3-1.4,0.3c-2.6,0-4.1-1.5-4.1-4v-18.6c0-0.2,0.1-0.3,0.3-0.3h2.8c0.2,0,0.3,0.1,0.3,0.3V207.5z"/>
			<path class="st1" d="M86.5,231.1c0.1,0.3,0.4,0.3,0.6,0c1.2-1.4,2.7-2,4.4-2c4.1,0,6.6,3.1,6.6,7.9c0,4.9-2.6,8-7.1,8
				c-1.1,0-2-0.2-2.9-0.6l-0.9-0.4v7.1c0,0.2-0.1,0.3-0.3,0.3h-2.8c-0.2,0-0.3-0.1-0.3-0.3v-21.4c0-0.2,0.1-0.3,0.3-0.3h1.6
				c0.2,0,0.3,0.1,0.4,0.3L86.5,231.1z M88.2,241.4c0.8,0.4,1.6,0.5,2.6,0.5c2.4,0,3.8-1.8,3.8-4.8c0-3-1.4-4.8-3.7-4.8
				c-2.4,0-3.6,2-3.6,4.7v3.9L88.2,241.4z"/>
			<path class="st1" d="M110.3,232c0,0.2-0.1,0.3-0.3,0.3c-3.4,0.2-4.9,2.6-4.9,8.3v3.7c0,0.2-0.1,0.3-0.3,0.3h-2.8
				c-0.2,0-0.3-0.1-0.3-0.3v-14.6c0-0.2,0.1-0.3,0.3-0.3h1.6c0.2,0,0.3,0.1,0.4,0.3l0.5,1.8c0.2,0.3,0.3,0.4,0.6,0.1
				c1.3-1.6,2.7-2.4,5-2.5c0.2,0,0.3,0.1,0.3,0.3V232z"/>
			<path class="st1" d="M127.4,237.1c0,4.9-2.8,8-7.2,8c-4.5,0-7.3-3.1-7.3-8c0-4.9,2.8-7.9,7.3-7.9
				C124.7,229.2,127.4,232.3,127.4,237.1z M116.4,237.1c0,3,1.4,4.8,3.8,4.8c2.3,0,3.8-1.8,3.8-4.8c0-3-1.4-4.8-3.8-4.8
				C117.8,232.3,116.4,234.1,116.4,237.1z"/>
			<path class="st1" d="M144.4,244.4c0,0.2-0.1,0.3-0.3,0.3h-1.6c-0.2,0-0.3-0.1-0.4-0.3l-0.3-1.3c-0.1-0.3-0.3-0.3-0.6,0
				c-1.1,1.3-2.6,2-4.4,2c-4.1,0-6.6-3.1-6.6-8s2.6-7.9,7.1-7.9c1.1,0,1.9,0.1,2.8,0.5l0.9,0.4v-7.6c0-0.2,0.1-0.3,0.3-0.3h2.8
				c0.2,0,0.3,0.1,0.3,0.3V244.4z M140,232.9c-0.8-0.3-1.6-0.5-2.6-0.5c-2.4,0-3.8,1.8-3.8,4.8c0,3,1.4,4.8,3.7,4.8
				c2.4,0,3.6-2,3.6-4.6v-4L140,232.9z"/>
			<path class="st1" d="M159.3,243.2c-0.2-0.4-0.4-0.3-0.7,0c-1.2,1.4-2.8,1.9-4.3,1.9c-3.6,0-5.8-2.2-5.8-6v-9.3
				c0-0.2,0.1-0.3,0.3-0.3h2.8c0.2,0,0.3,0.1,0.3,0.3v8.9c0,2,1,3.2,2.7,3.2c2.3,0,3.7-1.7,3.7-4.8v-7.3c0-0.2,0.1-0.3,0.3-0.3h2.8
				c0.2,0,0.3,0.1,0.3,0.3v14.6c0,0.2-0.1,0.3-0.3,0.3H160c-0.2,0-0.3-0.1-0.4-0.3L159.3,243.2z"/>
			<path class="st1" d="M175.8,244.7c-0.9,0.3-2,0.4-2.9,0.4c-4.8,0-7.5-3.1-7.5-8c0-4.9,2.6-7.9,7.6-7.9c0.8,0,1.7,0.1,2.7,0.4
				l1.4,0.4c0.2,0.1,0.3,0.2,0.3,0.4l-0.7,2.4c-0.1,0.2-0.2,0.3-0.4,0.2l-1.1-0.3c-0.8-0.3-1.5-0.3-2.1-0.3c-2.8,0-4.1,1.8-4.1,4.8
				c0,3.1,1.4,4.9,4,4.9c0.7,0,1.5-0.1,2.3-0.3l1-0.3c0.2-0.1,0.4,0,0.4,0.2l0.7,2.4c0.1,0.2,0,0.4-0.3,0.4L175.8,244.7z"/>
			<path class="st1" d="M189.1,229.5c0.2,0,0.3,0.1,0.3,0.3v2.4c0,0.2-0.1,0.3-0.3,0.3h-3.5v7.7c0,1.1,0.5,1.7,1.2,1.7
				c0.3,0,0.6,0,0.8-0.1c0.2-0.1,0.4-0.1,0.5,0.2l1,2.1c0.1,0.2,0,0.3-0.2,0.5c-0.6,0.3-1.4,0.5-2.1,0.5c-3,0-4.7-1.8-4.7-4.9v-7.7
				h-1.5c-0.2,0-0.3-0.1-0.3-0.3v-2.4c0-0.2,0.1-0.3,0.3-0.3h1.5v-3.6c0-0.2,0.1-0.3,0.3-0.4l2.8-0.9c0.3-0.1,0.4,0,0.4,0.3v4.7
				H189.1z"/>
			<path class="st1" d="M197.5,244.4c0,0.2-0.1,0.3-0.3,0.3h-2.8c-0.2,0-0.3-0.1-0.3-0.3v-11.8h-1.5c-0.2,0-0.3-0.1-0.3-0.3v-2.4
				c0-0.2,0.1-0.3,0.3-0.3h4.7c0.2,0,0.3,0.1,0.3,0.3V244.4z M197.4,224.1c0,1.4-0.8,2.1-2.1,2.1s-2.1-0.8-2.1-2.1
				c0-1.3,0.8-2.1,2.1-2.1S197.4,222.7,197.4,224.1z"/>
			<path class="st1" d="M215.5,237.1c0,4.9-2.8,8-7.2,8c-4.5,0-7.3-3.1-7.3-8c0-4.9,2.8-7.9,7.3-7.9
				C212.7,229.2,215.5,232.3,215.5,237.1z M204.4,237.1c0,3,1.4,4.8,3.8,4.8c2.3,0,3.8-1.8,3.8-4.8c0-3-1.4-4.8-3.8-4.8
				C205.8,232.3,204.4,234.1,204.4,237.1z"/>
			<path class="st1" d="M221.5,231.1c0.2,0.4,0.4,0.3,0.7,0c1.2-1.4,2.8-1.9,4.3-1.9c3.6,0,5.8,2.2,5.8,6v9.3c0,0.2-0.1,0.3-0.3,0.3
				h-2.8c-0.2,0-0.3-0.1-0.3-0.3v-8.9c0-2-1-3.2-2.7-3.2c-2.3,0-3.7,1.7-3.7,4.8v7.3c0,0.2-0.1,0.3-0.3,0.3h-2.8
				c-0.2,0-0.3-0.1-0.3-0.3v-14.6c0-0.2,0.1-0.3,0.3-0.3h1.6c0.2,0,0.3,0.1,0.4,0.3L221.5,231.1z"/>
		</g>
	</g>
</g>
</svg>
