<?xml version="1.0" encoding="utf-8"?>
<!-- Generator: Adobe Illustrator 24.1.2, SVG Export Plug-In . SVG Version: 6.00 Build 0)  -->
<svg version="1.1" id="Слой_1" xmlns="http://www.w3.org/2000/svg" xmlns:xlink="http://www.w3.org/1999/xlink" x="0px" y="0px"
	 viewBox="0 0 450 540" style="enable-background:new 0 0 450 540;" xml:space="preserve">
<style type="text/css">
	.st0{fill:#FFBE3C;}
	.st1{fill:#FFFFFF;}
</style>
<path class="st0" d="M233.3,3.1c-4.8-4.2-11.9-4.2-16.7,0C176,39,0,200.3,0,311.8C0,437.8,100.7,540,225,540
	c124.3,0,225-102.2,225-228.2C450,200.3,274,39,233.3,3.1z M225,165.1c-44.5,0-85.3,15.5-117.5,41.3C136.5,166,176.9,120.5,225,75.3
	c48.1,45.3,88.5,90.7,117.5,131.2C310.3,180.6,269.5,165.1,225,165.1z"/>
<g>
	<path class="st1" d="M49.4,285.3c-0.2-0.1-0.3-0.2-0.2-0.4l1.6-5.6l-15.5-4.5c-0.2-0.1-0.3-0.2-0.2-0.4l0.7-2.4
		c0.1-0.2,0.2-0.3,0.4-0.2l15.5,4.5l1.6-5.6c0.1-0.2,0.2-0.3,0.4-0.2l2.1,0.6c0.2,0.1,0.3,0.2,0.2,0.4l-4.1,14.2
		c-0.1,0.2-0.2,0.3-0.4,0.2L49.4,285.3z"/>
	<path class="st1" d="M30.3,304.8c-0.2,0-0.3-0.1-0.3-0.3l0.2-2.5c0-0.2,0.1-0.3,0.3-0.3l8.1,0.8l0.8-8.8l-8.1-0.8
		c-0.2,0-0.3-0.1-0.3-0.3l0.2-2.5c0-0.2,0.1-0.3,0.3-0.3l18.5,1.8c0.2,0,0.3,0.1,0.3,0.3l-0.2,2.5c0,0.2-0.1,0.3-0.3,0.3l-7.6-0.7
		l-0.8,8.8l7.6,0.7c0.2,0,0.3,0.1,0.3,0.3l-0.2,2.5c0,0.2-0.1,0.3-0.3,0.3L30.3,304.8z"/>
	<path class="st1" d="M42.3,324.7c0,0.2-0.1,0.3-0.3,0.3l-2.1,0.2c-0.2,0-0.3-0.1-0.3-0.3l-0.5-7.6l-5.7,0.4l0.7,9.8
		c0,0.2-0.1,0.3-0.3,0.3l-2.2,0.2c-0.2,0-0.3-0.1-0.3-0.3l-0.9-12.5c0-0.2,0.1-0.3,0.3-0.3l18.5-1.3c0.2,0,0.3,0.1,0.3,0.3l0.9,12.5
		c0,0.2-0.1,0.3-0.3,0.3l-2.2-0.4c-0.2,0-0.3-0.1-0.3-0.3l-0.6-9.1l-5.2,0.4L42.3,324.7z"/>
	<path class="st1" d="M54.6,349.5c0.9,3.7-0.4,6.4-3.4,7.1c-2.2,0.5-3.8-0.4-4.6-1.5c-0.2-0.3-0.4-0.3-0.5,0.1
		c-0.1,1.6-1.1,3.5-3.7,4.1c-3.2,0.8-5.6-1.1-6.5-5l-1.8-7.6c0-0.2,0-0.3,0.2-0.4l18.1-4.3c0.2,0,0.3,0,0.4,0.2L54.6,349.5z
		 M37.6,348.8l1.2,4.9c0.5,2,1.7,2.9,3.4,2.5c2-0.5,2.6-2.1,2-4.8l-0.9-3.9L37.6,348.8z M45.8,346.9l0.9,3.7
		c0.6,2.5,1.9,3.5,3.6,3.1c1.5-0.3,2.1-1.7,1.7-3.5l-1.1-4.5L45.8,346.9z"/>
	<path class="st1" d="M54.2,375c0.1,0.2,0,0.3-0.2,0.4l-2,0.7c-0.2,0.1-0.3,0-0.4-0.2l-2.6-7.2l-5.4,1.9l3.3,9.2
		c0.1,0.2,0,0.3-0.2,0.4l-2,0.7c-0.2,0.1-0.3,0-0.4-0.2L40.1,369c-0.1-0.2,0-0.3,0.2-0.4l17.5-6.3c0.2-0.1,0.3,0,0.4,0.2l4.3,11.8
		c0.1,0.2,0,0.4-0.2,0.4l-2.3,0.2c-0.2,0-0.3-0.1-0.4-0.3l-3.1-8.6l-4.9,1.8L54.2,375z"/>
	<path class="st1" d="M57.7,388.7c-0.3-3.6,0.4-5.3,2.8-6.5c3-1.4,5.8,0,7.5,3.5c0.7,1.4,1.1,2.7,1.3,4.2l0.2,1.7
		c0,0.2-0.1,0.3-0.3,0.3l-2.2,0.3c-0.2,0-0.3-0.1-0.3-0.3l-0.2-1.5c-0.2-1.2-0.5-2.3-1-3.4c-0.9-1.8-2.3-2.6-3.6-1.9
		c-1,0.5-1.4,1.5-1.2,3.6l0.3,3.2c0.3,3.4-0.2,5.3-2.7,6.5c-3.2,1.6-6.1,0-8-3.8c-0.8-1.7-1.2-3.2-1.5-5.2l-0.2-1.5
		c0-0.2,0.1-0.3,0.3-0.3l2.2-0.3c0.2,0,0.3,0.1,0.3,0.3l0.2,1.6c0.2,1.5,0.6,2.8,1.3,4.2c0.9,1.8,2.3,3,4,2.2
		c1.1-0.5,1.3-1.9,1.1-3.6L57.7,388.7z"/>
	<path class="st1" d="M79.4,410.9c-0.2,0.1-0.3,0.1-0.4-0.1l-3.1-4.9l-13.6,8.6c-0.2,0.1-0.3,0.1-0.4-0.1l-1.4-2.1
		c-0.1-0.2-0.1-0.3,0.1-0.4l13.6-8.6l-3.1-4.9c-0.1-0.2-0.1-0.3,0.1-0.4l1.8-1.2c0.2-0.1,0.3-0.1,0.4,0.1l7.9,12.5
		c0.1,0.2,0.1,0.3-0.1,0.4L79.4,410.9z"/>
	<path class="st1" d="M89.2,448.1c-0.1,0.1-0.3,0.1-0.4,0l-1.7-1.8c-0.1-0.1-0.1-0.3,0-0.4l6.5-6c1.2-1.1,2.7-2.5,4-3.4
		c0.3-0.2,0.2-0.5-0.2-0.3c-0.7,0.3-1.5,0.6-2.2,0.8l-6.3,2.2c-0.8,0.3-1.8,0.7-2.7,1.1c-0.2,0.1-0.3,0-0.4-0.1l-1.5-1.7
		c-0.1-0.1-0.1-0.3,0-0.4c0.5-0.8,1-1.8,1.3-2.6l2.8-6.1c0.3-0.7,0.6-1.5,1-2.2c0.2-0.3-0.1-0.5-0.3-0.2c-1,1.2-2.5,2.7-3.7,3.8
		l-6.5,6c-0.1,0.1-0.3,0.1-0.4,0l-1.7-1.8c-0.1-0.1-0.1-0.3,0-0.4L90.4,422c0.1-0.1,0.3-0.1,0.4,0l2.6,2.8c0.1,0.1,0.1,0.3,0.1,0.4
		c-0.4,0.6-0.8,1.3-1,1.9l-3,6.5c-0.5,1-1.1,2.1-1.6,2.9c-0.2,0.3,0,0.4,0.3,0.3c0.9-0.4,2.1-1,3-1.4l6.7-2.4c0.7-0.2,1.4-0.5,2-0.8
		c0.1-0.1,0.3-0.1,0.4,0.1l2.6,2.8c0.1,0.1,0.1,0.3,0,0.4L89.2,448.1z"/>
	<path class="st1" d="M101.1,454.3l-3.2,1.8c-0.1,0.1-0.3,0.1-0.4,0l-2-1.7c-0.2-0.2-0.2-0.3,0-0.4l11.3-6.3c2-1.2,4-2.4,5.8-3.7
		c0.1-0.1,0.3-0.1,0.4,0l2.6,2.2c0.1,0.1,0.2,0.3,0.1,0.4c-0.9,2-1.8,4.2-2.5,6.4l-4.1,12.3c-0.1,0.2-0.2,0.3-0.4,0.1l-2-1.7
		c-0.1-0.1-0.2-0.2-0.1-0.4l1.2-3.5L101.1,454.3z M108.6,457l1.2-3.7c0.6-1.7,1.4-3.7,2-4.9c0.1-0.3-0.1-0.5-0.3-0.3
		c-1.1,0.9-2.9,2-4.5,2.9l-3.4,1.9L108.6,457z"/>
	<path class="st1" d="M129.1,478.5c-0.1,0.2-0.3,0.2-0.4,0.1l-2.8-1.8c-0.1-0.1-0.2-0.2-0.2-0.4c0.2-1,0.3-2.2,0.3-3.2l0.2-11.3
		c0-0.7,0.1-1.4,0.2-2.1c0-0.3-0.3-0.4-0.4-0.1c-0.5,1.1-1,2.1-1.8,3.4l-5.5,8.8c-0.1,0.2-0.3,0.2-0.4,0.1l-2.1-1.3
		c-0.2-0.1-0.2-0.3-0.1-0.4l9.9-15.7c0.1-0.2,0.3-0.2,0.4-0.1l2.8,1.8c0.1,0.1,0.2,0.2,0.2,0.4c-0.2,1-0.2,2.2-0.3,3.2l-0.2,11.3
		c-0.1,0.7-0.1,1.5-0.2,2.1c-0.1,0.4,0.2,0.4,0.4,0.1c0.5-1.1,1-2.1,1.8-3.3l5.6-8.8c0.1-0.2,0.3-0.2,0.4-0.1l2.1,1.3
		c0.2,0.1,0.2,0.3,0.1,0.4L129.1,478.5z"/>
	<path class="st1" d="M153.7,482.4c-2.1,4.6-5.9,6.1-10.1,4.1c-4.2-2-5.5-5.8-3.3-10.4l4.7-10.1c0.1-0.2,0.2-0.2,0.4-0.1l2.3,1.1
		c0.2,0.1,0.2,0.2,0.1,0.4l-4.7,10.1c-1.4,3-0.8,5.3,1.7,6.5c2.4,1.1,4.6,0.1,6-2.9l4.7-10.1c0.1-0.2,0.2-0.2,0.4-0.1l2.3,1.1
		c0.2,0.1,0.2,0.2,0.1,0.4L153.7,482.4z"/>
	<path class="st1" d="M172.7,486.3c0.2,0.1,0.3,0.2,0.2,0.4l-0.7,2.1c-0.1,0.2-0.2,0.3-0.4,0.2l-7.4-2.5l-2.3,7
		c-0.1,0.2-0.2,0.3-0.4,0.2l-2.4-0.8c-0.2-0.1-0.3-0.2-0.2-0.4l5.8-17.7c0.1-0.2,0.2-0.3,0.4-0.2l11.9,3.9c0.2,0.1,0.3,0.2,0.2,0.4
		l-1.3,1.9c-0.1,0.1-0.2,0.2-0.4,0.1l-8.6-2.8l-1.9,5.7L172.7,486.3z"/>
	<path class="st1" d="M181.6,495.6l-2,3.1c-0.1,0.1-0.2,0.2-0.4,0.2l-2.6-0.5c-0.2-0.1-0.3-0.2-0.2-0.4l7.1-10.8
		c1.3-2,2.4-3.9,3.4-5.9c0.1-0.2,0.2-0.2,0.4-0.2l3.3,0.7c0.2,0,0.3,0.1,0.3,0.3c0.1,2.2,0.4,4.5,0.7,6.8l2.1,12.8
		c0,0.2-0.1,0.3-0.3,0.3l-2.6-0.5c-0.2,0-0.3-0.1-0.3-0.3l-0.6-3.6L181.6,495.6z M189.6,494.5l-0.7-3.8c-0.3-1.8-0.5-3.9-0.5-5.3
		c0-0.3-0.3-0.4-0.4-0.1c-0.6,1.3-1.6,3.1-2.6,4.6l-2.1,3.2L189.6,494.5z"/>
	<path class="st1" d="M213.1,503.6c-1.5,0.4-2.6,0.5-4.1,0.3c-5.2-0.5-8.1-4.6-7.5-10.6c0.5-6,4.1-9.5,9.3-9.1
		c1.6,0.1,2.6,0.4,3.9,1l1.2,0.5c0.2,0.1,0.2,0.2,0.2,0.4l-0.9,2c-0.1,0.2-0.2,0.2-0.4,0.2l-1.2-0.5c-0.9-0.4-1.7-0.6-3-0.7
		c-3.3-0.3-5.5,2.1-5.9,6.5c-0.4,4.5,1.3,7.2,4.6,7.5c1.2,0.1,2,0.1,3.2-0.2l1.2-0.3c0.2,0,0.3,0.1,0.4,0.2l0.6,2.1
		c0.1,0.2,0,0.3-0.2,0.4L213.1,503.6z"/>
	<path class="st1" d="M237.3,487.3c0,0.2-0.1,0.3-0.3,0.3l-5.8,0.2l0.4,16.1c0,0.2-0.1,0.3-0.3,0.3l-2.5,0.1c-0.2,0-0.3-0.1-0.3-0.3
		l-0.4-16.1l-5.8,0.2c-0.2,0-0.3-0.1-0.3-0.3l-0.1-2.2c0-0.2,0.1-0.3,0.3-0.3l14.8-0.4c0.2,0,0.3,0.1,0.3,0.3L237.3,487.3z"/>
	<path class="st1" d="M259.4,493.5c0.7,5-1.5,8.3-6.1,9s-7.7-1.8-8.5-6.9l-1.6-11.1c0-0.2,0.1-0.3,0.3-0.3l2.5-0.4
		c0.2,0,0.3,0.1,0.3,0.3l1.6,11.1c0.5,3.3,2.3,4.9,5,4.5c2.7-0.4,3.9-2.5,3.5-5.7l-1.6-11.1c0-0.2,0.1-0.3,0.3-0.3l2.5-0.4
		c0.2,0,0.3,0.1,0.3,0.3L259.4,493.5z"/>
	<path class="st1" d="M271.9,478.7c3.9-1.1,6.7,0.3,7.6,3.6c0.7,2.4-0.4,4.4-2.2,5.7c-0.3,0.3-0.3,0.4,0.1,0.5
		c1.4,0.3,2.5,1.3,3.4,2.4l3.1,4c0.1,0.2,0.1,0.4-0.1,0.4l-2.6,0.7c-0.2,0-0.3,0-0.4-0.1l-2.4-3c-1.6-2.1-3.2-3-6-2.2l-1.9,0.5
		l1.9,6.9c0.1,0.2,0,0.3-0.2,0.4l-2.4,0.7c-0.2,0.1-0.3,0-0.4-0.2l-5-17.9c-0.1-0.2,0-0.3,0.2-0.4L271.9,478.7z M273.2,487.6
		c2.7-0.8,3.9-2.2,3.3-4.3c-0.5-1.7-2-2.5-3.9-2l-4.4,1.2l1.7,6L273.2,487.6z"/>
	<path class="st1" d="M297.9,477.8c0.2-0.1,0.3,0,0.4,0.2l0.8,2c0.1,0.2,0,0.3-0.2,0.4l-7.1,2.9l2.2,5.3l9-3.7
		c0.2-0.1,0.3,0,0.4,0.2l0.8,2c0.1,0.2,0,0.3-0.2,0.4l-11.6,4.8c-0.2,0.1-0.3,0-0.4-0.2l-7.1-17.2c-0.1-0.2,0-0.3,0.2-0.4l11.6-4.8
		c0.2-0.1,0.4,0,0.4,0.2l0.3,2.3c0,0.2-0.1,0.3-0.2,0.4l-8.4,3.5l2,4.8L297.9,477.8z"/>
	<path class="st1" d="M309.6,463c3.5-1.9,6.6-1.3,8.3,1.8c1.2,2.2,0.7,4.4-0.8,6.1c-0.2,0.3-0.2,0.4,0.2,0.4c1.5,0,2.7,0.7,3.9,1.5
		l4,3.1c0.2,0.2,0.1,0.3,0,0.4l-2.3,1.3c-0.1,0.1-0.3,0.1-0.4,0l-3-2.4c-2.1-1.7-3.8-2.2-6.3-0.8l-1.7,1l3.5,6.3
		c0.1,0.2,0.1,0.3-0.1,0.4l-2.2,1.2c-0.2,0.1-0.3,0.1-0.4-0.1l-9-16.2c-0.1-0.2-0.1-0.3,0.1-0.4L309.6,463z M313,471.4
		c2.5-1.4,3.2-3.1,2.2-4.9c-0.9-1.6-2.5-2-4.3-1l-4,2.2l3,5.4L313,471.4z"/>
	<path class="st1" d="M330.8,461.8c-3.5,1-5.3,0.5-6.9-1.7c-1.9-2.7-1-5.7,2.2-8c1.2-0.9,2.5-1.5,3.9-1.9l1.6-0.5
		c0.2,0,0.4,0,0.4,0.2l0.6,2.1c0,0.2,0,0.3-0.2,0.4l-1.5,0.5c-1.1,0.4-2.2,0.9-3.2,1.6c-1.6,1.2-2.1,2.7-1.3,3.9
		c0.7,0.9,1.7,1.2,3.7,0.6l3.1-0.9c3.3-0.9,5.3-0.7,6.9,1.6c2.1,2.9,1.1,6-2.4,8.5c-1.5,1.1-2.9,1.8-4.8,2.3l-1.4,0.5
		c-0.2,0-0.4,0-0.4-0.2l-0.7-2.1c0-0.2,0-0.3,0.2-0.4l1.5-0.5c1.5-0.5,2.6-1,3.9-1.9c1.6-1.2,2.6-2.8,1.5-4.3
		c-0.7-1-2.1-0.9-3.7-0.5L330.8,461.8z"/>
	<path class="st1" d="M361.9,433.4c4.4,4.3,4.8,9.2,1.2,12.9c-3.6,3.7-8.6,3.3-12.9-1c-4.3-4.2-4.8-9.2-1.2-12.9
		C352.6,428.8,357.6,429.2,361.9,433.4z M352.4,443.1c3.1,3.1,6.4,3.6,8.7,1.2c2.3-2.3,1.7-5.6-1.4-8.6c-3.2-3.1-6.4-3.5-8.6-1.2
		C348.8,436.8,349.3,440,352.4,443.1z"/>
	<path class="st1" d="M372.8,418.5c0.1-0.2,0.3-0.2,0.4-0.1l1.7,1.3c0.2,0.1,0.2,0.3,0.1,0.4l-4.8,6.2l5.8,4.5
		c0.2,0.1,0.2,0.3,0.1,0.4l-1.5,2c-0.1,0.2-0.3,0.2-0.4,0.1L359.5,422c-0.2-0.1-0.2-0.3-0.1-0.4l7.7-9.9c0.1-0.2,0.3-0.2,0.4,0
		l1.4,1.8c0.1,0.1,0.1,0.3,0,0.4l-5.5,7.1l4.7,3.6L372.8,418.5z"/>
	<path class="st1" d="M392.7,391.1c4.5,2.4,5.8,6.2,3.6,10.3c-2.2,4.1-6.1,5.1-10.6,2.7l-9.8-5.3c-0.2-0.1-0.2-0.2-0.1-0.4l1.2-2.2
		c0.1-0.2,0.2-0.2,0.4-0.1l9.8,5.3c2.9,1.6,5.3,1.1,6.6-1.3c1.3-2.4,0.4-4.6-2.5-6.2l-9.8-5.3c-0.2-0.1-0.2-0.2-0.1-0.4l1.2-2.2
		c0.1-0.2,0.2-0.2,0.4-0.1L392.7,391.1z"/>
	<path class="st1" d="M394.9,370.8c1.2,1.6,1.8,3.3,1.8,4.8c0,0.2,0.1,0.3,0.3,0.1c1.2-1.2,2.9-2,5-2.4l6.5-1.1
		c0.2-0.1,0.3,0.1,0.3,0.3l-1,2.6c-0.1,0.2-0.2,0.2-0.3,0.3l-5.1,0.9c-2.5,0.4-4.8,1.5-5.5,3.4l-0.2,0.6l7.6,3
		c0.2,0.1,0.2,0.2,0.2,0.4l-0.9,2.3c-0.1,0.2-0.2,0.2-0.4,0.2l-17.3-6.8c-0.2-0.1-0.2-0.2-0.2-0.4l0.9-2.3c0.1-0.2,0.2-0.2,0.4-0.2
		l7.1,2.8l0.2-0.6c0.7-1.8-0.1-4.2-1.5-6l-2.9-3.9c-0.1-0.2-0.1-0.3,0-0.4l1-2.6c0.1-0.2,0.3-0.2,0.4,0L394.9,370.8z"/>
	<path class="st1" d="M394.8,352c1-3.9,3.6-5.6,7-4.8c2.4,0.6,3.6,2.5,3.9,4.8c0.1,0.4,0.2,0.4,0.5,0.2c1-1.1,2.4-1.5,3.7-1.7l5-0.7
		c0.2,0,0.3,0.1,0.3,0.3l-0.7,2.6c0,0.2-0.1,0.2-0.3,0.3l-3.8,0.5c-2.6,0.4-4.2,1.3-4.9,4.1l-0.5,1.9l7,1.8c0.2,0,0.3,0.2,0.2,0.4
		l-0.6,2.4c0,0.2-0.2,0.3-0.4,0.2l-18-4.7c-0.2,0-0.3-0.2-0.2-0.4L394.8,352z M403.2,355.3c0.7-2.7,0-4.5-2-5
		c-1.8-0.5-3.2,0.4-3.7,2.4l-1.2,4.5l6,1.6L403.2,355.3z"/>
	<path class="st1" d="M413.7,337.3l3.2,1.8c0.2,0.1,0.2,0.2,0.2,0.4l-0.4,2.6c0,0.2-0.2,0.3-0.4,0.2L405,336c-2.1-1.1-4.1-2.1-6.2-3
		c-0.2-0.1-0.3-0.2-0.2-0.4l0.4-3.3c0-0.2,0.1-0.3,0.3-0.3c2.2-0.3,4.5-0.7,6.8-1.3l12.6-3.1c0.2-0.1,0.4,0,0.3,0.3l-0.4,2.6
		c0,0.2-0.1,0.3-0.3,0.3l-3.6,0.9L413.7,337.3z M411.9,329.5l-3.8,1c-1.8,0.4-3.8,0.8-5.2,0.9c-0.3,0-0.4,0.3-0.1,0.4
		c1.3,0.5,3.2,1.4,4.8,2.3l3.4,1.9L411.9,329.5z"/>
	<path class="st1" d="M419.3,313.6c0.2,0,0.3,0.1,0.3,0.3l-0.1,2.5c0,0.2-0.1,0.3-0.3,0.3l-18.6-0.8c-0.2,0-0.3-0.1-0.3-0.3l0.1-2.5
		c0-0.2,0.1-0.3,0.3-0.3L419.3,313.6z"/>
	<path class="st1" d="M418,288.4c0.2,0,0.3,0.1,0.3,0.3l0.3,3.3c0,0.2-0.1,0.3-0.2,0.4c-0.9,0.5-1.9,1.1-2.7,1.7l-9,6.9
		c-0.6,0.4-1.2,0.8-1.7,1.2c-0.3,0.2-0.1,0.5,0.1,0.4c1.2-0.3,2.3-0.5,3.8-0.6l10.3-1.1c0.2,0,0.3,0.1,0.3,0.3l0.3,2.5
		c0,0.2-0.1,0.3-0.3,0.3l-18.5,2c-0.2,0-0.3-0.1-0.3-0.3l-0.3-3.3c0-0.2,0.1-0.3,0.2-0.4c0.9-0.5,1.9-1.2,2.7-1.7l9-6.9
		c0.6-0.4,1.2-0.8,1.7-1.2c0.3-0.2,0.2-0.4-0.1-0.3c-1.2,0.3-2.3,0.5-3.7,0.6l-10.4,1.1c-0.2,0-0.3-0.1-0.3-0.3l-0.3-2.5
		c0-0.2,0.1-0.3,0.3-0.3L418,288.4z"/>
	<path class="st1" d="M402.2,271.3c-0.1-0.2,0-0.3,0.2-0.4l2.1-0.6c0.2-0.1,0.3,0,0.4,0.2l2.2,7.3l5.5-1.6l-2.8-9.4
		c-0.1-0.2,0-0.3,0.2-0.4l2.1-0.6c0.2-0.1,0.3,0,0.4,0.2l3.6,12.1c0.1,0.2,0,0.3-0.2,0.4l-17.8,5.3c-0.2,0.1-0.3,0-0.4-0.2
		l-3.6-12.1c-0.1-0.2,0-0.4,0.2-0.4l2.3,0c0.2,0,0.3,0.1,0.3,0.3l2.6,8.7l5-1.5L402.2,271.3z"/>
</g>
<g>
	<g>
		<path class="st1" d="M157.3,297.6c0,0.7-0.4,1.1-1.1,1.1h-11c-0.7,0-1.1-0.4-1.1-1.1v-45.3h-16.2c-0.7,0-1.1-0.4-1.1-1.1v-9.5
			c0-0.7,0.4-1.1,1.1-1.1h45.5c0.7,0,1.1,0.4,1.1,1.1v9.5c0,0.7-0.4,1.1-1.1,1.1h-16.1V297.6z"/>
		<path class="st1" d="M248,269.6c0,18.3-9.9,29.9-26,29.9c-16.2,0-26.1-11.6-26.1-29.9c0-18.4,9.9-29.9,26.1-29.9
			C238.1,239.7,248,251.2,248,269.6z M209.2,269.6c0,11.2,4.8,18.2,12.8,18.2c7.9,0,12.7-7,12.7-18.2c0-11.5-4.7-18-12.7-18
			C214,251.6,209.2,258.1,209.2,269.6z"/>
		<path class="st1" d="M296.5,240.6c13.1,0,20.7,7.2,20.7,19.3c0,12.8-8.7,20.2-23.6,20.2h-7v17.4c0,0.7-0.4,1.1-1.1,1.1h-11.1
			c-0.7,0-1.1-0.4-1.1-1.1v-55.9c0-0.7,0.4-1.1,1.1-1.1H296.5z M286.6,268.6h7c6.5,0,10.2-3.2,10.2-8.7c0-4.8-2.7-7.7-7.4-7.7h-9.9
			V268.6z"/>
		<path class="st1" d="M180.7,429.5c-1,0-1.6-0.6-1.6-1.6v-49.5c0-4,0.5-8.6,0.9-10.3c0.1-1-0.2-1.5-1.2-1.5c-0.4,0-1.5,0.4-2,0.6
			l-8,3.1c-1,0.4-1.7,0.1-2.1-0.9l-5-13.5c-0.4-1-0.1-1.7,0.9-2.1l31.9-12.3c0.9-0.4,1.5-0.2,2.2,0.4l0.9,0.7c0.7,0.5,1,1.1,1,2
			v83.2c0,1-0.6,1.6-1.6,1.6H180.7z"/>
		<path class="st1" d="M272.5,358.2c-0.2,0.9-0.9,1.4-1.7,1.4h-28v7c0,1.8-0.1,5.4-0.4,7.2c-0.2,1.5,0.4,1.2,2.1,1l3.4-0.5
			c1.8-0.2,3.4-0.5,5.3-0.5c16.9-0.1,28.1,10.3,28.1,27.6c0,18.5-12.1,29.5-32.5,29.5c-7.5,0-13.9-1.5-20.7-3.7l-8.3-2.9
			c-1.1-0.2-1.4-1-1-2l5-13c0.4-1,1.1-1.2,2.1-1l7.7,2.8c5.6,1.7,11,2.6,15.2,2.6c7.9,0,12.6-4.7,12.9-12.3
			c0.2-6.1-3.3-10.3-11.9-10.3c-2.5,0-5.5,0.4-9.1,0.9l-13.4,1.8c-0.9,0.1-1.5-0.1-2.1-0.7l-1-0.9c-0.6-0.5-0.9-1.1-0.9-2v-46.1
			c0-1,0.6-1.6,1.6-1.6H275c1.1,0,1.6,0.7,1.4,1.8L272.5,358.2z"/>
	</g>
</g>
</svg>
