<?xml version="1.0" encoding="utf-8"?>
<!-- Generator: Adobe Illustrator 24.1.2, SVG Export Plug-In . SVG Version: 6.00 Build 0)  -->
<svg version="1.1" id="Слой_1" xmlns="http://www.w3.org/2000/svg" xmlns:xlink="http://www.w3.org/1999/xlink" x="0px" y="0px"
	 viewBox="0 0 260.2 312.6" style="enable-background:new 0 0 260.2 312.6;" xml:space="preserve">
<style type="text/css">
	.st0{fill:#FFBE3C;}
	.st1{fill:#FFFFFF;}
</style>
<path class="st0" d="M134.9,1.8c-2.8-2.4-6.9-2.4-9.6,0C101.7,22.6,0,116,0,180.5c0,73,58.2,132.1,130.1,132.1
	c71.8,0,130.1-59.1,130.1-132.1C260.2,116,158.4,22.6,134.9,1.8z M130.1,95.6c-25.7,0-49.3,9-67.9,23.9
	c16.7-23.4,40.1-49.7,67.9-75.9c27.8,26.2,51.2,52.5,67.9,75.9C179.4,104.5,155.8,95.6,130.1,95.6z"/>
<g>
	<path class="st1" d="M41.2,227.6c-3.5-0.1-5-0.2-7.6,1.1l-3,1.5c-0.2,0.1-0.3,0-0.4-0.1l-1-2.1c-0.1-0.2,0-0.3,0.1-0.4l3-1.5
		c2.6-1.3,3.4-2.5,5.4-5.4l3.9-6.1c0.1-0.2,0.3-0.2,0.4,0l1.1,2.3c0.1,0.1,0.1,0.2,0,0.4l-2.8,4.4c-0.7,1.2-1.5,2.1-2.3,2.9
		c-0.2,0.2-0.1,0.4,0.2,0.4c1.1-0.1,2.4-0.1,3.7-0.1l5.2,0.4c0.1,0,0.2,0.1,0.3,0.2l1.1,2.3c0.1,0.2,0,0.3-0.2,0.3L41.2,227.6z"/>
	<path class="st1" d="M51.7,244.3c0.1,0.1,0.1,0.3-0.1,0.4l-1.5,1.2c-0.1,0.1-0.3,0.1-0.4-0.1l-4.2-5.5l-4.1,3.2l5.4,7.1
		c0.1,0.1,0.1,0.3-0.1,0.4l-1.6,1.2c-0.1,0.1-0.3,0.1-0.4-0.1l-6.9-9.1c-0.1-0.1-0.1-0.3,0.1-0.4l13.5-10.3c0.1-0.1,0.3-0.1,0.4,0.1
		l6.9,9.1c0.1,0.2,0.1,0.3-0.1,0.4l-1.9,0.8c-0.1,0.1-0.3,0-0.4-0.1l-5-6.6l-3.8,2.9L51.7,244.3z"/>
	<path class="st1" d="M55.4,258.4l-3,1.5c-0.1,0.1-0.3,0.1-0.4,0l-1.8-1.6c-0.2-0.1-0.1-0.3,0-0.4l10.5-5.4c1.9-1,3.7-2,5.4-3.2
		c0.1-0.1,0.3-0.1,0.4,0l2.3,2c0.1,0.1,0.2,0.2,0.1,0.4c-0.9,1.8-1.7,3.8-2.5,5.7l-4.1,11.1c-0.1,0.2-0.2,0.2-0.4,0.1l-1.8-1.6
		c-0.1-0.1-0.1-0.2-0.1-0.4l1.2-3.2L55.4,258.4z M62.3,261l1.2-3.3c0.6-1.5,1.4-3.3,2-4.4c0.1-0.3-0.1-0.4-0.3-0.3
		c-1,0.8-2.7,1.7-4.2,2.5l-3.1,1.6L62.3,261z"/>
	<path class="st1" d="M84,262c3.2,1.8,4.1,4.5,2.5,7.3c-1.1,2-3.1,2.6-5.1,2.3c-0.4,0-0.4,0.1-0.2,0.4c0.7,1.1,0.8,2.5,0.6,3.7
		l-0.6,4.6c0,0.2-0.2,0.3-0.4,0.2l-2.1-1.2c-0.1-0.1-0.2-0.2-0.2-0.3l0.4-3.5c0.3-2.4-0.1-4-2.4-5.3l-1.6-0.9l-3.3,5.7
		c-0.1,0.2-0.2,0.2-0.4,0.1l-2-1.1c-0.2-0.1-0.2-0.2-0.1-0.4l8.4-14.7c0.1-0.2,0.2-0.2,0.4-0.1L84,262z M79.1,268.6
		c2.2,1.3,3.9,1.1,4.9-0.6c0.8-1.4,0.4-2.9-1.2-3.8l-3.6-2.1l-2.8,4.9L79.1,268.6z"/>
	<path class="st1" d="M95.4,277.4c-2.5-2.1-3.2-3.7-2.4-6c1-2.8,3.7-3.7,7.1-2.6c1.3,0.4,2.5,1.1,3.5,1.8l1.2,0.9
		c0.1,0.1,0.2,0.3,0.1,0.4l-1.2,1.6c-0.1,0.1-0.3,0.1-0.4,0.1l-1.1-0.8c-0.9-0.6-1.8-1.2-2.8-1.5c-1.7-0.6-3.1-0.2-3.6,1.1
		c-0.3,1,0,1.9,1.5,3.1l2.3,1.9c2.4,2,3.3,3.6,2.5,5.9c-1,3.1-3.9,4-7.5,2.7c-1.6-0.5-2.8-1.2-4.3-2.4l-1.1-0.8
		c-0.1-0.1-0.2-0.3-0.1-0.4l1.2-1.6c0.1-0.1,0.3-0.1,0.4,0l1.2,0.9c1.1,0.8,2.2,1.4,3.5,1.9c1.8,0.6,3.4,0.4,4-1.2
		c0.4-1-0.4-2.1-1.6-3L95.4,277.4z"/>
	<path class="st1" d="M133.5,283c-0.2,5.5-3.3,8.9-8,8.7c-4.7-0.2-7.5-3.8-7.2-9.3c0.2-5.5,3.2-8.9,8-8.7
		C131,274,133.7,277.5,133.5,283z M121.2,282.5c-0.2,4,1.5,6.5,4.5,6.6c2.9,0.1,4.8-2.2,5-6.2c0.2-4-1.5-6.5-4.4-6.6
		C123.2,276.2,121.4,278.5,121.2,282.5z"/>
	<path class="st1" d="M150.3,280.1c0.2,0,0.3,0.1,0.3,0.2l0.3,2c0,0.2-0.1,0.3-0.2,0.3l-7,1.1l1,6.6c0,0.2-0.1,0.3-0.2,0.3l-2.2,0.4
		c-0.2,0-0.3-0.1-0.3-0.2l-2.6-16.7c0-0.2,0.1-0.3,0.2-0.3l11.2-1.8c0.2,0,0.3,0.1,0.3,0.3l-0.2,2.1c0,0.2-0.1,0.2-0.3,0.3l-8.1,1.3
		l0.8,5.4L150.3,280.1z"/>
	<path class="st1" d="M185.9,271.4c0.3,1.5,0.7,3,1.1,4.4c0.1,0.2,0,0.3-0.2,0.4l-2.7,1.4c-0.2,0.1-0.3,0.1-0.4-0.1
		c-0.8-1-1.7-2.1-2.6-3L177,270c-0.4-0.4-0.9-1.1-1.3-1.6c-0.2-0.3-0.4-0.2-0.3,0.2c0.2,0.6,0.4,1.5,0.5,2l1.1,6.1
		c0.3,1.3,0.6,2.6,1,3.9c0.1,0.2,0,0.3-0.2,0.4l-2.7,1.4c-0.2,0.1-0.3,0.1-0.4-0.1c-0.9-1.2-1.9-2.3-3-3.5l-8.8-9.5
		c-0.1-0.1-0.1-0.3,0.1-0.4l2.1-1.1c0.2-0.1,0.3-0.1,0.4,0.1l6.4,6.8c1,1.1,2,2.4,2.6,3.4c0.1,0.2,0.4,0.1,0.3-0.2
		c-0.4-1.1-0.9-2.7-1.2-4.2l-1.7-9.2c0-0.2,0-0.3,0.2-0.3l1.6-0.8c0.2-0.1,0.3-0.1,0.4,0.1l6.6,6.7c1,1.1,2.1,2.4,2.7,3.4
		c0.1,0.2,0.4,0.1,0.3-0.2c-0.5-1.1-1-2.7-1.3-4.1l-1.9-9.1c0-0.2,0-0.3,0.2-0.3l2.1-1.1c0.2-0.1,0.3,0,0.4,0.2L185.9,271.4z"/>
	<path class="st1" d="M203.2,252.6c3.6,4.2,3.7,8.7,0.2,11.8c-3.6,3.1-8,2.4-11.7-1.8c-3.6-4.2-3.7-8.7-0.1-11.8
		C195.1,247.7,199.6,248.4,203.2,252.6z M193.9,260.7c2.6,3,5.5,3.7,7.8,1.8c2.2-1.9,2-4.9-0.7-7.9c-2.6-3-5.5-3.7-7.7-1.8
		C191,254.7,191.2,257.6,193.9,260.7z"/>
	<path class="st1" d="M205.3,236.5c2.2-2.9,5-3.4,7.5-1.5c1.8,1.4,2.2,3.4,1.5,5.4c-0.1,0.3,0,0.4,0.3,0.3c1.2-0.5,2.5-0.4,3.8-0.1
		l4.4,1.2c0.2,0.1,0.2,0.2,0.1,0.4l-1.5,1.9c-0.1,0.1-0.2,0.2-0.4,0.1l-3.4-0.9c-2.3-0.6-4-0.4-5.6,1.7l-1.1,1.4l5.2,4
		c0.1,0.1,0.2,0.2,0,0.4l-1.4,1.8c-0.1,0.1-0.2,0.2-0.4,0l-13.4-10.3c-0.1-0.1-0.2-0.2-0.1-0.4L205.3,236.5z M211.2,242.3
		c1.6-2,1.6-3.8,0.1-4.9c-1.3-1-2.8-0.8-3.9,0.7l-2.6,3.3l4.5,3.4L211.2,242.3z"/>
	<path class="st1" d="M221.4,219.6c1,1.5,1.4,3.2,1.3,4.5c0,0.2,0.1,0.3,0.3,0.1c1.2-1,2.8-1.6,4.7-1.7l6-0.5c0.2,0,0.3,0.1,0.2,0.3
		l-1.1,2.3c-0.1,0.1-0.2,0.2-0.3,0.2l-4.7,0.4c-2.3,0.2-4.5,1-5.3,2.7l-0.3,0.5l6.7,3.3c0.2,0.1,0.2,0.2,0.1,0.4l-1,2
		c-0.1,0.2-0.2,0.2-0.4,0.1l-15.2-7.5c-0.2-0.1-0.2-0.2-0.1-0.4l1-2c0.1-0.2,0.2-0.2,0.4-0.1l6.2,3.1l0.2-0.5
		c0.8-1.6,0.2-3.8-0.9-5.6l-2.3-3.8c-0.1-0.1-0.1-0.3,0-0.4l1.1-2.2c0.1-0.2,0.3-0.2,0.4,0L221.4,219.6z"/>
</g>
<g>
	<g>
		<path class="st1" d="M75.9,166.6l-0.8,2.3c-0.1,0.2-0.2,0.3-0.4,0.3h-3.9c-0.3,0-0.4-0.2-0.3-0.4l3.9-10.6c1-2.8,1.9-5.6,2.6-8.4
			c0.1-0.2,0.2-0.3,0.4-0.3h5.2c0.2,0,0.4,0.1,0.4,0.3c0.7,2.8,1.6,5.5,2.6,8.4l3.9,10.6c0.1,0.3,0,0.4-0.3,0.4h-3.9
			c-0.2,0-0.3-0.1-0.4-0.3l-0.8-2.3H75.9z M82.3,161.5c-0.8-2.2-1.7-4.8-2-6.6c-0.1-0.3-0.4-0.3-0.5,0c-0.4,1.8-1.2,4.4-2,6.6
			l-0.4,1.1h5.3L82.3,161.5z"/>
		<path class="st1" d="M105.7,149.5c4.3,0,6.8,2,6.8,5.3c0,2.4-1.5,3.5-2.2,3.9c-0.4,0.2-0.4,0.4,0,0.6c1,0.4,2.9,1.6,2.9,4.5
			c0,3.5-2.6,5.5-6.9,5.5h-8.1c-0.2,0-0.4-0.1-0.4-0.4v-19c0-0.2,0.1-0.4,0.4-0.4H105.7z M102.3,157.1h3.1c1.8,0,2.6-0.6,2.6-1.9
			c0-1.1-0.8-1.8-2.3-1.8h-3.4V157.1z M102.3,165.2h3.9c1.6,0,2.4-0.8,2.4-2c0-1.5-0.9-2.2-2.9-2.2h-3.4V165.2z"/>
		<path class="st1" d="M138.8,159.3c0,6.2-3.4,10.2-8.8,10.2c-5.5,0-8.9-4-8.9-10.2c0-6.3,3.4-10.2,8.9-10.2
			C135.4,149.1,138.8,153,138.8,159.3z M125.6,159.3c0,3.8,1.6,6.2,4.3,6.2c2.7,0,4.3-2.4,4.3-6.2c0-3.9-1.6-6.1-4.3-6.1
			C127.3,153.2,125.6,155.4,125.6,159.3z"/>
		<path class="st1" d="M160.4,160.5c-1,2.8-1.9,5.6-2.6,8.3c-0.1,0.2-0.2,0.3-0.4,0.3h-4.9c-0.2,0-0.4-0.1-0.4-0.3
			c-0.7-2.8-1.6-5.5-2.6-8.3l-3.9-10.7c-0.1-0.3,0-0.4,0.3-0.4h3.9c0.2,0,0.3,0.1,0.4,0.3l2.7,7.4c0.8,2.2,1.5,4.6,1.8,6.4
			c0.1,0.4,0.5,0.4,0.5,0c0.3-1.8,1-4.2,1.8-6.4l2.7-7.4c0.1-0.2,0.2-0.3,0.4-0.3h3.9c0.3,0,0.4,0.2,0.3,0.4L160.4,160.5z"/>
		<path class="st1" d="M183.7,157.1c0.2,0,0.4,0.1,0.4,0.4v3.2c0,0.2-0.1,0.4-0.4,0.4h-6.8v4.3h9.1c0.2,0,0.4,0.1,0.4,0.4v3.2
			c0,0.2-0.1,0.4-0.4,0.4h-13.2c-0.2,0-0.4-0.1-0.4-0.4v-19c0-0.2,0.1-0.4,0.4-0.4h13.4c0.3,0,0.4,0.2,0.3,0.4l-0.9,3.2
			c-0.1,0.2-0.2,0.3-0.4,0.3h-8.3v3.7H183.7z"/>
		<path class="st1" d="M92.2,187.7c3.8-1.3,7-1.8,10.4-1.8c10.9,0,17.4,5.3,17.4,14.1c0,5-1.9,7.6-5.7,9.6c-0.8,0.4-0.8,0.9,0,1.2
			c5.1,2.3,7.5,6.7,7.5,12c0,9.4-7.1,14.9-19,14.9c-4,0-7.6-0.7-11.6-2l-4.8-1.6c-0.6-0.1-0.8-0.6-0.6-1.1l2.9-7.6
			c0.1-0.6,0.6-0.8,1.1-0.6l4.5,1.5c3.1,1,6,1.5,8.3,1.5c4.8,0,7.7-2.4,7.7-6.3c0-3.5-2.6-6-7-6h-4.2c-0.6,0-0.9-0.4-0.9-0.9v-7.9
			c0-0.6,0.4-0.9,0.9-0.9h4.1c3.4,0,5.4-1.8,5.4-4.5c0-3.4-2.3-5.4-6.1-5.4c-2.6,0-4.8,0.5-7.3,1.3l-4,1.3c-0.6,0.2-0.9,0-1.1-0.6
			l-2.7-7.8c-0.1-0.6,0-0.9,0.6-1.1L92.2,187.7z"/>
		<path class="st1" d="M171.8,211.8c0,16-7.6,25.9-19.9,25.9s-19.9-9.9-19.9-25.9c0-16,7.6-26,19.9-26S171.8,195.9,171.8,211.8z
			 M143.3,211.8c0,10,3.2,16,8.6,16c5.5,0,8.6-6,8.6-16s-3.1-16-8.6-16C146.4,195.9,143.3,201.8,143.3,211.8z"/>
	</g>
</g>
</svg>
