<?xml version="1.0" encoding="utf-8"?>
<!-- Generator: Adobe Illustrator 24.1.2, SVG Export Plug-In . SVG Version: 6.00 Build 0)  -->
<svg version="1.1" id="Слой_1" xmlns="http://www.w3.org/2000/svg" xmlns:xlink="http://www.w3.org/1999/xlink" x="0px" y="0px"
	 viewBox="0 0 384 461.4" style="enable-background:new 0 0 384 461.4;" xml:space="preserve">
<style type="text/css">
	.st0{fill:#FFBE3C;}
	.st1{fill:#FFFFFF;}
</style>
<path class="st0" d="M199.1,2.7c-4.1-3.6-10.1-3.6-14.2,0C150.2,33.3,0,171.2,0,266.4c0,107.7,86,195,192,195
	c106,0,192-87.3,192-195C384,171.2,233.8,33.3,199.1,2.7z M192,141.1c-38,0-72.8,13.2-100.3,35.3C116.5,141.8,151,103,192,64.3
	c41,38.7,75.5,77.5,100.3,112.1C264.8,154.3,230,141.1,192,141.1z"/>
<g>
	<path class="st1" d="M30.6,300.6c-0.7-1.2-1.1-2.1-1.4-3.5c-0.9-4.7,1.9-8.2,7.3-9.3c5.4-1.1,9.4,1.1,10.3,5.7
		c0.3,1.4,0.3,2.4,0.2,3.7l-0.1,1.2c0,0.2-0.1,0.3-0.3,0.2l-2-0.3c-0.2,0-0.3-0.1-0.2-0.3l0.1-1.2c0.1-0.9,0.1-1.7-0.1-2.9
		c-0.6-3-3.3-4.2-7.2-3.4c-4,0.8-5.9,3-5.3,6c0.2,1.1,0.5,1.8,1,2.7l0.6,1c0.1,0.1,0,0.3-0.1,0.4l-1.7,1c-0.2,0.1-0.3,0.1-0.4-0.1
		L30.6,300.6z"/>
	<path class="st1" d="M45.4,320.5c-5.3,1.8-9.5,0.1-11-4.3c-1.5-4.5,0.9-8.3,6.1-10.1c5.2-1.8,9.4-0.1,10.9,4.3
		C53,314.9,50.7,318.8,45.4,320.5z M41.5,308.8c-3.8,1.3-5.5,3.7-4.6,6.5c0.9,2.8,3.8,3.7,7.6,2.4c3.8-1.3,5.5-3.7,4.6-6.5
		C48.1,308.5,45.3,307.6,41.5,308.8z"/>
	<path class="st1" d="M48,345.8c-0.2,0.1-0.3,0-0.4-0.1l-1-2c-0.1-0.2,0-0.3,0.1-0.4l7.2-3.6c1.3-0.7,3-1.5,4.4-2
		c0.3-0.1,0.3-0.4-0.1-0.3c-0.7,0.1-1.4,0.1-2.1,0.2l-6.1,0.4c-0.7,0.1-1.8,0.2-2.6,0.3c-0.2,0-0.3,0-0.3-0.2l-0.9-1.9
		c-0.1-0.1,0-0.3,0.1-0.4c0.6-0.6,1.3-1.4,1.8-1.9l3.9-4.6c0.5-0.6,0.9-1.1,1.4-1.6c0.2-0.3,0.1-0.4-0.2-0.3
		c-1.2,0.8-2.9,1.7-4.2,2.4l-7.2,3.6c-0.2,0.1-0.3,0-0.4-0.1l-1-2c-0.1-0.2,0-0.3,0.1-0.4l15.1-7.6c0.2-0.1,0.3,0,0.4,0.1l1.6,3.1
		c0.1,0.2,0.1,0.3-0.1,0.4c-0.5,0.4-1,1-1.4,1.4l-4.2,4.9c-0.6,0.7-1.5,1.6-2.2,2.2c-0.2,0.2-0.1,0.4,0.2,0.3c0.9-0.2,2.1-0.4,3-0.5
		l6.5-0.4c0.6,0,1.4-0.1,2-0.2c0.1,0,0.3,0,0.3,0.2l1.6,3.1c0.1,0.2,0,0.3-0.1,0.4L48,345.8z"/>
	<path class="st1" d="M70.6,348.9c2.2,3.1,1.7,6.1-1.1,8.1c-3,2.1-6.2,1.2-8.8-2.6l-1.5-2.2l-4.8,3.3c-0.1,0.1-0.3,0.1-0.4-0.1
		l-1.3-1.9c-0.1-0.1-0.1-0.3,0.1-0.4l13.9-9.6c0.1-0.1,0.3-0.1,0.4,0.1L70.6,348.9z M61.2,350.8l1.5,2.2c1.6,2.3,3.4,2.9,5.1,1.7
		c1.6-1.1,1.8-2.7,0.7-4.3l-2.2-3.1L61.2,350.8z"/>
	<path class="st1" d="M67.9,368.7l-3.2,1.1c-0.1,0.1-0.3,0-0.4-0.1l-1.6-1.8c-0.1-0.2-0.1-0.3,0.1-0.4l11.1-4c2-0.8,3.9-1.6,5.7-2.5
		c0.1-0.1,0.3-0.1,0.4,0.1l2,2.3c0.1,0.1,0.1,0.3,0,0.4c-1.1,1.7-2.2,3.5-3.2,5.4l-5.4,10.5c-0.1,0.2-0.2,0.2-0.4,0l-1.6-1.8
		c-0.1-0.1-0.1-0.2,0-0.4l1.5-3L67.9,368.7z M74.3,372.2l1.6-3.2c0.8-1.5,1.8-3.1,2.5-4.1c0.2-0.2,0-0.4-0.3-0.3
		c-1.1,0.6-2.9,1.4-4.4,2l-3.3,1.2L74.3,372.2z"/>
	<path class="st1" d="M89.7,394.5c-0.1,0.1-0.3,0.1-0.4,0l-2.3-2c-0.1-0.1-0.1-0.2-0.1-0.4c0.3-0.9,0.5-1.9,0.7-2.8l1.7-10.2
		c0.1-0.6,0.3-1.3,0.4-1.8c0.1-0.3-0.2-0.4-0.3-0.2c-0.6,0.9-1.2,1.8-2.1,2.8l-6.2,7.1c-0.1,0.1-0.3,0.1-0.4,0l-1.7-1.5
		c-0.1-0.1-0.1-0.3,0-0.4l11.1-12.8c0.1-0.1,0.3-0.1,0.4,0l2.3,2c0.1,0.1,0.1,0.2,0.1,0.4c-0.3,0.9-0.5,1.9-0.7,2.8l-1.7,10.2
		c-0.1,0.7-0.3,1.3-0.4,1.8c-0.1,0.3,0.2,0.4,0.3,0.1c0.6-0.9,1.2-1.7,2.1-2.7l6.2-7.2c0.1-0.1,0.3-0.1,0.4,0l1.7,1.5
		c0.1,0.1,0.1,0.3,0,0.4L89.7,394.5z"/>
	<path class="st1" d="M111.2,396.5c-3.1,1.6-4.4,2.3-6,4.7l-1.8,2.8c-0.1,0.1-0.2,0.2-0.4,0.1l-1.9-1.3c-0.1-0.1-0.2-0.2-0.1-0.4
		l1.9-2.8c1.6-2.4,1.7-3.9,1.9-7.4l0.4-7.2c0-0.2,0.2-0.3,0.3-0.2l2.1,1.4c0.1,0.1,0.2,0.2,0.2,0.3l-0.2,5.2
		c-0.1,1.4-0.3,2.6-0.5,3.7c-0.1,0.3,0.1,0.4,0.3,0.2c0.9-0.7,2-1.3,3.2-1.9l4.7-2.2c0.1-0.1,0.2-0.1,0.4,0l2.1,1.4
		c0.2,0.1,0.2,0.3,0,0.4L111.2,396.5z"/>
	<path class="st1" d="M127.7,413.6l-2.3,2.4c-0.1,0.1-0.2,0.2-0.4,0.1l-2.2-0.9c-0.2-0.1-0.2-0.2-0.1-0.4l8.1-8.5
		c1.4-1.6,2.8-3.1,4-4.8c0.1-0.2,0.2-0.2,0.4-0.1l2.8,1.2c0.2,0.1,0.2,0.2,0.2,0.3c-0.3,2-0.4,4.1-0.4,6.2l-0.2,11.8
		c0,0.2-0.1,0.3-0.3,0.2l-2.2-0.9c-0.1-0.1-0.2-0.2-0.2-0.3l0-3.4L127.7,413.6z M135,413.9l0-3.5c0.1-1.7,0.2-3.6,0.4-4.8
		c0-0.3-0.2-0.4-0.4-0.2c-0.7,1.1-1.9,2.5-3.1,3.7l-2.4,2.5L135,413.9z"/>
	<path class="st1" d="M158.8,426.8c0,0.2-0.2,0.2-0.3,0.2l-2.9-0.7c-0.1,0-0.2-0.1-0.3-0.3c-0.1-0.9-0.4-2-0.6-2.8l-3-9.9
		c-0.2-0.6-0.3-1.3-0.4-1.8c-0.1-0.3-0.3-0.3-0.4,0c-0.1,1.1-0.3,2.1-0.6,3.4l-2.3,9.1c0,0.2-0.2,0.2-0.3,0.2l-2.2-0.6
		c-0.2,0-0.2-0.2-0.2-0.3l4.1-16.4c0-0.2,0.2-0.2,0.3-0.2l2.9,0.7c0.1,0,0.2,0.1,0.3,0.3c0.2,0.9,0.4,2,0.7,2.8l3,9.9
		c0.2,0.7,0.3,1.3,0.4,1.8c0,0.3,0.3,0.3,0.3,0c0.1-1.1,0.3-2.1,0.6-3.4l2.3-9.2c0-0.2,0.2-0.2,0.3-0.2l2.2,0.6
		c0.2,0,0.2,0.2,0.2,0.3L158.8,426.8z"/>
	<path class="st1" d="M181.5,429.9c0,0.2-0.1,0.3-0.3,0.2l-3-0.3c-0.1,0-0.2-0.1-0.3-0.2c-0.3-0.9-0.7-1.9-1-2.7l-4.4-9.3
		c-0.3-0.6-0.5-1.2-0.7-1.8c-0.1-0.3-0.4-0.2-0.4,0.1c0,1.1,0,2.1-0.1,3.5l-1,9.4c0,0.2-0.1,0.3-0.3,0.2l-2.3-0.2
		c-0.2,0-0.3-0.1-0.2-0.3l1.8-16.8c0-0.2,0.1-0.3,0.3-0.2l3,0.3c0.1,0,0.2,0.1,0.3,0.2c0.3,0.9,0.7,1.9,1,2.7l4.4,9.3
		c0.3,0.6,0.5,1.2,0.7,1.8c0.1,0.3,0.4,0.2,0.3-0.1c-0.1-1.1,0-2.1,0.2-3.4l1-9.4c0-0.2,0.1-0.3,0.3-0.2l2.3,0.2
		c0.2,0,0.3,0.1,0.2,0.3L181.5,429.9z"/>
	<path class="st1" d="M203.3,423.1c0.1,4.6-2.3,7.4-6.5,7.5s-6.8-2.5-6.9-7.1l-0.3-10.2c0-0.2,0.1-0.3,0.3-0.3l2.3-0.1
		c0.2,0,0.3,0.1,0.3,0.3l0.3,10.2c0.1,3,1.6,4.7,4,4.6c2.4-0.1,3.8-1.8,3.7-4.8l-0.3-10.2c0-0.2,0.1-0.3,0.3-0.3l2.3-0.1
		c0.2,0,0.3,0.1,0.3,0.3L203.3,423.1z"/>
	<path class="st1" d="M213.9,425.6l-0.7,3.3c0,0.2-0.1,0.2-0.3,0.3l-2.4,0.4c-0.2,0-0.3-0.1-0.3-0.3l2.5-11.5c0.4-2.1,0.8-4.1,1-6.2
		c0-0.2,0.1-0.3,0.3-0.3l3-0.5c0.2,0,0.3,0,0.3,0.2c0.8,1.9,1.8,3.7,2.9,5.6l6,10.1c0.1,0.2,0.1,0.3-0.2,0.4l-2.4,0.4
		c-0.1,0-0.3,0-0.3-0.2l-1.7-2.9L213.9,425.6z M220.3,422l-1.8-3c-0.8-1.4-1.7-3.1-2.1-4.3c-0.1-0.3-0.4-0.2-0.4,0.1
		c0,1.3-0.4,3.1-0.7,4.8l-0.8,3.4L220.3,422z"/>
	<path class="st1" d="M243.4,419.6c0.2,0,0.3,0,0.3,0.2l0.6,1.9c0,0.2,0,0.3-0.2,0.3l-10,3c-0.2,0-0.3,0-0.3-0.2l-4.8-16.2
		c0-0.2,0-0.3,0.2-0.3l2.2-0.6c0.2,0,0.3,0,0.3,0.2l4.2,14.1L243.4,419.6z"/>
	<path class="st1" d="M265.3,396c0.1,0.2,0,0.3-0.1,0.4l-4.8,2.4l6.6,13.1c0.1,0.2,0,0.3-0.1,0.4l-2.1,1c-0.2,0.1-0.3,0-0.4-0.1
		l-6.6-13.1l-4.7,2.4c-0.2,0.1-0.3,0-0.4-0.1l-0.9-1.8c-0.1-0.2,0-0.3,0.1-0.4l12-6.1c0.2-0.1,0.3,0,0.4,0.1L265.3,396z"/>
	<path class="st1" d="M285.8,392.4c2.6,3.8,2.1,7.4-1.5,9.8c-3.5,2.4-7.1,1.6-9.7-2.3l-5.7-8.4c-0.1-0.1-0.1-0.3,0.1-0.4l1.9-1.3
		c0.1-0.1,0.3-0.1,0.4,0.1l5.7,8.4c1.7,2.5,3.8,3.1,5.9,1.7c2-1.4,2.3-3.6,0.6-6.1l-5.7-8.4c-0.1-0.1-0.1-0.3,0.1-0.4l1.9-1.3
		c0.1-0.1,0.3-0.1,0.4,0.1L285.8,392.4z"/>
	<path class="st1" d="M290.1,375.3c2.7-2.4,5.6-2.4,7.7-0.1c1.5,1.7,1.5,3.8,0.5,5.6c-0.1,0.3-0.1,0.4,0.3,0.4
		c1.3-0.3,2.6,0.1,3.7,0.6l4.1,2c0.2,0.1,0.2,0.3,0,0.4l-1.8,1.6c-0.1,0.1-0.2,0.1-0.4,0.1l-3.1-1.5c-2.2-1.1-3.8-1.2-5.8,0.6
		L294,386l4.3,4.9c0.1,0.1,0.1,0.3,0,0.4l-1.7,1.5c-0.1,0.1-0.3,0.1-0.4,0L285,380.1c-0.1-0.1-0.1-0.3,0-0.4L290.1,375.3z
		 M294.7,382c1.9-1.7,2.3-3.4,1-4.8c-1.1-1.2-2.6-1.3-4-0.1l-3.1,2.8l3.7,4.2L294.7,382z"/>
	<path class="st1" d="M321.3,367.4c0.1,0.1,0.1,0.3,0,0.4l-2,2.3c-0.1,0.1-0.2,0.1-0.4,0.1c-0.9-0.3-1.9-0.5-2.8-0.7l-10.2-1.7
		c-0.6-0.1-1.3-0.3-1.8-0.4c-0.3-0.1-0.4,0.2-0.2,0.3c0.9,0.6,1.8,1.2,2.8,2.1l7.1,6.2c0.1,0.1,0.1,0.3,0,0.4l-1.5,1.7
		c-0.1,0.1-0.3,0.1-0.4,0L299.3,367c-0.1-0.1-0.1-0.3,0-0.4l2-2.3c0.1-0.1,0.2-0.1,0.4-0.1c0.9,0.3,1.9,0.5,2.8,0.7l10.2,1.7
		c0.7,0.1,1.3,0.3,1.8,0.4c0.3,0.1,0.4-0.2,0.1-0.3c-0.9-0.6-1.7-1.2-2.7-2.1l-7.2-6.2c-0.1-0.1-0.1-0.3,0-0.4l1.5-1.7
		c0.1-0.1,0.3-0.1,0.4,0L321.3,367.4z"/>
	<path class="st1" d="M327.4,343.6c4.6,3,6,7.4,3.4,11.3c-2.6,4-7.1,4.5-11.7,1.4c-4.6-3-5.9-7.3-3.4-11.3
		C318.3,341.1,322.8,340.6,327.4,343.6z M320.7,353.9c3.3,2.2,6.3,2,8-0.4c1.6-2.5,0.5-5.3-2.8-7.4c-3.4-2.2-6.3-2-7.9,0.4
		C316.3,348.9,317.3,351.7,320.7,353.9z"/>
	<path class="st1" d="M337.3,329.8c1.5,1.5,3,3,4.6,4.3c0.1,0.1,0.1,0.2,0.1,0.4l-1.3,2.6c-0.1,0.2-0.2,0.2-0.3,0.2
		c-2-0.4-4.1-0.7-6.2-0.9l-11.7-0.9c-0.2,0-0.3-0.1-0.2-0.3l1-2.2c0.1-0.1,0.2-0.2,0.3-0.2l9.6,0.7c1.6,0.2,3.4,0.5,4.6,0.8
		c0.3,0.1,0.4-0.2,0.2-0.4c-1-0.7-2.3-1.9-3.4-3.1l-6.5-7.1c-0.1-0.1-0.1-0.2-0.1-0.4l1.1-2.2c0.1-0.2,0.2-0.2,0.4-0.1L337.3,329.8z
		"/>
	<path class="st1" d="M340.9,309c0.1-0.2,0.2-0.2,0.3-0.2l1.8,0.6c0.2,0.1,0.2,0.2,0.2,0.3l-2.2,6.6l4.9,1.7l2.8-8.4
		c0.1-0.2,0.2-0.2,0.3-0.2l1.9,0.6c0.2,0.1,0.2,0.2,0.2,0.3l-3.6,10.9c-0.1,0.2-0.2,0.2-0.3,0.2l-16-5.4c-0.2-0.1-0.2-0.2-0.2-0.3
		l3.6-10.9c0.1-0.2,0.2-0.2,0.4-0.1l1.7,1.2c0.1,0.1,0.2,0.2,0.1,0.4l-2.6,7.8l4.5,1.5L340.9,309z"/>
	<path class="st1" d="M337.7,292c0.7-3.6,3-5.3,6.1-4.7c2.2,0.5,3.4,2.1,3.7,4.2c0.1,0.3,0.2,0.4,0.4,0.1c0.8-1,2.1-1.5,3.3-1.8
		l4.5-0.9c0.2,0,0.3,0.1,0.3,0.3l-0.5,2.4c0,0.1-0.1,0.2-0.3,0.3l-3.4,0.7c-2.4,0.5-3.7,1.4-4.3,3.9l-0.4,1.8l6.4,1.3
		c0.2,0,0.2,0.2,0.2,0.3l-0.5,2.2c0,0.2-0.2,0.2-0.3,0.2l-16.6-3.4c-0.2,0-0.3-0.2-0.2-0.3L337.7,292z M345.4,294.7
		c0.5-2.5-0.2-4.1-2.1-4.5c-1.6-0.3-2.9,0.6-3.2,2.3l-0.8,4.1l5.5,1.1L345.4,294.7z"/>
</g>
<g>
	<g>
		<path class="st1" d="M110.1,230l-1.2,3.4c-0.1,0.3-0.3,0.4-0.6,0.4h-5.8c-0.4,0-0.6-0.2-0.5-0.6l5.8-15.7
			c1.5-4.2,2.9-8.2,3.9-12.4c0.1-0.3,0.3-0.5,0.6-0.5h7.6c0.3,0,0.5,0.2,0.6,0.5c1,4.1,2.4,8.2,3.9,12.4l5.8,15.7
			c0.1,0.4,0,0.6-0.5,0.6H124c-0.3,0-0.5-0.1-0.6-0.4l-1.2-3.4H110.1z M119.5,222.5c-1.2-3.2-2.5-7.1-3-9.8c-0.1-0.5-0.6-0.5-0.7,0
			c-0.5,2.7-1.8,6.5-3,9.8l-0.6,1.6h7.9L119.5,222.5z"/>
		<path class="st1" d="M154,204.7c6.3,0,10.1,2.9,10.1,7.8c0,3.6-2.2,5.2-3.3,5.7c-0.6,0.2-0.7,0.6,0,0.9c1.5,0.6,4.2,2.4,4.2,6.6
			c0,5.1-3.8,8.2-10.2,8.2h-11.9c-0.3,0-0.5-0.2-0.5-0.5v-28c0-0.3,0.2-0.5,0.5-0.5H154z M149,216h4.6c2.7,0,3.9-0.9,3.9-2.8
			c0-1.7-1.2-2.7-3.4-2.7h-5V216z M149,228h5.7c2.3,0,3.6-1.1,3.6-3c0-2.2-1.4-3.3-4.4-3.3h-5V228z"/>
		<path class="st1" d="M202.9,219.2c0,9.2-5,15-13.1,15c-8.1,0-13.1-5.8-13.1-15c0-9.2,5-15,13.1-15
			C198,204.3,202.9,210,202.9,219.2z M183.5,219.2c0,5.6,2.4,9.1,6.4,9.1s6.4-3.5,6.4-9.1c0-5.7-2.4-9-6.4-9
			S183.5,213.5,183.5,219.2z"/>
		<path class="st1" d="M234.8,221.1c-1.5,4.2-2.8,8.2-3.9,12.3c-0.1,0.3-0.3,0.5-0.6,0.5h-7.3c-0.3,0-0.5-0.2-0.6-0.5
			c-1.1-4.1-2.3-8.1-3.9-12.3l-5.8-15.7c-0.1-0.4,0-0.6,0.5-0.6h5.8c0.3,0,0.5,0.1,0.6,0.4l3.9,10.9c1.2,3.2,2.2,6.8,2.7,9.5
			c0.1,0.5,0.7,0.5,0.8,0c0.5-2.7,1.5-6.2,2.7-9.5l3.9-10.9c0.1-0.3,0.3-0.4,0.6-0.4h5.8c0.4,0,0.6,0.2,0.5,0.6L234.8,221.1z"/>
		<path class="st1" d="M269.2,216c0.3,0,0.5,0.2,0.5,0.5v4.7c0,0.3-0.2,0.5-0.5,0.5h-10.1v6.3h13.4c0.3,0,0.5,0.2,0.5,0.5v4.7
			c0,0.3-0.2,0.5-0.5,0.5h-19.5c-0.3,0-0.5-0.2-0.5-0.5v-28c0-0.3,0.2-0.5,0.5-0.5h19.7c0.4,0,0.5,0.2,0.5,0.6l-1.3,4.8
			c-0.1,0.3-0.3,0.5-0.6,0.5h-12.2v5.4H269.2z"/>
	</g>
</g>
<g>
	<path class="st1" d="M136.3,359.8c0.2,0.4,0.4,0.4,0.9,0c1.4-1.5,3-2.2,4.7-2.2c2.1,0,3.7,1,4.7,2.4c0.5,0.5,0.8,0.4,1.2,0
		c1.6-1.9,3.2-2.4,4.9-2.4c4,0,6.3,2.6,6.3,6.8v10.6c0,0.3-0.1,0.4-0.4,0.4h-3.2c-0.3,0-0.4-0.1-0.4-0.4v-10.2
		c0-2.3-0.9-3.6-2.8-3.6c-2.7,0-4,2.1-4,5.4v8.4c0,0.3-0.1,0.4-0.4,0.4h-3.2c-0.3,0-0.4-0.1-0.4-0.4v-10.2c0-2.2-1-3.6-2.8-3.6
		c-2.8,0-4,2.1-4,5.4v8.4c0,0.3-0.1,0.4-0.4,0.4h-3.2c-0.3,0-0.4-0.1-0.4-0.4v-16.7c0-0.3,0.1-0.4,0.4-0.4h1.8
		c0.3,0,0.4,0.1,0.4,0.4L136.3,359.8z"/>
	<path class="st1" d="M170.5,375.1c0,0.3-0.1,0.4-0.4,0.4h-3.2c-0.3,0-0.4-0.1-0.4-0.4v-13.5h-1.8c-0.3,0-0.4-0.1-0.4-0.4v-2.8
		c0-0.3,0.1-0.4,0.4-0.4h5.4c0.3,0,0.4,0.1,0.4,0.4V375.1z M170.5,351.8c0,1.5-0.9,2.4-2.4,2.4s-2.4-0.9-2.4-2.4
		c0-1.5,0.9-2.4,2.4-2.4S170.5,350.3,170.5,351.8z"/>
	<path class="st1" d="M181.2,371.3c0,0.6,0.3,1,0.7,1c0.1,0,0.2,0,0.3,0c0.3,0,0.4,0,0.5,0.2l1.1,2.6c0.1,0.3,0,0.4-0.2,0.5
		c-0.5,0.2-1.1,0.3-1.7,0.3c-3,0-4.7-1.7-4.7-4.6v-21.2c0-0.3,0.1-0.4,0.4-0.4h3.2c0.3,0,0.4,0.1,0.4,0.4V371.3z"/>
	<path class="st1" d="M192.9,371.3c0,0.6,0.3,1,0.7,1c0.1,0,0.2,0,0.3,0c0.3,0,0.4,0,0.5,0.2l1.1,2.6c0.1,0.3,0,0.4-0.2,0.5
		c-0.5,0.2-1.1,0.3-1.7,0.3c-3,0-4.7-1.7-4.7-4.6v-21.2c0-0.3,0.1-0.4,0.4-0.4h3.2c0.3,0,0.4,0.1,0.4,0.4V371.3z"/>
	<path class="st1" d="M205.6,375.1c0,0.3-0.1,0.4-0.4,0.4H202c-0.3,0-0.4-0.1-0.4-0.4v-13.5h-1.8c-0.3,0-0.4-0.1-0.4-0.4v-2.8
		c0-0.3,0.1-0.4,0.4-0.4h5.4c0.3,0,0.4,0.1,0.4,0.4V375.1z M205.5,351.8c0,1.5-0.9,2.4-2.4,2.4s-2.4-0.9-2.4-2.4
		c0-1.5,0.9-2.4,2.4-2.4S205.5,350.3,205.5,351.8z"/>
	<path class="st1" d="M227.9,366.7c0,5.6-3.2,9.1-8.3,9.1c-5.1,0-8.3-3.5-8.3-9.1c0-5.5,3.2-9.1,8.3-9.1
		C224.8,357.7,227.9,361.2,227.9,366.7z M215.3,366.7c0,3.5,1.6,5.5,4.4,5.5c2.7,0,4.3-2.1,4.3-5.5c0-3.4-1.7-5.5-4.3-5.5
		C216.9,361.3,215.3,363.3,215.3,366.7z"/>
	<path class="st1" d="M236.6,359.8c0.2,0.4,0.4,0.4,0.8,0c1.4-1.6,3.2-2.2,5-2.2c4.1,0,6.6,2.6,6.6,6.8v10.6c0,0.3-0.1,0.4-0.4,0.4
		h-3.2c-0.3,0-0.4-0.1-0.4-0.4v-10.2c0-2.3-1.2-3.6-3.1-3.6c-2.7,0-4.2,1.9-4.2,5.4v8.4c0,0.3-0.1,0.4-0.4,0.4h-3.2
		c-0.3,0-0.4-0.1-0.4-0.4v-16.7c0-0.3,0.1-0.4,0.4-0.4h1.8c0.3,0,0.4,0.1,0.4,0.4L236.6,359.8z"/>
</g>
<g>
	<path class="st1" d="M139.3,287.9c11.8,4.4,16.1,8.8,16.1,18.1c0,9.6-5.4,15.6-15.4,17.3v8.2c0,0.7-0.4,1.1-1.1,1.1h-11.4
		c-0.7,0-1.1-0.4-1.1-1.1v-8.1c-3-0.3-6.1-1.1-10.1-2.4l-5.6-1.8c-0.8-0.3-0.9-0.7-0.8-1.4l3.4-9.4c0.3-0.7,0.7-0.9,1.4-0.7l6,1.8
		c5,1.5,8.8,2,12.4,2c4.6,0,8.5-1.1,8.5-5.6c0-2.5-3-4.5-7.7-6.3l-7.1-2.7c-11.6-4.3-15.9-8.6-15.9-17.9c0-9,5.4-14.8,14.6-16.7
		v-8.5c0-0.7,0.4-1.1,1.1-1.1h11.3c0.7,0,1.1,0.4,1.1,1.1v8.2c2.5,0.4,5,1,7.3,1.8l5.6,1.9c0.8,0.3,0.9,0.7,0.8,1.4l-3.5,9.5
		c-0.3,0.7-0.7,0.9-1.4,0.7l-5-1.5c-3.4-1-6.6-1.8-10.1-1.8c-4.8,0-8,2-8,5.1c0,3,2.6,4.3,7.5,6.1L139.3,287.9z"/>
	<path class="st1" d="M174.3,263.9c4.5-1.6,8.4-2.2,12.4-2.2c13.1,0,20.8,6.3,20.8,16.9c0,6-2.3,9.1-6.9,11.6c-0.9,0.5-0.9,1,0,1.4
		c6.1,2.8,8.9,8.1,8.9,14.4c0,11.2-8.5,17.9-22.8,17.9c-4.8,0-9.1-0.9-13.9-2.4l-5.7-2c-0.8-0.2-0.9-0.7-0.7-1.4l3.5-9.1
		c0.2-0.7,0.7-0.9,1.4-0.7l5.4,1.8c3.7,1.2,7.2,1.8,9.9,1.8c5.8,0,9.3-2.9,9.3-7.6c0-4.3-3.1-7.1-8.4-7.1h-5c-0.7,0-1.1-0.4-1.1-1.1
		v-9.5c0-0.7,0.4-1.1,1.1-1.1h4.9c4.1,0,6.5-2.2,6.5-5.4c0-4.1-2.8-6.5-7.3-6.5c-3.1,0-5.8,0.6-8.8,1.6l-4.8,1.6
		c-0.7,0.3-1.1,0-1.4-0.7l-3.2-9.4c-0.2-0.7,0-1.1,0.7-1.4L174.3,263.9z"/>
	<path class="st1" d="M269.7,292.8c0,19.1-9.1,31-23.9,31c-14.8,0-23.9-11.9-23.9-31s9.1-31.1,23.9-31.1
		C260.6,261.7,269.7,273.7,269.7,292.8z M235.5,292.8c0,12,3.8,19.1,10.3,19.1c6.5,0,10.3-7.1,10.3-19.1s-3.7-19.1-10.3-19.1
		C239.3,273.7,235.5,280.8,235.5,292.8z"/>
</g>
</svg>
