<?xml version="1.0" encoding="utf-8"?>
<!-- Generator: Adobe Illustrator 24.1.2, SVG Export Plug-In . SVG Version: 6.00 Build 0)  -->
<svg version="1.1" id="Слой_1" xmlns="http://www.w3.org/2000/svg" xmlns:xlink="http://www.w3.org/1999/xlink" x="0px" y="0px"
	 viewBox="0 0 330 396.5" style="enable-background:new 0 0 330 396.5;" xml:space="preserve">
<style type="text/css">
	.st0{fill:#FFBE3C;}
	.st1{fill:#FFFFFF;}
</style>
<path class="st0" d="M171.1,2.3c-3.5-3.1-8.7-3.1-12.2,0C129,28.6,0,147.1,0,228.9c0,92.5,73.9,167.5,165,167.5
	c91.1,0,165-75,165-167.5C330,147.1,200.9,28.6,171.1,2.3z M165,121.2c-32.6,0-62.6,11.4-86.1,30.3c21.2-29.7,50.9-63.1,86.1-96.3
	c35.3,33.2,64.9,66.6,86.1,96.3C227.5,132.6,197.6,121.2,165,121.2z"/>
<g>
	<path class="st1" d="M94.6,339.1c0.1,0.1,0.2,0.2,0.1,0.4l-1.1,1.6c-0.1,0.1-0.2,0.2-0.4,0.1l-5.7-3.9l-2.9,4.3l7.3,5
		c0.1,0.1,0.2,0.2,0.1,0.4l-1.1,1.6c-0.1,0.1-0.2,0.2-0.4,0.1l-9.5-6.5c-0.1-0.1-0.2-0.2-0.1-0.4l9.5-14c0.1-0.1,0.2-0.2,0.4-0.1
		l9.5,6.5c0.2,0.1,0.2,0.3,0,0.4l-1.6,1.3c-0.1,0.1-0.3,0.1-0.4,0l-6.8-4.7l-2.7,3.9L94.6,339.1z"/>
	<path class="st1" d="M113.2,359.9c-0.1,0.2-0.2,0.2-0.4,0.1l-2.1-1c-0.2-0.1-0.2-0.2-0.1-0.4l3.4-7.3c0.6-1.3,1.4-3,2.2-4.3
		c0.2-0.3,0-0.5-0.3-0.2c-0.5,0.5-1,1-1.6,1.5l-4.5,4.1c-0.5,0.5-1.3,1.2-1.9,1.9c-0.1,0.1-0.2,0.1-0.4,0.1l-1.9-0.9
		c-0.1-0.1-0.2-0.2-0.2-0.3c0.1-0.9,0.2-1.9,0.2-2.6l0.2-6.1c0-0.7,0-1.4,0.1-2.2c0-0.3-0.2-0.4-0.3-0.1c-0.4,1.4-1.2,3.1-1.8,4.5
		l-3.4,7.3c-0.1,0.2-0.2,0.2-0.4,0.1l-2.1-1c-0.2-0.1-0.2-0.2-0.1-0.4l7.1-15.3c0.1-0.2,0.2-0.2,0.4-0.1l3.2,1.5
		c0.2,0.1,0.2,0.2,0.2,0.3c-0.1,0.6-0.2,1.4-0.2,1.9l-0.3,6.5c-0.1,1-0.2,2.2-0.3,3c0,0.3,0.1,0.4,0.3,0.1c0.6-0.7,1.4-1.6,2.1-2.2
		l4.8-4.3c0.5-0.4,1-0.9,1.4-1.4c0.1-0.1,0.2-0.2,0.4-0.1l3.2,1.5c0.2,0.1,0.2,0.2,0.1,0.4L113.2,359.9z"/>
	<path class="st1" d="M132.8,348.1c3.7,1,5.3,3.6,4.3,7c-1,3.6-4,4.9-8.4,3.7l-2.6-0.7l-1.6,5.7c0,0.2-0.2,0.2-0.3,0.2l-2.2-0.6
		c-0.2,0-0.2-0.2-0.2-0.3l4.5-16.3c0-0.2,0.2-0.2,0.3-0.2L132.8,348.1z M126.8,355.6l2.6,0.7c2.7,0.7,4.4,0,5-2
		c0.5-1.8-0.3-3.2-2.2-3.8l-3.7-1L126.8,355.6z"/>
	<path class="st1" d="M153,366.9c0.2,0,0.3,0.1,0.2,0.3l-0.2,2c0,0.2-0.1,0.3-0.3,0.2l-10.4-1.3c-0.2,0-0.3-0.1-0.2-0.3l2.1-16.8
		c0-0.2,0.1-0.3,0.3-0.2l2.3,0.3c0.2,0,0.3,0.1,0.2,0.3l-1.8,14.6L153,366.9z"/>
	<path class="st1" d="M175.1,360.9c0.1,5.5-2.7,9.1-7.4,9.2c-4.7,0.1-7.7-3.3-7.8-8.9c-0.1-5.5,2.7-9,7.4-9.1
		C172,351.9,175,355.3,175.1,360.9z M162.8,361.1c0.1,4,1.9,6.4,4.8,6.3c3-0.1,4.7-2.5,4.6-6.5c-0.1-4-1.9-6.4-4.8-6.3
		C164.4,354.7,162.7,357.1,162.8,361.1z"/>
	<path class="st1" d="M191.1,356.3c-1.2,3.3-1.6,4.7-1.2,7.6l0.6,3.3c0,0.2-0.1,0.3-0.2,0.3l-2.3,0.4c-0.2,0-0.3-0.1-0.3-0.2
		l-0.6-3.3c-0.5-2.8-1.4-4-3.6-6.7l-4.7-5.5c-0.2-0.2-0.1-0.3,0.1-0.4l2.5-0.4c0.1,0,0.3,0,0.3,0.1l3.4,3.9c0.9,1,1.6,2.1,2.2,3.1
		c0.1,0.2,0.4,0.2,0.4-0.1c0.2-1.1,0.6-2.3,1-3.6l1.9-4.9c0.1-0.1,0.1-0.2,0.3-0.2l2.5-0.4c0.2,0,0.3,0.1,0.2,0.3L191.1,356.3z"/>
	<path class="st1" d="M210.2,351.6c0.2-0.1,0.3,0,0.3,0.2l0.6,1.8c0.1,0.2,0,0.3-0.2,0.3l-6.6,2.2l1.6,4.9l8.4-2.8
		c0.2-0.1,0.3,0,0.3,0.2l0.6,1.9c0.1,0.2,0,0.3-0.2,0.3l-10.9,3.6c-0.2,0.1-0.3,0-0.3-0.2l-5.4-16.1c-0.1-0.2,0-0.3,0.2-0.3
		l10.9-3.6c0.2-0.1,0.3,0,0.3,0.2l0.1,2.1c0,0.2-0.1,0.3-0.2,0.3l-7.8,2.6l1.5,4.5L210.2,351.6z"/>
	<path class="st1" d="M227.3,343.8c0.2-0.1,0.3,0,0.4,0.1l0.9,1.7c0.1,0.2,0,0.3-0.1,0.4l-6.2,3.1l2.3,4.6l8-4
		c0.2-0.1,0.3,0,0.4,0.1l0.9,1.8c0.1,0.2,0,0.3-0.1,0.4l-10.2,5.1c-0.2,0.1-0.3,0-0.4-0.1l-7.6-15.1c-0.1-0.2,0-0.3,0.1-0.4
		l10.2-5.1c0.2-0.1,0.3,0,0.4,0.2l0.4,2c0,0.2,0,0.3-0.2,0.3l-7.4,3.7l2.1,4.2L227.3,343.8z"/>
	<path class="st1" d="M239.2,339c-3.2,0.8-4.8,0.4-6.2-1.6c-1.7-2.5-0.8-5.2,2.2-7.2c1.1-0.8,2.3-1.3,3.6-1.7l1.5-0.4
		c0.2,0,0.3,0,0.3,0.2l0.5,1.9c0,0.2,0,0.3-0.2,0.3l-1.3,0.4c-1,0.3-2,0.7-2.9,1.4c-1.5,1-2,2.4-1.3,3.5c0.6,0.8,1.5,1.1,3.4,0.6
		l2.9-0.7c3-0.8,4.8-0.5,6.2,1.5c1.8,2.7,0.9,5.5-2.3,7.7c-1.4,1-2.7,1.5-4.5,2l-1.3,0.4c-0.2,0-0.3,0-0.3-0.2l-0.6-2
		c0-0.2,0-0.3,0.2-0.3l1.4-0.4c1.3-0.4,2.4-0.9,3.6-1.7c1.5-1.1,2.4-2.5,1.4-3.9c-0.6-0.9-1.9-0.9-3.4-0.5L239.2,339z"/>
</g>
<g>
	<g>
		<path class="st1" d="M96.2,211.2l-1.1,3c-0.1,0.2-0.3,0.4-0.5,0.4h-5c-0.4,0-0.5-0.2-0.4-0.5l5-13.5c1.3-3.6,2.5-7.1,3.4-10.6
			c0.1-0.2,0.2-0.4,0.5-0.4h6.6c0.3,0,0.5,0.1,0.5,0.4c0.9,3.6,2,7,3.4,10.6l5,13.5c0.1,0.3,0,0.5-0.4,0.5h-5
			c-0.2,0-0.4-0.1-0.5-0.4l-1.1-3H96.2z M104.3,204.9c-1-2.8-2.2-6.1-2.6-8.4c-0.1-0.4-0.5-0.4-0.6,0c-0.5,2.3-1.6,5.6-2.6,8.4
			l-0.5,1.4h6.8L104.3,204.9z"/>
		<path class="st1" d="M134,189.5c5.4,0,8.7,2.5,8.7,6.7c0,3.1-1.9,4.4-2.8,4.9c-0.5,0.2-0.6,0.5,0,0.7c1.3,0.5,3.6,2,3.6,5.6
			c0,4.4-3.2,7-8.8,7h-10.3c-0.3,0-0.5-0.2-0.5-0.5V190c0-0.3,0.2-0.5,0.5-0.5H134z M129.7,199.2h3.9c2.3,0,3.4-0.8,3.4-2.4
			c0-1.4-1.1-2.3-2.9-2.3h-4.3V199.2z M129.7,209.6h4.9c2,0,3.1-1,3.1-2.6c0-1.9-1.2-2.8-3.7-2.8h-4.3V209.6z"/>
		<path class="st1" d="M176,202c0,7.9-4.3,12.9-11.2,12.9c-7,0-11.3-5-11.3-12.9c0-7.9,4.3-12.9,11.3-12.9
			C171.8,189.2,176,194.1,176,202z M159.3,202c0,4.8,2.1,7.8,5.5,7.8s5.5-3,5.5-7.8c0-4.9-2-7.8-5.5-7.8S159.3,197.1,159.3,202z"/>
		<path class="st1" d="M203.4,203.6c-1.3,3.6-2.4,7.1-3.3,10.6c-0.1,0.2-0.2,0.4-0.5,0.4h-6.2c-0.3,0-0.5-0.1-0.5-0.4
			c-0.9-3.5-2-7-3.3-10.6l-5-13.5c-0.1-0.3,0-0.5,0.4-0.5h5c0.2,0,0.4,0.1,0.5,0.4l3.4,9.3c1,2.8,1.9,5.9,2.3,8.1
			c0.1,0.5,0.6,0.5,0.7,0c0.4-2.3,1.3-5.4,2.3-8.1l3.4-9.3c0.1-0.2,0.3-0.4,0.5-0.4h5c0.4,0,0.5,0.2,0.4,0.5L203.4,203.6z"/>
		<path class="st1" d="M233,199.2c0.3,0,0.5,0.2,0.5,0.5v4.1c0,0.3-0.2,0.5-0.5,0.5h-8.6v5.4h11.5c0.3,0,0.5,0.2,0.5,0.5v4.1
			c0,0.3-0.2,0.5-0.5,0.5h-16.8c-0.3,0-0.5-0.2-0.5-0.5V190c0-0.3,0.2-0.5,0.5-0.5h17c0.3,0,0.5,0.2,0.4,0.5l-1.1,4.1
			c-0.1,0.2-0.2,0.4-0.5,0.4h-10.5v4.7H233z"/>
	</g>
</g>
<g>
	<path class="st1" d="M93.8,242c4.2-1.5,7.9-2.1,11.7-2.1c12.3,0,19.6,5.9,19.6,15.9c0,5.6-2.2,8.6-6.5,10.9c-0.9,0.5-0.9,1,0,1.4
		c5.8,2.6,8.4,7.6,8.4,13.5c0,10.6-8,16.8-21.4,16.8c-4.5,0-8.6-0.8-13-2.2l-5.4-1.8c-0.7-0.2-0.9-0.6-0.6-1.3l3.3-8.6
		c0.2-0.6,0.6-0.9,1.3-0.6l5.1,1.7c3.5,1.1,6.8,1.7,9.4,1.7c5.4,0,8.7-2.7,8.7-7.1c0-4-3-6.7-7.9-6.7h-4.7c-0.6,0-1-0.4-1-1v-9
		c0-0.6,0.4-1,1-1h4.6c3.8,0,6.1-2.1,6.1-5c0-3.8-2.6-6.1-6.9-6.1c-2.9,0-5.4,0.6-8.2,1.5l-4.5,1.5c-0.6,0.2-1,0-1.3-0.6l-3-8.8
		c-0.2-0.6,0-1,0.6-1.3L93.8,242z"/>
	<path class="st1" d="M183.5,269.2c0,18-8.6,29.2-22.5,29.2s-22.5-11.2-22.5-29.2s8.6-29.3,22.5-29.3S183.5,251.2,183.5,269.2z
		 M151.4,269.2c0,11.3,3.6,18,9.7,18c6.2,0,9.7-6.7,9.7-18s-3.5-18-9.7-18C155,251.2,151.4,257.9,151.4,269.2z"/>
	<path class="st1" d="M239.8,269.2c0,18-8.6,29.2-22.5,29.2s-22.5-11.2-22.5-29.2s8.6-29.3,22.5-29.3S239.8,251.2,239.8,269.2z
		 M207.6,269.2c0,11.3,3.6,18,9.7,18c6.2,0,9.7-6.7,9.7-18s-3.5-18-9.7-18C211.2,251.2,207.6,257.9,207.6,269.2z"/>
</g>
</svg>
