<?xml version="1.0" encoding="utf-8"?>
<!-- Generator: Adobe Illustrator 24.0.2, SVG Export Plug-In . SVG Version: 6.00 Build 0)  -->
<svg version="1.1" id="Слой_1" xmlns="http://www.w3.org/2000/svg" xmlns:xlink="http://www.w3.org/1999/xlink" x="0px" y="0px"
	 viewBox="0 0 134 134" style="enable-background:new 0 0 134 134;" xml:space="preserve">
<style type="text/css">
	.st0{fill:#FFBE3C;}
</style>
<g>
	<path class="st0" d="M42.81,77.56c-1.1-0.65-2.52-0.28-3.17,0.82l-18.47,31.4c-0.21,0.36-0.32,0.76-0.32,1.18
		c0,1.28,1.04,2.31,2.32,2.31h13.76c1.28,0,2.31-1.04,2.31-2.31v0c0-1.28-1.04-2.31-2.31-2.31h-9.72l16.42-27.91
		C44.28,79.63,43.91,78.21,42.81,77.56z"/>
	<path class="st0" d="M64.69,78.57c1.28,0,2.31-1.04,2.31-2.31c0-1.28-1.04-2.31-2.31-2.31c-1.28,0-2.31,1.04-2.31,2.31
		C62.37,77.53,63.41,78.57,64.69,78.57z"/>
	<path class="st0" d="M60.06,69.31c1.28,0,2.31-1.04,2.31-2.31c0-1.28-1.04-2.31-2.31-2.31s-2.31,1.04-2.31,2.31
		C57.75,68.28,58.78,69.31,60.06,69.31z"/>
	<path class="st0" d="M60.06,57.75c0-1.28-1.04-2.31-2.31-2.31l0,0c-1.28,0-2.31,1.04-2.31,2.31c0,1.28,1.04,2.31,2.31,2.31l0,0
		C59.02,60.06,60.06,59.02,60.06,57.75z"/>
	<path class="st0" d="M60.06,106.33c-1.28,0-2.31,1.04-2.31,2.31l0,0c0,1.28,1.04,2.31,2.31,2.31s2.31-1.04,2.31-2.31l0,0
		C62.37,107.36,61.34,106.33,60.06,106.33z"/>
	<path class="st0" d="M53.12,97.07c-1.28,0-2.31,1.04-2.31,2.31c0,1.28,1.04,2.31,2.31,2.31c1.28,0,2.31-1.04,2.31-2.31
		C55.43,98.11,54.4,97.07,53.12,97.07z"/>
	<path class="st0" d="M116.94,64.69H80.88c-5.11,0-9.25,4.14-9.25,9.25v26.86L50.81,68.62V52.56c2.39-1.26,4.9-2.25,7.52-2.93
		c1.02-0.26,1.74-1.19,1.73-2.24V16.11h11.57v30.75c0,1.11,0.79,2.06,1.88,2.27c7.4,1.42,14.12,5.19,19.17,10.74
		c0.82,0.9,2.2,1.01,3.15,0.25c1.04-0.83,1.17-2.38,0.27-3.37c-5.28-5.8-12.18-9.9-19.84-11.76V13.79c0-1.28-1.04-2.31-2.31-2.31
		H57.75c-1.28,0-2.31,1.04-2.31,2.31v31.85c-1.58,0.49-3.12,1.08-4.63,1.76v-8.17c0-1.28-1.04-2.31-2.31-2.31H36.93
		c-1.28,0-2.31,1.04-2.31,2.31v29.44l-21.56,36.65c-1.03,1.75-1.58,3.75-1.58,5.78c0,6.3,5.11,11.4,11.4,11.4h42.13
		c2.17,0,4.28-0.63,6.1-1.8c1.16-0.75,2.13-1.69,2.91-2.74c2.11,2.75,5.43,4.54,9.17,4.54h20.82c6.38-0.01,11.56-5.18,11.57-11.57
		V79.52l5.31-5.3c1.04-1.05,1.63-2.46,1.63-3.94C122.52,67.19,120.02,64.69,116.94,64.69z M65.01,117.89H22.88
		c-1.21,0-2.4-0.32-3.45-0.94c-3.23-1.9-4.3-6.05-2.4-9.28l21.89-37.19c0.21-0.36,0.32-0.76,0.32-1.17V41.55h6.94v27.76
		c0,0.45,0.13,0.88,0.37,1.26l24.01,37.11c0.69,1.07,1.06,2.32,1.06,3.59C71.63,114.93,68.66,117.89,65.01,117.89z M83.19,110.95
		c-1.28,0-2.31-1.04-2.31-2.31c0-1.28,1.04-2.31,2.31-2.31c1.28,0,2.31,1.04,2.31,2.31C85.51,109.92,84.47,110.95,83.19,110.95z
		 M85.51,101.7h-2.31c-1.28,0-2.31-1.04-2.31-2.31c0-1.28,1.04-2.31,2.31-2.31h2.31c1.28,0,2.31,1.04,2.31,2.31
		C87.82,100.66,86.78,101.7,85.51,101.7z M80.88,90.13c0-1.28,1.04-2.31,2.31-2.31c1.28,0,2.31,1.04,2.31,2.31
		c0,1.28-1.04,2.31-2.31,2.31C81.92,92.45,80.88,91.41,80.88,90.13z M85.51,83.19h-2.31c-1.28,0-2.31-1.04-2.31-2.31
		c0-1.28,1.04-2.31,2.31-2.31h2.31c1.28,0,2.31,1.04,2.31,2.31C87.82,82.16,86.78,83.19,85.51,83.19z M106.33,110.95
		c0,1.28-1.04,2.31-2.31,2.31h-6.94c-1.28,0-2.31-1.04-2.31-2.31c0-1.28,1.04-2.31,2.31-2.31h4.63V80.88c0-1.28,1.04-2.31,2.31-2.31
		c1.28,0,2.31,1.04,2.31,2.31V110.95z"/>
</g>
</svg>
