<?xml version="1.0" encoding="utf-8"?>
<!-- Generator: Adobe Illustrator 24.0.2, SVG Export Plug-In . SVG Version: 6.00 Build 0)  -->
<svg version="1.1" id="Слой_1" xmlns="http://www.w3.org/2000/svg" xmlns:xlink="http://www.w3.org/1999/xlink" x="0px" y="0px"
	 viewBox="0 0 134 134" style="enable-background:new 0 0 134 134;" xml:space="preserve">
<style type="text/css">
	.st0{fill:#FFBE3C;}
</style>
<g>
	<path class="st0" d="M34.73,92.5c-2.46,0-4.47,2-4.47,4.47c0,2.46,2,4.47,4.47,4.47s4.47-2,4.47-4.47
		C39.19,94.51,37.19,92.5,34.73,92.5z"/>
	<path class="st0" d="M110.8,92.5c-2.46,0-4.47,2-4.47,4.47c0,2.46,2,4.47,4.47,4.47c2.46,0,4.47-2,4.47-4.47
		C115.27,94.51,113.27,92.5,110.8,92.5z"/>
	<path class="st0" d="M124.05,60.36l-3.57-14.3c0.98-0.21,1.71-1.07,1.71-2.11v-2.31c0-5-4.07-9.08-9.08-9.08H96.83v-4.75
		c0-2.46-2-4.47-4.47-4.47H9.37c-2.46,0-4.47,2-4.47,4.47l0,46.25H2.45c-1.19,0-2.16,0.97-2.16,2.16s0.97,2.16,2.16,2.16H4.9v13.98
		c0,2.46,2,4.47,4.47,4.47h11.67c0,0.05,0,0.1,0,0.14c0,7.55,6.14,13.69,13.69,13.69s13.69-6.14,13.69-13.69c0-0.05,0-0.1,0-0.14
		h48.71c0,0.05,0,0.1,0,0.14c0,7.55,6.14,13.69,13.69,13.69s13.69-6.14,13.69-13.69c0-0.05,0-0.1,0-0.14h7.06
		c1.19,0,2.16-0.97,2.16-2.16V71.61C133.71,65.92,129.51,61.19,124.05,60.36z M34.73,106.34c-5.16,0-9.37-4.2-9.37-9.37
		c0-5.16,4.2-9.37,9.37-9.37s9.37,4.2,9.37,9.37C44.09,102.13,39.89,106.34,34.73,106.34z M85.44,87.6H53.17
		c-1.19,0-2.16-0.97-2.16-2.16s0.97-2.16,2.16-2.16h32.27c1.19,0,2.16,0.97,2.16,2.16S86.64,87.6,85.44,87.6z M96.83,36.89h16.28
		c2.62,0,4.75,2.13,4.75,4.75v0.14H96.83V36.89z M96.83,46.11h19.2l3.53,14.12H96.83V46.11z M110.8,106.34
		c-5.16,0-9.37-4.2-9.37-9.37c0-5.16,4.2-9.37,9.37-9.37s9.37,4.2,9.37,9.37C120.17,102.13,115.97,106.34,110.8,106.34z
		 M129.39,92.5h-5.65c-1.86-5.36-6.95-9.22-12.94-9.22c-5.98,0-11.08,3.86-12.94,9.22h-1.04v-25.5c0,0,0,0,0,0v-2.45h25.5
		c0,0,0,0,0.01,0s0,0,0.01,0c3.14,0,5.8,2.06,6.72,4.9h-6.72c-1.19,0-2.16,0.97-2.16,2.16v4.61c0,3.73,3.04,6.77,6.77,6.77h2.45
		V92.5z M129.39,78.67h-2.45c-1.35,0-2.45-1.1-2.45-2.45v-2.45h4.9V78.67z"/>
</g>
</svg>
