<?xml version="1.0" encoding="utf-8"?>
<!-- Generator: Adobe Illustrator 24.0.2, SVG Export Plug-In . SVG Version: 6.00 Build 0)  -->
<svg version="1.1" id="Слой_1" xmlns="http://www.w3.org/2000/svg" xmlns:xlink="http://www.w3.org/1999/xlink" x="0px" y="0px"
	 viewBox="0 0 105 105" style="enable-background:new 0 0 105 105;" xml:space="preserve">
<style type="text/css">
	.st0{fill:#FFFFFF;}
</style>
<path class="st0" d="M38.5,52.28h-1.33c-0.41,0-0.75,0.34-0.75,0.75v3.5c0,0.78-0.63,1.42-1.42,1.42h-5.67
	c-0.78,0-1.42-0.63-1.42-1.42v-3.5c0-0.41-0.34-0.75-0.75-0.75h-1.33c-0.41,0-0.75,0.34-0.75,0.75v9.08c0,0.83,0.67,1.5,1.5,1.5
	h11.17c0.83,0,1.5-0.67,1.5-1.5v-9.08C39.25,52.62,38.91,52.28,38.5,52.28z M32.83,69.28c0.41,0,0.75-0.34,0.75-0.75V67.2
	c0-0.41-0.34-0.75-0.75-0.75H31.5c-0.41,0-0.75,0.34-0.75,0.75v1.33c0,0.41,0.34,0.75,0.75,0.75H32.83z M55.5,80.61h-1.33
	c-0.41,0-0.75,0.34-0.75,0.75v3.5c0,0.78-0.63,1.42-1.42,1.42h-5.67c-0.78,0-1.42-0.63-1.42-1.42v-3.5c0-0.41-0.34-0.75-0.75-0.75
	h-1.33c-0.41,0-0.75,0.34-0.75,0.75v9.08c0,0.83,0.67,1.5,1.5,1.5h11.17c0.83,0,1.5-0.67,1.5-1.5v-9.08
	C56.25,80.95,55.91,80.61,55.5,80.61z M49.83,83.45c0.41,0,0.75-0.34,0.75-0.75v-1.33c0-0.41-0.34-0.75-0.75-0.75H48.5
	c-0.41,0-0.75,0.34-0.75,0.75v1.33c0,0.41,0.34,0.75,0.75,0.75H49.83z M32.83,55.11c0.41,0,0.75-0.34,0.75-0.75v-1.33
	c0-0.41-0.34-0.75-0.75-0.75H31.5c-0.41,0-0.75,0.34-0.75,0.75v1.33c0,0.41,0.34,0.75,0.75,0.75H32.83z M38.5,66.45h-1.33
	c-0.41,0-0.75,0.34-0.75,0.75v3.5c0,0.78-0.63,1.42-1.42,1.42h-5.67c-0.78,0-1.42-0.63-1.42-1.42v-3.5c0-0.41-0.34-0.75-0.75-0.75
	h-1.33c-0.41,0-0.75,0.34-0.75,0.75v9.08c0,0.83,0.67,1.5,1.5,1.5h11.17c0.83,0,1.5-0.67,1.5-1.5V67.2
	C39.25,66.78,38.91,66.45,38.5,66.45z M38.5,80.61h-1.33c-0.41,0-0.75,0.34-0.75,0.75v3.5c0,0.78-0.63,1.42-1.42,1.42h-5.67
	c-0.78,0-1.42-0.63-1.42-1.42v-3.5c0-0.41-0.34-0.75-0.75-0.75h-1.33c-0.41,0-0.75,0.34-0.75,0.75v9.08c0,0.83,0.67,1.5,1.5,1.5
	h11.17c0.83,0,1.5-0.67,1.5-1.5v-9.08C39.25,80.95,38.91,80.61,38.5,80.61z M32.83,83.45c0.41,0,0.75-0.34,0.75-0.75v-1.33
	c0-0.41-0.34-0.75-0.75-0.75H31.5c-0.41,0-0.75,0.34-0.75,0.75v1.33c0,0.41,0.34,0.75,0.75,0.75H32.83z M66.83,83.45
	c0.41,0,0.75-0.34,0.75-0.75v-1.33c0-0.41-0.34-0.75-0.75-0.75H65.5c-0.41,0-0.75,0.34-0.75,0.75v1.33c0,0.41,0.34,0.75,0.75,0.75
	H66.83z M72.5,66.45h-1.33c-0.41,0-0.75,0.34-0.75,0.75v3.5c0,0.78-0.63,1.42-1.42,1.42h-5.67c-0.78,0-1.42-0.63-1.42-1.42v-3.5
	c0-0.41-0.34-0.75-0.75-0.75h-1.33c-0.41,0-0.75,0.34-0.75,0.75v9.08c0,0.83,0.67,1.5,1.5,1.5h11.17c0.83,0,1.5-0.67,1.5-1.5V67.2
	C73.25,66.78,72.91,66.45,72.5,66.45z M66.83,69.28c0.41,0,0.75-0.34,0.75-0.75V67.2c0-0.41-0.34-0.75-0.75-0.75H65.5
	c-0.41,0-0.75,0.34-0.75,0.75v1.33c0,0.41,0.34,0.75,0.75,0.75H66.83z M93.55,27.03L52.46,12.86c-0.3-0.1-0.62-0.1-0.92,0
	L10.45,27.03c-0.57,0.2-0.95,0.73-0.95,1.34v62c0,0.78,0.63,1.42,1.42,1.42H18c0.78,0,1.42-0.63,1.42-1.42V46.78h65.17v43.58
	c0,0.78,0.63,1.42,1.42,1.42h7.08c0.78,0,1.42-0.63,1.42-1.42v-62C94.5,27.76,94.12,27.22,93.55,27.03z M84.58,38.43H19.42v-4.81
	l32.88-11l32.28,11V38.43z M72.5,80.61h-1.33c-0.41,0-0.75,0.34-0.75,0.75v3.5c0,0.78-0.63,1.42-1.42,1.42h-5.67
	c-0.78,0-1.42-0.63-1.42-1.42v-3.5c0-0.41-0.34-0.75-0.75-0.75h-1.33c-0.41,0-0.75,0.34-0.75,0.75v9.08c0,0.83,0.67,1.5,1.5,1.5
	h11.17c0.83,0,1.5-0.67,1.5-1.5v-9.08C73.25,80.95,72.91,80.61,72.5,80.61z M55.5,66.45h-1.33c-0.41,0-0.75,0.34-0.75,0.75v3.5
	c0,0.78-0.63,1.42-1.42,1.42h-5.67c-0.78,0-1.42-0.63-1.42-1.42v-3.5c0-0.41-0.34-0.75-0.75-0.75h-1.33c-0.41,0-0.75,0.34-0.75,0.75
	v9.08c0,0.83,0.67,1.5,1.5,1.5h11.17c0.83,0,1.5-0.67,1.5-1.5V67.2C56.25,66.78,55.91,66.45,55.5,66.45z M49.83,55.11
	c0.41,0,0.75-0.34,0.75-0.75v-1.33c0-0.41-0.34-0.75-0.75-0.75H48.5c-0.41,0-0.75,0.34-0.75,0.75v1.33c0,0.41,0.34,0.75,0.75,0.75
	H49.83z M49.83,69.28c0.41,0,0.75-0.34,0.75-0.75V67.2c0-0.41-0.34-0.75-0.75-0.75H48.5c-0.41,0-0.75,0.34-0.75,0.75v1.33
	c0,0.41,0.34,0.75,0.75,0.75H49.83z M55.5,52.28h-1.33c-0.41,0-0.75,0.34-0.75,0.75v3.5c0,0.78-0.63,1.42-1.42,1.42h-5.67
	c-0.78,0-1.42-0.63-1.42-1.42v-3.5c0-0.41-0.34-0.75-0.75-0.75h-1.33c-0.41,0-0.75,0.34-0.75,0.75v9.08c0,0.83,0.67,1.5,1.5,1.5
	h11.17c0.83,0,1.5-0.67,1.5-1.5v-9.08C56.25,52.62,55.91,52.28,55.5,52.28z"/>
</svg>
