<?xml version="1.0" encoding="utf-8"?>
<!-- Generator: Adobe Illustrator 24.0.2, SVG Export Plug-In . SVG Version: 6.00 Build 0)  -->
<svg version="1.1" id="Слой_1" xmlns="http://www.w3.org/2000/svg" xmlns:xlink="http://www.w3.org/1999/xlink" x="0px" y="0px"
	 viewBox="0 0 105 105" style="enable-background:new 0 0 105 105;" xml:space="preserve">
<style type="text/css">
	.st0{fill:#FFFFFF;}
</style>
<path class="st0" d="M61.02,77.69C70.07,68.62,82.7,54,82.7,42.95c0-17.22-13.74-31.17-30.7-31.17c-16.95,0-30.7,13.96-30.7,31.17
	c0,11.04,12.62,25.66,21.68,34.74C30.76,78.41,17.8,80.61,17.8,85.1c0,5.63,20.45,7.68,34.2,7.68s34.2-2.05,34.2-7.68
	C86.2,80.61,73.24,78.41,61.02,77.69z M52,24.28c7.18,0,13,5.82,13,13c0,7.18-5.82,13-13,13s-13-5.82-13-13
	C39,30.1,44.82,24.28,52,24.28z M35.6,57.18c4.39,3.53,9.96,5.65,16.03,5.65s11.64-2.12,16.03-5.65
	c-3.95,5.52-9.47,11.73-16.03,17.92C45.07,68.92,39.55,62.71,35.6,57.18z M52,90.78c-21.14,0-32.2-3.7-32.2-5.68
	c0-1.75,8.59-4.82,25.08-5.53c2.59,2.52,4.74,4.46,5.98,5.55c0.65,0.57,1.62,0.57,2.27,0c1.23-1.09,3.38-3.03,5.98-5.55
	c16.5,0.71,25.08,3.78,25.08,5.53C84.2,87.08,73.14,90.78,52,90.78z"/>
</svg>
