<svg xmlns="http://www.w3.org/2000/svg" viewBox="0 0 330 185" width="330" height="185">

    <g>
        <path fill="#FFBE3C" d="M0.427,93.751c0,37.894,30.248,68.612,67.562,68.612c37.313,0,67.562-30.719,67.562-68.612
        	c0-33.513-52.842-82.033-65.061-92.805c-1.431-1.261-3.572-1.261-5.002,0C53.269,11.718,0.427,60.238,0.427,93.751z M18.139,93.751
        	c0-11.887,13.138-32.716,33.917-55.097c-13.809,24.168-21.1,44.895-18.988,56.306c4.755,25.695,25.44,44.411,49.642,47.423
        	c-4.655,1.473-9.599,2.268-14.722,2.268C40.502,144.651,18.139,121.817,18.139,93.751z"/>
        <animateMotion begin="0s" dur="5s" repeatCount="indefinite" path="M0,0 0,20 0,0z"/>
    </g>
    <g>
        <path fill="#FFBE3C" d="M194.449,93.751c0,37.894,30.248,68.612,67.562,68.612c37.313,0,67.562-30.719,67.562-68.612
        	c0-33.513-52.842-82.033-65.061-92.805c-1.431-1.261-3.572-1.261-5.002,0C247.29,11.718,194.449,60.238,194.449,93.751z
        	 M212.161,93.751c0-11.887,13.138-32.716,33.917-55.097c-13.809,24.168-21.1,44.895-18.988,56.306
        	c4.755,25.695,25.44,44.411,49.642,47.423c-4.655,1.473-9.599,2.268-14.722,2.268C234.523,144.651,212.161,121.817,212.161,93.751z"/>
        <animateMotion begin="0.5s" dur="7s" repeatCount="indefinite" path="M0,0 0,20 0,0z"/>
    </g>

</svg>
