<?xml version="1.0" encoding="utf-8"?>
<!-- Generator: Adobe Illustrator 24.0.2, SVG Export Plug-In . SVG Version: 6.00 Build 0)  -->
<svg version="1.1" id="Слой_1" xmlns="http://www.w3.org/2000/svg" xmlns:xlink="http://www.w3.org/1999/xlink" x="0px" y="0px"
	 viewBox="0 0 180 180" style="enable-background:new 0 0 180 180;" xml:space="preserve">
<style type="text/css">
	.st0{fill:#FFFFFF;}
	.st1{fill:none;stroke:#FFFFFF;stroke-width:2;stroke-linecap:round;stroke-linejoin:round;stroke-miterlimit:10;}
</style>
<g>
	<path class="st0" d="M66.85,106.19h20.47h1.75h25c2.59,0,5.06,0.52,7.31,1.46c13.73-17.9,1.56-29.4-2.8-31.7
		c-17.59-9.28-24.17-26.8-26.46-38.7c-8.23,17.18-5.78,39.83-5.54,42.92c0.1,1.2-0.25,2.39-1.06,3.29c-0.8,0.9-1.95,1.41-3.15,1.41
		c-6.77,0-12.72-6.62-16.54-12.2c-4.82,11.64-5.6,22.96-2.34,33.83C64.59,106.3,65.71,106.19,66.85,106.19z"/>
	<circle class="st1" cx="49.72" cy="158.52" r="18.98"/>
	<circle class="st1" cx="87.68" cy="158.52" r="18.98"/>
	<path class="st1" d="M130.28,139.53h-3.8c4.03-3.48,6.58-8.62,6.58-14.35c0-10.47-8.52-18.98-18.98-18.98h-25h-1.75H66.85
		c-10.47,0-18.98,8.52-18.98,18.98c0,5.73,2.55,10.87,6.58,14.35h-4.73c-10.47,0-18.98,8.52-18.98,18.98s8.52,18.98,18.98,18.98
		h80.57c10.47,0,18.98-8.52,18.98-18.98S140.75,139.53,130.28,139.53z"/>
	<path class="st1" d="M49.31,117.92c2.86-6.87,9.64-11.72,17.54-11.72h20.47h1.75h25c8.57,0,15.83,5.71,18.18,13.52
		c4.26-5.13,7.34-10.81,9.2-17.04c7.57-25.47-6.91-52.86-8.03-52.74c-1.12,0.1-9.73,9.35-11.18,10.74
		C127.3,25.94,88.12,2.26,87.35,2.5c-0.77,0.24-7.19,20.12-37.16,63.63c-9.26,13.44-11.18,26.95-7.5,38.97
		C44.15,109.91,46.5,114.18,49.31,117.92z"/>
	<circle class="st0" cx="87.68" cy="158.52" r="11.4"/>
	<circle class="st0" cx="49.72" cy="158.52" r="11.4"/>
	<circle class="st1" cx="66.85" cy="125.18" r="18.98"/>
	<circle class="st0" cx="66.85" cy="125.18" r="11.4"/>
	<line class="st1" x1="80.67" y1="139.53" x2="129.11" y2="139.53"/>
	<line class="st1" x1="98.72" y1="117.77" x2="112.3" y2="117.77"/>
	<line class="st1" x1="94.32" y1="128.65" x2="119.52" y2="128.65"/>
	<line class="st1" x1="125.78" y1="155.04" x2="138.76" y2="155.04"/>
	<line class="st1" x1="111.29" y1="165.92" x2="135.38" y2="165.92"/>
</g>
</svg>
