<?xml version="1.0" encoding="utf-8"?>
<!-- Generator: Adobe Illustrator 24.0.2, SVG Export Plug-In . SVG Version: 6.00 Build 0)  -->
<svg version="1.1" id="Слой_1" xmlns="http://www.w3.org/2000/svg" xmlns:xlink="http://www.w3.org/1999/xlink" x="0px" y="0px"
	 viewBox="0 0 200 200" style="enable-background:new 0 0 200 200;" xml:space="preserve">
<style type="text/css">
	.st0{fill:none;stroke:#FFBE3C;stroke-width:2;stroke-miterlimit:10;}
	.st1{fill:#FFBE3C;}
	.st2{fill:#FFFFFF;}
</style>
<g>
	<circle class="st0" cx="100" cy="100" r="90.14"/>
	<g>
		<g>
			<path d="M49.09,47.45c-2.65,1.11-4.04,1.06-5.51-0.51c-1.76-1.88-1.33-4.28,0.94-6.4c0.83-0.78,1.74-1.36,2.65-1.78l1.24-0.57
				c0.17-0.08,0.27-0.03,0.34,0.11l0.91,2.16c0.06,0.16,0.03,0.27-0.12,0.33l-1.09,0.53c-0.74,0.36-1.4,0.75-1.99,1.3
				c-0.8,0.75-1.03,1.61-0.55,2.12c0.47,0.5,1.13,0.32,2.23-0.15l1.62-0.68c2.7-1.12,4.11-1.04,5.58,0.52
				c1.84,1.97,1.48,4.27-0.96,6.55c-0.86,0.81-1.72,1.44-3.27,2.17l-1.23,0.58c-0.17,0.08-0.27,0.03-0.34-0.11l-0.92-2.13
				c-0.06-0.16-0.03-0.27,0.12-0.33l1.29-0.64c1.09-0.53,1.8-1.04,2.42-1.62c0.78-0.72,1.26-1.53,0.55-2.29
				c-0.4-0.43-1.21-0.29-2.29,0.14L49.09,47.45z"/>
			<path d="M63.06,33.81c0.13-0.08,0.27-0.05,0.35,0.08l1.19,1.92c0.08,0.13,0.05,0.27-0.08,0.35l-4.1,2.53L62,41.26l5.47-3.38
				c0.13-0.08,0.27-0.05,0.35,0.08l1.19,1.92c0.08,0.13,0.05,0.27-0.08,0.35l-7.97,4.92c-0.13,0.08-0.27,0.05-0.35-0.08l-7.06-11.43
				c-0.08-0.13-0.05-0.27,0.08-0.35l8.05-4.97c0.15-0.09,0.28-0.03,0.34,0.14l0.66,2.27c0.04,0.14,0,0.26-0.12,0.33l-4.97,3.07
				l1.36,2.21L63.06,33.81z"/>
			<path d="M72.98,23.5c2.95-1.05,5.2-0.17,6.1,2.35c0.6,1.69-0.05,3.19-1,4.1c-0.21,0.22-0.16,0.31,0.11,0.36
				c0.99,0.21,1.75,0.86,2.34,1.46l2.42,2.67c0.12,0.15,0.08,0.28-0.09,0.34l-2.67,0.95c-0.15,0.05-0.24,0.02-0.34-0.09l-1.52-1.69
				c-1.24-1.37-2.15-2.05-4.21-1.32l-0.52,0.19l1.58,4.43c0.05,0.15-0.01,0.27-0.15,0.33l-2.52,0.9c-0.15,0.05-0.27-0.01-0.33-0.15
				l-4.52-12.65c-0.05-0.15,0.01-0.27,0.15-0.33L72.98,23.5z M74.69,29.5c1.39-0.5,1.85-1.25,1.46-2.34
				c-0.35-0.98-1.24-1.37-2.22-1.02l-2.41,0.86l1.15,3.22L74.69,29.5z"/>
			<path d="M95.12,21.37c0.02,0.16-0.06,0.27-0.22,0.29l-3.84,0.52l1.45,10.79c0.02,0.16-0.06,0.27-0.22,0.29l-2.63,0.35
				c-0.16,0.02-0.27-0.06-0.29-0.22L87.93,22.6l-3.86,0.52c-0.16,0.02-0.27-0.06-0.29-0.22l-0.3-2.26
				c-0.02-0.16,0.06-0.27,0.22-0.29l10.83-1.46c0.16-0.02,0.27,0.06,0.29,0.22L95.12,21.37z"/>
			<path d="M103.28,32.65c0,0.16-0.1,0.25-0.26,0.25l-2.67-0.07c-0.16,0-0.25-0.1-0.25-0.26l0.33-13.42c0-0.16,0.1-0.25,0.26-0.25
				l2.67,0.07c0.16,0,0.25,0.11,0.25,0.26L103.28,32.65z"/>
			<path d="M116.72,26.74c0.15,0.03,0.23,0.14,0.21,0.3l-0.4,2.23c-0.03,0.15-0.14,0.23-0.3,0.21l-4.94-0.88l-0.86,4.78
				c-0.03,0.16-0.14,0.23-0.3,0.21l-2.63-0.47c-0.15-0.03-0.23-0.14-0.21-0.3l2.37-13.23c0.03-0.15,0.14-0.23,0.3-0.21l9.31,1.67
				c0.17,0.03,0.23,0.16,0.16,0.33l-1.02,2.14c-0.06,0.13-0.17,0.19-0.31,0.16l-5.75-1.03l-0.57,3.21L116.72,26.74z"/>
			<path d="M123.45,36.75c-0.05,0.15-0.18,0.21-0.32,0.16l-2.53-0.87c-0.15-0.05-0.21-0.18-0.16-0.33l4.37-12.7
				c0.05-0.15,0.18-0.21,0.32-0.16l2.53,0.87c0.15,0.05,0.21,0.18,0.16,0.33L123.45,36.75z"/>
			<path d="M138.21,34.54c0.14,0.07,0.18,0.21,0.11,0.35l-1.06,2c-0.07,0.14-0.21,0.18-0.35,0.11l-4.26-2.25l-1.41,2.66l5.68,3
				c0.14,0.07,0.18,0.21,0.11,0.34l-1.06,2c-0.07,0.14-0.21,0.18-0.35,0.11l-8.27-4.37c-0.14-0.07-0.18-0.21-0.11-0.35l6.27-11.87
				c0.07-0.14,0.21-0.18,0.35-0.11l8.36,4.42c0.16,0.08,0.17,0.22,0.05,0.36l-1.62,1.72c-0.1,0.1-0.22,0.13-0.34,0.06L135.16,30
				l-1.21,2.29L138.21,34.54z"/>
			<path d="M151.63,37.45c3.02,2.52,3.09,6.12,0.36,9.4c-2.67,3.2-6.33,3.78-9.3,1.31l-3.75-3.13c-0.12-0.1-0.13-0.24-0.03-0.36
				l8.61-10.32c0.1-0.12,0.24-0.13,0.36-0.03L151.63,37.45z M142.98,44.78l1.5,1.25c1.47,1.22,3.34,0.82,5.06-1.24
				c1.73-2.07,1.78-3.97,0.31-5.2l-1.5-1.25L142.98,44.78z"/>
		</g>
	</g>
	<g>
		<g>
			<path d="M52.8,166.49c-1.05-0.38-1.76-0.79-2.61-1.46c-3.1-2.45-3.29-6.12-0.55-9.6c2.73-3.46,6.34-4.14,9.45-1.69
				c0.88,0.69,1.47,1.28,2.05,2.14l0.53,0.79c0.09,0.14,0.07,0.26-0.07,0.34l-1.93,1.31c-0.14,0.09-0.26,0.07-0.34-0.07l-0.54-0.8
				c-0.34-0.49-0.74-0.91-1.45-1.47c-1.54-1.22-3.47-0.71-5.16,1.44c-1.72,2.18-1.76,4.17-0.22,5.39c0.57,0.45,1.07,0.77,1.77,1.02
				l0.9,0.36c0.16,0.05,0.22,0.17,0.15,0.32l-0.71,2.17c-0.05,0.16-0.14,0.21-0.32,0.15L52.8,166.49z"/>
			<path d="M72.28,169.68c-1.97,3.94-5.35,5.38-8.81,3.64c-3.48-1.74-4.36-5.3-2.4-9.24c1.98-3.96,5.34-5.36,8.82-3.62
				C73.36,162.2,74.26,165.72,72.28,169.68z M63.94,165.52c-1.2,2.41-0.91,4.42,0.79,5.28s3.47-0.13,4.68-2.54
				c1.23-2.46,0.91-4.38-0.79-5.23S65.17,163.05,63.94,165.52z"/>
			<path d="M88.8,180.97c-0.03,0.15-0.15,0.23-0.31,0.19l-2.59-0.59c-0.15-0.03-0.23-0.15-0.19-0.31l0.91-4.05
				c0.32-1.44,0.81-3.42,1.32-4.78c0.1-0.26-0.12-0.37-0.25-0.14c-0.31,0.47-0.64,0.95-0.96,1.42l-1.71,2.68
				c-0.29,0.46-0.68,1.14-1.07,1.77c-0.07,0.15-0.18,0.18-0.32,0.15l-2.32-0.52c-0.13-0.03-0.22-0.11-0.22-0.27
				c-0.07-0.74-0.14-1.52-0.22-2.07l-0.39-3.17c-0.07-0.56-0.17-1.11-0.25-1.67c-0.04-0.27-0.28-0.27-0.3,0.01
				c-0.12,1.44-0.5,3.46-0.82,4.89l-0.91,4.05c-0.03,0.15-0.15,0.23-0.31,0.19l-2.61-0.59c-0.15-0.03-0.23-0.15-0.19-0.31l2.96-13.1
				c0.03-0.15,0.15-0.23,0.31-0.19l3.87,0.88c0.13,0.03,0.22,0.11,0.22,0.27c0.04,0.45,0.08,0.99,0.13,1.4l0.34,3.12
				c0.11,0.95,0.23,2.21,0.24,3.12c0.01,0.24,0.2,0.29,0.31,0.07c0.41-0.83,1.02-1.95,1.5-2.72l1.69-2.66
				c0.24-0.35,0.51-0.81,0.72-1.21c0.07-0.13,0.18-0.18,0.34-0.15l3.86,0.87c0.15,0.04,0.23,0.15,0.19,0.31L88.8,180.97z"/>
			<path d="M100.69,167.73c3.15-0.05,5,1.65,5.05,4.56c0.05,3.07-2.01,4.89-5.59,4.95l-1.69,0.03l0.07,4.19
				c0,0.16-0.09,0.26-0.25,0.26l-2.67,0.04c-0.16,0-0.26-0.09-0.26-0.25l-0.22-13.43c0-0.16,0.09-0.26,0.25-0.26L100.69,167.73z
				 M98.42,174.5l1.69-0.03c1.55-0.03,2.45-0.81,2.42-2.13c-0.02-1.16-0.68-1.84-1.8-1.82l-2.38,0.04L98.42,174.5z"/>
			<path d="M112.89,178.86l-0.26,1.74c-0.03,0.15-0.12,0.22-0.25,0.25l-2.72,0.54c-0.19,0.04-0.29-0.06-0.27-0.25l1.25-7.91
				c0.32-2.11,0.58-4.13,0.67-6.17c0.01-0.14,0.09-0.24,0.25-0.27l3.59-0.72c0.15-0.03,0.27,0.03,0.33,0.16
				c0.87,1.85,1.88,3.61,2.99,5.44l4.19,6.83c0.09,0.16,0.04,0.29-0.15,0.33l-2.72,0.54c-0.14,0.03-0.24-0.01-0.33-0.13l-0.9-1.5
				L112.89,178.86z M116.61,174.49c-0.86-1.41-1.84-3.1-2.32-4.31c-0.1-0.22-0.34-0.17-0.35,0.07c0,1.3-0.24,3.22-0.49,4.87
				l-0.12,0.83l3.7-0.74L116.61,174.49z"/>
			<path d="M138.93,171.79c0.06,0.14,0.02,0.27-0.13,0.34l-3.19,1.44c-0.14,0.06-0.24,0.04-0.35-0.06c-0.55-0.51-1.2-1.03-1.75-1.49
				l-4.88-4.01c-0.44-0.36-0.83-0.68-1.25-1.05c-0.26-0.2-0.4-0.02-0.27,0.21c0.67,1.06,1.09,1.88,1.67,3.17l2.27,5.02
				c0.06,0.14,0.02,0.27-0.13,0.34l-2.44,1.1c-0.14,0.06-0.27,0.02-0.34-0.13l-5.53-12.24c-0.06-0.14-0.02-0.27,0.13-0.34l3.19-1.44
				c0.14-0.06,0.24-0.04,0.35,0.06c0.57,0.5,1.22,1.02,1.77,1.49l4.91,4.04c0.43,0.37,0.81,0.69,1.24,1.02
				c0.25,0.23,0.4,0.03,0.25-0.2c-0.68-1.03-1.07-1.85-1.66-3.14l-2.28-5.05c-0.06-0.14-0.02-0.27,0.13-0.34l2.42-1.09
				c0.14-0.06,0.27-0.02,0.34,0.13L138.93,171.79z"/>
			<path d="M146.65,155.82c0.56,3.46,0.74,4.71,2.38,6.89l1.11,1.48c0.09,0.13,0.07,0.26-0.05,0.36l-2.12,1.59
				c-0.13,0.09-0.26,0.07-0.36-0.05l-1.11-1.48c-1.64-2.18-2.77-2.71-5.98-4.19l-4.73-2.2c-0.18-0.08-0.19-0.22-0.02-0.35l2.31-1.74
				c0.11-0.08,0.22-0.09,0.34-0.04l2.61,1.18c1.2,0.55,2.3,1.22,2.93,1.64c0.2,0.14,0.38,0.01,0.3-0.22
				c-0.24-0.71-0.56-1.99-0.76-3.27l-0.43-2.83c-0.02-0.13,0.02-0.24,0.13-0.32l2.31-1.74c0.17-0.13,0.31-0.08,0.33,0.12
				L146.65,155.82z"/>
		</g>
	</g>
	<circle class="st1" cx="100" cy="100" r="61.7"/>
	<g>
		<path class="st2" d="M144.02,78.59c-0.84-2.21-2.57-4.18-4.67-5.6c-6.07-3.86-15.33-4.13-21.59-0.65
			c-3.41,1.74-5.66,5.19-6.35,8.73c-1.27,5.83-0.94,12.76,3.55,17.12c5.24,4.59,12.85,5.6,19.63,3.72c0.32-0.06,1.34-0.32,2.05-0.69
			l0.2-0.09c2.1-0.87,4.11-2.3,5.61-4.23C145.89,91.86,146.12,84.28,144.02,78.59z M132.99,91.67c-0.24,1.1-0.98,2.25-2.15,2.66
			c-1.87,0.82-4.39,0.59-6.12-0.37c-1.45-1.01-1.64-2.71-1.82-4.32c-0.14-3.17-0.37-6.52,0.52-9.41c0.7-1.79,2.61-2.25,4.34-2.39
			c1.82,0,3.59,0.28,4.72,1.75c0.7,1.05,0.66,2.43,0.79,3.67C133.22,85.89,133.46,89.01,132.99,91.67z"/>
		<path class="st2" d="M77.62,94.53c-1.54-0.09-3.27,0.04-4.76-0.14l0.04-16.12l0.09-0.13l4.63-0.04c0.05-2.62,0.09-5.42-0.05-7.81
			l-17.61-0.05l-2.9,0.05c-0.04,2.43-0.04,5.28,0,7.76c1.59,0.05,3.08,0,4.63,0.14v15.61l-0.04,0.64l-4.63,0.09
			c-0.1,2.57-0.1,5.05,0,7.58h20.61V94.53z"/>
		<path class="st2" d="M129.48,105.54c-1.96,2.8-4.44,5.51-7.14,7.62c-0.1,0.14-0.38,0.09-0.47-0.04c-1.17-0.73-2.43-1.33-3.56-2.06
			c1.5-1.79,2.95-3.58,4.07-5.56h-1.45c-1.16,1.71-2.38,3.49-3.92,5.01c-2.06-0.83-3.93-1.56-6.03-2.11l-0.23-0.18
			c0.33-0.93,0.93-1.8,1.12-2.72h-1.26l-1.26,2.48c-2.75-0.6-5.79-0.92-8.6-1.1c-0.14-0.41,0.04-1.01-0.14-1.38H99.4
			c-0.1,0.55,0.14,0.97-0.14,1.43c-2.9,0.13-5.7,0.46-8.41,1.01l-1.27-2.44c-0.46,0-0.98-0.09-1.31,0.05l1.17,2.71l-0.14,0.13
			c-2.11,0.6-4.16,1.34-6.17,2.16l-0.19-0.09c-1.31-1.42-2.57-2.98-3.6-4.54c-0.23-0.78-1.17-0.33-1.68-0.42
			c1.12,2.02,2.62,3.81,4.11,5.65c-1.26,0.74-2.52,1.56-3.83,2.16c-2.8-2.12-5.41-4.87-7.38-7.76c-0.56-0.09-0.93-0.05-1.5,0
			c3.36,5.24,8.6,9.82,14.07,12.53c0,0,0-0.04,0.05-0.04c0.04,0,0.13,0.09,0.04,0.13c3.69,1.79,7.62,3.08,11.78,3.63
			c14.35,1.88,28.04-4.22,35.98-16.26C130.57,105.49,129.95,105.49,129.48,105.54z M110,109.68l0.14-0.09
			c2.01,0.46,3.93,1.1,5.7,1.97c-1.5,1.7-3.41,3.17-5.19,4.41c-1.07,0.64-2.15,1.34-3.28,1.88l-2.01-0.87l0.14-0.32
			C107.2,114.41,108.7,112.11,110,109.68z M100.79,108.3c2.67,0.05,5.33,0.33,7.8,0.92l0.05,0.14c-1.31,2.48-2.94,4.87-4.72,7.12
			c-0.8,0.09-1.54-0.22-2.34-0.27l-0.8-0.09C100.7,113.39,100.65,111.01,100.79,108.3z M91.78,109.12c2.43-0.46,4.95-0.83,7.57-0.83
			l0.05,7.77c-0.98,0.22-2.06,0.22-2.99,0.46c-1.92-2.26-3.5-4.69-4.86-7.22L91.78,109.12z M84.25,111.61
			c1.83-0.88,3.74-1.52,5.7-2.02l0.19,0.05c1.35,2.53,3.03,4.91,4.72,7.3c-0.65,0.37-1.45,0.59-2.1,0.96
			c-3.08-1.51-6.03-3.63-8.51-6.15V111.61z M90.28,119.46c-3.93-1.01-7.57-2.76-10.94-5.14v-0.14c1.12-0.68,2.25-1.42,3.46-1.93
			c2.66,2.62,5.42,4.6,8.41,6.48C90.98,119,90.61,119.27,90.28,119.46z M107.62,120.05c-4.95,1.06-10.47,1.1-15.42-0.09
			c-0.09-0.23,0.23-0.28,0.37-0.41c4.34-2.8,11.12-2.8,15.37,0.22C108.09,120.05,107.71,119.96,107.62,120.05z M112.1,118.77
			l-2.2,0.69c-0.37-0.18-0.7-0.46-1.03-0.74l0.09-0.14c2.99-1.74,5.7-3.86,8.27-6.38c1.26,0.5,2.48,1.2,3.6,1.97
			C118.23,116.25,115.19,117.62,112.1,118.77z"/>
		<path class="st2" d="M70.47,66.74c1.12-1.56,2.38-3.08,3.78-4.54c1.21-1.15,2.33-2.25,3.65-3.08c1.22,0.78,2.57,1.43,3.74,2.16
			c-1.45,1.78-2.94,3.58-4.02,5.5c0.33,0.14,0.94,0.1,1.4,0c1.17-1.7,2.43-3.4,3.93-4.91c2.01,0.74,3.97,1.51,6.03,2.07l0.18,0.18
			l-1.17,2.66c0.52,0.1,0.84,0.05,1.35,0c0.42-0.78,0.74-1.65,1.21-2.43c2.71,0.6,5.57,0.92,8.46,1.01
			c0.37,0.33,0.09,1.01,0.23,1.42h1.26c0.14-0.45-0.04-0.96,0.14-1.37c2.71-0.14,5.56-0.42,8.19-1.06l0.23,0.05l1.26,2.38
			c0.42,0,0.98,0.1,1.31-0.09l-1.17-2.66l0.1-0.09c2.14-0.55,4.16-1.38,6.21-2.2c1.45,1.51,2.8,3.3,4.02,5.04
			c0.51,0,1.02,0.05,1.4-0.09c-0.56-1-1.27-2.01-2.01-2.89c-0.61-0.87-1.26-1.65-2.06-2.47v-0.24l3.27-1.88l0.47-0.18
			c2.85,2.16,5.37,4.77,7.38,7.66c0.56,0,1.03,0.19,1.5-0.04c-6.26-9.37-16.59-15.39-27.75-16.25l-0.05,0.09l-0.09-0.09
			c-1.26-0.13-2.81-0.19-4.16-0.05c-0.51-0.04-1.12,0-1.73,0.05c-11.21,0.87-21.54,6.61-27.99,16.39
			C69.44,66.74,70,66.93,70.47,66.74z M89.86,62.7l-0.19,0.04c-1.92-0.5-3.79-1.1-5.56-1.88l0.09-0.28
			c2.57-2.43,5.28-4.45,8.27-6.01c0.7,0.28,1.4,0.5,2.1,0.83l-0.14,0.36C92.66,57.97,91.26,60.36,89.86,62.7z M99.16,63.94
			c-1.31,0.18-2.47-0.04-3.79-0.14c-1.26-0.18-2.85-0.32-4.11-0.74c1.35-2.51,2.95-4.95,4.86-7.2l2.99,0.41
			C99.25,58.66,99.16,61.41,99.16,63.94z M100.61,63.99c-0.09-2.44-0.04-5.15,0-7.67c0.94-0.13,1.96-0.28,2.9-0.41
			c1.82,2.29,3.6,4.64,4.82,7.16C105.8,63.66,103.22,63.99,100.61,63.99z M115.52,60.77c-1.83,0.78-3.7,1.51-5.7,1.93
			c-1.45-2.43-3.03-4.87-4.82-7.22c0.65-0.36,1.45-0.63,2.15-1c3.04,1.51,5.98,3.67,8.46,6.14L115.52,60.77z M109.53,52.92
			c3.93,1.01,7.62,2.75,10.98,5.14l-0.09,0.18l-3.22,1.79h-0.24c-2.47-2.47-5.37-4.63-8.32-6.33
			C108.74,53.38,109.21,53.15,109.53,52.92z M107.67,52.46v0.09c-4.07,2.93-10.65,3.21-14.95,0.5c-0.24-0.18-0.7-0.27-0.75-0.59
			C96.92,51.32,102.76,51.22,107.67,52.46z M79.16,58.16c2.95-2.16,6.22-3.76,9.67-4.87c0.14-0.14,0.23-0.28,0.42-0.28v0.09
			c0.37,0.09,0.66-0.33,0.98-0.05c0.28,0.24,0.61,0.42,0.84,0.65c-2.9,1.79-5.75,3.9-8.36,6.47c-1.26-0.45-2.43-1.14-3.55-1.92
			V58.16z"/>
		<path class="st2" d="M99.21,94.88c-4.39,1.2-9.16,0.28-12.34-3.03c-0.37-0.46-0.61-1.01-0.98-1.46l-6.31,0.05
			c-0.1,3.72-0.14,7.99,0,11.66l7.01-0.04l0.09-2.2c0.8,0.37,1.59,0.83,2.38,1.24c4.86,2.02,11.12,2.48,15.93,0
			c3.51-1.92,5.38-5.64,4.86-9.65c-0.51-3.9-4.25-7.44-8.03-8.4l-11.31-3.26l-0.84-0.41c-0.37-0.32-0.61-0.73-0.52-1.24
			c0.89-1.51,2.95-1.05,4.49-1.01c3.27,0.46,6.64,1.56,8.55,4.55c2.05,0,4.44,0.04,6.68-0.05c0.09-3.76-0.04-7.07-0.09-10.88
			c-2.1-0.05-4.67-0.05-6.77,0.05c-0.09,0.55,0.09,1.32-0.14,1.88l-2.15-1.15c-5.14-2.16-12.34-2.38-17.01,0.97
			c-3.04,2.2-3.97,6.16-3.18,9.64c0.61,3.3,3.78,5.74,6.82,6.88c4.16,1.47,8.5,2.53,12.71,3.95c0.42,0.19,0.98,0.6,0.89,1.11
			C99.96,94.47,99.53,94.71,99.21,94.88z"/>
	</g>
	<g>
		<path class="st2" d="M67.62,139.49c0.28-0.39,0.54-0.67,0.81-0.88c0.17-0.14,0.07-0.28-0.13-0.21c-0.36,0.11-0.83,0.17-1.21,0.17
			c-1.5,0-2.96-1.22-2.96-3.3c0-2.14,1.39-3.41,3.74-3.41c2.38,0,3.78,1.31,3.77,3.52c-0.01,1.64-0.43,2.77-2.12,5.05l-0.99,1.34
			c-0.06,0.08-0.13,0.11-0.22,0.11h-2.17c-0.15,0-0.21-0.1-0.11-0.22L67.62,139.49z M66.36,135.27c0,0.85,0.57,1.41,1.52,1.41
			c0.97,0,1.54-0.56,1.54-1.41c0-0.92-0.58-1.46-1.54-1.46C66.93,133.81,66.36,134.35,66.36,135.27z"/>
		<path class="st2" d="M81.48,136.95c0,3.13-1.49,5.08-3.91,5.08s-3.91-1.95-3.91-5.08c0-3.13,1.49-5.09,3.91-5.09
			S81.48,133.82,81.48,136.95z M75.88,136.95c0,1.96,0.63,3.13,1.68,3.13c1.07,0,1.68-1.17,1.68-3.13c0-1.96-0.61-3.13-1.68-3.13
			C76.51,133.82,75.88,134.99,75.88,136.95z"/>
		<path class="st2" d="M91.26,136.95c0,3.13-1.49,5.08-3.91,5.08c-2.42,0-3.91-1.95-3.91-5.08c0-3.13,1.49-5.09,3.91-5.09
			C89.77,131.86,91.26,133.82,91.26,136.95z M85.66,136.95c0,1.96,0.63,3.13,1.68,3.13c1.07,0,1.68-1.17,1.68-3.13
			c0-1.96-0.61-3.13-1.68-3.13C86.29,133.82,85.66,134.99,85.66,136.95z"/>
		<path class="st2" d="M95.1,141.88c-0.11,0-0.18-0.07-0.18-0.18v-5.61c0-0.46,0.06-0.97,0.1-1.17c0.01-0.11-0.03-0.17-0.14-0.17
			c-0.04,0-0.17,0.04-0.22,0.07l-0.9,0.35c-0.11,0.04-0.2,0.01-0.24-0.1l-0.57-1.53c-0.04-0.11-0.01-0.19,0.1-0.24l3.62-1.39
			c0.1-0.04,0.17-0.03,0.25,0.04l0.1,0.08c0.08,0.05,0.11,0.13,0.11,0.22v9.43c0,0.11-0.07,0.18-0.18,0.18H95.1z"/>
		<path class="st2" d="M101.95,134.74c0,0.81-0.47,1.29-1.28,1.29c-0.79,0-1.27-0.49-1.27-1.29c0-0.82,0.47-1.29,1.27-1.29
			C101.48,133.45,101.95,133.92,101.95,134.74z M101.95,139.26c0,0.81-0.47,1.29-1.28,1.29c-0.79,0-1.27-0.49-1.27-1.29
			c0-0.82,0.47-1.29,1.27-1.29C101.48,137.97,101.95,138.44,101.95,139.26z"/>
		<path class="st2" d="M105.03,132.25c0.86-0.28,1.59-0.39,2.31-0.39c2.1,0,3.37,1.07,3.37,2.89c0,1.04-0.54,1.75-1.7,2.48
			l-2.1,1.29c-0.47,0.29-0.72,0.88-0.72,1.43h4.17c0.11,0,0.18,0.07,0.18,0.18v1.56c0,0.11-0.07,0.18-0.18,0.18h-6.22
			c-0.11,0-0.18-0.07-0.18-0.18v-0.85c0-1.96,0.63-3.24,1.93-4.05l2.05-1.28c0.38-0.22,0.54-0.47,0.54-0.77
			c0-0.58-0.42-0.93-1.14-0.93c-0.57,0-1.11,0.1-1.66,0.28l-0.92,0.29c-0.11,0.04-0.18,0-0.22-0.11l-0.51-1.52
			c-0.04-0.11,0-0.18,0.11-0.22L105.03,132.25z"/>
		<path class="st2" d="M120.62,136.95c0,3.13-1.49,5.08-3.91,5.08c-2.42,0-3.91-1.95-3.91-5.08c0-3.13,1.49-5.09,3.91-5.09
			C119.14,131.86,120.62,133.82,120.62,136.95z M115.03,136.95c0,1.96,0.63,3.13,1.68,3.13c1.07,0,1.68-1.17,1.68-3.13
			c0-1.96-0.61-3.13-1.68-3.13C115.66,133.82,115.03,134.99,115.03,136.95z"/>
		<path class="st2" d="M124.46,141.88c-0.11,0-0.18-0.07-0.18-0.18v-5.61c0-0.46,0.06-0.97,0.1-1.17c0.01-0.11-0.03-0.17-0.14-0.17
			c-0.04,0-0.17,0.04-0.22,0.07l-0.9,0.35c-0.11,0.04-0.19,0.01-0.24-0.1l-0.57-1.53c-0.04-0.11-0.01-0.19,0.1-0.24l3.62-1.39
			c0.1-0.04,0.17-0.03,0.25,0.04l0.1,0.08c0.08,0.05,0.11,0.13,0.11,0.22v9.43c0,0.11-0.07,0.18-0.18,0.18H124.46z"/>
		<path class="st2" d="M134.87,133.8c-0.03,0.1-0.1,0.15-0.19,0.15h-3.17v0.79c0,0.21-0.01,0.61-0.04,0.82
			c-0.03,0.17,0.04,0.14,0.24,0.11l0.39-0.06c0.21-0.03,0.39-0.06,0.6-0.06c1.92-0.01,3.19,1.17,3.19,3.13
			c0,2.1-1.38,3.34-3.69,3.34c-0.85,0-1.57-0.17-2.35-0.42l-0.95-0.33c-0.13-0.03-0.15-0.11-0.11-0.22l0.57-1.47
			c0.04-0.11,0.13-0.14,0.24-0.11l0.88,0.32c0.64,0.19,1.25,0.29,1.73,0.29c0.89,0,1.43-0.53,1.46-1.39
			c0.03-0.7-0.38-1.17-1.35-1.17c-0.28,0-0.63,0.04-1.03,0.1l-1.52,0.21c-0.1,0.01-0.17-0.01-0.24-0.08l-0.11-0.1
			c-0.07-0.06-0.1-0.13-0.1-0.22v-5.23c0-0.11,0.07-0.18,0.18-0.18h5.68c0.13,0,0.18,0.08,0.15,0.21L134.87,133.8z"/>
	</g>
</g>
</svg>
