<svg width="200" height="200" viewBox="0 0 200 200" fill="none" xmlns="http://www.w3.org/2000/svg">
<path d="M100 190.14C149.783 190.14 190.14 149.783 190.14 99.9999C190.14 50.2169 149.783 9.85986 100 9.85986C50.217 9.85986 9.85999 50.2169 9.85999 99.9999C9.85999 149.783 50.217 190.14 100 190.14Z" stroke="#FFBE3C" stroke-width="2" stroke-miterlimit="10"/>
<path d="M63.06 33.81C63.19 33.73 63.33 33.76 63.41 33.89L64.6 35.81C64.68 35.94 64.65 36.08 64.52 36.16L60.42 38.69L62 41.26L67.47 37.88C67.6 37.8 67.74 37.83 67.82 37.96L69.01 39.88C69.09 40.01 69.06 40.15 68.93 40.23L60.96 45.15C60.83 45.23 60.69 45.2 60.61 45.07L53.55 33.64C53.47 33.51 53.5 33.37 53.63 33.29L61.68 28.32C61.83 28.23 61.96 28.29 62.02 28.46L62.68 30.73C62.72 30.87 62.68 30.99 62.56 31.06L57.59 34.13L58.95 36.34L63.06 33.81Z" fill="black"/>
<path d="M72.98 23.4999C75.93 22.4499 78.18 23.3299 79.08 25.8499C79.68 27.5399 79.03 29.0399 78.08 29.9499C77.87 30.1699 77.92 30.2599 78.19 30.3099C79.18 30.5199 79.94 31.1699 80.53 31.7699L82.95 34.4399C83.07 34.5899 83.03 34.7199 82.86 34.7799L80.19 35.7299C80.04 35.7799 79.95 35.7499 79.85 35.6399L78.33 33.9499C77.09 32.5799 76.18 31.8999 74.12 32.6299L73.6 32.8199L75.18 37.2499C75.23 37.3999 75.17 37.5199 75.03 37.5799L72.51 38.4799C72.36 38.5299 72.24 38.4699 72.18 38.3299L67.66 25.6799C67.61 25.5299 67.67 25.4099 67.81 25.3499L72.98 23.4999ZM74.69 29.4999C76.08 28.9999 76.54 28.2499 76.15 27.1599C75.8 26.1799 74.91 25.7899 73.93 26.1399L71.52 26.9999L72.67 30.2199L74.69 29.4999Z" fill="black"/>
<path d="M95.12 21.3697C95.14 21.5297 95.06 21.6397 94.9 21.6597L91.06 22.1797L92.51 32.9697C92.53 33.1297 92.45 33.2397 92.29 33.2597L89.66 33.6097C89.5 33.6297 89.39 33.5497 89.37 33.3897L87.93 22.5997L84.07 23.1197C83.91 23.1397 83.8 23.0597 83.78 22.8997L83.48 20.6397C83.46 20.4797 83.54 20.3697 83.7 20.3497L94.53 18.8897C94.69 18.8697 94.8 18.9497 94.82 19.1097L95.12 21.3697Z" fill="black"/>
<path d="M103.28 32.6499C103.28 32.8099 103.18 32.8999 103.02 32.8999L100.35 32.8299C100.19 32.8299 100.1 32.7299 100.1 32.5699L100.43 19.1499C100.43 18.9899 100.53 18.8999 100.69 18.8999L103.36 18.9699C103.52 18.9699 103.61 19.0799 103.61 19.2299L103.28 32.6499Z" fill="black"/>
<path d="M116.72 26.74C116.87 26.77 116.95 26.88 116.93 27.04L116.53 29.27C116.5 29.42 116.39 29.5 116.23 29.48L111.29 28.6L110.43 33.38C110.4 33.54 110.29 33.61 110.13 33.59L107.5 33.12C107.35 33.09 107.27 32.98 107.29 32.82L109.66 19.59C109.69 19.44 109.8 19.36 109.96 19.38L119.27 21.05C119.44 21.08 119.5 21.21 119.43 21.38L118.41 23.52C118.35 23.65 118.24 23.71 118.1 23.68L112.35 22.65L111.78 25.86L116.72 26.74Z" fill="black"/>
<path d="M123.45 36.7498C123.4 36.8998 123.27 36.9598 123.13 36.9098L120.6 36.0398C120.45 35.9898 120.39 35.8598 120.44 35.7098L124.81 23.0098C124.86 22.8598 124.99 22.7998 125.13 22.8498L127.66 23.7198C127.81 23.7698 127.87 23.8998 127.82 24.0498L123.45 36.7498Z" fill="black"/>
<path d="M138.21 34.5397C138.35 34.6097 138.39 34.7497 138.32 34.8897L137.26 36.8897C137.19 37.0297 137.05 37.0697 136.91 36.9997L132.65 34.7497L131.24 37.4097L136.92 40.4097C137.06 40.4797 137.1 40.6197 137.03 40.7497L135.97 42.7497C135.9 42.8897 135.76 42.9297 135.62 42.8597L127.35 38.4897C127.21 38.4197 127.17 38.2797 127.24 38.1397L133.51 26.2697C133.58 26.1297 133.72 26.0897 133.86 26.1597L142.22 30.5797C142.38 30.6597 142.39 30.7997 142.27 30.9397L140.65 32.6597C140.55 32.7597 140.43 32.7897 140.31 32.7197L135.16 29.9997L133.95 32.2897L138.21 34.5397Z" fill="black"/>
<path d="M151.63 37.4496C154.65 39.9696 154.72 43.5696 151.99 46.8496C149.32 50.0496 145.66 50.6296 142.69 48.1596L138.94 45.0296C138.82 44.9296 138.81 44.7896 138.91 44.6696L147.52 34.3496C147.62 34.2296 147.76 34.2196 147.88 34.3196L151.63 37.4496ZM142.98 44.7796L144.48 46.0296C145.95 47.2496 147.82 46.8496 149.54 44.7896C151.27 42.7196 151.32 40.8196 149.85 39.5896L148.35 38.3396L142.98 44.7796Z" fill="black"/>
<path d="M52.8 166.49C51.75 166.11 51.04 165.7 50.19 165.03C47.09 162.58 46.9 158.91 49.64 155.43C52.37 151.97 55.98 151.29 59.09 153.74C59.97 154.43 60.56 155.02 61.14 155.88L61.67 156.67C61.76 156.81 61.74 156.93 61.6 157.01L59.67 158.32C59.53 158.41 59.41 158.39 59.33 158.25L58.79 157.45C58.45 156.96 58.05 156.54 57.34 155.98C55.8 154.76 53.87 155.27 52.18 157.42C50.46 159.6 50.42 161.59 51.96 162.81C52.53 163.26 53.03 163.58 53.73 163.83L54.63 164.19C54.79 164.24 54.85 164.36 54.78 164.51L54.07 166.68C54.02 166.84 53.93 166.89 53.75 166.83L52.8 166.49Z" fill="black"/>
<path d="M56.2074 47.3744C55.6518 48.343 55.1253 48.9715 54.3186 49.693C51.37 52.3234 47.7224 51.8767 44.7678 48.5769C41.8313 45.2903 41.785 41.6171 44.7353 38.977C45.5669 38.2294 46.2499 37.7501 47.1972 37.3274L48.0668 36.9418C48.2203 36.8773 48.335 36.9177 48.3896 37.0694L49.3466 39.1967C49.4111 39.3501 49.3707 39.4648 49.219 39.5195L48.3377 39.9132C47.7964 40.1635 47.3136 40.4849 46.6394 41.0875C45.1718 42.3937 45.3408 44.3828 47.1666 46.4187C49.0168 48.4893 50.97 48.8724 52.4376 47.5662C52.9793 47.0825 53.3809 46.6453 53.748 45.999L54.258 45.1747C54.3349 45.0257 54.4634 44.9874 54.5991 45.0822L56.6139 46.1563C56.7628 46.2332 56.7966 46.3305 56.7064 46.4974L56.2074 47.3744Z" fill="black"/>
<path d="M72.28 169.68C70.31 173.62 66.93 175.06 63.47 173.32C59.99 171.58 59.11 168.02 61.07 164.08C63.05 160.12 66.41 158.72 69.89 160.46C73.36 162.2 74.26 165.72 72.28 169.68ZM63.94 165.52C62.74 167.93 63.03 169.94 64.73 170.8C66.43 171.66 68.2 170.67 69.41 168.26C70.64 165.8 70.32 163.88 68.62 163.03C66.92 162.18 65.17 163.05 63.94 165.52Z" fill="black"/>
<path d="M88.8 180.97C88.77 181.12 88.65 181.2 88.49 181.16L85.9 180.57C85.75 180.54 85.67 180.42 85.71 180.26L86.62 176.21C86.94 174.77 87.43 172.79 87.94 171.43C88.04 171.17 87.82 171.06 87.69 171.29C87.38 171.76 87.05 172.24 86.73 172.71L85.02 175.39C84.73 175.85 84.34 176.53 83.95 177.16C83.88 177.31 83.77 177.34 83.63 177.31L81.31 176.79C81.18 176.76 81.09 176.68 81.09 176.52C81.02 175.78 80.95 175 80.87 174.45L80.48 171.28C80.41 170.72 80.31 170.17 80.23 169.61C80.19 169.34 79.95 169.34 79.93 169.62C79.81 171.06 79.43 173.08 79.11 174.51L78.2 178.56C78.17 178.71 78.05 178.79 77.89 178.75L75.28 178.16C75.13 178.13 75.05 178.01 75.09 177.85L78.05 164.75C78.08 164.6 78.2 164.52 78.36 164.56L82.23 165.44C82.36 165.47 82.45 165.55 82.45 165.71C82.49 166.16 82.53 166.7 82.58 167.11L82.92 170.23C83.03 171.18 83.15 172.44 83.16 173.35C83.17 173.59 83.36 173.64 83.47 173.42C83.88 172.59 84.49 171.47 84.97 170.7L86.66 168.04C86.9 167.69 87.17 167.23 87.38 166.83C87.45 166.7 87.56 166.65 87.72 166.68L91.58 167.55C91.73 167.59 91.81 167.7 91.77 167.86L88.8 180.97Z" fill="black"/>
<path d="M100.69 167.73C103.84 167.68 105.69 169.38 105.74 172.29C105.79 175.36 103.73 177.18 100.15 177.24L98.46 177.27L98.53 181.46C98.53 181.62 98.44 181.72 98.28 181.72L95.61 181.76C95.45 181.76 95.35 181.67 95.35 181.51L95.13 168.08C95.13 167.92 95.22 167.82 95.38 167.82L100.69 167.73ZM98.42 174.5L100.11 174.47C101.66 174.44 102.56 173.66 102.53 172.34C102.51 171.18 101.85 170.5 100.73 170.52L98.35 170.56L98.42 174.5Z" fill="black"/>
<path d="M112.89 178.86L112.63 180.6C112.6 180.75 112.51 180.82 112.38 180.85L109.66 181.39C109.47 181.43 109.37 181.33 109.39 181.14L110.64 173.23C110.96 171.12 111.22 169.1 111.31 167.06C111.32 166.92 111.4 166.82 111.56 166.79L115.15 166.07C115.3 166.04 115.42 166.1 115.48 166.23C116.35 168.08 117.36 169.84 118.47 171.67L122.66 178.5C122.75 178.66 122.7 178.79 122.51 178.83L119.79 179.37C119.65 179.4 119.55 179.36 119.46 179.24L118.56 177.74L112.89 178.86ZM116.61 174.49C115.75 173.08 114.77 171.39 114.29 170.18C114.19 169.96 113.95 170.01 113.94 170.25C113.94 171.55 113.7 173.47 113.45 175.12L113.33 175.95L117.03 175.21L116.61 174.49Z" fill="black"/>
<path d="M138.93 171.79C138.99 171.93 138.95 172.06 138.8 172.13L135.61 173.57C135.47 173.63 135.37 173.61 135.26 173.51C134.71 173 134.06 172.48 133.51 172.02L128.63 168.01C128.19 167.65 127.8 167.33 127.38 166.96C127.12 166.76 126.98 166.94 127.11 167.17C127.78 168.23 128.2 169.05 128.78 170.34L131.05 175.36C131.11 175.5 131.07 175.63 130.92 175.7L128.48 176.8C128.34 176.86 128.21 176.82 128.14 176.67L122.61 164.43C122.55 164.29 122.59 164.16 122.74 164.09L125.93 162.65C126.07 162.59 126.17 162.61 126.28 162.71C126.85 163.21 127.5 163.73 128.05 164.2L132.96 168.24C133.39 168.61 133.77 168.93 134.2 169.26C134.45 169.49 134.6 169.29 134.45 169.06C133.77 168.03 133.38 167.21 132.79 165.92L130.51 160.87C130.45 160.73 130.49 160.6 130.64 160.53L133.06 159.44C133.2 159.38 133.33 159.42 133.4 159.57L138.93 171.79Z" fill="black"/>
<path d="M146.65 155.82C147.21 159.28 147.39 160.53 149.03 162.71L150.14 164.19C150.23 164.32 150.21 164.45 150.09 164.55L147.97 166.14C147.84 166.23 147.71 166.21 147.61 166.09L146.5 164.61C144.86 162.43 143.73 161.9 140.52 160.42L135.79 158.22C135.61 158.14 135.6 158 135.77 157.87L138.08 156.13C138.19 156.05 138.3 156.04 138.42 156.09L141.03 157.27C142.23 157.82 143.33 158.49 143.96 158.91C144.16 159.05 144.34 158.92 144.26 158.69C144.02 157.98 143.7 156.7 143.5 155.42L143.07 152.59C143.05 152.46 143.09 152.35 143.2 152.27L145.51 150.53C145.68 150.4 145.82 150.45 145.84 150.65L146.65 155.82Z" fill="black"/>
<path d="M100 161.7C134.076 161.7 161.7 134.076 161.7 99.9998C161.7 65.9238 134.076 38.2998 100 38.2998C65.924 38.2998 38.3 65.9238 38.3 99.9998C38.3 134.076 65.924 161.7 100 161.7Z" fill="#FFBE3C"/>
<path d="M144.02 78.5897C143.18 76.3797 141.45 74.4097 139.35 72.9897C133.28 69.1297 124.02 68.8597 117.76 72.3397C114.35 74.0797 112.1 77.5297 111.41 81.0697C110.14 86.8997 110.47 93.8297 114.96 98.1897C120.2 102.78 127.81 103.79 134.59 101.91C134.91 101.85 135.93 101.59 136.64 101.22L136.84 101.13C138.94 100.26 140.95 98.8297 142.45 96.8997C145.89 91.8597 146.12 84.2797 144.02 78.5897ZM132.99 91.6697C132.75 92.7697 132.01 93.9197 130.84 94.3297C128.97 95.1497 126.45 94.9197 124.72 93.9597C123.27 92.9497 123.08 91.2497 122.9 89.6397C122.76 86.4697 122.53 83.1197 123.42 80.2297C124.12 78.4397 126.03 77.9797 127.76 77.8397C129.58 77.8397 131.35 78.1197 132.48 79.5897C133.18 80.6397 133.14 82.0197 133.27 83.2597C133.22 85.8897 133.46 89.0097 132.99 91.6697Z" fill="white"/>
<path d="M77.62 94.5297C76.08 94.4397 74.35 94.5697 72.86 94.3897L72.9 78.2697L72.99 78.1397L77.62 78.0997C77.67 75.4797 77.71 72.6797 77.57 70.2897L59.96 70.2397L57.06 70.2897C57.02 72.7197 57.02 75.5698 57.06 78.0498C58.65 78.0998 60.14 78.0498 61.69 78.1898V93.7998L61.65 94.4398L57.02 94.5297C56.92 97.0997 56.92 99.5797 57.02 102.11H77.63V94.5297H77.62Z" fill="white"/>
<path d="M129.48 105.54C127.52 108.34 125.04 111.05 122.34 113.16C122.24 113.3 121.96 113.25 121.87 113.12C120.7 112.39 119.44 111.79 118.31 111.06C119.81 109.27 121.26 107.48 122.38 105.5H120.93C119.77 107.21 118.55 108.99 117.01 110.51C114.95 109.68 113.08 108.95 110.98 108.4L110.75 108.22C111.08 107.29 111.68 106.42 111.87 105.5H110.61L109.35 107.98C106.6 107.38 103.56 107.06 100.75 106.88C100.61 106.47 100.79 105.87 100.61 105.5H99.4C99.3 106.05 99.54 106.47 99.26 106.93C96.36 107.06 93.56 107.39 90.85 107.94L89.58 105.5C89.12 105.5 88.6 105.41 88.27 105.55L89.44 108.26L89.3 108.39C87.19 108.99 85.14 109.73 83.13 110.55L82.94 110.46C81.63 109.04 80.37 107.48 79.34 105.92C79.11 105.14 78.17 105.59 77.66 105.5C78.78 107.52 80.28 109.31 81.77 111.15C80.51 111.89 79.25 112.71 77.94 113.31C75.14 111.19 72.53 108.44 70.56 105.55C70 105.46 69.63 105.5 69.06 105.55C72.42 110.79 77.66 115.37 83.13 118.08C83.13 118.08 83.13 118.04 83.18 118.04C83.22 118.04 83.31 118.13 83.22 118.17C86.91 119.96 90.84 121.25 95 121.8C109.35 123.68 123.04 117.58 130.98 105.54C130.57 105.49 129.95 105.49 129.48 105.54ZM110 109.68L110.14 109.59C112.15 110.05 114.07 110.69 115.84 111.56C114.34 113.26 112.43 114.73 110.65 115.97C109.58 116.61 108.5 117.31 107.37 117.85L105.36 116.98L105.5 116.66C107.2 114.41 108.7 112.11 110 109.68ZM100.79 108.3C103.46 108.35 106.12 108.63 108.59 109.22L108.64 109.36C107.33 111.84 105.7 114.23 103.92 116.48C103.12 116.57 102.38 116.26 101.58 116.21L100.78 116.12C100.7 113.39 100.65 111.01 100.79 108.3ZM91.78 109.12C94.21 108.66 96.73 108.29 99.35 108.29L99.4 116.06C98.42 116.28 97.34 116.28 96.41 116.52C94.49 114.26 92.91 111.83 91.55 109.3L91.78 109.12ZM84.25 111.61C86.08 110.73 87.99 110.09 89.95 109.59L90.14 109.64C91.49 112.17 93.17 114.55 94.86 116.94C94.21 117.31 93.41 117.53 92.76 117.9C89.68 116.39 86.73 114.27 84.25 111.75V111.61ZM90.28 119.46C86.35 118.45 82.71 116.7 79.34 114.32V114.18C80.46 113.5 81.59 112.76 82.8 112.25C85.46 114.87 88.22 116.85 91.21 118.73C90.98 119 90.61 119.27 90.28 119.46ZM107.62 120.05C102.67 121.11 97.15 121.15 92.2 119.96C92.11 119.73 92.43 119.68 92.57 119.55C96.91 116.75 103.69 116.75 107.94 119.77C108.09 120.05 107.71 119.96 107.62 120.05ZM112.1 118.77L109.9 119.46C109.53 119.28 109.2 119 108.87 118.72L108.96 118.58C111.95 116.84 114.66 114.72 117.23 112.2C118.49 112.7 119.71 113.4 120.83 114.17C118.23 116.25 115.19 117.62 112.1 118.77Z" fill="white"/>
<path d="M70.47 66.7399C71.59 65.1799 72.85 63.6599 74.25 62.1999C75.46 61.0499 76.58 59.9499 77.9 59.1199C79.12 59.8999 80.47 60.5499 81.64 61.2799C80.19 63.0599 78.7 64.8599 77.62 66.7799C77.95 66.9199 78.56 66.8799 79.02 66.7799C80.19 65.0799 81.45 63.3799 82.95 61.8699C84.96 62.6099 86.92 63.3799 88.98 63.9399L89.16 64.1199L87.99 66.7799C88.51 66.8799 88.83 66.8299 89.34 66.7799C89.76 65.9999 90.08 65.1299 90.55 64.3499C93.26 64.9499 96.12 65.2699 99.01 65.3599C99.38 65.6899 99.1 66.3699 99.24 66.7799H100.5C100.64 66.3299 100.46 65.8199 100.64 65.4099C103.35 65.2699 106.2 64.9899 108.83 64.3499L109.06 64.3999L110.32 66.7799C110.74 66.7799 111.3 66.8799 111.63 66.6899L110.46 64.0299L110.56 63.9399C112.7 63.3899 114.72 62.5599 116.77 61.7399C118.22 63.2499 119.57 65.0399 120.79 66.7799C121.3 66.7799 121.81 66.8299 122.19 66.6899C121.63 65.6899 120.92 64.6799 120.18 63.7999C119.57 62.9299 118.92 62.1499 118.12 61.3299V61.0899L121.39 59.2099L121.86 59.0299C124.71 61.1899 127.23 63.7999 129.24 66.6899C129.8 66.6899 130.27 66.8799 130.74 66.6499C124.48 57.2799 114.15 51.2599 102.99 50.3999L102.94 50.4899L102.85 50.3999C101.59 50.2699 100.04 50.2099 98.69 50.3499C98.18 50.3099 97.57 50.3499 96.96 50.3999C85.75 51.2699 75.42 57.0099 68.97 66.7899C69.44 66.7399 70 66.9299 70.47 66.7399ZM89.86 62.6999L89.67 62.7399C87.75 62.2399 85.88 61.6399 84.11 60.8599L84.2 60.5799C86.77 58.1499 89.48 56.1299 92.47 54.5699C93.17 54.8499 93.87 55.0699 94.57 55.3999L94.43 55.7599C92.66 57.9699 91.26 60.3599 89.86 62.6999ZM99.16 63.9399C97.85 64.1199 96.69 63.8999 95.37 63.7999C94.11 63.6199 92.52 63.4799 91.26 63.0599C92.61 60.5499 94.21 58.1099 96.12 55.8599L99.11 56.2699C99.25 58.6599 99.16 61.4099 99.16 63.9399ZM100.61 63.9899C100.52 61.5499 100.57 58.8399 100.61 56.3199C101.55 56.1899 102.57 56.0399 103.51 55.9099C105.33 58.1999 107.11 60.5499 108.33 63.0699C105.8 63.6599 103.22 63.9899 100.61 63.9899ZM115.52 60.7699C113.69 61.5499 111.82 62.2799 109.82 62.6999C108.37 60.2699 106.79 57.8299 105 55.4799C105.65 55.1199 106.45 54.8499 107.15 54.4799C110.19 55.9899 113.13 58.1499 115.61 60.6199L115.52 60.7699ZM109.53 52.9199C113.46 53.9299 117.15 55.6699 120.51 58.0599L120.42 58.2399L117.2 60.0299H116.96C114.49 57.5599 111.59 55.3999 108.64 53.6999C108.74 53.3799 109.21 53.1499 109.53 52.9199ZM107.67 52.4599V52.5499C103.6 55.4799 97.02 55.7599 92.72 53.0499C92.48 52.8699 92.02 52.7799 91.97 52.4599C96.92 51.3199 102.76 51.2199 107.67 52.4599ZM79.16 58.1599C82.11 55.9999 85.38 54.3999 88.83 53.2899C88.97 53.1499 89.06 53.0099 89.25 53.0099V53.0999C89.62 53.1899 89.91 52.7699 90.23 53.0499C90.51 53.2899 90.84 53.4699 91.07 53.6999C88.17 55.4899 85.32 57.5999 82.71 60.1699C81.45 59.7199 80.28 59.0299 79.16 58.2499V58.1599Z" fill="white"/>
<path d="M99.21 94.8798C94.82 96.0798 90.05 95.1598 86.87 91.8498C86.5 91.3899 86.26 90.8399 85.89 90.3899L79.58 90.4399C79.48 94.1599 79.44 98.4298 79.58 102.1L86.59 102.06L86.68 99.8599C87.48 100.23 88.27 100.69 89.06 101.1C93.92 103.12 100.18 103.58 104.99 101.1C108.5 99.1798 110.37 95.4598 109.85 91.4498C109.34 87.5498 105.6 84.0099 101.82 83.0499L90.51 79.7899L89.67 79.3798C89.3 79.0598 89.06 78.6499 89.15 78.1399C90.04 76.6299 92.1 77.0898 93.64 77.1298C96.91 77.5898 100.28 78.6899 102.19 81.6799C104.24 81.6799 106.63 81.7198 108.87 81.6298C108.96 77.8698 108.83 74.5599 108.78 70.7499C106.68 70.6999 104.11 70.6999 102.01 70.7999C101.92 71.3499 102.1 72.1199 101.87 72.6799L99.72 71.5299C94.58 69.3699 87.38 69.1499 82.71 72.4999C79.67 74.6999 78.74 78.6599 79.53 82.1399C80.14 85.4399 83.31 87.8798 86.35 89.0198C90.51 90.4898 94.85 91.5499 99.06 92.9699C99.48 93.1599 100.04 93.5699 99.95 94.0799C99.96 94.4699 99.53 94.7098 99.21 94.8798Z" fill="white"/>
<path d="M67.62 139.49C67.9 139.1 68.16 138.82 68.43 138.61C68.6 138.47 68.5 138.33 68.3 138.4C67.94 138.51 67.47 138.57 67.09 138.57C65.59 138.57 64.13 137.35 64.13 135.27C64.13 133.13 65.52 131.86 67.87 131.86C70.25 131.86 71.65 133.17 71.64 135.38C71.63 137.02 71.21 138.15 69.52 140.43L68.53 141.77C68.47 141.85 68.4 141.88 68.31 141.88H66.14C65.99 141.88 65.93 141.78 66.03 141.66L67.62 139.49ZM66.36 135.27C66.36 136.12 66.93 136.68 67.88 136.68C68.85 136.68 69.42 136.12 69.42 135.27C69.42 134.35 68.84 133.81 67.88 133.81C66.93 133.81 66.36 134.35 66.36 135.27Z" fill="white"/>
<path d="M81.48 136.95C81.48 140.08 79.99 142.03 77.57 142.03C75.15 142.03 73.66 140.08 73.66 136.95C73.66 133.82 75.15 131.86 77.57 131.86C79.99 131.86 81.48 133.82 81.48 136.95ZM75.88 136.95C75.88 138.91 76.51 140.08 77.56 140.08C78.63 140.08 79.24 138.91 79.24 136.95C79.24 134.99 78.63 133.82 77.56 133.82C76.51 133.82 75.88 134.99 75.88 136.95Z" fill="white"/>
<path d="M91.26 136.95C91.26 140.08 89.77 142.03 87.35 142.03C84.93 142.03 83.44 140.08 83.44 136.95C83.44 133.82 84.93 131.86 87.35 131.86C89.77 131.86 91.26 133.82 91.26 136.95ZM85.66 136.95C85.66 138.91 86.29 140.08 87.34 140.08C88.41 140.08 89.02 138.91 89.02 136.95C89.02 134.99 88.41 133.82 87.34 133.82C86.29 133.82 85.66 134.99 85.66 136.95Z" fill="white"/>
<path d="M95.1 141.88C94.99 141.88 94.92 141.81 94.92 141.7V136.09C94.92 135.63 94.98 135.12 95.02 134.92C95.03 134.81 94.99 134.75 94.88 134.75C94.84 134.75 94.71 134.79 94.66 134.82L93.76 135.17C93.65 135.21 93.56 135.18 93.52 135.07L92.95 133.54C92.91 133.43 92.94 133.35 93.05 133.3L96.67 131.91C96.77 131.87 96.84 131.88 96.92 131.95L97.02 132.03C97.1 132.08 97.13 132.16 97.13 132.25V141.68C97.13 141.79 97.06 141.86 96.95 141.86H95.1V141.88Z" fill="white"/>
<path d="M101.95 134.74C101.95 135.55 101.48 136.03 100.67 136.03C99.88 136.03 99.4 135.54 99.4 134.74C99.4 133.92 99.87 133.45 100.67 133.45C101.48 133.45 101.95 133.92 101.95 134.74ZM101.95 139.26C101.95 140.07 101.48 140.55 100.67 140.55C99.88 140.55 99.4 140.06 99.4 139.26C99.4 138.44 99.87 137.97 100.67 137.97C101.48 137.97 101.95 138.44 101.95 139.26Z" fill="white"/>
<path d="M105.03 132.25C105.89 131.97 106.62 131.86 107.34 131.86C109.44 131.86 110.71 132.93 110.71 134.75C110.71 135.79 110.17 136.5 109.01 137.23L106.91 138.52C106.44 138.81 106.19 139.4 106.19 139.95H110.36C110.47 139.95 110.54 140.02 110.54 140.13V141.69C110.54 141.8 110.47 141.87 110.36 141.87H104.14C104.03 141.87 103.96 141.8 103.96 141.69V140.84C103.96 138.88 104.59 137.6 105.89 136.79L107.94 135.51C108.32 135.29 108.48 135.04 108.48 134.74C108.48 134.16 108.06 133.81 107.34 133.81C106.77 133.81 106.23 133.91 105.68 134.09L104.76 134.38C104.65 134.42 104.58 134.38 104.54 134.27L104.03 132.75C103.99 132.64 104.03 132.57 104.14 132.53L105.03 132.25Z" fill="white"/>
<path d="M120.62 136.95C120.62 140.08 119.13 142.03 116.71 142.03C114.29 142.03 112.8 140.08 112.8 136.95C112.8 133.82 114.29 131.86 116.71 131.86C119.14 131.86 120.62 133.82 120.62 136.95ZM115.03 136.95C115.03 138.91 115.66 140.08 116.71 140.08C117.78 140.08 118.39 138.91 118.39 136.95C118.39 134.99 117.78 133.82 116.71 133.82C115.66 133.82 115.03 134.99 115.03 136.95Z" fill="white"/>
<path d="M124.46 141.88C124.35 141.88 124.28 141.81 124.28 141.7V136.09C124.28 135.63 124.34 135.12 124.38 134.92C124.39 134.81 124.35 134.75 124.24 134.75C124.2 134.75 124.07 134.79 124.02 134.82L123.12 135.17C123.01 135.21 122.93 135.18 122.88 135.07L122.31 133.54C122.27 133.43 122.3 133.35 122.41 133.3L126.03 131.91C126.13 131.87 126.2 131.88 126.28 131.95L126.38 132.03C126.46 132.08 126.49 132.16 126.49 132.25V141.68C126.49 141.79 126.42 141.86 126.31 141.86H124.46V141.88Z" fill="white"/>
<path d="M134.87 133.8C134.84 133.9 134.77 133.95 134.68 133.95H131.51V134.74C131.51 134.95 131.5 135.35 131.47 135.56C131.44 135.73 131.51 135.7 131.71 135.67L132.1 135.61C132.31 135.58 132.49 135.55 132.7 135.55C134.62 135.54 135.89 136.72 135.89 138.68C135.89 140.78 134.51 142.02 132.2 142.02C131.35 142.02 130.63 141.85 129.85 141.6L128.9 141.27C128.77 141.24 128.75 141.16 128.79 141.05L129.36 139.58C129.4 139.47 129.49 139.44 129.6 139.47L130.48 139.79C131.12 139.98 131.73 140.08 132.21 140.08C133.1 140.08 133.64 139.55 133.67 138.69C133.7 137.99 133.29 137.52 132.32 137.52C132.04 137.52 131.69 137.56 131.29 137.62L129.77 137.83C129.67 137.84 129.6 137.82 129.53 137.75L129.42 137.65C129.35 137.59 129.32 137.52 129.32 137.43V132.2C129.32 132.09 129.39 132.02 129.5 132.02H135.18C135.31 132.02 135.36 132.1 135.33 132.23L134.87 133.8Z" fill="white"/>
</svg>
