<?xml version="1.0" encoding="utf-8"?>
<!-- Generator: Adobe Illustrator 24.1.2, SVG Export Plug-In . SVG Version: 6.00 Build 0)  -->
<svg version="1.1" id="Слой_1" xmlns="http://www.w3.org/2000/svg" xmlns:xlink="http://www.w3.org/1999/xlink" x="0px" y="0px"
	 viewBox="0 0 1920 1190" style="enable-background:new 0 0 1920 1190;" xml:space="preserve">
<style type="text/css">
	.st0{fill:none;}
	.st1{enable-background:new    ;}
</style>
<rect class="st0" width="1920" height="1190"/>
<g class="st1">
	<path d="M676.5,694.5c2.8,0,4.4,1.3,4.4,3.5c0,1.6-0.9,2.6-1.8,2.9c-0.3,0.1-0.3,0.3,0,0.3c1.1,0.3,2.3,1.3,2.3,3.3
		c0,2.4-1.7,3.7-4.6,3.7h-5.6c-0.1,0-0.2-0.1-0.2-0.2v-13.4c0-0.1,0.1-0.2,0.2-0.2H676.5z M673.2,700.2h2.7c1.8,0,2.7-0.7,2.7-2
		c0-1.1-0.8-1.8-2.2-1.8h-3.3V700.2z M673.2,706.3h3.6c1.4,0,2.3-0.7,2.3-1.9c0-1.4-1-2.2-3-2.2h-2.9V706.3z"/>
	<path d="M684.8,698.8c0.7-0.2,1.3-0.3,2.2-0.3c2.7,0,4.3,1.4,4.3,3.8v5.8c0,0.1-0.1,0.2-0.2,0.2h-1c-0.1,0-0.2-0.1-0.3-0.2
		l-0.2-0.6c-0.1-0.3-0.2-0.3-0.5,0c-0.6,0.7-1.5,1-2.7,1c-2.2,0-3.4-1.1-3.4-3s1.3-3,3.6-3h2.5v-0.1c0-1.2-0.8-1.9-2.2-1.9
		c-0.6,0-1.1,0.1-1.5,0.2l-0.7,0.2c-0.1,0-0.2,0-0.3-0.2l-0.4-1.5c0-0.1,0-0.2,0.2-0.3L684.8,698.8z M686.7,704.2
		c-1,0-1.4,0.5-1.4,1.1c0,0.8,0.5,1.2,1.5,1.2c1.6,0,2.4-0.8,2.4-2.2v-0.1H686.7z"/>
	<path d="M695.4,699.7c0.1,0.2,0.2,0.2,0.5,0c0.8-0.9,1.6-1.2,2.6-1.2c1.1,0,2,0.6,2.6,1.3c0.3,0.3,0.4,0.2,0.7,0
		c0.9-1,1.8-1.3,2.7-1.3c2.2,0,3.5,1.4,3.5,3.7v5.8c0,0.1-0.1,0.2-0.2,0.2h-1.8c-0.1,0-0.2-0.1-0.2-0.2v-5.6c0-1.2-0.5-2-1.6-2
		c-1.5,0-2.2,1.2-2.2,3v4.6c0,0.1-0.1,0.2-0.2,0.2H700c-0.1,0-0.2-0.1-0.2-0.2v-5.6c0-1.2-0.6-2-1.6-2c-1.5,0-2.2,1.2-2.2,3v4.6
		c0,0.1-0.1,0.2-0.2,0.2H694c-0.1,0-0.2-0.1-0.2-0.2V699c0-0.1,0.1-0.2,0.2-0.2h1c0.1,0,0.2,0.1,0.2,0.2L695.4,699.7z"/>
	<path d="M711.7,698.8c0.7-0.2,1.3-0.3,2.2-0.3c2.7,0,4.3,1.4,4.3,3.8v5.8c0,0.1-0.1,0.2-0.2,0.2h-1c-0.1,0-0.2-0.1-0.3-0.2
		l-0.2-0.6c-0.1-0.3-0.2-0.3-0.5,0c-0.6,0.7-1.5,1-2.7,1c-2.2,0-3.4-1.1-3.4-3s1.3-3,3.6-3h2.5v-0.1c0-1.2-0.8-1.9-2.2-1.9
		c-0.6,0-1.1,0.1-1.5,0.2l-0.7,0.2c-0.1,0-0.2,0-0.3-0.2l-0.4-1.5c0-0.1,0-0.2,0.2-0.3L711.7,698.8z M713.5,704.2
		c-1,0-1.4,0.5-1.4,1.1c0,0.8,0.5,1.2,1.5,1.2c1.6,0,2.4-0.8,2.4-2.2v-0.1H713.5z"/>
	<path d="M729.1,708.1c0.1,0.1,0,0.3-0.2,0.3h-2c-0.1,0-0.2,0-0.3-0.1l-1.4-2.2c-0.6-0.8-1.1-1.5-2.2-1.5h-0.3v3.6
		c0,0.1-0.1,0.2-0.2,0.2h-1.8c-0.1,0-0.2-0.1-0.2-0.2v-13.7c0-0.1,0.1-0.2,0.2-0.2h1.8c0.1,0,0.2,0.1,0.2,0.2v8.1h0.3
		c1,0,1.5-0.8,2.1-1.6l1.3-2c0.1-0.1,0.2-0.1,0.3-0.1h1.9c0.2,0,0.2,0.1,0.2,0.3l-1.7,2.8c-0.5,0.8-1.1,1.3-1.7,1.5
		c-0.1,0-0.1,0.1,0,0.2c0.7,0.3,1.3,0.9,1.8,1.6L729.1,708.1z"/>
	<path d="M739.2,703.5c0,3.1-1.7,5-4.5,5c-2.8,0-4.6-1.9-4.6-5c0-3,1.7-5,4.6-5C737.5,698.5,739.2,700.5,739.2,703.5z M732.3,703.5
		c0,1.9,0.9,3,2.4,3c1.5,0,2.4-1.1,2.4-3c0-1.9-0.9-3-2.4-3C733.1,700.5,732.3,701.6,732.3,703.5z"/>
</g>
<path d="M705.4,673c-4.7,0-8.6,4-8.6,8.7c0,4.3,6.7,10.4,8.2,11.8c0.2,0.1,0.4,0.1,0.7,0c1.5-1.3,8.2-7.6,8.2-11.8
	C714,676.9,710.2,673,705.4,673z M705.4,676.6c2,0,3.6,1.6,3.6,3.6s-1.6,3.6-3.6,3.6s-3.6-1.6-3.6-3.6
	C701.8,678.2,703.3,676.6,705.4,676.6z M705.3,690.7c-1.9-1.8-3.4-3.5-4.5-5.1c1.2,1,2.7,1.5,4.5,1.5s3.3-0.5,4.5-1.5
	C708.7,687.3,707.1,689,705.3,690.7z"/>
<g class="st1">
	<path d="M570,674.5c2.8,0,4.4,1.3,4.4,3.5c0,1.6-0.9,2.6-1.8,2.9c-0.3,0.1-0.3,0.3,0,0.3c1.1,0.3,2.3,1.3,2.3,3.3
		c0,2.4-1.7,3.7-4.6,3.7h-5.6c-0.1,0-0.2-0.1-0.2-0.2v-13.4c0-0.1,0.1-0.2,0.2-0.2H570z M566.7,680.3h2.7c1.8,0,2.7-0.7,2.7-2
		c0-1.1-0.8-1.8-2.2-1.8h-3.3V680.3z M566.7,686.4h3.6c1.4,0,2.3-0.7,2.3-1.9c0-1.4-1-2.2-3-2.2h-2.9V686.4z"/>
	<path d="M578.3,678.9c0.7-0.2,1.3-0.3,2.2-0.3c2.7,0,4.3,1.4,4.3,3.8v5.8c0,0.1-0.1,0.2-0.2,0.2h-1c-0.1,0-0.2-0.1-0.3-0.2
		l-0.2-0.6c-0.1-0.3-0.2-0.3-0.5,0c-0.6,0.7-1.5,1-2.7,1c-2.2,0-3.4-1.1-3.4-3s1.3-3,3.6-3h2.5v-0.1c0-1.2-0.8-1.9-2.2-1.9
		c-0.6,0-1.1,0.1-1.5,0.2l-0.7,0.2c-0.1,0-0.2,0-0.3-0.2l-0.4-1.5c0-0.1,0-0.2,0.2-0.3L578.3,678.9z M580.2,684.3
		c-1,0-1.4,0.5-1.4,1.1c0,0.8,0.5,1.2,1.5,1.2c1.6,0,2.4-0.8,2.4-2.2v-0.1H580.2z"/>
	<path d="M589,679.8c0.1,0.2,0.2,0.2,0.5,0c0.8-0.9,1.8-1.2,2.7-1.2c2.3,0,3.6,1.4,3.6,3.7v5.8c0,0.1-0.1,0.2-0.2,0.2h-1.8
		c-0.1,0-0.2-0.1-0.2-0.2v-5.6c0-1.2-0.7-2-1.7-2c-1.5,0-2.3,1.1-2.3,3v4.6c0,0.1-0.1,0.2-0.2,0.2h-1.8c-0.1,0-0.2-0.1-0.2-0.2V679
		c0-0.1,0.1-0.2,0.2-0.2h1c0.1,0,0.2,0.1,0.2,0.2L589,679.8z"/>
	<path d="M601.1,688.8c0,1.6-0.7,2.7-2.2,3.6l-0.5,0.3c-0.1,0.1-0.2,0.1-0.3-0.1l-0.8-1.4c-0.1-0.1,0-0.2,0.1-0.3l0.5-0.3
		c0.7-0.5,1.1-1,1.1-1.9v-8h-1c-0.1,0-0.2-0.1-0.2-0.2V679c0-0.1,0.1-0.2,0.2-0.2h2.9c0.1,0,0.2,0.1,0.2,0.2V688.8z M601.1,675.4
		c0,0.8-0.5,1.3-1.3,1.3s-1.3-0.5-1.3-1.3c0-0.8,0.5-1.3,1.3-1.3S601.1,674.5,601.1,675.4z"/>
	<path d="M610.5,687.4c-0.1-0.2-0.2-0.2-0.5,0c-0.8,0.9-1.8,1.2-2.7,1.2c-2.3,0-3.6-1.4-3.6-3.7V679c0-0.1,0.1-0.2,0.2-0.2h1.8
		c0.1,0,0.2,0.1,0.2,0.2v5.6c0,1.2,0.7,2,1.7,2c1.5,0,2.3-1.1,2.3-3V679c0-0.1,0.1-0.2,0.2-0.2h1.8c0.1,0,0.2,0.1,0.2,0.2v9.2
		c0,0.1-0.1,0.2-0.2,0.2h-1c-0.1,0-0.2-0.1-0.2-0.2L610.5,687.4z"/>
	<path d="M616.9,686.1c0,0.3,0.1,0.5,0.4,0.5c0.1,0,0.1,0,0.1,0c0.1,0,0.2,0,0.3,0.1l0.6,1.4c0.1,0.1,0,0.2-0.1,0.3
		c-0.3,0.1-0.6,0.2-0.9,0.2c-1.6,0-2.6-0.9-2.6-2.5v-11.6c0-0.1,0.1-0.2,0.2-0.2h1.8c0.1,0,0.2,0.1,0.2,0.2V686.1z"/>
</g>
<path d="M633.1,670.6c-4.7,0-8.6,4-8.6,8.7c0,4.3,6.7,10.4,8.2,11.8c0.2,0.1,0.4,0.1,0.7,0c1.5-1.3,8.2-7.6,8.2-11.8
	C641.8,674.6,638,670.6,633.1,670.6z M633.1,674.1c2,0,3.6,1.6,3.6,3.6s-1.6,3.6-3.6,3.6s-3.6-1.6-3.6-3.6
	C629.5,675.8,631.1,674.1,633.1,674.1z M633.1,688.3c-1.9-1.8-3.4-3.5-4.5-5.1c1.2,1,2.7,1.5,4.5,1.5s3.3-0.5,4.5-1.5
	C636.4,684.9,634.9,686.7,633.1,688.3z"/>
<g class="st1">
	<path d="M577.1,652.7c3.8,0,6,2.7,6,6.9c0,4.2-2.3,6.9-6,6.9h-4.6c-0.1,0-0.2-0.1-0.2-0.2v-13.4c0-0.1,0.1-0.2,0.2-0.2H577.1z
		 M574.5,664.5h2.6c2.3,0,3.7-1.8,3.7-4.9c0-3.1-1.4-4.9-3.7-4.9h-2.6V664.5z"/>
	<path d="M586.6,657c0.7-0.2,1.3-0.3,2.2-0.3c2.7,0,4.3,1.4,4.3,3.8v5.8c0,0.1-0.1,0.2-0.2,0.2h-1c-0.1,0-0.2-0.1-0.3-0.2l-0.2-0.6
		c-0.1-0.3-0.2-0.3-0.5,0c-0.6,0.7-1.5,1-2.7,1c-2.2,0-3.4-1.1-3.4-3s1.3-3,3.6-3h2.5v-0.1c0-1.2-0.8-1.9-2.2-1.9
		c-0.6,0-1.1,0.1-1.5,0.2l-0.7,0.2c-0.1,0-0.2,0-0.3-0.2l-0.4-1.5c0-0.1,0-0.2,0.2-0.3L586.6,657z M588.5,662.4
		c-1,0-1.4,0.5-1.4,1.1c0,0.8,0.5,1.2,1.5,1.2c1.6,0,2.4-0.8,2.4-2.2v-0.1H588.5z"/>
	<path d="M604.1,666.3c0.1,0.1,0,0.3-0.2,0.3h-2c-0.1,0-0.2,0-0.3-0.1l-1.4-2.2c-0.6-0.8-1.1-1.5-2.2-1.5h-0.3v3.6
		c0,0.1-0.1,0.2-0.2,0.2h-1.8c-0.1,0-0.2-0.1-0.2-0.2v-13.7c0-0.1,0.1-0.2,0.2-0.2h1.8c0.1,0,0.2,0.1,0.2,0.2v8.1h0.3
		c1,0,1.5-0.8,2.1-1.6l1.3-2c0.1-0.1,0.2-0.1,0.3-0.1h1.9c0.2,0,0.2,0.1,0.2,0.3l-1.7,2.8c-0.5,0.8-1.1,1.3-1.7,1.5
		c-0.1,0-0.1,0.1,0,0.2c0.7,0.3,1.3,0.9,1.8,1.6L604.1,666.3z"/>
	<path d="M607.1,657c0.7-0.2,1.3-0.3,2.2-0.3c2.7,0,4.3,1.4,4.3,3.8v5.8c0,0.1-0.1,0.2-0.2,0.2h-1c-0.1,0-0.2-0.1-0.3-0.2l-0.2-0.6
		c-0.1-0.3-0.2-0.3-0.5,0c-0.6,0.7-1.5,1-2.7,1c-2.2,0-3.4-1.1-3.4-3s1.3-3,3.6-3h2.5v-0.1c0-1.2-0.8-1.9-2.2-1.9
		c-0.6,0-1.1,0.1-1.5,0.2l-0.7,0.2c-0.1,0-0.2,0-0.3-0.2l-0.4-1.5c0-0.1,0-0.2,0.2-0.3L607.1,657z M608.9,662.4
		c-1,0-1.4,0.5-1.4,1.1c0,0.8,0.5,1.2,1.5,1.2c1.6,0,2.4-0.8,2.4-2.2v-0.1H608.9z"/>
	<path d="M621.6,658.5c0,0.1-0.1,0.2-0.2,0.2c-2.2,0.1-3.1,1.6-3.1,5.2v2.4c0,0.1-0.1,0.2-0.2,0.2h-1.8c-0.1,0-0.2-0.1-0.2-0.2v-9.2
		c0-0.1,0.1-0.2,0.2-0.2h1c0.1,0,0.2,0.1,0.3,0.2l0.3,1.1c0.1,0.2,0.2,0.3,0.4,0.1c0.8-1,1.7-1.5,3.1-1.6c0.1,0,0.2,0.1,0.2,0.2
		V658.5z"/>
</g>
<path d="M636.9,648.8c-4.7,0-8.6,4-8.6,8.7c0,4.3,6.7,10.4,8.2,11.8c0.2,0.1,0.4,0.1,0.7,0c1.5-1.3,8.2-7.6,8.2-11.8
	C645.5,652.7,641.6,648.8,636.9,648.8z M636.9,652.3c2,0,3.6,1.6,3.6,3.6s-1.6,3.6-3.6,3.6s-3.6-1.6-3.6-3.6
	C633.2,653.9,634.9,652.3,636.9,652.3z M636.7,666.6c-1.9-1.8-3.4-3.5-4.5-5.1c1.2,1,2.7,1.5,4.5,1.5s3.3-0.5,4.5-1.5
	C640.2,663,638.6,664.8,636.7,666.6z"/>
<g class="st1">
	<path d="M1655,601.4c-2.4-0.9-3.3-1.9-3.3-3.9c0-2.4,1.8-3.7,4.7-3.7c1.1,0,2.1,0.2,3.1,0.5l1.1,0.4c0.1,0.1,0.2,0.2,0.1,0.3
		l-0.5,1.5c-0.1,0.1-0.2,0.2-0.3,0.1l-1-0.3c-0.8-0.3-1.6-0.4-2.5-0.4c-1.4,0-2.4,0.7-2.4,1.7c0,0.8,0.5,1.4,1.9,1.9l2.2,0.8
		c2.3,0.9,3.4,1.8,3.4,3.8c0,2.6-1.9,4-5,4c-1.3,0-2.4-0.2-3.8-0.7l-1-0.3c-0.1-0.1-0.2-0.2-0.1-0.3l0.5-1.5
		c0.1-0.1,0.2-0.2,0.3-0.1l1.1,0.4c1,0.3,2,0.5,3.1,0.5c1.5,0,2.7-0.6,2.7-1.9c0-0.9-0.9-1.4-2-1.9L1655,601.4z"/>
	<path d="M1665.9,596.8c0,0.9-0.1,1.6-0.3,2.3c-0.1,0.2,0,0.4,0.3,0.2c0.7-0.7,1.5-1.1,2.6-1.1c2.3,0,3.6,1.4,3.6,3.7v5.8
		c0,0.1-0.1,0.2-0.2,0.2h-1.8c-0.1,0-0.2-0.1-0.2-0.2V602c0-1.3-0.7-2-1.7-2c-1.6,0-2.3,1.3-2.3,3v4.6c0,0.1-0.1,0.2-0.2,0.2h-1.8
		c-0.1,0-0.2-0.1-0.2-0.2v-13.7c0-0.1,0.1-0.2,0.2-0.2h1.8c0.1,0,0.2,0.1,0.2,0.2V596.8z"/>
	<path d="M1680.9,607.8c-0.7,0.2-1.4,0.3-2,0.3c-3,0-4.7-1.9-4.7-5c0-3.1,1.7-5,4.6-5c2.4,0,3.8,1.2,3.8,3.1c0,1.5-0.9,2.4-2.9,2.7
		l-3.1,0.5c0.2,1,1,1.7,2.3,1.7c0.6,0,1.1-0.1,1.6-0.2l0.9-0.2c0.1,0,0.2,0,0.3,0.2l0.4,1.5c0,0.1,0,0.2-0.2,0.3L1680.9,607.8z
		 M1679.4,602.2c0.7-0.1,1.1-0.4,1.1-0.9c0-0.8-0.6-1.2-1.7-1.2c-1.3,0-2.2,0.8-2.4,2.6L1679.4,602.2z"/>
	<path d="M1693.3,607.6c0.1,0.1,0,0.3-0.2,0.3h-2c-0.1,0-0.2,0-0.3-0.1l-1.4-2.2c-0.6-0.8-1.1-1.5-2.2-1.5h-0.3v3.6
		c0,0.1-0.1,0.2-0.2,0.2h-1.8c-0.1,0-0.2-0.1-0.2-0.2v-13.7c0-0.1,0.1-0.2,0.2-0.2h1.8c0.1,0,0.2,0.1,0.2,0.2v8.1h0.3
		c1,0,1.5-0.8,2.1-1.6l1.3-2c0.1-0.1,0.2-0.1,0.3-0.1h1.9c0.2,0,0.2,0.1,0.2,0.3l-1.7,2.8c-0.5,0.8-1.1,1.3-1.7,1.5
		c-0.1,0-0.1,0.1,0,0.2c0.7,0.3,1.3,0.9,1.8,1.6L1693.3,607.6z"/>
	<path d="M1703.4,603.1c0,3.1-1.7,5-4.5,5c-2.8,0-4.6-1.9-4.6-5c0-3,1.7-5,4.6-5C1701.6,598.1,1703.4,600,1703.4,603.1z
		 M1696.4,603.1c0,1.9,0.9,3,2.4,3c1.5,0,2.4-1.1,2.4-3c0-1.9-0.9-3-2.4-3C1697.3,600,1696.4,601.2,1696.4,603.1z"/>
	<path d="M1712.2,606.9c-0.1-0.2-0.2-0.2-0.5,0c-0.8,0.9-1.8,1.2-2.7,1.2c-2.3,0-3.6-1.4-3.6-3.7v-5.8c0-0.1,0.1-0.2,0.2-0.2h1.8
		c0.1,0,0.2,0.1,0.2,0.2v5.6c0,1.2,0.7,2,1.7,2c1.5,0,2.3-1.1,2.3-3v-4.6c0-0.1,0.1-0.2,0.2-0.2h1.8c0.1,0,0.2,0.1,0.2,0.2v9.2
		c0,0.1-0.1,0.2-0.2,0.2h-1c-0.1,0-0.2-0.1-0.2-0.2L1712.2,606.9z"/>
</g>
<path d="M1733.7,587.2c-4.7,0-8.6,4-8.6,8.7c0,4.3,6.7,10.4,8.2,11.8c0.2,0.1,0.4,0.1,0.7,0c1.5-1.3,8.2-7.6,8.2-11.8
	C1742.2,591.1,1738.4,587.2,1733.7,587.2z M1733.7,590.7c2,0,3.6,1.6,3.6,3.6s-1.6,3.6-3.6,3.6s-3.6-1.6-3.6-3.6
	C1730,592.4,1731.7,590.7,1733.7,590.7z M1733.6,604.9c-1.9-1.8-3.4-3.5-4.5-5.1c1.2,1,2.7,1.5,4.5,1.5s3.3-0.5,4.5-1.5
	C1737,601.5,1735.4,603.2,1733.6,604.9z"/>
<g class="st1">
	<path d="M1696.2,494.2c-0.1,0.1-0.2,0.1-0.3,0l-0.9-1.2c-0.9-1.3-2.2-2-4.2-2c-3.7,0-6-2.7-6-7.1s2.3-7.1,6-7.1c3.7,0,6,2.7,6,7.1
		c0,2.8-1.1,5-2.5,5.7c-0.2,0.1-0.2,0.2,0,0.3c1,0.3,1.7,0.9,2.4,1.8l0.8,1.1c0.1,0.1,0.1,0.2,0,0.3L1696.2,494.2z M1690.8,489
		c2.3,0,3.7-1.9,3.7-5.1c0-3.2-1.4-5.1-3.7-5.1s-3.7,1.9-3.7,5.1C1687.1,487.1,1688.5,489,1690.8,489z"/>
	<path d="M1702,490.6c0,0.1-0.1,0.2-0.2,0.2h-1.8c-0.1,0-0.2-0.1-0.2-0.2v-7.4h-1c-0.1,0-0.2-0.1-0.2-0.2v-1.5
		c0-0.1,0.1-0.2,0.2-0.2h2.9c0.1,0,0.2,0.1,0.2,0.2V490.6z M1702,477.8c0,0.8-0.5,1.3-1.3,1.3s-1.3-0.5-1.3-1.3
		c0-0.8,0.5-1.3,1.3-1.3S1702,477,1702,477.8z"/>
	<path d="M1706.3,482.2c0.1,0.2,0.2,0.2,0.5,0c0.8-0.9,1.8-1.2,2.7-1.2c2.3,0,3.6,1.4,3.6,3.7v5.8c0,0.1-0.1,0.2-0.2,0.2h-1.8
		c-0.1,0-0.2-0.1-0.2-0.2V485c0-1.2-0.7-2-1.7-2c-1.5,0-2.3,1.1-2.3,3v4.6c0,0.1-0.1,0.2-0.2,0.2h-1.8c-0.1,0-0.2-0.1-0.2-0.2v-9.2
		c0-0.1,0.1-0.2,0.2-0.2h1c0.1,0,0.2,0.1,0.2,0.2L1706.3,482.2z"/>
	<path d="M1717.6,493.1c0.4,0.1,1.1,0.2,1.7,0.2c1.4,0,2.6-0.5,3-2.1c0.1-0.9,0.1-0.8,0.1-1.2c0-0.1-0.1-0.2-0.3-0.1
		c-0.7,0.7-1.6,1.1-2.7,1.1c-2.6,0-4.2-1.9-4.2-5c0-3.2,1.7-5,4.6-5c0.8,0,1.7,0.1,2.4,0.5l1.8,0.7c0.1,0,0.2,0.1,0.2,0.2v8.3
		c0,2.9-1.7,4.5-4.7,4.5c-0.7,0-1.6-0.1-2.2-0.3l-1-0.3c-0.1,0-0.2-0.1-0.2-0.3l0.5-1.5c0-0.1,0.1-0.2,0.3-0.1L1717.6,493.1z
		 M1721.4,483.4c-0.4-0.2-1-0.3-1.6-0.3c-1.5,0-2.4,1.1-2.4,3c0,1.8,0.8,3,2.3,3c1.5,0,2.3-1.1,2.3-3v-2.4L1721.4,483.4z"/>
	<path d="M1735.2,490.6c0,0.1-0.1,0.2-0.2,0.2h-1c-0.1,0-0.2-0.1-0.2-0.2l-0.2-0.8c-0.1-0.2-0.2-0.2-0.4,0c-0.7,0.8-1.7,1.2-2.7,1.2
		c-2.6,0-4.2-1.9-4.2-5s1.7-5,4.4-5c0.7,0,1.2,0.1,1.8,0.3l0.6,0.3v-4.8c0-0.1,0.1-0.2,0.2-0.2h1.8c0.1,0,0.2,0.1,0.2,0.2V490.6z
		 M1732.4,483.4c-0.5-0.2-1-0.3-1.6-0.3c-1.5,0-2.4,1.1-2.4,3c0,1.9,0.9,3,2.3,3c1.5,0,2.3-1.2,2.3-2.9v-2.5L1732.4,483.4z"/>
	<path d="M1739.1,481.3c0.7-0.2,1.3-0.3,2.2-0.3c2.7,0,4.3,1.4,4.3,3.8v5.8c0,0.1-0.1,0.2-0.2,0.2h-1c-0.1,0-0.2-0.1-0.3-0.2
		l-0.2-0.6c-0.1-0.3-0.2-0.3-0.5,0c-0.6,0.7-1.5,1-2.7,1c-2.2,0-3.4-1.1-3.4-3s1.3-3,3.6-3h2.5v-0.1c0-1.2-0.8-1.9-2.2-1.9
		c-0.6,0-1.1,0.1-1.5,0.2l-0.7,0.2c-0.1,0-0.2,0-0.3-0.2l-0.4-1.5c0-0.1,0-0.2,0.2-0.3L1739.1,481.3z M1740.9,486.7
		c-1,0-1.4,0.5-1.4,1.1c0,0.8,0.5,1.2,1.5,1.2c1.6,0,2.4-0.8,2.4-2.2v-0.1H1740.9z"/>
	<path d="M1756.7,486c0,3.1-1.7,5-4.5,5c-2.8,0-4.6-1.9-4.6-5c0-3,1.7-5,4.6-5C1754.9,481,1756.7,483,1756.7,486z M1749.7,486
		c0,1.9,0.9,3,2.4,3c1.5,0,2.4-1.1,2.4-3c0-1.9-0.9-3-2.4-3C1750.6,483,1749.7,484.1,1749.7,486z"/>
</g>
<path d="M1772.1,470.2c-4.7,0-8.6,4-8.6,8.7c0,4.3,6.7,10.4,8.2,11.8c0.2,0.1,0.4,0.1,0.7,0c1.5-1.3,8.2-7.6,8.2-11.8
	C1780.7,474,1776.9,470.2,1772.1,470.2z M1772.1,473.7c2,0,3.6,1.6,3.6,3.6s-1.6,3.6-3.6,3.6s-3.6-1.6-3.6-3.6
	S1770.2,473.7,1772.1,473.7z M1772,487.9c-1.9-1.8-3.4-3.5-4.5-5.1c1.2,1,2.7,1.5,4.5,1.5s3.3-0.5,4.5-1.5
	C1775.4,484.5,1773.9,486.1,1772,487.9z"/>
<g class="st1">
	<path d="M1695.6,437.4c0,0.1-0.1,0.2-0.2,0.2h-4.2v11.6c0,0.1-0.1,0.2-0.2,0.2h-1.8c-0.1,0-0.2-0.1-0.2-0.2v-11.6h-4.2
		c-0.1,0-0.2-0.1-0.2-0.2v-1.6c0-0.1,0.1-0.2,0.2-0.2h10.7c0.1,0,0.2,0.1,0.2,0.2V437.4z"/>
	<path d="M1700.4,449.2c0,0.1-0.1,0.2-0.2,0.2h-1.8c-0.1,0-0.2-0.1-0.2-0.2v-7.4h-1c-0.1,0-0.2-0.1-0.2-0.2v-1.5
		c0-0.1,0.1-0.2,0.2-0.2h2.9c0.1,0,0.2,0.1,0.2,0.2V449.2z M1700.4,436.4c0,0.8-0.5,1.3-1.3,1.3s-1.3-0.5-1.3-1.3
		c0-0.8,0.5-1.3,1.3-1.3S1700.4,435.6,1700.4,436.4z"/>
	<path d="M1704.2,440c0.7-0.2,1.3-0.3,2.2-0.3c2.7,0,4.3,1.4,4.3,3.8v5.8c0,0.1-0.1,0.2-0.2,0.2h-1c-0.1,0-0.2-0.1-0.3-0.2l-0.2-0.6
		c-0.1-0.3-0.2-0.3-0.5,0c-0.6,0.7-1.5,1-2.7,1c-2.2,0-3.4-1.1-3.4-3s1.3-3,3.6-3h2.5v-0.1c0-1.2-0.8-1.9-2.2-1.9
		c-0.6,0-1.1,0.1-1.5,0.2l-0.7,0.2c-0.1,0-0.2,0-0.3-0.2l-0.4-1.5c0-0.1,0-0.2,0.2-0.3L1704.2,440z M1706,445.4
		c-1,0-1.4,0.5-1.4,1.1c0,0.8,0.5,1.2,1.5,1.2c1.6,0,2.4-0.8,2.4-2.2v-0.1H1706z"/>
	<path d="M1714.8,440.8c0.1,0.2,0.2,0.2,0.5,0c0.8-0.9,1.8-1.2,2.7-1.2c2.3,0,3.6,1.4,3.6,3.7v5.8c0,0.1-0.1,0.2-0.2,0.2h-1.8
		c-0.1,0-0.2-0.1-0.2-0.2v-5.6c0-1.2-0.7-2-1.7-2c-1.5,0-2.3,1.1-2.3,3v4.6c0,0.1-0.1,0.2-0.2,0.2h-1.8c-0.1,0-0.2-0.1-0.2-0.2v-9.2
		c0-0.1,0.1-0.2,0.2-0.2h1c0.1,0,0.2,0.1,0.2,0.2L1714.8,440.8z"/>
	<path d="M1727,449.9c0,1.6-0.7,2.7-2.2,3.6l-0.5,0.3c-0.1,0.1-0.2,0.1-0.3-0.1l-0.8-1.4c-0.1-0.1,0-0.2,0.1-0.3l0.5-0.3
		c0.7-0.5,1.1-1,1.1-1.9v-8h-1c-0.1,0-0.2-0.1-0.2-0.2v-1.5c0-0.1,0.1-0.2,0.2-0.2h2.9c0.1,0,0.2,0.1,0.2,0.2V449.9z M1727,436.4
		c0,0.8-0.5,1.3-1.3,1.3s-1.3-0.5-1.3-1.3c0-0.8,0.5-1.3,1.3-1.3S1727,435.6,1727,436.4z"/>
	<path d="M1732.5,449.2c0,0.1-0.1,0.2-0.2,0.2h-1.8c-0.1,0-0.2-0.1-0.2-0.2v-7.4h-1c-0.1,0-0.2-0.1-0.2-0.2v-1.5
		c0-0.1,0.1-0.2,0.2-0.2h2.9c0.1,0,0.2,0.1,0.2,0.2V449.2z M1732.5,436.4c0,0.8-0.5,1.3-1.3,1.3s-1.3-0.5-1.3-1.3
		c0-0.8,0.5-1.3,1.3-1.3S1732.5,435.6,1732.5,436.4z"/>
	<path d="M1736.8,440.8c0.1,0.2,0.2,0.2,0.5,0c0.8-0.9,1.8-1.2,2.7-1.2c2.3,0,3.6,1.4,3.6,3.7v5.8c0,0.1-0.1,0.2-0.2,0.2h-1.8
		c-0.1,0-0.2-0.1-0.2-0.2v-5.6c0-1.2-0.7-2-1.7-2c-1.5,0-2.3,1.1-2.3,3v4.6c0,0.1-0.1,0.2-0.2,0.2h-1.8c-0.1,0-0.2-0.1-0.2-0.2v-9.2
		c0-0.1,0.1-0.2,0.2-0.2h1c0.1,0,0.2,0.1,0.2,0.2L1736.8,440.8z"/>
</g>
<path d="M1758.6,428.8c-4.7,0-8.6,4-8.6,8.7c0,4.3,6.7,10.4,8.2,11.8c0.2,0.1,0.4,0.1,0.7,0c1.5-1.3,8.2-7.6,8.2-11.8
	C1767.2,432.7,1763.3,428.8,1758.6,428.8z M1758.6,432.3c2,0,3.6,1.6,3.6,3.6s-1.6,3.6-3.6,3.6s-3.6-1.6-3.6-3.6
	S1756.6,432.3,1758.6,432.3z M1758.5,446.6c-1.9-1.8-3.4-3.5-4.5-5.1c1.2,1,2.7,1.5,4.5,1.5s3.3-0.5,4.5-1.5
	C1761.9,443,1760.4,444.8,1758.5,446.6z"/>
<g class="st1">
	<path d="M1564.2,764c-0.8,1.2-1.8,2.1-2.7,2.5c-0.1,0.1-0.2,0.2,0,0.2c1.1,0.5,2.1,1.4,2.9,2.7l2.5,4.1c0.1,0.1,0,0.3-0.2,0.3h-2
		c-0.1,0-0.2,0-0.3-0.1l-2-3.2c-0.9-1.6-2.3-2.8-3.8-2.8h-0.5v5.9c0,0.1-0.1,0.2-0.2,0.2h-1.8c-0.1,0-0.2-0.1-0.2-0.2v-13.4
		c0-0.1,0.1-0.2,0.2-0.2h1.8c0.1,0,0.2,0.1,0.2,0.2v5.5h0.4c1.4,0,2.8-1.2,3.6-2.6l1.8-3c0.1-0.1,0.2-0.1,0.3-0.1h2
		c0.2,0,0.2,0.1,0.1,0.3L1564.2,764z"/>
	<path d="M1571.1,771.4c0,0.3,0.1,0.5,0.4,0.5c0.1,0,0.1,0,0.1,0c0.1,0,0.2,0,0.3,0.1l0.6,1.4c0.1,0.1,0,0.2-0.1,0.3
		c-0.3,0.1-0.6,0.2-0.9,0.2c-1.6,0-2.6-0.9-2.6-2.5v-11.6c0-0.1,0.1-0.2,0.2-0.2h1.8c0.1,0,0.2,0.1,0.2,0.2V771.4z"/>
	<path d="M1575.7,764.3c0.7-0.2,1.3-0.3,2.2-0.3c2.7,0,4.3,1.4,4.3,3.8v5.8c0,0.1-0.1,0.2-0.2,0.2h-1c-0.1,0-0.2-0.1-0.3-0.2
		l-0.2-0.6c-0.1-0.3-0.2-0.3-0.5,0c-0.6,0.7-1.5,1-2.7,1c-2.2,0-3.4-1.1-3.4-3s1.3-3,3.6-3h2.5v-0.1c0-1.2-0.8-1.9-2.2-1.9
		c-0.6,0-1.1,0.1-1.5,0.2l-0.7,0.2c-0.1,0-0.2,0-0.3-0.2l-0.4-1.5c0-0.1,0-0.2,0.2-0.3L1575.7,764.3z M1577.5,769.7
		c-1,0-1.4,0.5-1.4,1.1c0,0.8,0.5,1.2,1.5,1.2c1.6,0,2.4-0.8,2.4-2.2v-0.1H1577.5z"/>
	<path d="M1586.3,765.1c0.1,0.2,0.2,0.2,0.5,0c0.8-0.9,1.8-1.2,2.7-1.2c2.3,0,3.6,1.4,3.6,3.7v5.8c0,0.1-0.1,0.2-0.2,0.2h-1.8
		c-0.1,0-0.2-0.1-0.2-0.2v-5.6c0-1.2-0.7-2-1.7-2c-1.5,0-2.3,1.1-2.3,3v4.6c0,0.1-0.1,0.2-0.2,0.2h-1.8c-0.1,0-0.2-0.1-0.2-0.2v-9.2
		c0-0.1,0.1-0.2,0.2-0.2h1c0.1,0,0.2,0.1,0.2,0.2L1586.3,765.1z"/>
	<path d="M1597.6,776c0.4,0.1,1.1,0.2,1.7,0.2c1.4,0,2.6-0.5,3-2.1c0.1-0.9,0.1-0.8,0.1-1.2c0-0.1-0.1-0.2-0.3-0.1
		c-0.7,0.7-1.6,1.1-2.7,1.1c-2.6,0-4.2-1.9-4.2-5c0-3.2,1.7-5,4.6-5c0.8,0,1.7,0.1,2.4,0.5l1.8,0.7c0.1,0,0.2,0.1,0.2,0.2v8.3
		c0,2.9-1.7,4.5-4.7,4.5c-0.7,0-1.6-0.1-2.2-0.3l-1-0.3c-0.1,0-0.2-0.1-0.2-0.3l0.5-1.5c0-0.1,0.1-0.2,0.3-0.1L1597.6,776z
		 M1601.4,766.3c-0.4-0.2-1-0.3-1.6-0.3c-1.5,0-2.4,1.1-2.4,3c0,1.8,0.8,3,2.3,3c1.5,0,2.3-1.1,2.3-3v-2.4L1601.4,766.3z"/>
</g>
<path d="M1623.3,756.3c-4.7,0-8.6,4-8.6,8.7c0,4.3,6.7,10.4,8.2,11.8c0.2,0.1,0.4,0.1,0.7,0c1.5-1.3,8.2-7.6,8.2-11.8
	C1631.9,760.3,1628.1,756.3,1623.3,756.3z M1623.3,759.9c2,0,3.6,1.6,3.6,3.6s-1.6,3.6-3.6,3.6s-3.6-1.6-3.6-3.6
	C1619.7,761.5,1621.4,759.9,1623.3,759.9z M1623.2,774.1c-1.9-1.8-3.4-3.5-4.5-5.1c1.2,1,2.7,1.5,4.5,1.5s3.3-0.5,4.5-1.5
	C1626.6,770.6,1625.1,772.4,1623.2,774.1z"/>
<g class="st1">
	<path d="M1356.6,738.9c-1.1,0.4-1.8,0.5-2.9,0.5c-3.8,0-6.1-2.7-6.1-7.1c0-4.4,2.3-7.1,6.1-7.1c1.1,0,1.9,0.1,2.9,0.5l0.9,0.3
		c0.1,0,0.2,0.1,0.1,0.3l-0.5,1.5c0,0.1-0.1,0.2-0.3,0.1l-0.9-0.3c-0.7-0.2-1.3-0.3-2.2-0.3c-2.4,0-3.8,1.9-3.8,5.1
		c0,3.2,1.4,5.1,3.8,5.1c0.8,0,1.4-0.1,2.3-0.4l0.9-0.3c0.1,0,0.2,0,0.3,0.1l0.5,1.5c0.1,0.1,0,0.2-0.1,0.3L1356.6,738.9z"/>
	<path d="M1368.4,734.4c0,3.1-1.7,5-4.5,5c-2.8,0-4.6-1.9-4.6-5c0-3,1.7-5,4.6-5C1366.7,729.4,1368.4,731.3,1368.4,734.4z
		 M1361.5,734.4c0,1.9,0.9,3,2.4,3c1.5,0,2.4-1.1,2.4-3c0-1.9-0.9-3-2.4-3C1362.3,731.3,1361.5,732.5,1361.5,734.4z"/>
	<path d="M1372.8,736.8c0,0.3,0.1,0.5,0.4,0.5c0.1,0,0.1,0,0.1,0c0.1,0,0.2,0,0.3,0.1l0.6,1.4c0.1,0.1,0,0.2-0.1,0.3
		c-0.3,0.1-0.6,0.2-0.9,0.2c-1.6,0-2.6-0.9-2.6-2.5v-11.6c0-0.1,0.1-0.2,0.2-0.2h1.8c0.1,0,0.2,0.1,0.2,0.2V736.8z"/>
	<path d="M1384.5,734.4c0,3.1-1.7,5-4.5,5c-2.8,0-4.6-1.9-4.6-5c0-3,1.7-5,4.6-5C1382.8,729.4,1384.5,731.3,1384.5,734.4z
		 M1377.6,734.4c0,1.9,0.9,3,2.4,3c1.5,0,2.4-1.1,2.4-3c0-1.9-0.9-3-2.4-3C1378.5,731.3,1377.6,732.5,1377.6,734.4z"/>
	<path d="M1388.3,730.5c0.1,0.2,0.2,0.2,0.5,0c0.8-0.9,1.6-1.2,2.6-1.2c1.1,0,2,0.6,2.6,1.3c0.3,0.3,0.4,0.2,0.7,0
		c0.9-1,1.8-1.3,2.7-1.3c2.2,0,3.5,1.4,3.5,3.7v5.8c0,0.1-0.1,0.2-0.2,0.2h-1.8c-0.1,0-0.2-0.1-0.2-0.2v-5.6c0-1.2-0.5-2-1.6-2
		c-1.5,0-2.2,1.2-2.2,3v4.6c0,0.1-0.1,0.2-0.2,0.2h-1.8c-0.1,0-0.2-0.1-0.2-0.2v-5.6c0-1.2-0.6-2-1.6-2c-1.5,0-2.2,1.2-2.2,3v4.6
		c0,0.1-0.1,0.2-0.2,0.2h-1.8c-0.1,0-0.2-0.1-0.2-0.2v-9.2c0-0.1,0.1-0.2,0.2-0.2h1c0.1,0,0.2,0.1,0.2,0.2L1388.3,730.5z"/>
	<path d="M1405.5,728.1c0,0.9-0.1,1.5-0.3,2.2c-0.1,0.3,0.1,0.4,0.3,0.2c0.6-0.7,1.5-1.1,2.6-1.1c2.6,0,4.2,1.9,4.2,5
		c0,3.1-1.7,5-4.6,5c-0.9,0-1.7-0.2-2.5-0.5l-1.7-0.7c-0.1-0.1-0.2-0.1-0.2-0.3v-12.7c0-0.1,0.1-0.2,0.2-0.2h1.8
		c0.1,0,0.2,0.1,0.2,0.2V728.1z M1406.1,737c0.4,0.2,1,0.3,1.6,0.3c1.5,0,2.4-1.1,2.4-3c0-1.9-0.9-3-2.3-3c-1.6,0-2.3,1.3-2.3,2.9
		v2.5L1406.1,737z"/>
	<path d="M1423.1,734.4c0,3.1-1.7,5-4.5,5c-2.8,0-4.6-1.9-4.6-5c0-3,1.7-5,4.6-5C1421.4,729.4,1423.1,731.3,1423.1,734.4z
		 M1416.2,734.4c0,1.9,0.9,3,2.4,3c1.5,0,2.4-1.1,2.4-3c0-1.9-0.9-3-2.4-3C1417.1,731.3,1416.2,732.5,1416.2,734.4z"/>
</g>
<path d="M1442.5,721.8c-4.7,0-8.6,4-8.6,8.7c0,4.3,6.7,10.4,8.2,11.8c0.2,0.1,0.4,0.1,0.7,0c1.5-1.3,8.2-7.6,8.2-11.8
	C1451.1,725.7,1447.3,721.8,1442.5,721.8z M1442.5,725.4c2,0,3.6,1.6,3.6,3.6s-1.6,3.6-3.6,3.6s-3.6-1.6-3.6-3.6
	C1438.8,726.9,1440.5,725.4,1442.5,725.4z M1442.4,739.5c-1.9-1.8-3.4-3.5-4.5-5.1c1.2,1,2.7,1.5,4.5,1.5s3.3-0.5,4.5-1.5
	C1445.8,736,1444.2,737.8,1442.4,739.5z"/>
<g class="st1">
	<path d="M325.6,738.2c3,0,4.8,1.6,4.8,4.4c0,2.9-2,4.6-5.7,4.6h-2.1v4.6c0,0.1-0.1,0.2-0.2,0.2h-1.8c-0.1,0-0.2-0.1-0.2-0.2v-13.4
		c0-0.1,0.1-0.2,0.2-0.2H325.6z M322.6,745.2h2.1c2.2,0,3.4-0.9,3.4-2.6c0-1.5-0.9-2.4-2.5-2.4h-3V745.2z"/>
	<path d="M333.7,742.5c0.7-0.2,1.3-0.3,2.2-0.3c2.7,0,4.3,1.4,4.3,3.8v5.8c0,0.1-0.1,0.2-0.2,0.2h-1c-0.1,0-0.2-0.1-0.3-0.2
		l-0.2-0.6c-0.1-0.3-0.2-0.3-0.5,0c-0.6,0.7-1.5,1-2.7,1c-2.2,0-3.4-1.1-3.4-3s1.3-3,3.6-3h2.5v-0.1c0-1.2-0.8-1.9-2.2-1.9
		c-0.6,0-1.1,0.1-1.5,0.2l-0.7,0.2c-0.1,0-0.2,0-0.3-0.2l-0.4-1.5c0-0.1,0-0.2,0.2-0.3L333.7,742.5z M335.5,747.9
		c-1,0-1.4,0.5-1.4,1.1c0,0.8,0.5,1.2,1.5,1.2c1.6,0,2.4-0.8,2.4-2.2v-0.1H335.5z"/>
	<path d="M348.2,744c0,0.1-0.1,0.2-0.2,0.2c-2.2,0.1-3.1,1.6-3.1,5.2v2.4c0,0.1-0.1,0.2-0.2,0.2h-1.8c-0.1,0-0.2-0.1-0.2-0.2v-9.2
		c0-0.1,0.1-0.2,0.2-0.2h1c0.1,0,0.2,0.1,0.3,0.2l0.3,1.1c0.1,0.2,0.2,0.3,0.4,0.1c0.8-1,1.7-1.5,3.1-1.6c0.1,0,0.2,0.1,0.2,0.2V744
		z"/>
	<path d="M351.2,742.5c0.7-0.2,1.3-0.3,2.2-0.3c2.7,0,4.3,1.4,4.3,3.8v5.8c0,0.1-0.1,0.2-0.2,0.2h-1c-0.1,0-0.2-0.1-0.3-0.2
		l-0.2-0.6c-0.1-0.3-0.2-0.3-0.5,0c-0.6,0.7-1.5,1-2.7,1c-2.2,0-3.4-1.1-3.4-3s1.3-3,3.6-3h2.5v-0.1c0-1.2-0.8-1.9-2.2-1.9
		c-0.6,0-1.1,0.1-1.5,0.2l-0.7,0.2c-0.1,0-0.2,0-0.3-0.2l-0.4-1.5c0-0.1,0-0.2,0.2-0.3L351.2,742.5z M353,747.9
		c-1,0-1.4,0.5-1.4,1.1c0,0.8,0.5,1.2,1.5,1.2c1.6,0,2.4-0.8,2.4-2.2v-0.1H353z"/>
	<path d="M361.8,743.4c0.1,0.2,0.2,0.2,0.5,0c0.8-0.9,1.6-1.2,2.6-1.2c1.1,0,2,0.6,2.6,1.3c0.3,0.3,0.4,0.2,0.7,0
		c0.9-1,1.8-1.3,2.7-1.3c2.2,0,3.5,1.4,3.5,3.7v5.8c0,0.1-0.1,0.2-0.2,0.2h-1.8c-0.1,0-0.2-0.1-0.2-0.2v-5.6c0-1.2-0.5-2-1.6-2
		c-1.5,0-2.2,1.2-2.2,3v4.6c0,0.1-0.1,0.2-0.2,0.2h-1.8c-0.1,0-0.2-0.1-0.2-0.2v-5.6c0-1.2-0.6-2-1.6-2c-1.5,0-2.2,1.2-2.2,3v4.6
		c0,0.1-0.1,0.2-0.2,0.2h-1.8c-0.1,0-0.2-0.1-0.2-0.2v-9.2c0-0.1,0.1-0.2,0.2-0.2h1c0.1,0,0.2,0.1,0.2,0.2L361.8,743.4z"/>
	<path d="M378,742.5c0.7-0.2,1.3-0.3,2.2-0.3c2.7,0,4.3,1.4,4.3,3.8v5.8c0,0.1-0.1,0.2-0.2,0.2h-1c-0.1,0-0.2-0.1-0.3-0.2l-0.2-0.6
		c-0.1-0.3-0.2-0.3-0.5,0c-0.6,0.7-1.5,1-2.7,1c-2.2,0-3.4-1.1-3.4-3s1.3-3,3.6-3h2.5v-0.1c0-1.2-0.8-1.9-2.2-1.9
		c-0.6,0-1.1,0.1-1.5,0.2l-0.7,0.2c-0.1,0-0.2,0-0.3-0.2l-0.4-1.5c0-0.1,0-0.2,0.2-0.3L378,742.5z M379.8,747.9
		c-1,0-1.4,0.5-1.4,1.1c0,0.8,0.5,1.2,1.5,1.2c1.6,0,2.4-0.8,2.4-2.2v-0.1H379.8z"/>
	<path d="M392.5,744c0,0.1-0.1,0.2-0.2,0.2c-2.2,0.1-3.1,1.6-3.1,5.2v2.4c0,0.1-0.1,0.2-0.2,0.2h-1.8c-0.1,0-0.2-0.1-0.2-0.2v-9.2
		c0-0.1,0.1-0.2,0.2-0.2h1c0.1,0,0.2,0.1,0.3,0.2l0.3,1.1c0.1,0.2,0.2,0.3,0.4,0.1c0.8-1,1.7-1.5,3.1-1.6c0.1,0,0.2,0.1,0.2,0.2V744
		z"/>
	<path d="M397.7,751.8c0,0.1-0.1,0.2-0.2,0.2h-1.8c-0.1,0-0.2-0.1-0.2-0.2v-7.4h-1c-0.1,0-0.2-0.1-0.2-0.2v-1.5
		c0-0.1,0.1-0.2,0.2-0.2h2.9c0.1,0,0.2,0.1,0.2,0.2V751.8z M397.6,739c0,0.8-0.5,1.3-1.3,1.3s-1.3-0.5-1.3-1.3
		c0-0.8,0.5-1.3,1.3-1.3S397.6,738.2,397.6,739z"/>
	<path d="M402.5,740.9c0,0.9-0.1,1.5-0.3,2.2c-0.1,0.3,0.1,0.4,0.3,0.2c0.6-0.7,1.5-1.1,2.6-1.1c2.6,0,4.2,1.9,4.2,5
		c0,3.1-1.7,5-4.6,5c-0.9,0-1.7-0.2-2.5-0.5l-1.7-0.7c-0.1-0.1-0.2-0.1-0.2-0.3V738c0-0.1,0.1-0.2,0.2-0.2h1.8
		c0.1,0,0.2,0.1,0.2,0.2V740.9z M403.1,749.9c0.4,0.2,1,0.3,1.6,0.3c1.5,0,2.4-1.1,2.4-3c0-1.9-0.9-3-2.3-3c-1.6,0-2.3,1.3-2.3,2.9
		v2.5L403.1,749.9z"/>
	<path d="M420.1,747.2c0,3.1-1.7,5-4.5,5c-2.8,0-4.6-1.9-4.6-5c0-3,1.7-5,4.6-5C418.4,742.2,420.1,744.2,420.1,747.2z M413.2,747.2
		c0,1.9,0.9,3,2.4,3c1.5,0,2.4-1.1,2.4-3c0-1.9-0.9-3-2.4-3C414,744.2,413.2,745.3,413.2,747.2z"/>
</g>
<path d="M306,734.3c-4.7,0-8.6,4-8.6,8.7c0,4.3,6.7,10.4,8.2,11.8c0.2,0.1,0.4,0.1,0.7,0c1.5-1.3,8.2-7.6,8.2-11.8
	C314.7,738.2,310.8,734.3,306,734.3z M306,737.8c2,0,3.6,1.6,3.6,3.6S308,745,306,745s-3.6-1.6-3.6-3.6
	C302.4,739.4,304,737.8,306,737.8z M305.9,752.1c-1.9-1.8-3.4-3.5-4.5-5.1c1.2,1,2.7,1.5,4.5,1.5s3.3-0.5,4.5-1.5
	C309.3,748.5,307.7,750.3,305.9,752.1z"/>
<g class="st1">
	<path d="M754.2,822.2c3,0,4.8,1.6,4.8,4.4c0,2.9-2,4.6-5.7,4.6h-2.1v4.6c0,0.1-0.1,0.2-0.2,0.2h-1.8c-0.1,0-0.2-0.1-0.2-0.2v-13.4
		c0-0.1,0.1-0.2,0.2-0.2H754.2z M751.1,829.1h2.1c2.2,0,3.4-0.9,3.4-2.6c0-1.5-0.9-2.4-2.5-2.4h-3V829.1z"/>
	<path d="M769.7,831.2c0,3.1-1.7,5-4.5,5c-2.8,0-4.6-1.9-4.6-5c0-3,1.7-5,4.6-5C768,826.2,769.7,828.1,769.7,831.2z M762.8,831.2
		c0,1.9,0.9,3,2.4,3c1.5,0,2.4-1.1,2.4-3c0-1.9-0.9-3-2.4-3C763.7,828.2,762.8,829.3,762.8,831.2z"/>
	<path d="M774.6,835.8c0,0.1-0.1,0.2-0.2,0.2h-1.8c-0.1,0-0.2-0.1-0.2-0.2v-7.4h-1c-0.1,0-0.2-0.1-0.2-0.2v-1.5
		c0-0.1,0.1-0.2,0.2-0.2h2.9c0.1,0,0.2,0.1,0.2,0.2V835.8z M774.6,823c0,0.8-0.5,1.3-1.3,1.3c-0.8,0-1.3-0.5-1.3-1.3
		c0-0.8,0.5-1.3,1.3-1.3C774.2,821.7,774.6,822.1,774.6,823z"/>
	<path d="M778.9,827.4c0.1,0.2,0.2,0.2,0.5,0c0.8-0.9,1.8-1.2,2.7-1.2c2.3,0,3.6,1.4,3.6,3.7v5.8c0,0.1-0.1,0.2-0.2,0.2h-1.8
		c-0.1,0-0.2-0.1-0.2-0.2v-5.6c0-1.2-0.7-2-1.7-2c-1.5,0-2.3,1.1-2.3,3v4.6c0,0.1-0.1,0.2-0.2,0.2h-1.8c-0.1,0-0.2-0.1-0.2-0.2v-9.2
		c0-0.1,0.1-0.2,0.2-0.2h1c0.1,0,0.2,0.1,0.2,0.2L778.9,827.4z"/>
	<path d="M793.3,826.4c0.1,0,0.2,0.1,0.2,0.2v1.5c0,0.1-0.1,0.2-0.2,0.2h-2.2v4.8c0,0.7,0.3,1,0.8,1c0.2,0,0.4,0,0.5-0.1
		c0.1-0.1,0.2,0,0.3,0.1l0.6,1.3c0.1,0.1,0,0.2-0.1,0.3c-0.4,0.2-0.9,0.3-1.3,0.3c-1.9,0-3-1.1-3-3v-4.8h-1c-0.1,0-0.2-0.1-0.2-0.2
		v-1.5c0-0.1,0.1-0.2,0.2-0.2h1v-2.3c0-0.1,0.1-0.2,0.2-0.2l1.8-0.6c0.2,0,0.3,0,0.3,0.2v2.9H793.3z"/>
	<path d="M801.7,836c-0.7,0.2-1.4,0.3-2,0.3c-3,0-4.7-1.9-4.7-5c0-3.1,1.7-5,4.6-5c2.4,0,3.8,1.2,3.8,3.1c0,1.5-0.9,2.4-2.9,2.7
		l-3.1,0.5c0.2,1,1,1.7,2.3,1.7c0.6,0,1.1-0.1,1.6-0.2l0.9-0.2c0.1,0,0.2,0,0.3,0.2l0.4,1.5c0,0.1,0,0.2-0.2,0.3L801.7,836z
		 M800.2,830.3c0.7-0.1,1.1-0.4,1.1-0.9c0-0.8-0.6-1.2-1.7-1.2c-1.3,0-2.2,0.8-2.4,2.6L800.2,830.3z"/>
	<path d="M821.1,835.8c0,0.1-0.1,0.2-0.2,0.2h-2.4c-0.1,0-0.2-0.1-0.3-0.2c-0.3-0.7-0.7-1.4-1-2l-4.2-7c-0.3-0.5-0.5-0.9-0.7-1.3
		c-0.1-0.2-0.3-0.1-0.3,0.1c0.1,0.9,0.2,1.7,0.2,2.7v7.5c0,0.1-0.1,0.2-0.2,0.2h-1.8c-0.1,0-0.2-0.1-0.2-0.2v-13.4
		c0-0.1,0.1-0.2,0.2-0.2h2.4c0.1,0,0.2,0.1,0.3,0.2c0.3,0.7,0.7,1.4,1,2l4.2,7c0.3,0.5,0.5,0.9,0.7,1.3c0.1,0.3,0.3,0.2,0.3-0.1
		c-0.1-0.9-0.2-1.7-0.2-2.7v-7.5c0-0.1,0.1-0.2,0.2-0.2h1.8c0.1,0,0.2,0.1,0.2,0.2V835.8z"/>
	<path d="M832.6,831.2c0,3.1-1.7,5-4.5,5c-2.8,0-4.6-1.9-4.6-5c0-3,1.7-5,4.6-5C830.8,826.2,832.6,828.1,832.6,831.2z M825.6,831.2
		c0,1.9,0.9,3,2.4,3c1.5,0,2.4-1.1,2.4-3c0-1.9-0.9-3-2.4-3C826.5,828.2,825.6,829.3,825.6,831.2z"/>
	<path d="M837.5,835.8c0,0.1-0.1,0.2-0.2,0.2h-1.8c-0.1,0-0.2-0.1-0.2-0.2v-7.4h-1c-0.1,0-0.2-0.1-0.2-0.2v-1.5
		c0-0.1,0.1-0.2,0.2-0.2h2.9c0.1,0,0.2,0.1,0.2,0.2V835.8z M837.5,823c0,0.8-0.5,1.3-1.3,1.3c-0.8,0-1.3-0.5-1.3-1.3
		c0-0.8,0.5-1.3,1.3-1.3C837,821.7,837.5,822.1,837.5,823z"/>
	<path d="M845.7,828c0,0.1-0.1,0.2-0.2,0.2c-2.2,0.1-3.1,1.6-3.1,5.2v2.4c0,0.1-0.1,0.2-0.2,0.2h-1.8c-0.1,0-0.2-0.1-0.2-0.2v-9.2
		c0-0.1,0.1-0.2,0.2-0.2h1c0.1,0,0.2,0.1,0.3,0.2l0.3,1.1c0.1,0.2,0.2,0.3,0.4,0.1c0.8-1,1.7-1.5,3.1-1.6c0.1,0,0.2,0.1,0.2,0.2V828
		z"/>
	<path d="M853.9,836c-0.7,0.2-1.4,0.3-2,0.3c-3,0-4.7-1.9-4.7-5c0-3.1,1.7-5,4.6-5c2.4,0,3.8,1.2,3.8,3.1c0,1.5-0.9,2.4-2.9,2.7
		l-3.1,0.5c0.2,1,1,1.7,2.3,1.7c0.6,0,1.1-0.1,1.6-0.2l0.9-0.2c0.1,0,0.2,0,0.3,0.2l0.4,1.5c0,0.1,0,0.2-0.2,0.3L853.9,836z
		 M852.4,830.3c0.7-0.1,1.1-0.4,1.1-0.9c0-0.8-0.6-1.2-1.7-1.2c-1.3,0-2.2,0.8-2.4,2.6L852.4,830.3z"/>
</g>
<path d="M874.7,818.2c-4.7,0-8.6,4-8.6,8.7c0,4.3,6.7,10.4,8.2,11.8c0.2,0.1,0.4,0.1,0.7,0c1.5-1.3,8.2-7.6,8.2-11.8
	C883.2,822.2,879.4,818.2,874.7,818.2z M874.7,821.7c2,0,3.6,1.6,3.6,3.6s-1.6,3.6-3.6,3.6s-3.6-1.6-3.6-3.6
	C870.9,823.4,872.6,821.7,874.7,821.7z M874.6,836c-1.9-1.8-3.4-3.5-4.5-5.1c1.2,1,2.7,1.5,4.5,1.5s3.3-0.5,4.5-1.5
	C877.8,832.5,876.3,834.3,874.6,836z"/>
<g class="st1">
	<path d="M764.1,796.8c0.1,0,0.2,0.1,0.2,0.2v1.6c0,0.1-0.1,0.2-0.2,0.2h-8.3c-0.1,0-0.2-0.1-0.2-0.2v-13.4c0-0.1,0.1-0.2,0.2-0.2
		h1.8c0.1,0,0.2,0.1,0.2,0.2v11.6H764.1z"/>
	<path d="M769.1,798.5c0,0.1-0.1,0.2-0.2,0.2h-1.8c-0.1,0-0.2-0.1-0.2-0.2v-7.4h-1c-0.1,0-0.2-0.1-0.2-0.2v-1.5
		c0-0.1,0.1-0.2,0.2-0.2h2.9c0.1,0,0.2,0.1,0.2,0.2V798.5z M769.1,785.7c0,0.8-0.5,1.3-1.3,1.3s-1.3-0.5-1.3-1.3
		c0-0.8,0.5-1.3,1.3-1.3S769.1,784.9,769.1,785.7z"/>
	<path d="M774,787.7c0,0.9-0.1,1.5-0.3,2.2c-0.1,0.3,0.1,0.4,0.3,0.2c0.6-0.7,1.5-1.1,2.6-1.1c2.6,0,4.2,1.9,4.2,5
		c0,3.1-1.7,5-4.6,5c-0.9,0-1.7-0.2-2.5-0.5l-1.7-0.7c-0.1-0.1-0.2-0.1-0.2-0.3v-12.7c0-0.1,0.1-0.2,0.2-0.2h1.8
		c0.1,0,0.2,0.1,0.2,0.2V787.7z M774.5,796.6c0.4,0.2,1,0.3,1.6,0.3c1.5,0,2.4-1.1,2.4-3c0-1.9-0.9-3-2.3-3c-1.6,0-2.3,1.3-2.3,2.9
		v2.5L774.5,796.6z"/>
	<path d="M788.4,790.7c0,0.1-0.1,0.2-0.2,0.2c-2.2,0.1-3.1,1.6-3.1,5.2v2.4c0,0.1-0.1,0.2-0.2,0.2h-1.8c-0.1,0-0.2-0.1-0.2-0.2v-9.2
		c0-0.1,0.1-0.2,0.2-0.2h1c0.1,0,0.2,0.1,0.3,0.2l0.3,1.1c0.1,0.2,0.2,0.3,0.4,0.1c0.8-1,1.7-1.5,3.1-1.6c0.1,0,0.2,0.1,0.2,0.2
		V790.7z"/>
	<path d="M796.7,798.7c-0.7,0.2-1.4,0.3-2,0.3c-3,0-4.7-1.9-4.7-5c0-3.1,1.7-5,4.6-5c2.4,0,3.8,1.2,3.8,3.1c0,1.5-0.9,2.4-2.9,2.7
		l-3.1,0.5c0.2,1,1,1.7,2.3,1.7c0.6,0,1.1-0.1,1.6-0.2l0.9-0.2c0.1,0,0.2,0,0.3,0.2l0.4,1.5c0,0.1,0,0.2-0.2,0.3L796.7,798.7z
		 M795.2,793.1c0.7-0.1,1.1-0.4,1.1-0.9c0-0.8-0.6-1.2-1.7-1.2c-1.3,0-2.2,0.8-2.4,2.6L795.2,793.1z"/>
	<path d="M807.3,794.1c-0.6,1.5-1.2,3.2-1.5,4.5c0,0.1-0.1,0.2-0.3,0.2h-2.1c-0.1,0-0.2-0.1-0.3-0.2c-0.3-1.3-0.9-2.9-1.5-4.5
		l-2-4.7c-0.1-0.2,0-0.3,0.2-0.3h1.8c0.1,0,0.2,0.1,0.3,0.2l1.4,3.3c0.4,1.2,0.8,2.4,0.9,3.3c0,0.2,0.3,0.2,0.3,0
		c0.1-0.9,0.5-2.1,0.9-3.3l1.4-3.3c0.1-0.1,0.1-0.2,0.3-0.2h1.8c0.2,0,0.2,0.1,0.2,0.3L807.3,794.1z"/>
	<path d="M814.1,798.5c0,0.1-0.1,0.2-0.2,0.2h-1.8c-0.1,0-0.2-0.1-0.2-0.2v-7.4h-1c-0.1,0-0.2-0.1-0.2-0.2v-1.5
		c0-0.1,0.1-0.2,0.2-0.2h2.9c0.1,0,0.2,0.1,0.2,0.2V798.5z M814.1,785.7c0,0.8-0.5,1.3-1.3,1.3s-1.3-0.5-1.3-1.3
		c0-0.8,0.5-1.3,1.3-1.3S814.1,784.9,814.1,785.7z"/>
	<path d="M819,796.4c0,0.3,0.1,0.5,0.4,0.5c0.1,0,0.1,0,0.1,0c0.1,0,0.2,0,0.3,0.1l0.6,1.4c0.1,0.1,0,0.2-0.1,0.3
		c-0.3,0.1-0.6,0.2-0.9,0.2c-1.6,0-2.6-0.9-2.6-2.5v-11.6c0-0.1,0.1-0.2,0.2-0.2h1.8c0.1,0,0.2,0.1,0.2,0.2V796.4z"/>
	<path d="M824.5,796.4c0,0.3,0.1,0.5,0.4,0.5c0.1,0,0.1,0,0.1,0c0.1,0,0.2,0,0.3,0.1l0.6,1.4c0.1,0.1,0,0.2-0.1,0.3
		c-0.3,0.1-0.6,0.2-0.9,0.2c-1.6,0-2.6-0.9-2.6-2.5v-11.6c0-0.1,0.1-0.2,0.2-0.2h1.8c0.1,0,0.2,0.1,0.2,0.2V796.4z"/>
	<path d="M833.8,798.7c-0.7,0.2-1.4,0.3-2,0.3c-3,0-4.7-1.9-4.7-5c0-3.1,1.7-5,4.6-5c2.4,0,3.8,1.2,3.8,3.1c0,1.5-0.9,2.4-2.9,2.7
		l-3.1,0.5c0.2,1,1,1.7,2.3,1.7c0.6,0,1.1-0.1,1.6-0.2l0.9-0.2c0.1,0,0.2,0,0.3,0.2l0.4,1.5c0,0.1,0,0.2-0.2,0.3L833.8,798.7z
		 M832.3,793.1c0.7-0.1,1.1-0.4,1.1-0.9c0-0.8-0.6-1.2-1.7-1.2c-1.3,0-2.2,0.8-2.4,2.6L832.3,793.1z"/>
</g>
<path d="M854.1,781.1c-4.7,0-8.6,4-8.6,8.7c0,4.3,6.7,10.4,8.2,11.8c0.2,0.1,0.4,0.1,0.7,0c1.5-1.3,8.2-7.6,8.2-11.8
	C862.7,784.9,858.8,781.1,854.1,781.1z M854.1,784.6c2,0,3.6,1.6,3.6,3.6s-1.6,3.6-3.6,3.6s-3.6-1.6-3.6-3.6
	C850.5,786.1,852.1,784.6,854.1,784.6z M854,798.8c-1.9-1.8-3.4-3.5-4.5-5.1c1.2,1,2.7,1.5,4.5,1.5s3.3-0.5,4.5-1.5
	C857.4,795.2,855.9,797,854,798.8z"/>
<g class="st1">
	<path d="M876.2,751.2c3.8,0,6,2.7,6,6.9c0,4.2-2.3,6.9-6,6.9h-4.6c-0.1,0-0.2-0.1-0.2-0.2v-13.4c0-0.1,0.1-0.2,0.2-0.2H876.2z
		 M873.6,763h2.6c2.3,0,3.7-1.8,3.7-4.9c0-3.1-1.4-4.9-3.7-4.9h-2.6V763z"/>
	<path d="M893.2,760.2c0,3.1-1.7,5-4.5,5c-2.8,0-4.6-1.9-4.6-5c0-3,1.7-5,4.6-5C891.5,755.3,893.2,757.2,893.2,760.2z M886.3,760.2
		c0,1.9,0.9,3,2.4,3c1.5,0,2.4-1.1,2.4-3c0-1.9-0.9-3-2.4-3C887.2,757.2,886.3,758.4,886.3,760.2z"/>
	<path d="M902.1,764.1c-0.1-0.2-0.2-0.2-0.5,0c-0.8,0.9-1.8,1.2-2.7,1.2c-2.3,0-3.6-1.4-3.6-3.7v-5.8c0-0.1,0.1-0.2,0.2-0.2h1.8
		c0.1,0,0.2,0.1,0.2,0.2v5.6c0,1.2,0.7,2,1.7,2c1.5,0,2.3-1.1,2.3-3v-4.6c0-0.1,0.1-0.2,0.2-0.2h1.8c0.1,0,0.2,0.1,0.2,0.2v9.2
		c0,0.1-0.1,0.2-0.2,0.2h-1c-0.1,0-0.2-0.1-0.2-0.2L902.1,764.1z"/>
	<path d="M907.6,755.5c0.7-0.2,1.3-0.3,2.2-0.3c2.7,0,4.3,1.4,4.3,3.8v5.8c0,0.1-0.1,0.2-0.2,0.2h-1c-0.1,0-0.2-0.1-0.3-0.2
		l-0.2-0.6c-0.1-0.3-0.2-0.3-0.5,0c-0.6,0.7-1.5,1-2.7,1c-2.2,0-3.4-1.1-3.4-3s1.3-3,3.6-3h2.5v-0.1c0-1.2-0.8-1.9-2.2-1.9
		c-0.6,0-1.1,0.1-1.5,0.2l-0.7,0.2c-0.1,0-0.2,0-0.3-0.2l-0.4-1.5c0-0.1,0-0.2,0.2-0.3L907.6,755.5z M909.4,760.9
		c-1,0-1.4,0.5-1.4,1.1c0,0.8,0.5,1.2,1.5,1.2c1.6,0,2.4-0.8,2.4-2.2v-0.1H909.4z"/>
	<path d="M918.8,762.7c0,0.3,0.1,0.5,0.4,0.5c0.1,0,0.1,0,0.1,0c0.1,0,0.2,0,0.3,0.1l0.6,1.4c0.1,0.1,0,0.2-0.1,0.3
		c-0.3,0.1-0.6,0.2-0.9,0.2c-1.6,0-2.6-0.9-2.6-2.5v-11.6c0-0.1,0.1-0.2,0.2-0.2h1.8c0.1,0,0.2,0.1,0.2,0.2V762.7z"/>
	<path d="M923.4,755.5c0.7-0.2,1.3-0.3,2.2-0.3c2.7,0,4.3,1.4,4.3,3.8v5.8c0,0.1-0.1,0.2-0.2,0.2h-1c-0.1,0-0.2-0.1-0.3-0.2
		l-0.2-0.6c-0.1-0.3-0.2-0.3-0.5,0c-0.6,0.7-1.5,1-2.7,1c-2.2,0-3.4-1.1-3.4-3s1.3-3,3.6-3h2.5v-0.1c0-1.2-0.8-1.9-2.2-1.9
		c-0.6,0-1.1,0.1-1.5,0.2l-0.7,0.2c-0.1,0-0.2,0-0.3-0.2l-0.4-1.5c0-0.1,0-0.2,0.2-0.3L923.4,755.5z M925.2,760.9
		c-1,0-1.4,0.5-1.4,1.1c0,0.8,0.5,1.2,1.5,1.2c1.6,0,2.4-0.8,2.4-2.2v-0.1H925.2z"/>
</g>
<path d="M853.6,747.3c-4.7,0-8.6,4-8.6,8.7c0,4.3,6.7,10.4,8.2,11.8c0.2,0.1,0.4,0.1,0.7,0c1.5-1.3,8.2-7.6,8.2-11.8
	C862.1,751.2,858.3,747.3,853.6,747.3z M853.6,750.8c2,0,3.6,1.6,3.6,3.6s-1.6,3.6-3.6,3.6s-3.6-1.6-3.6-3.6
	S851.5,750.8,853.6,750.8z M853.5,765c-1.9-1.8-3.4-3.5-4.5-5.1c1.2,1,2.7,1.5,4.5,1.5s3.3-0.5,4.5-1.5
	C856.9,761.6,855.3,763.3,853.5,765z"/>
<g class="st1">
	<path d="M724.7,765.5c0,0.1-0.1,0.2-0.2,0.2h-4.2v11.6c0,0.1-0.1,0.2-0.2,0.2h-1.8c-0.1,0-0.2-0.1-0.2-0.2v-11.6h-4.2
		c-0.1,0-0.2-0.1-0.2-0.2V764c0-0.1,0.1-0.2,0.2-0.2h10.7c0.1,0,0.2,0.1,0.2,0.2V765.5z"/>
	<path d="M731.8,777.5c-0.7,0.2-1.4,0.3-2,0.3c-3,0-4.7-1.9-4.7-5c0-3.1,1.7-5,4.6-5c2.4,0,3.8,1.2,3.8,3.1c0,1.5-0.9,2.4-2.9,2.7
		l-3.1,0.5c0.2,1,1,1.7,2.3,1.7c0.6,0,1.1-0.1,1.6-0.2l0.9-0.2c0.1,0,0.2,0,0.3,0.2l0.4,1.5c0,0.1,0,0.2-0.2,0.3L731.8,777.5z
		 M730.2,771.9c0.7-0.1,1.1-0.4,1.1-0.9c0-0.8-0.6-1.2-1.7-1.2c-1.3,0-2.2,0.8-2.4,2.6L730.2,771.9z"/>
	<path d="M737.3,769c0.1,0.2,0.2,0.2,0.5,0c0.8-0.9,1.6-1.2,2.6-1.2c1.1,0,2,0.6,2.6,1.3c0.3,0.3,0.4,0.2,0.7,0
		c0.9-1,1.8-1.3,2.7-1.3c2.2,0,3.5,1.4,3.5,3.7v5.8c0,0.1-0.1,0.2-0.2,0.2h-1.8c-0.1,0-0.2-0.1-0.2-0.2v-5.6c0-1.2-0.5-2-1.6-2
		c-1.5,0-2.2,1.2-2.2,3v4.6c0,0.1-0.1,0.2-0.2,0.2h-1.8c-0.1,0-0.2-0.1-0.2-0.2v-5.6c0-1.2-0.6-2-1.6-2c-1.5,0-2.2,1.2-2.2,3v4.6
		c0,0.1-0.1,0.2-0.2,0.2h-1.8c-0.1,0-0.2-0.1-0.2-0.2v-9.2c0-0.1,0.1-0.2,0.2-0.2h1c0.1,0,0.2,0.1,0.2,0.2L737.3,769z"/>
	<path d="M753.5,768.1c0.7-0.2,1.3-0.3,2.2-0.3c2.7,0,4.3,1.4,4.3,3.8v5.8c0,0.1-0.1,0.2-0.2,0.2h-1c-0.1,0-0.2-0.1-0.3-0.2
		l-0.2-0.6c-0.1-0.3-0.2-0.3-0.5,0c-0.6,0.7-1.5,1-2.7,1c-2.2,0-3.4-1.1-3.4-3s1.3-3,3.6-3h2.5v-0.1c0-1.2-0.8-1.9-2.2-1.9
		c-0.6,0-1.1,0.1-1.5,0.2l-0.7,0.2c-0.1,0-0.2,0-0.3-0.2l-0.4-1.5c0-0.1,0-0.2,0.2-0.3L753.5,768.1z M755.3,773.5
		c-1,0-1.4,0.5-1.4,1.1c0,0.8,0.5,1.2,1.5,1.2c1.6,0,2.4-0.8,2.4-2.2v-0.1H755.3z"/>
</g>
<path d="M759.9,740.8c-4.7,0-8.6,4-8.6,8.7c0,4.3,6.7,10.4,8.2,11.8c0.2,0.1,0.4,0.1,0.7,0c1.5-1.3,8.2-7.6,8.2-11.8
	C768.5,744.7,764.7,740.8,759.9,740.8z M759.9,744.4c2,0,3.6,1.6,3.6,3.6s-1.6,3.6-3.6,3.6s-3.6-1.6-3.6-3.6
	C756.3,745.9,757.8,744.4,759.9,744.4z M759.8,758.5c-1.9-1.8-3.4-3.5-4.5-5.1c1.2,1,2.7,1.5,4.5,1.5s3.3-0.5,4.5-1.5
	C763.2,755,761.7,756.8,759.8,758.5z"/>
<g class="st1">
	<path d="M792,767.2c0.1,0,0.2,0.1,0.2,0.2v1.6c0,0.1-0.1,0.2-0.2,0.2h-8.3c-0.1,0-0.2-0.1-0.2-0.2v-13.4c0-0.1,0.1-0.2,0.2-0.2h1.8
		c0.1,0,0.2,0.1,0.2,0.2v11.6H792z"/>
	<path d="M803,764.4c0,3.1-1.7,5-4.5,5c-2.8,0-4.6-1.9-4.6-5c0-3,1.7-5,4.6-5C801.3,759.4,803,761.3,803,764.4z M796.1,764.4
		c0,1.9,0.9,3,2.4,3c1.5,0,2.4-1.1,2.4-3c0-1.9-0.9-3-2.4-3C797,761.4,796.1,762.5,796.1,764.4z"/>
	<path d="M806.8,760.6c0.1,0.2,0.2,0.2,0.5,0c0.8-0.9,1.6-1.2,2.6-1.2c1.1,0,2,0.6,2.6,1.3c0.3,0.3,0.4,0.2,0.7,0
		c0.9-1,1.8-1.3,2.7-1.3c2.2,0,3.5,1.4,3.5,3.7v5.8c0,0.1-0.1,0.2-0.2,0.2h-1.8c-0.1,0-0.2-0.1-0.2-0.2v-5.6c0-1.2-0.5-2-1.6-2
		c-1.5,0-2.2,1.2-2.2,3v4.6c0,0.1-0.1,0.2-0.2,0.2h-1.8c-0.1,0-0.2-0.1-0.2-0.2v-5.6c0-1.2-0.6-2-1.6-2c-1.5,0-2.2,1.2-2.2,3v4.6
		c0,0.1-0.1,0.2-0.2,0.2h-1.8c-0.1,0-0.2-0.1-0.2-0.2v-9.2c0-0.1,0.1-0.2,0.2-0.2h1c0.1,0,0.2,0.1,0.2,0.2L806.8,760.6z"/>
	<path d="M828,769.1c-0.7,0.2-1.4,0.3-2,0.3c-3,0-4.7-1.9-4.7-5c0-3.1,1.7-5,4.6-5c2.4,0,3.8,1.2,3.8,3.1c0,1.5-0.9,2.4-2.9,2.7
		l-3.1,0.5c0.2,1,1,1.7,2.3,1.7c0.6,0,1.1-0.1,1.6-0.2l0.9-0.2c0.1,0,0.2,0,0.3,0.2l0.4,1.5c0,0.1,0,0.2-0.2,0.3L828,769.1z
		 M826.5,763.5c0.7-0.1,1.1-0.4,1.1-0.9c0-0.8-0.6-1.2-1.7-1.2c-1.3,0-2.2,0.8-2.4,2.6L826.5,763.5z"/>
</g>
<path d="M784.4,730.5c-4.7,0-8.6,4-8.6,8.7c0,4.3,6.7,10.4,8.2,11.8c0.2,0.1,0.4,0.1,0.7,0c1.5-1.3,8.2-7.6,8.2-11.8
	C793,734.4,789.2,730.5,784.4,730.5z M784.4,734c2,0,3.6,1.6,3.6,3.6s-1.6,3.6-3.6,3.6s-3.6-1.6-3.6-3.6
	C780.8,735.6,782.5,734,784.4,734z M784.3,748.2c-1.9-1.8-3.4-3.5-4.5-5.1c1.2,1,2.7,1.5,4.5,1.5s3.3-0.5,4.5-1.5
	C787.7,744.7,786.2,746.4,784.3,748.2z"/>
<g class="st1">
	<path d="M814.9,725.8c-1.1,0.4-1.8,0.5-2.9,0.5c-3.8,0-6.1-2.7-6.1-7.1c0-4.4,2.3-7.1,6.1-7.1c1.1,0,1.9,0.1,2.9,0.5l0.9,0.3
		c0.1,0,0.2,0.1,0.1,0.3l-0.5,1.5c0,0.1-0.1,0.2-0.3,0.1l-0.9-0.3c-0.7-0.2-1.3-0.3-2.2-0.3c-2.4,0-3.8,1.9-3.8,5.1
		c0,3.2,1.4,5.1,3.8,5.1c0.9,0,1.4-0.1,2.3-0.4l0.9-0.3c0.1,0,0.2,0,0.3,0.1l0.5,1.5c0.1,0.1,0,0.2-0.1,0.3L814.9,725.8z"/>
	<path d="M826.7,721.3c0,3.1-1.7,5-4.5,5c-2.8,0-4.6-1.9-4.6-5c0-3,1.7-5,4.6-5C824.9,716.3,826.7,718.2,826.7,721.3z M819.7,721.3
		c0,1.9,0.9,3,2.4,3c1.5,0,2.4-1.1,2.4-3c0-1.9-0.9-3-2.4-3C820.6,718.3,819.7,719.4,819.7,721.3z"/>
	<path d="M833.8,716.5c0.1,0,0.2,0.1,0.2,0.2v1.5c0,0.1-0.1,0.2-0.2,0.2h-2.2v4.8c0,0.7,0.3,1,0.8,1c0.2,0,0.4,0,0.5-0.1
		c0.1-0.1,0.2,0,0.3,0.1l0.6,1.3c0.1,0.1,0,0.2-0.1,0.3c-0.4,0.2-0.9,0.3-1.3,0.3c-1.9,0-3-1.1-3-3v-4.8h-1c-0.1,0-0.2-0.1-0.2-0.2
		v-1.5c0-0.1,0.1-0.2,0.2-0.2h1v-2.3c0-0.1,0.1-0.2,0.2-0.2l1.8-0.6c0.2,0,0.3,0,0.3,0.2v2.9H833.8z"/>
	<path d="M844.6,721.3c0,3.1-1.7,5-4.5,5c-2.8,0-4.6-1.9-4.6-5c0-3,1.7-5,4.6-5C842.9,716.3,844.6,718.2,844.6,721.3z M837.7,721.3
		c0,1.9,0.9,3,2.4,3c1.5,0,2.4-1.1,2.4-3c0-1.9-0.9-3-2.4-3C838.6,718.3,837.7,719.4,837.7,721.3z"/>
	<path d="M848.4,717.5c0.1,0.2,0.2,0.2,0.5,0c0.8-0.9,1.8-1.2,2.7-1.2c2.3,0,3.6,1.4,3.6,3.7v5.8c0,0.1-0.1,0.2-0.2,0.2h-1.8
		c-0.1,0-0.2-0.1-0.2-0.2v-5.6c0-1.2-0.7-2-1.7-2c-1.5,0-2.3,1.1-2.3,3v4.6c0,0.1-0.1,0.2-0.2,0.2H847c-0.1,0-0.2-0.1-0.2-0.2v-9.2
		c0-0.1,0.1-0.2,0.2-0.2h1c0.1,0,0.2,0.1,0.2,0.2L848.4,717.5z"/>
	<path d="M866.4,721.3c0,3.1-1.7,5-4.5,5c-2.8,0-4.6-1.9-4.6-5c0-3,1.7-5,4.6-5C864.7,716.3,866.4,718.2,866.4,721.3z M859.5,721.3
		c0,1.9,0.9,3,2.4,3c1.5,0,2.4-1.1,2.4-3c0-1.9-0.9-3-2.4-3C860.4,718.3,859.5,719.4,859.5,721.3z"/>
	<path d="M875.3,725.1c-0.1-0.2-0.2-0.2-0.5,0c-0.8,0.9-1.8,1.2-2.7,1.2c-2.3,0-3.6-1.4-3.6-3.7v-5.8c0-0.1,0.1-0.2,0.2-0.2h1.8
		c0.1,0,0.2,0.1,0.2,0.2v5.6c0,1.2,0.7,2,1.7,2c1.5,0,2.3-1.1,2.3-3v-4.6c0-0.1,0.1-0.2,0.2-0.2h1.8c0.1,0,0.2,0.1,0.2,0.2v9.2
		c0,0.1-0.1,0.2-0.2,0.2h-1c-0.1,0-0.2-0.1-0.2-0.2L875.3,725.1z"/>
</g>
<path d="M793,708.3c-4.7,0-8.6,4-8.6,8.7c0,4.3,6.7,10.4,8.2,11.8c0.2,0.1,0.4,0.1,0.7,0c1.5-1.3,8.2-7.6,8.2-11.8
	C801.7,712.3,797.8,708.3,793,708.3z M793,711.8c2,0,3.6,1.6,3.6,3.6S795,719,793,719s-3.6-1.6-3.6-3.6S791,711.8,793,711.8z
	 M792.9,726c-1.9-1.8-3.4-3.5-4.5-5.1c1.2,1,2.7,1.5,4.5,1.5s3.3-0.5,4.5-1.5C796.3,722.6,794.8,724.4,792.9,726z"/>
<g class="st1">
	<path d="M864.5,674.6c0,0.1-0.1,0.2-0.2,0.2h-1.8c-0.1,0-0.2-0.1-0.2-0.2v-6.4c0-1.2,0-2.7,0.2-3.8c0-0.3-0.2-0.3-0.3-0.1
		c-0.2,0.5-0.4,1-0.6,1.6l-1.9,4.4c-0.2,0.5-0.5,1.3-0.7,2c0,0.1-0.1,0.2-0.3,0.2h-1.6c-0.1,0-0.2-0.1-0.2-0.2
		c-0.2-0.7-0.5-1.4-0.7-2l-1.9-4.4c-0.2-0.5-0.5-1-0.7-1.6c-0.1-0.3-0.3-0.2-0.3,0.1c0.2,1.1,0.2,2.6,0.2,3.8v6.4
		c0,0.1-0.1,0.2-0.2,0.2h-1.8c-0.1,0-0.2-0.1-0.2-0.2v-13.4c0-0.1,0.1-0.2,0.2-0.2h2.8c0.1,0,0.2,0.1,0.3,0.2c0.1,0.5,0.3,1,0.5,1.5
		l2,4.7c0.3,0.7,0.6,1.6,0.8,2.3c0.1,0.2,0.2,0.2,0.3,0c0.2-0.7,0.5-1.6,0.7-2.3l2-4.7c0.2-0.5,0.4-1,0.5-1.5c0-0.1,0.1-0.2,0.2-0.2
		h2.8c0.1,0,0.2,0.1,0.2,0.2V674.6z"/>
	<path d="M868.6,665.4c0.7-0.2,1.3-0.3,2.2-0.3c2.7,0,4.3,1.4,4.3,3.8v5.8c0,0.1-0.1,0.2-0.2,0.2h-1c-0.1,0-0.2-0.1-0.3-0.2
		l-0.2-0.6c-0.1-0.3-0.2-0.3-0.5,0c-0.6,0.7-1.5,1-2.7,1c-2.2,0-3.4-1.1-3.4-3s1.3-3,3.6-3h2.5v-0.1c0-1.2-0.8-1.9-2.2-1.9
		c-0.6,0-1.1,0.1-1.5,0.2l-0.7,0.2c-0.1,0-0.2,0-0.3-0.2l-0.4-1.5c0-0.1,0-0.2,0.2-0.3L868.6,665.4z M870.4,670.8
		c-1,0-1.4,0.5-1.4,1.1c0,0.8,0.5,1.2,1.5,1.2c1.6,0,2.4-0.8,2.4-2.2v-0.1H870.4z"/>
	<path d="M883.1,666.8c0,0.1-0.1,0.2-0.2,0.2c-2.2,0.1-3.1,1.6-3.1,5.2v2.4c0,0.1-0.1,0.2-0.2,0.2h-1.8c-0.1,0-0.2-0.1-0.2-0.2v-9.2
		c0-0.1,0.1-0.2,0.2-0.2h1c0.1,0,0.2,0.1,0.3,0.2l0.3,1.1c0.1,0.2,0.2,0.3,0.4,0.1c0.8-1,1.7-1.5,3.1-1.6c0.1,0,0.2,0.1,0.2,0.2
		V666.8z"/>
	<path d="M886.1,665.4c0.7-0.2,1.3-0.3,2.2-0.3c2.7,0,4.3,1.4,4.3,3.8v5.8c0,0.1-0.1,0.2-0.2,0.2h-1c-0.1,0-0.2-0.1-0.3-0.2
		l-0.2-0.6c-0.1-0.3-0.2-0.3-0.5,0c-0.6,0.7-1.5,1-2.7,1c-2.2,0-3.4-1.1-3.4-3s1.3-3,3.6-3h2.5v-0.1c0-1.2-0.8-1.9-2.2-1.9
		c-0.6,0-1.1,0.1-1.5,0.2l-0.7,0.2c-0.1,0-0.2,0-0.3-0.2l-0.4-1.5c0-0.1,0-0.2,0.2-0.3L886.1,665.4z M887.9,670.8
		c-1,0-1.4,0.5-1.4,1.1c0,0.8,0.5,1.2,1.5,1.2c1.6,0,2.4-0.8,2.4-2.2v-0.1H887.9z"/>
	<path d="M903.6,674.6c0,0.1-0.1,0.2-0.2,0.2h-1c-0.1,0-0.2-0.1-0.2-0.2l-0.2-0.8c-0.1-0.2-0.2-0.2-0.4,0c-0.7,0.8-1.7,1.2-2.7,1.2
		c-2.6,0-4.2-1.9-4.2-5s1.7-5,4.4-5c0.7,0,1.2,0.1,1.8,0.3l0.6,0.3v-4.8c0-0.1,0.1-0.2,0.2-0.2h1.8c0.1,0,0.2,0.1,0.2,0.2V674.6z
		 M900.8,667.4c-0.5-0.2-1-0.3-1.6-0.3c-1.5,0-2.4,1.1-2.4,3c0,1.9,0.9,3,2.3,3c1.5,0,2.3-1.2,2.3-2.9v-2.5L900.8,667.4z"/>
	<path d="M909.1,674.6c0,0.1-0.1,0.2-0.2,0.2h-1.8c-0.1,0-0.2-0.1-0.2-0.2v-7.4h-1c-0.1,0-0.2-0.1-0.2-0.2v-1.5
		c0-0.1,0.1-0.2,0.2-0.2h2.9c0.1,0,0.2,0.1,0.2,0.2V674.6z M909.1,661.8c0,0.8-0.5,1.3-1.3,1.3c-0.8,0-1.3-0.5-1.3-1.3
		c0-0.8,0.5-1.3,1.3-1.3C908.6,660.5,909.1,661,909.1,661.8z"/>
</g>
<path d="M832.4,657.1c-4.7,0-8.6,4-8.6,8.7c0,4.3,6.7,10.4,8.2,11.8c0.2,0.1,0.4,0.1,0.7,0c1.5-1.3,8.2-7.6,8.2-11.8
	C840.9,661.1,837.1,657.1,832.4,657.1z M832.4,660.6c2,0,3.6,1.6,3.6,3.6s-1.6,3.6-3.6,3.6s-3.6-1.6-3.6-3.6
	C828.7,662.3,830.4,660.6,832.4,660.6z M832.2,674.9c-1.9-1.8-3.4-3.5-4.5-5.1c1.2,1,2.7,1.5,4.5,1.5s3.3-0.5,4.5-1.5
	C835.7,671.4,834.1,673.2,832.2,674.9z"/>
<g class="st1">
	<path d="M1244.9,589.8c0,2.7-1.5,4.4-4,4.4c-0.7,0-1.2-0.1-1.9-0.3l-0.6-0.2c-0.1-0.1-0.2-0.2-0.1-0.3l0.5-1.5
		c0.1-0.1,0.2-0.2,0.3-0.1l0.6,0.2c0.4,0.2,0.7,0.2,1.2,0.2c1,0,1.7-0.7,1.7-2.3v-9.5c0-0.1,0.1-0.2,0.2-0.2h1.8
		c0.1,0,0.2,0.1,0.2,0.2V589.8z"/>
	<path d="M1253.9,594c-0.7,0.2-1.4,0.3-2,0.3c-3,0-4.7-1.9-4.7-5c0-3.1,1.7-5,4.6-5c2.4,0,3.8,1.2,3.8,3.1c0,1.5-0.9,2.4-2.9,2.7
		l-3.1,0.5c0.2,1,1,1.7,2.3,1.7c0.6,0,1.1-0.1,1.6-0.2l0.9-0.2c0.1,0,0.2,0,0.3,0.2l0.4,1.5c0,0.1,0,0.2-0.2,0.3L1253.9,594z
		 M1252.4,588.3c0.7-0.1,1.1-0.4,1.1-0.9c0-0.8-0.6-1.2-1.7-1.2c-1.3,0-2.2,0.8-2.4,2.6L1252.4,588.3z"/>
	<path d="M1260,582.9c0,0.9-0.1,1.5-0.3,2.2c-0.1,0.3,0.1,0.4,0.3,0.2c0.6-0.7,1.5-1.1,2.6-1.1c2.6,0,4.2,1.9,4.2,5
		c0,3.1-1.7,5-4.6,5c-0.9,0-1.7-0.2-2.5-0.5l-1.7-0.7c-0.1-0.1-0.2-0.1-0.2-0.3V580c0-0.1,0.1-0.2,0.2-0.2h1.8
		c0.1,0,0.2,0.1,0.2,0.2V582.9z M1260.6,591.9c0.4,0.2,1,0.3,1.6,0.3c1.5,0,2.4-1.1,2.4-3c0-1.9-0.9-3-2.3-3c-1.6,0-2.3,1.3-2.3,2.9
		v2.5L1260.6,591.9z"/>
	<path d="M1275.2,594c-0.7,0.2-1.4,0.3-2,0.3c-3,0-4.7-1.9-4.7-5c0-3.1,1.7-5,4.6-5c2.4,0,3.8,1.2,3.8,3.1c0,1.5-0.9,2.4-2.9,2.7
		l-3.1,0.5c0.2,1,1,1.7,2.3,1.7c0.6,0,1.1-0.1,1.6-0.2l0.9-0.2c0.1,0,0.2,0,0.3,0.2l0.4,1.5c0,0.1,0,0.2-0.2,0.3L1275.2,594z
		 M1273.7,588.3c0.7-0.1,1.1-0.4,1.1-0.9c0-0.8-0.6-1.2-1.7-1.2c-1.3,0-2.2,0.8-2.4,2.6L1273.7,588.3z"/>
	<path d="M1281.3,591.7c0,0.3,0.1,0.5,0.4,0.5c0.1,0,0.1,0,0.1,0c0.1,0,0.2,0,0.3,0.1l0.6,1.4c0.1,0.1,0,0.2-0.1,0.3
		c-0.3,0.1-0.6,0.2-0.9,0.2c-1.6,0-2.6-0.9-2.6-2.5V580c0-0.1,0.1-0.2,0.2-0.2h1.8c0.1,0,0.2,0.1,0.2,0.2V591.7z"/>
	<path d="M1291.5,591.3l-1,2.5c0,0.1-0.1,0.2-0.2,0.2h-1.9c-0.2,0-0.2-0.1-0.2-0.3l3.4-8.7c0.6-1.6,1.1-3.1,1.5-4.7
		c0-0.1,0.1-0.2,0.2-0.2h2.4c0.1,0,0.2,0.1,0.2,0.2c0.4,1.6,0.9,3.1,1.5,4.7l3.4,8.7c0.1,0.2,0,0.3-0.2,0.3h-1.9
		c-0.1,0-0.2-0.1-0.2-0.2l-1-2.5H1291.5z M1297,589.3l-1-2.6c-0.5-1.2-0.9-2.7-1.1-3.7c-0.1-0.2-0.3-0.2-0.3,0
		c-0.2,1-0.7,2.4-1.1,3.7l-1,2.6H1297z"/>
	<path d="M1305.2,591.7c0,0.3,0.1,0.5,0.4,0.5c0.1,0,0.1,0,0.1,0c0.1,0,0.2,0,0.3,0.1l0.6,1.4c0.1,0.1,0,0.2-0.1,0.3
		c-0.3,0.1-0.6,0.2-0.9,0.2c-1.6,0-2.6-0.9-2.6-2.5V580c0-0.1,0.1-0.2,0.2-0.2h1.8c0.1,0,0.2,0.1,0.2,0.2V591.7z"/>
	<path d="M1311.1,593.8c0,0.1-0.1,0.2-0.2,0.2h-1.8c-0.1,0-0.2-0.1-0.2-0.2v-7.4h-1c-0.1,0-0.2-0.1-0.2-0.2v-1.5
		c0-0.1,0.1-0.2,0.2-0.2h2.9c0.1,0,0.2,0.1,0.2,0.2V593.8z M1311.1,581c0,0.8-0.5,1.3-1.3,1.3c-0.8,0-1.3-0.5-1.3-1.3
		c0-0.8,0.5-1.3,1.3-1.3C1310.6,579.7,1311.1,580.1,1311.1,581z"/>
</g>
<path d="M1225.1,576.2c-4.7,0-8.6,4-8.6,8.7c0,4.3,6.7,10.4,8.2,11.8c0.2,0.1,0.4,0.1,0.7,0c1.5-1.3,8.2-7.6,8.2-11.8
	C1233.7,580.2,1229.8,576.2,1225.1,576.2z M1225.1,579.7c2,0,3.6,1.6,3.6,3.6s-1.6,3.6-3.6,3.6s-3.6-1.6-3.6-3.6
	C1221.5,581.4,1223,579.7,1225.1,579.7z M1225,594c-1.9-1.8-3.4-3.5-4.5-5.1c1.2,1,2.7,1.5,4.5,1.5s3.3-0.5,4.5-1.5
	C1228.4,590.5,1226.9,592.3,1225,594z"/>
<g class="st1">
	<path d="M1095.4,567.3c3.8,0,6,2.7,6,6.9c0,4.2-2.3,6.9-6,6.9h-4.6c-0.1,0-0.2-0.1-0.2-0.2v-13.4c0-0.1,0.1-0.2,0.2-0.2H1095.4z
		 M1092.8,579.1h2.6c2.3,0,3.7-1.8,3.7-4.9c0-3.1-1.4-4.9-3.7-4.9h-2.6V579.1z"/>
	<path d="M1105,571.6c0.7-0.2,1.3-0.3,2.2-0.3c2.7,0,4.3,1.4,4.3,3.8v5.8c0,0.1-0.1,0.2-0.2,0.2h-1c-0.1,0-0.2-0.1-0.3-0.2l-0.2-0.6
		c-0.1-0.3-0.2-0.3-0.5,0c-0.6,0.7-1.5,1-2.7,1c-2.2,0-3.4-1.1-3.4-3s1.3-3,3.6-3h2.5v-0.1c0-1.2-0.8-1.9-2.2-1.9
		c-0.6,0-1.1,0.1-1.5,0.2l-0.7,0.2c-0.1,0-0.2,0-0.3-0.2l-0.4-1.5c0-0.1,0-0.2,0.2-0.3L1105,571.6z M1106.8,577
		c-1,0-1.4,0.5-1.4,1.1c0,0.8,0.5,1.2,1.5,1.2c1.6,0,2.4-0.8,2.4-2.2V577H1106.8z"/>
	<path d="M1115.6,572.5c0.1,0.2,0.2,0.2,0.5,0c0.8-0.9,1.6-1.2,2.6-1.2c1.1,0,2,0.6,2.6,1.3c0.3,0.3,0.4,0.2,0.7,0
		c0.9-1,1.8-1.3,2.7-1.3c2.2,0,3.5,1.4,3.5,3.7v5.8c0,0.1-0.1,0.2-0.2,0.2h-1.8c-0.1,0-0.2-0.1-0.2-0.2v-5.6c0-1.2-0.5-2-1.6-2
		c-1.5,0-2.2,1.2-2.2,3v4.6c0,0.1-0.1,0.2-0.2,0.2h-1.8c-0.1,0-0.2-0.1-0.2-0.2v-5.6c0-1.2-0.6-2-1.6-2c-1.5,0-2.2,1.2-2.2,3v4.6
		c0,0.1-0.1,0.2-0.2,0.2h-1.8c-0.1,0-0.2-0.1-0.2-0.2v-9.2c0-0.1,0.1-0.2,0.2-0.2h1c0.1,0,0.2,0.1,0.2,0.2L1115.6,572.5z"/>
	<path d="M1132.2,572.5c0.1,0.2,0.2,0.2,0.5,0c0.8-0.9,1.6-1.2,2.6-1.2c1.1,0,2,0.6,2.6,1.3c0.3,0.3,0.4,0.2,0.7,0
		c0.9-1,1.8-1.3,2.7-1.3c2.2,0,3.5,1.4,3.5,3.7v5.8c0,0.1-0.1,0.2-0.2,0.2h-1.8c-0.1,0-0.2-0.1-0.2-0.2v-5.6c0-1.2-0.5-2-1.6-2
		c-1.5,0-2.2,1.2-2.2,3v4.6c0,0.1-0.1,0.2-0.2,0.2h-1.8c-0.1,0-0.2-0.1-0.2-0.2v-5.6c0-1.2-0.6-2-1.6-2c-1.5,0-2.2,1.2-2.2,3v4.6
		c0,0.1-0.1,0.2-0.2,0.2h-1.8c-0.1,0-0.2-0.1-0.2-0.2v-9.2c0-0.1,0.1-0.2,0.2-0.2h1c0.1,0,0.2,0.1,0.2,0.2L1132.2,572.5z"/>
	<path d="M1148.4,571.6c0.7-0.2,1.3-0.3,2.2-0.3c2.7,0,4.3,1.4,4.3,3.8v5.8c0,0.1-0.1,0.2-0.2,0.2h-1c-0.1,0-0.2-0.1-0.3-0.2
		l-0.2-0.6c-0.1-0.3-0.2-0.3-0.5,0c-0.6,0.7-1.5,1-2.7,1c-2.2,0-3.4-1.1-3.4-3s1.3-3,3.6-3h2.5v-0.1c0-1.2-0.8-1.9-2.2-1.9
		c-0.6,0-1.1,0.1-1.5,0.2l-0.7,0.2c-0.1,0-0.2,0-0.3-0.2l-0.4-1.5c0-0.1,0-0.2,0.2-0.3L1148.4,571.6z M1150.2,577
		c-1,0-1.4,0.5-1.4,1.1c0,0.8,0.5,1.2,1.5,1.2c1.6,0,2.4-0.8,2.4-2.2V577H1150.2z"/>
	<path d="M1159,572.5c0.1,0.2,0.2,0.2,0.5,0c0.8-0.9,1.6-1.2,2.6-1.2c1.1,0,2,0.6,2.6,1.3c0.3,0.3,0.4,0.2,0.7,0
		c0.9-1,1.8-1.3,2.7-1.3c2.2,0,3.5,1.4,3.5,3.7v5.8c0,0.1-0.1,0.2-0.2,0.2h-1.8c-0.1,0-0.2-0.1-0.2-0.2v-5.6c0-1.2-0.5-2-1.6-2
		c-1.5,0-2.2,1.2-2.2,3v4.6c0,0.1-0.1,0.2-0.2,0.2h-1.8c-0.1,0-0.2-0.1-0.2-0.2v-5.6c0-1.2-0.6-2-1.6-2c-1.5,0-2.2,1.2-2.2,3v4.6
		c0,0.1-0.1,0.2-0.2,0.2h-1.8c-0.1,0-0.2-0.1-0.2-0.2v-9.2c0-0.1,0.1-0.2,0.2-0.2h1c0.1,0,0.2,0.1,0.2,0.2L1159,572.5z"/>
</g>
<path d="M1186.7,561.6c-4.7,0-8.6,4-8.6,8.7c0,4.3,6.7,10.4,8.2,11.8c0.2,0.1,0.4,0.1,0.7,0c1.5-1.3,8.2-7.6,8.2-11.8
	C1195.3,565.5,1191.5,561.6,1186.7,561.6z M1186.7,565.1c2,0,3.6,1.6,3.6,3.6s-1.6,3.6-3.6,3.6s-3.6-1.6-3.6-3.6
	C1183.1,566.7,1184.8,565.1,1186.7,565.1z M1186.6,579.3c-1.9-1.8-3.4-3.5-4.5-5.1c1.2,1,2.7,1.5,4.5,1.5s3.3-0.5,4.5-1.5
	C1190,575.8,1188.5,577.5,1186.6,579.3z"/>
<g class="st1">
	<path d="M1076.3,536.1c-2.4-0.9-3.3-1.9-3.3-3.9c0-2.4,1.8-3.7,4.7-3.7c1.1,0,2.1,0.2,3.1,0.5l1.1,0.4c0.1,0.1,0.2,0.2,0.1,0.3
		l-0.5,1.5c-0.1,0.1-0.2,0.2-0.3,0.1l-1-0.3c-0.8-0.3-1.6-0.4-2.5-0.4c-1.4,0-2.4,0.7-2.4,1.7c0,0.8,0.5,1.4,1.9,1.9l2.2,0.8
		c2.3,0.9,3.4,1.8,3.4,3.8c0,2.6-1.9,4-5,4c-1.3,0-2.4-0.2-3.8-0.7l-1-0.3c-0.1-0.1-0.2-0.2-0.1-0.3l0.5-1.5
		c0.1-0.1,0.2-0.2,0.3-0.1l1.1,0.4c1,0.3,2,0.5,3.1,0.5c1.5,0,2.7-0.6,2.7-1.9c0-0.9-0.9-1.4-2-1.9L1076.3,536.1z"/>
	<path d="M1087.2,531.4c0,0.9-0.1,1.6-0.3,2.3c-0.1,0.2,0,0.4,0.3,0.2c0.7-0.7,1.5-1.1,2.6-1.1c2.3,0,3.6,1.4,3.6,3.7v5.8
		c0,0.1-0.1,0.2-0.2,0.2h-1.8c-0.1,0-0.2-0.1-0.2-0.2v-5.6c0-1.3-0.7-2-1.7-2c-1.6,0-2.3,1.3-2.3,3v4.6c0,0.1-0.1,0.2-0.2,0.2h-1.8
		c-0.1,0-0.2-0.1-0.2-0.2v-13.7c0-0.1,0.1-0.2,0.2-0.2h1.8c0.1,0,0.2,0.1,0.2,0.2V531.4z"/>
	<path d="M1102.7,541.5c-0.1-0.2-0.2-0.2-0.5,0c-0.8,0.9-1.8,1.2-2.7,1.2c-2.3,0-3.6-1.4-3.6-3.7v-5.8c0-0.1,0.1-0.2,0.2-0.2h1.8
		c0.1,0,0.2,0.1,0.2,0.2v5.6c0,1.2,0.7,2,1.7,2c1.5,0,2.3-1.1,2.3-3v-4.6c0-0.1,0.1-0.2,0.2-0.2h1.8c0.1,0,0.2,0.1,0.2,0.2v9.2
		c0,0.1-0.1,0.2-0.2,0.2h-1c-0.1,0-0.2-0.1-0.2-0.2L1102.7,541.5z"/>
	<path d="M1119,538.6c-0.5,1.6-0.7,2.5-1,3.7c0,0.1-0.1,0.2-0.2,0.2h-2.2c-0.1,0-0.2-0.1-0.2-0.2c-0.2-0.7-0.4-1.4-0.6-2.1l-0.7-2.1
		c-0.1-0.4-0.3-1-0.4-1.4c-0.1-0.3-0.2-0.2-0.3,0c-0.1,0.4-0.2,1.1-0.4,1.4l-0.7,2.1c-0.2,0.7-0.4,1.4-0.6,2.1
		c0,0.1-0.1,0.2-0.2,0.2h-2.2c-0.1,0-0.2-0.1-0.2-0.2c-0.3-1.2-0.6-2.1-1-3.7l-1.6-5.5c-0.1-0.1,0-0.2,0.2-0.2h1.8
		c0.1,0,0.2,0.1,0.3,0.2l1,3.5c0.3,1.3,0.5,2.2,0.7,3.2c0,0.2,0.3,0.2,0.3,0c0.2-1,0.6-2.2,0.9-3.5l1-3.1c0-0.1,0.1-0.2,0.2-0.2h1.2
		c0.1,0,0.2,0.1,0.2,0.2l1,3.1c0.4,1.3,0.7,2.5,0.9,3.5c0.1,0.2,0.3,0.2,0.3,0c0.2-1,0.4-1.9,0.7-3.2l1-3.5c0-0.1,0.1-0.2,0.3-0.2
		h1.8c0.2,0,0.2,0.1,0.2,0.2L1119,538.6z"/>
	<path d="M1123.7,533c0.7-0.2,1.3-0.3,2.2-0.3c2.7,0,4.3,1.4,4.3,3.8v5.8c0,0.1-0.1,0.2-0.2,0.2h-1c-0.1,0-0.2-0.1-0.3-0.2l-0.2-0.6
		c-0.1-0.3-0.2-0.3-0.5,0c-0.6,0.7-1.5,1-2.7,1c-2.2,0-3.4-1.1-3.4-3s1.3-3,3.6-3h2.5v-0.1c0-1.2-0.8-1.9-2.2-1.9
		c-0.6,0-1.1,0.1-1.5,0.2l-0.7,0.2c-0.1,0-0.2,0-0.3-0.2l-0.4-1.5c0-0.1,0-0.2,0.2-0.3L1123.7,533z M1125.5,538.4
		c-1,0-1.4,0.5-1.4,1.1c0,0.8,0.5,1.2,1.5,1.2c1.6,0,2.4-0.8,2.4-2.2v-0.1H1125.5z"/>
	<path d="M1135.5,542.3c0,0.1-0.1,0.2-0.2,0.2h-1.8c-0.1,0-0.2-0.1-0.2-0.2v-7.4h-1c-0.1,0-0.2-0.1-0.2-0.2v-1.5
		c0-0.1,0.1-0.2,0.2-0.2h2.9c0.1,0,0.2,0.1,0.2,0.2V542.3z M1135.4,529.5c0,0.8-0.5,1.3-1.3,1.3c-0.8,0-1.3-0.5-1.3-1.3
		c0-0.8,0.5-1.3,1.3-1.3C1135,528.2,1135.4,528.7,1135.4,529.5z"/>
	<path d="M1146.6,542.2c0.1,0.1,0,0.3-0.2,0.3h-2c-0.1,0-0.2,0-0.3-0.1l-1.4-2.2c-0.6-0.8-1.1-1.5-2.2-1.5h-0.3v3.6
		c0,0.1-0.1,0.2-0.2,0.2h-1.8c-0.1,0-0.2-0.1-0.2-0.2v-13.7c0-0.1,0.1-0.2,0.2-0.2h1.8c0.1,0,0.2,0.1,0.2,0.2v8.1h0.3
		c1,0,1.5-0.8,2.1-1.6l1.3-2c0.1-0.1,0.2-0.1,0.3-0.1h1.9c0.2,0,0.2,0.1,0.2,0.3l-1.7,2.8c-0.5,0.8-1.1,1.3-1.7,1.5
		c-0.1,0-0.1,0.1,0,0.2c0.7,0.3,1.3,0.9,1.8,1.6L1146.6,542.2z"/>
	<path d="M1150.9,531.4c0,0.9-0.1,1.6-0.3,2.3c-0.1,0.2,0,0.4,0.3,0.2c0.7-0.7,1.5-1.1,2.7-1.1c2.3,0,3.6,1.4,3.6,3.7v5.8
		c0,0.1-0.1,0.2-0.2,0.2h-1.8c-0.1,0-0.2-0.1-0.2-0.2v-5.6c0-1.3-0.7-2-1.7-2c-1.6,0-2.3,1.3-2.3,3v4.6c0,0.1-0.1,0.2-0.2,0.2h-1.8
		c-0.1,0-0.2-0.1-0.2-0.2v-13.7c0-0.1,0.1-0.2,0.2-0.2h1.8c0.1,0,0.2,0.1,0.2,0.2V531.4z"/>
</g>
<path d="M1172.7,524.8c-4.7,0-8.6,4-8.6,8.7c0,4.3,6.7,10.4,8.2,11.8c0.2,0.1,0.4,0.1,0.7,0c1.5-1.3,8.2-7.6,8.2-11.8
	C1181.4,528.6,1177.4,524.8,1172.7,524.8z M1172.7,528.3c2,0,3.6,1.6,3.6,3.6s-1.6,3.6-3.6,3.6s-3.6-1.6-3.6-3.6
	C1169.1,529.9,1170.7,528.3,1172.7,528.3z M1172.6,542.5c-1.9-1.8-3.4-3.5-4.5-5.1c1.2,1,2.7,1.5,4.5,1.5s3.3-0.5,4.5-1.5
	C1176,539,1174.4,540.7,1172.6,542.5z"/>
<g class="st1">
	<path d="M953.8,515.2c3,0,4.8,1.6,4.8,4.4c0,2.9-2,4.6-5.7,4.6h-2.1v4.6c0,0.1-0.1,0.2-0.2,0.2h-1.8c-0.1,0-0.2-0.1-0.2-0.2v-13.4
		c0-0.1,0.1-0.2,0.2-0.2H953.8z M950.8,522.1h2.1c2.2,0,3.4-0.9,3.4-2.6c0-1.5-0.9-2.4-2.5-2.4h-3V522.1z"/>
	<path d="M969.4,524.2c0,3.1-1.7,5-4.5,5c-2.8,0-4.6-1.9-4.6-5c0-3,1.7-5,4.6-5C967.7,519.2,969.4,521.1,969.4,524.2z M962.4,524.2
		c0,1.9,0.9,3,2.4,3c1.5,0,2.4-1.1,2.4-3c0-1.9-0.9-3-2.4-3C963.3,521.2,962.4,522.3,962.4,524.2z"/>
	<path d="M977.1,520.9c0,0.1-0.1,0.2-0.2,0.2c-2.2,0.1-3.1,1.6-3.1,5.2v2.4c0,0.1-0.1,0.2-0.2,0.2h-1.8c-0.1,0-0.2-0.1-0.2-0.2v-9.2
		c0-0.1,0.1-0.2,0.2-0.2h1c0.1,0,0.2,0.1,0.3,0.2l0.3,1.1c0.1,0.2,0.2,0.3,0.4,0.1c0.8-1,1.7-1.5,3.1-1.6c0.1,0,0.2,0.1,0.2,0.2
		V520.9z"/>
	<path d="M984.5,519.4c0.1,0,0.2,0.1,0.2,0.2v1.5c0,0.1-0.1,0.2-0.2,0.2h-2.2v4.8c0,0.7,0.3,1,0.8,1c0.2,0,0.4,0,0.5-0.1
		c0.1-0.1,0.2,0,0.3,0.1l0.6,1.3c0.1,0.1,0,0.2-0.1,0.3c-0.4,0.2-0.9,0.3-1.3,0.3c-1.9,0-3-1.1-3-3v-4.8h-1c-0.1,0-0.2-0.1-0.2-0.2
		v-1.5c0-0.1,0.1-0.2,0.2-0.2h1v-2.3c0-0.1,0.1-0.2,0.2-0.2l1.8-0.6c0.2,0,0.3,0,0.3,0.2v2.9H984.5z"/>
	<path d="M994.2,522.5c-2.4-0.9-3.3-1.9-3.3-3.9c0-2.4,1.8-3.7,4.7-3.7c1.1,0,2.1,0.2,3.1,0.5l1.1,0.4c0.1,0.1,0.2,0.2,0.1,0.3
		l-0.5,1.5c-0.1,0.1-0.2,0.2-0.3,0.1l-1-0.3c-0.8-0.3-1.6-0.4-2.5-0.4c-1.4,0-2.4,0.7-2.4,1.7c0,0.8,0.5,1.4,1.9,1.9l2.2,0.8
		c2.3,0.9,3.4,1.8,3.4,3.8c0,2.6-1.9,4-5,4c-1.3,0-2.4-0.2-3.8-0.7l-1-0.3c-0.1-0.1-0.2-0.2-0.1-0.3l0.5-1.5
		c0.1-0.1,0.2-0.2,0.3-0.1l1.1,0.4c1,0.3,2,0.5,3.1,0.5c1.5,0,2.7-0.6,2.7-1.9c0-0.9-0.8-1.4-2-1.9L994.2,522.5z"/>
	<path d="M1004.2,519.5c0.7-0.2,1.3-0.3,2.2-0.3c2.7,0,4.3,1.4,4.3,3.8v5.8c0,0.1-0.1,0.2-0.2,0.2h-1c-0.1,0-0.2-0.1-0.3-0.2
		l-0.2-0.6c-0.1-0.3-0.2-0.3-0.5,0c-0.6,0.7-1.5,1-2.7,1c-2.2,0-3.4-1.1-3.4-3s1.3-3,3.6-3h2.5V523c0-1.2-0.8-1.9-2.2-1.9
		c-0.6,0-1.1,0.1-1.5,0.2l-0.7,0.2c-0.1,0-0.2,0-0.3-0.2l-0.4-1.5c0-0.1,0-0.2,0.2-0.3L1004.2,519.5z M1006,524.9
		c-1,0-1.4,0.5-1.4,1.1c0,0.8,0.5,1.2,1.5,1.2c1.6,0,2.4-0.8,2.4-2.2v-0.1H1006z"/>
	<path d="M1016,528.8c0,0.1-0.1,0.2-0.2,0.2h-1.8c-0.1,0-0.2-0.1-0.2-0.2v-7.4h-1c-0.1,0-0.2-0.1-0.2-0.2v-1.5
		c0-0.1,0.1-0.2,0.2-0.2h2.9c0.1,0,0.2,0.1,0.2,0.2V528.8z M1016,516c0,0.8-0.5,1.3-1.3,1.3s-1.3-0.5-1.3-1.3c0-0.8,0.5-1.3,1.3-1.3
		S1016,515.1,1016,516z"/>
	<path d="M1027.1,528.8c0,0.1-0.1,0.2-0.2,0.2h-1c-0.1,0-0.2-0.1-0.2-0.2l-0.2-0.8c-0.1-0.2-0.2-0.2-0.4,0c-0.7,0.8-1.7,1.2-2.8,1.2
		c-2.6,0-4.2-1.9-4.2-5s1.7-5,4.4-5c0.7,0,1.2,0.1,1.8,0.3l0.6,0.3V515c0-0.1,0.1-0.2,0.2-0.2h1.8c0.1,0,0.2,0.1,0.2,0.2V528.8z
		 M1024.4,521.5c-0.5-0.2-1-0.3-1.6-0.3c-1.5,0-2.4,1.1-2.4,3c0,1.9,0.9,3,2.3,3c1.5,0,2.3-1.2,2.3-2.9v-2.5L1024.4,521.5z"/>
</g>
<path d="M1042.7,511.3c-4.7,0-8.6,4-8.6,8.7c0,4.3,6.7,10.4,8.2,11.8c0.2,0.1,0.4,0.1,0.7,0c1.5-1.3,8.2-7.6,8.2-11.8
	C1051.3,515.1,1047.4,511.3,1042.7,511.3z M1042.7,514.8c2,0,3.6,1.6,3.6,3.6s-1.6,3.6-3.6,3.6s-3.6-1.6-3.6-3.6
	C1039.1,516.3,1040.7,514.8,1042.7,514.8z M1042.6,529c-1.9-1.8-3.4-3.5-4.5-5.1c1.2,1,2.7,1.5,4.5,1.5s3.3-0.5,4.5-1.5
	C1046,525.5,1044.4,527.2,1042.6,529z"/>
<g class="st1">
	<path d="M1004.8,489.3c2.8,0,4.4,1.3,4.4,3.5c0,1.6-0.9,2.6-1.8,2.9c-0.3,0.1-0.3,0.3,0,0.3c1.1,0.3,2.3,1.3,2.3,3.3
		c0,2.4-1.7,3.7-4.6,3.7h-5.6c-0.1,0-0.2-0.1-0.2-0.2v-13.4c0-0.1,0.1-0.2,0.2-0.2H1004.8z M1001.5,495.1h2.7c1.8,0,2.7-0.7,2.7-2
		c0-1.1-0.8-1.8-2.2-1.8h-3.3V495.1z M1001.5,501.2h3.6c1.4,0,2.3-0.7,2.3-1.9c0-1.4-1-2.2-3-2.2h-2.9V501.2z"/>
	<path d="M1018.2,503.1c-0.7,0.2-1.4,0.3-2,0.3c-3,0-4.7-1.9-4.7-5c0-3.1,1.7-5,4.6-5c2.4,0,3.8,1.2,3.8,3.1c0,1.5-0.9,2.4-2.9,2.7
		l-3.1,0.5c0.2,1,1,1.7,2.3,1.7c0.6,0,1.1-0.1,1.6-0.2l0.9-0.2c0.1,0,0.2,0,0.3,0.2l0.4,1.5c0,0.1,0,0.2-0.2,0.3L1018.2,503.1z
		 M1016.7,497.5c0.7-0.1,1.1-0.4,1.1-0.9c0-0.8-0.6-1.2-1.7-1.2c-1.3,0-2.2,0.8-2.4,2.6L1016.7,497.5z"/>
	<path d="M1024.9,502.9c0,0.1-0.1,0.2-0.2,0.2h-1.8c-0.1,0-0.2-0.1-0.2-0.2v-7.4h-1c-0.1,0-0.2-0.1-0.2-0.2v-1.5
		c0-0.1,0.1-0.2,0.2-0.2h2.9c0.1,0,0.2,0.1,0.2,0.2V502.9z M1024.9,490.1c0,0.8-0.5,1.3-1.3,1.3c-0.8,0-1.3-0.5-1.3-1.3
		c0-0.8,0.5-1.3,1.3-1.3C1024.4,488.8,1024.9,489.3,1024.9,490.1z"/>
	<path d="M1033.1,495.1c0,0.1-0.1,0.2-0.2,0.2c-2.2,0.1-3.1,1.6-3.1,5.2v2.4c0,0.1-0.1,0.2-0.2,0.2h-1.8c-0.1,0-0.2-0.1-0.2-0.2
		v-9.2c0-0.1,0.1-0.2,0.2-0.2h1c0.1,0,0.2,0.1,0.3,0.2l0.3,1.1c0.1,0.2,0.2,0.3,0.4,0.1c0.8-1,1.7-1.5,3.1-1.6
		c0.1,0,0.2,0.1,0.2,0.2V495.1z"/>
	<path d="M1042.1,502.2c-0.1-0.2-0.2-0.2-0.5,0c-0.8,0.9-1.8,1.2-2.7,1.2c-2.3,0-3.6-1.4-3.6-3.7v-5.8c0-0.1,0.1-0.2,0.2-0.2h1.8
		c0.1,0,0.2,0.1,0.2,0.2v5.6c0,1.2,0.7,2,1.7,2c1.5,0,2.3-1.1,2.3-3v-4.6c0-0.1,0.1-0.2,0.2-0.2h1.8c0.1,0,0.2,0.1,0.2,0.2v9.2
		c0,0.1-0.1,0.2-0.2,0.2h-1c-0.1,0-0.2-0.1-0.2-0.2L1042.1,502.2z"/>
	<path d="M1051.4,493.6c0.1,0,0.2,0.1,0.2,0.2v1.5c0,0.1-0.1,0.2-0.2,0.2h-2.2v4.8c0,0.7,0.3,1,0.8,1c0.2,0,0.4,0,0.5-0.1
		c0.1-0.1,0.2,0,0.3,0.1l0.6,1.3c0.1,0.1,0,0.2-0.1,0.3c-0.4,0.2-0.9,0.3-1.3,0.3c-1.9,0-3-1.1-3-3v-4.8h-1c-0.1,0-0.2-0.1-0.2-0.2
		v-1.5c0-0.1,0.1-0.2,0.2-0.2h1v-2.3c0-0.1,0.1-0.2,0.2-0.2l1.8-0.6c0.2,0,0.3,0,0.3,0.2v2.9H1051.4z"/>
</g>
<path d="M1066.6,485.5c-4.7,0-8.6,4-8.6,8.7c0,4.3,6.7,10.4,8.2,11.8c0.2,0.1,0.4,0.1,0.7,0c1.5-1.3,8.2-7.6,8.2-11.8
	C1075.2,489.3,1071.4,485.5,1066.6,485.5z M1066.6,489c2,0,3.6,1.6,3.6,3.6s-1.6,3.6-3.6,3.6s-3.6-1.6-3.6-3.6
	C1063,490.5,1064.6,489,1066.6,489z M1066.5,503.2c-1.9-1.8-3.4-3.5-4.5-5.1c1.2,1,2.7,1.5,4.5,1.5s3.3-0.5,4.5-1.5
	C1069.9,499.6,1068.4,501.4,1066.5,503.2z"/>
<g class="st1">
	<path d="M988.4,473.7c0,0.1-0.1,0.2-0.2,0.2h-1.8c-0.1,0-0.2-0.1-0.2-0.2v-6.4c0-1.2,0-2.7,0.2-3.8c0-0.3-0.2-0.3-0.3-0.1
		c-0.2,0.5-0.4,1-0.6,1.6l-1.9,4.4c-0.2,0.5-0.5,1.3-0.7,2c0,0.1-0.1,0.2-0.3,0.2H981c-0.1,0-0.2-0.1-0.2-0.2
		c-0.2-0.7-0.5-1.4-0.7-2l-1.9-4.4c-0.2-0.5-0.5-1-0.7-1.6c-0.1-0.3-0.3-0.2-0.3,0.1c0.2,1.1,0.2,2.6,0.2,3.8v6.4
		c0,0.1-0.1,0.2-0.2,0.2h-1.8c-0.1,0-0.2-0.1-0.2-0.2v-13.4c0-0.1,0.1-0.2,0.2-0.2h2.8c0.1,0,0.2,0.1,0.3,0.2c0.1,0.5,0.3,1,0.5,1.5
		l2,4.7c0.3,0.7,0.6,1.6,0.8,2.3c0.1,0.2,0.2,0.2,0.3,0c0.2-0.7,0.5-1.6,0.7-2.3l2-4.7c0.2-0.5,0.4-1,0.5-1.5c0-0.1,0.1-0.2,0.2-0.2
		h2.8c0.1,0,0.2,0.1,0.2,0.2V473.7z"/>
	<path d="M997.5,473.8c-0.7,0.2-1.4,0.3-2,0.3c-3,0-4.7-1.9-4.7-5c0-3.1,1.7-5,4.6-5c2.4,0,3.8,1.2,3.8,3.1c0,1.5-0.9,2.4-2.9,2.7
		l-3.1,0.5c0.2,1,1,1.7,2.3,1.7c0.6,0,1.1-0.1,1.6-0.2l0.9-0.2c0.1,0,0.2,0,0.3,0.2l0.4,1.5c0,0.1,0,0.2-0.2,0.3L997.5,473.8z
		 M995.9,468.2c0.7-0.1,1.1-0.4,1.1-0.9c0-0.8-0.6-1.2-1.7-1.2c-1.3,0-2.2,0.8-2.4,2.6L995.9,468.2z"/>
	<path d="M1006.9,465.9c0,0.1-0.1,0.2-0.2,0.2c-2.2,0.1-3.1,1.6-3.1,5.2v2.4c0,0.1-0.1,0.2-0.2,0.2h-1.8c-0.1,0-0.2-0.1-0.2-0.2
		v-9.2c0-0.1,0.1-0.2,0.2-0.2h1c0.1,0,0.2,0.1,0.3,0.2l0.3,1.1c0.1,0.2,0.2,0.3,0.4,0.1c0.8-1,1.7-1.5,3.1-1.6
		c0.1,0,0.2,0.1,0.2,0.2V465.9z"/>
	<path d="M1011.3,469.6c-1.6-0.4-2.4-1.3-2.4-2.7c0-1.8,1.3-2.8,3.6-2.8c0.9,0,1.8,0.1,2.5,0.3l0.9,0.2c0.1,0,0.2,0.1,0.2,0.3
		l-0.4,1.5c0,0.1-0.1,0.2-0.3,0.2l-0.9-0.2c-0.5-0.2-1.3-0.2-1.9-0.2c-0.9,0-1.4,0.3-1.4,0.9c0,0.5,0.3,0.7,0.9,0.9l2,0.5
		c1.7,0.4,2.5,1.3,2.5,2.7c0,1.9-1.4,3-3.7,3c-1,0-2.1-0.1-3-0.4l-0.8-0.2c-0.1,0-0.2-0.1-0.2-0.3l0.5-1.5c0-0.1,0.1-0.2,0.3-0.1
		l0.7,0.2c0.8,0.2,1.8,0.3,2.5,0.3c1,0,1.5-0.4,1.5-1c0-0.5-0.3-0.8-0.9-1L1011.3,469.6z"/>
	<path d="M1021.2,473.7c0,0.1-0.1,0.2-0.2,0.2h-1.8c-0.1,0-0.2-0.1-0.2-0.2v-7.4h-1c-0.1,0-0.2-0.1-0.2-0.2v-1.5
		c0-0.1,0.1-0.2,0.2-0.2h2.9c0.1,0,0.2,0.1,0.2,0.2V473.7z M1021.2,460.9c0,0.8-0.5,1.3-1.3,1.3c-0.8,0-1.3-0.5-1.3-1.3
		c0-0.8,0.5-1.3,1.3-1.3C1020.7,459.5,1021.2,460,1021.2,460.9z"/>
	<path d="M1025.5,465.3c0.1,0.2,0.2,0.2,0.5,0c0.8-0.9,1.8-1.2,2.7-1.2c2.3,0,3.6,1.4,3.6,3.7v5.8c0,0.1-0.1,0.2-0.2,0.2h-1.8
		c-0.1,0-0.2-0.1-0.2-0.2v-5.6c0-1.2-0.7-2-1.7-2c-1.5,0-2.3,1.1-2.3,3v4.6c0,0.1-0.1,0.2-0.2,0.2h-1.8c-0.1,0-0.2-0.1-0.2-0.2v-9.2
		c0-0.1,0.1-0.2,0.2-0.2h1c0.1,0,0.2,0.1,0.2,0.2L1025.5,465.3z"/>
</g>
<path d="M1049.6,456.1c-4.7,0-8.6,4-8.6,8.7c0,4.3,6.7,10.4,8.2,11.8c0.2,0.1,0.4,0.1,0.7,0c1.5-1.3,8.2-7.6,8.2-11.8
	C1058.2,460.1,1054.3,456.1,1049.6,456.1z M1049.6,459.6c2,0,3.6,1.6,3.6,3.6s-1.6,3.6-3.6,3.6s-3.6-1.6-3.6-3.6
	C1046,461.3,1047.6,459.6,1049.6,459.6z M1049.5,473.9c-1.9-1.8-3.4-3.5-4.5-5.1c1.2,1,2.7,1.5,4.5,1.5s3.3-0.5,4.5-1.5
	C1052.9,470.4,1051.4,472.2,1049.5,473.9z"/>
<g class="st1">
	<path d="M740.3,315.5c3,0,4.8,1.6,4.8,4.4c0,2.9-2,4.6-5.7,4.6h-2.1v4.6c0,0.1-0.1,0.2-0.2,0.2h-1.8c-0.1,0-0.2-0.1-0.2-0.2v-13.4
		c0-0.1,0.1-0.2,0.2-0.2H740.3z M737.3,322.5h2.1c2.2,0,3.4-0.9,3.4-2.6c0-1.5-0.9-2.4-2.5-2.4h-3V322.5z"/>
	<path d="M748.4,319.8c0.7-0.2,1.3-0.3,2.2-0.3c2.7,0,4.3,1.4,4.3,3.8v5.8c0,0.1-0.1,0.2-0.2,0.2h-1c-0.1,0-0.2-0.1-0.3-0.2
		l-0.2-0.6c-0.1-0.3-0.2-0.3-0.5,0c-0.6,0.7-1.5,1-2.7,1c-2.2,0-3.4-1.1-3.4-3s1.3-3,3.6-3h2.5v-0.1c0-1.2-0.8-1.9-2.2-1.9
		c-0.6,0-1.1,0.1-1.5,0.2l-0.7,0.2c-0.1,0-0.2,0-0.3-0.2l-0.4-1.5c0-0.1,0-0.2,0.2-0.3L748.4,319.8z M750.2,325.2
		c-1,0-1.4,0.5-1.4,1.1c0,0.8,0.5,1.2,1.5,1.2c1.6,0,2.4-0.8,2.4-2.2v-0.1H750.2z"/>
	<path d="M762.9,321.3c0,0.1-0.1,0.2-0.2,0.2c-2.2,0.1-3.1,1.6-3.1,5.2v2.4c0,0.1-0.1,0.2-0.2,0.2h-1.8c-0.1,0-0.2-0.1-0.2-0.2V320
		c0-0.1,0.1-0.2,0.2-0.2h1c0.1,0,0.2,0.1,0.3,0.2l0.3,1.1c0.1,0.2,0.2,0.3,0.4,0.1c0.8-1,1.7-1.5,3.1-1.6c0.1,0,0.2,0.1,0.2,0.2
		V321.3z"/>
	<path d="M768,329.1c0,0.1-0.1,0.2-0.2,0.2H766c-0.1,0-0.2-0.1-0.2-0.2v-7.4h-1c-0.1,0-0.2-0.1-0.2-0.2V320c0-0.1,0.1-0.2,0.2-0.2
		h2.9c0.1,0,0.2,0.1,0.2,0.2V329.1z M768,316.3c0,0.8-0.5,1.3-1.3,1.3s-1.3-0.5-1.3-1.3c0-0.8,0.5-1.3,1.3-1.3S768,315.5,768,316.3z
		"/>
	<path d="M772.9,325.1c-1.6-0.4-2.4-1.3-2.4-2.7c0-1.8,1.3-2.8,3.6-2.8c0.9,0,1.8,0.1,2.5,0.3l0.9,0.2c0.1,0,0.2,0.1,0.2,0.3
		l-0.4,1.5c0,0.1-0.1,0.2-0.3,0.2l-0.9-0.2c-0.5-0.2-1.3-0.2-1.9-0.2c-0.9,0-1.4,0.3-1.4,0.9c0,0.5,0.3,0.7,0.9,0.9l2,0.5
		c1.7,0.4,2.5,1.3,2.5,2.7c0,1.9-1.4,3-3.7,3c-1,0-2.1-0.1-3-0.4l-0.8-0.2c-0.1,0-0.2-0.1-0.2-0.3l0.5-1.5c0-0.1,0.1-0.2,0.3-0.1
		l0.7,0.2c0.8,0.2,1.8,0.3,2.5,0.3c1,0,1.5-0.4,1.5-1c0-0.5-0.3-0.8-0.9-1L772.9,325.1z"/>
</g>
<path d="M791.8,311.6c-4.7,0-8.6,4-8.6,8.7c0,4.3,6.7,10.4,8.2,11.8c0.2,0.1,0.4,0.1,0.7,0c1.5-1.3,8.2-7.6,8.2-11.8
	C800.4,315.5,796.5,311.6,791.8,311.6z M791.8,315.1c2,0,3.6,1.6,3.6,3.6s-1.6,3.6-3.6,3.6s-3.6-1.6-3.6-3.6
	C788.2,316.8,789.8,315.1,791.8,315.1z M791.7,329.3c-1.9-1.8-3.4-3.5-4.5-5.1c1.2,1,2.7,1.5,4.5,1.5s3.3-0.5,4.5-1.5
	C795.1,325.9,793.6,327.5,791.7,329.3z"/>
<g class="st1">
	<path d="M708.3,283.5c2.9,0,4.6,1.5,4.6,4c0,1.8-1.1,3-2.6,3.6c-0.3,0.1-0.3,0.2,0,0.4c0.9,0.5,1.5,1.4,1.9,2.3l1.4,3.4
		c0.1,0.2,0,0.3-0.2,0.3h-1.9c-0.1,0-0.2-0.1-0.3-0.2l-1.1-2.6c-0.7-1.8-1.6-2.7-3.7-2.7H705v5.2c0,0.1-0.1,0.2-0.2,0.2H703
		c-0.1,0-0.2-0.1-0.2-0.2v-13.4c0-0.1,0.1-0.2,0.2-0.2H708.3z M707.5,289.9c2,0,3.1-0.8,3.1-2.3c0-1.3-0.9-2.1-2.3-2.1H705v4.5
		H707.5z"/>
	<path d="M724.1,292.5c0,3.1-1.7,5-4.5,5c-2.8,0-4.6-1.9-4.6-5c0-3,1.7-5,4.6-5C722.3,287.5,724.1,289.4,724.1,292.5z M717.1,292.5
		c0,1.9,0.9,3,2.4,3c1.5,0,2.4-1.1,2.4-3c0-1.9-0.9-3-2.4-3C718,289.5,717.1,290.6,717.1,292.5z"/>
	<path d="M736,294.5c0,0.7,0.3,1,0.8,1c0.2,0,0.4,0,0.5-0.1c0.1-0.1,0.2,0,0.3,0.1l0.6,1.3c0.1,0.1,0,0.2-0.1,0.3
		c-0.4,0.2-0.9,0.3-1.3,0.3c-1.9,0-3-1.1-3-3v-4.8H729v4.8c0,0.7,0.3,1,0.8,1c0.2,0,0.4,0,0.5-0.1c0.1-0.1,0.2,0,0.3,0.1l0.6,1.3
		c0.1,0.1,0,0.2-0.1,0.3c-0.4,0.2-0.9,0.3-1.3,0.3c-1.9,0-3-1.1-3-3v-4.8h-1c-0.1,0-0.2-0.1-0.2-0.2v-1.5c0-0.1,0.1-0.2,0.2-0.2h1
		v-2.3c0-0.1,0.1-0.2,0.2-0.2l1.8-0.6c0.2,0,0.3,0,0.3,0.2v2.9h4.8v-2.3c0-0.1,0.1-0.2,0.2-0.2l1.8-0.6c0.2,0,0.3,0,0.3,0.2v2.9h2.2
		c0.1,0,0.2,0.1,0.2,0.2v1.5c0,0.1-0.1,0.2-0.2,0.2H736V294.5z"/>
	<path d="M746.6,297.3c-0.7,0.2-1.4,0.3-2,0.3c-3,0-4.7-1.9-4.7-5c0-3.1,1.7-5,4.6-5c2.4,0,3.8,1.2,3.8,3.1c0,1.5-0.9,2.4-2.9,2.7
		l-3.1,0.5c0.2,1,1,1.7,2.3,1.7c0.6,0,1.1-0.1,1.6-0.2l0.9-0.2c0.1,0,0.2,0,0.3,0.2l0.4,1.5c0,0.1,0,0.2-0.2,0.3L746.6,297.3z
		 M745.1,291.6c0.7-0.1,1.1-0.4,1.1-0.9c0-0.8-0.6-1.2-1.7-1.2c-1.3,0-2.2,0.8-2.4,2.6L745.1,291.6z"/>
	<path d="M756.1,289.3c0,0.1-0.1,0.2-0.2,0.2c-2.2,0.1-3.1,1.6-3.1,5.2v2.4c0,0.1-0.1,0.2-0.2,0.2h-1.8c-0.1,0-0.2-0.1-0.2-0.2v-9.2
		c0-0.1,0.1-0.2,0.2-0.2h1c0.1,0,0.2,0.1,0.3,0.2l0.3,1.1c0.1,0.2,0.2,0.3,0.4,0.1c0.8-1,1.7-1.5,3.1-1.6c0.1,0,0.2,0.1,0.2,0.2
		V289.3z"/>
	<path d="M766.6,297.1c0,0.1-0.1,0.2-0.2,0.2h-1c-0.1,0-0.2-0.1-0.2-0.2l-0.2-0.8c-0.1-0.2-0.2-0.2-0.4,0c-0.7,0.8-1.7,1.2-2.7,1.2
		c-2.6,0-4.2-1.9-4.2-5s1.7-5,4.4-5c0.7,0,1.2,0.1,1.8,0.3l0.6,0.3v-4.8c0-0.1,0.1-0.2,0.2-0.2h1.8c0.1,0,0.2,0.1,0.2,0.2V297.1z
		 M763.8,289.8c-0.5-0.2-1-0.3-1.6-0.3c-1.5,0-2.4,1.1-2.4,3c0,1.9,0.9,3,2.3,3c1.5,0,2.3-1.2,2.3-2.9v-2.5L763.8,289.8z"/>
	<path d="M770.5,287.8c0.7-0.2,1.3-0.3,2.2-0.3c2.7,0,4.3,1.4,4.3,3.8v5.8c0,0.1-0.1,0.2-0.2,0.2h-1c-0.1,0-0.2-0.1-0.3-0.2
		l-0.2-0.6c-0.1-0.3-0.2-0.3-0.5,0c-0.6,0.7-1.5,1-2.7,1c-2.2,0-3.4-1.1-3.4-3s1.3-3,3.6-3h2.5v-0.1c0-1.2-0.8-1.9-2.2-1.9
		c-0.6,0-1.1,0.1-1.5,0.2l-0.7,0.2c-0.1,0-0.2,0-0.3-0.2l-0.4-1.5c0-0.1,0-0.2,0.2-0.3L770.5,287.8z M772.3,293.2
		c-1,0-1.4,0.5-1.4,1.1c0,0.8,0.5,1.2,1.5,1.2c1.6,0,2.4-0.8,2.4-2.2v-0.1H772.3z"/>
	<path d="M781.1,288.7c0.1,0.2,0.2,0.2,0.5,0c0.8-0.9,1.6-1.2,2.6-1.2c1.1,0,2,0.6,2.6,1.3c0.3,0.3,0.4,0.2,0.7,0
		c0.9-1,1.8-1.3,2.7-1.3c2.2,0,3.5,1.4,3.5,3.7v5.8c0,0.1-0.1,0.2-0.2,0.2h-1.8c-0.1,0-0.2-0.1-0.2-0.2v-5.6c0-1.2-0.5-2-1.6-2
		c-1.5,0-2.2,1.2-2.2,3v4.6c0,0.1-0.1,0.2-0.2,0.2h-1.8c-0.1,0-0.2-0.1-0.2-0.2v-5.6c0-1.2-0.6-2-1.6-2c-1.5,0-2.2,1.2-2.2,3v4.6
		c0,0.1-0.1,0.2-0.2,0.2h-1.8c-0.1,0-0.2-0.1-0.2-0.2v-9.2c0-0.1,0.1-0.2,0.2-0.2h1c0.1,0,0.2,0.1,0.2,0.2L781.1,288.7z"/>
</g>
<path d="M809.1,279.5c-4.7,0-8.6,4-8.6,8.7c0,4.3,6.7,10.4,8.2,11.8c0.2,0.1,0.4,0.1,0.7,0c1.5-1.3,8.2-7.6,8.2-11.8
	C817.6,283.5,813.8,279.5,809.1,279.5z M809.1,283c2,0,3.6,1.6,3.6,3.6s-1.6,3.6-3.6,3.6s-3.6-1.6-3.6-3.6
	C805.4,284.7,807,283,809.1,283z M808.9,297.3c-1.9-1.8-3.4-3.5-4.5-5.1c1.2,1,2.7,1.5,4.5,1.5s3.3-0.5,4.5-1.5
	C812.4,293.8,810.7,295.6,808.9,297.3z"/>
<g class="st1">
	<path d="M705.7,271.4l-1,2.5c0,0.1-0.1,0.2-0.2,0.2h-1.9c-0.2,0-0.2-0.1-0.2-0.3l3.4-8.7c0.6-1.6,1.1-3.1,1.5-4.7
		c0-0.1,0.1-0.2,0.2-0.2h2.4c0.1,0,0.2,0.1,0.2,0.2c0.4,1.6,0.9,3.1,1.5,4.7l3.4,8.7c0.1,0.2,0,0.3-0.2,0.3h-1.9
		c-0.1,0-0.2-0.1-0.2-0.2l-1-2.5H705.7z M711.1,269.4l-1-2.6c-0.5-1.2-0.9-2.7-1.1-3.7c-0.1-0.2-0.3-0.2-0.3,0
		c-0.2,1-0.7,2.4-1.1,3.7l-1,2.6H711.1z"/>
	<path d="M718.9,265.5c0.1,0.2,0.2,0.2,0.5,0c0.8-0.9,1.6-1.2,2.6-1.2c1.1,0,2,0.6,2.6,1.3c0.3,0.3,0.4,0.2,0.7,0
		c0.9-1,1.8-1.3,2.7-1.3c2.2,0,3.5,1.4,3.5,3.7v5.8c0,0.1-0.1,0.2-0.2,0.2h-1.8c-0.1,0-0.2-0.1-0.2-0.2v-5.6c0-1.2-0.5-2-1.6-2
		c-1.5,0-2.2,1.2-2.2,3v4.6c0,0.1-0.1,0.2-0.2,0.2h-1.8c-0.1,0-0.2-0.1-0.2-0.2v-5.6c0-1.2-0.6-2-1.6-2c-1.5,0-2.2,1.2-2.2,3v4.6
		c0,0.1-0.1,0.2-0.2,0.2h-1.8c-0.1,0-0.2-0.1-0.2-0.2v-9.2c0-0.1,0.1-0.2,0.2-0.2h1c0.1,0,0.2,0.1,0.2,0.2L718.9,265.5z"/>
	<path d="M736.1,269.8c-1.6-0.4-2.4-1.3-2.4-2.7c0-1.8,1.3-2.8,3.6-2.8c0.9,0,1.8,0.1,2.5,0.3l0.9,0.2c0.1,0,0.2,0.1,0.2,0.3
		l-0.4,1.5c0,0.1-0.1,0.2-0.3,0.2l-0.9-0.2c-0.5-0.2-1.3-0.2-1.9-0.2c-0.9,0-1.4,0.3-1.4,0.9c0,0.5,0.3,0.7,0.9,0.9l2,0.5
		c1.7,0.4,2.5,1.3,2.5,2.7c0,1.9-1.4,3-3.7,3c-1,0-2.1-0.1-3-0.4l-0.8-0.2c-0.1,0-0.2-0.1-0.2-0.3l0.5-1.5c0-0.1,0.1-0.2,0.3-0.1
		l0.7,0.2c0.8,0.2,1.8,0.3,2.5,0.3c1,0,1.5-0.4,1.5-1c0-0.5-0.3-0.8-0.9-1L736.1,269.8z"/>
	<path d="M748.3,264.5c0.1,0,0.2,0.1,0.2,0.2v1.5c0,0.1-0.1,0.2-0.2,0.2h-2.2v4.8c0,0.7,0.3,1,0.8,1c0.2,0,0.4,0,0.5-0.1
		c0.1-0.1,0.2,0,0.3,0.1l0.6,1.3c0.1,0.1,0,0.2-0.1,0.3c-0.4,0.2-0.9,0.3-1.3,0.3c-1.9,0-3-1.1-3-3v-4.8h-1c-0.1,0-0.2-0.1-0.2-0.2
		v-1.5c0-0.1,0.1-0.2,0.2-0.2h1v-2.3c0-0.1,0.1-0.2,0.2-0.2l1.8-0.6c0.2,0,0.3,0,0.3,0.2v2.9H748.3z"/>
	<path d="M756.7,274c-0.7,0.2-1.4,0.3-2,0.3c-3,0-4.7-1.9-4.7-5c0-3.1,1.7-5,4.6-5c2.4,0,3.8,1.2,3.8,3.1c0,1.5-0.9,2.4-2.9,2.7
		l-3.1,0.5c0.2,1,1,1.7,2.3,1.7c0.6,0,1.1-0.1,1.6-0.2l0.9-0.2c0.1,0,0.2,0,0.3,0.2l0.4,1.5c0,0.1,0,0.2-0.2,0.3L756.7,274z
		 M755.2,268.4c0.7-0.1,1.1-0.4,1.1-0.9c0-0.8-0.6-1.2-1.7-1.2c-1.3,0-2.2,0.8-2.4,2.6L755.2,268.4z"/>
	<path d="M766.1,266c0,0.1-0.1,0.2-0.2,0.2c-2.2,0.1-3.1,1.6-3.1,5.2v2.4c0,0.1-0.1,0.2-0.2,0.2h-1.8c-0.1,0-0.2-0.1-0.2-0.2v-9.2
		c0-0.1,0.1-0.2,0.2-0.2h1c0.1,0,0.2,0.1,0.3,0.2l0.3,1.1c0.1,0.2,0.2,0.3,0.4,0.1c0.8-1,1.7-1.5,3.1-1.6c0.1,0,0.2,0.1,0.2,0.2V266
		z"/>
	<path d="M776.7,273.9c0,0.1-0.1,0.2-0.2,0.2h-1c-0.1,0-0.2-0.1-0.2-0.2l-0.2-0.8c-0.1-0.2-0.2-0.2-0.4,0c-0.7,0.8-1.7,1.2-2.7,1.2
		c-2.6,0-4.2-1.9-4.2-5s1.7-5,4.4-5c0.7,0,1.2,0.1,1.8,0.3l0.6,0.3v-4.8c0-0.1,0.1-0.2,0.2-0.2h1.8c0.1,0,0.2,0.1,0.2,0.2V273.9z
		 M773.9,266.6c-0.5-0.2-1-0.3-1.6-0.3c-1.5,0-2.4,1.1-2.4,3c0,1.9,0.9,3,2.3,3c1.5,0,2.3-1.2,2.3-2.9v-2.5L773.9,266.6z"/>
	<path d="M780.5,264.6c0.7-0.2,1.3-0.3,2.2-0.3c2.7,0,4.3,1.4,4.3,3.8v5.8c0,0.1-0.1,0.2-0.2,0.2h-1c-0.1,0-0.2-0.1-0.3-0.2
		l-0.2-0.6c-0.1-0.3-0.2-0.3-0.5,0c-0.6,0.7-1.5,1-2.7,1c-2.2,0-3.4-1.1-3.4-3s1.3-3,3.6-3h2.5v-0.1c0-1.2-0.8-1.9-2.2-1.9
		c-0.6,0-1.1,0.1-1.5,0.2l-0.7,0.2c-0.1,0-0.2,0-0.3-0.2l-0.4-1.5c0-0.1,0-0.2,0.2-0.3L780.5,264.6z M782.4,270
		c-1,0-1.4,0.5-1.4,1.1c0,0.8,0.5,1.2,1.5,1.2c1.6,0,2.4-0.8,2.4-2.2V270H782.4z"/>
	<path d="M791.1,265.5c0.1,0.2,0.2,0.2,0.5,0c0.8-0.9,1.6-1.2,2.6-1.2c1.1,0,2,0.6,2.6,1.3c0.3,0.3,0.4,0.2,0.7,0
		c0.9-1,1.8-1.3,2.7-1.3c2.2,0,3.5,1.4,3.5,3.7v5.8c0,0.1-0.1,0.2-0.2,0.2h-1.8c-0.1,0-0.2-0.1-0.2-0.2v-5.6c0-1.2-0.5-2-1.6-2
		c-1.5,0-2.2,1.2-2.2,3v4.6c0,0.1-0.1,0.2-0.2,0.2h-1.8c-0.1,0-0.2-0.1-0.2-0.2v-5.6c0-1.2-0.6-2-1.6-2c-1.5,0-2.2,1.2-2.2,3v4.6
		c0,0.1-0.1,0.2-0.2,0.2h-1.8c-0.1,0-0.2-0.1-0.2-0.2v-9.2c0-0.1,0.1-0.2,0.2-0.2h1c0.1,0,0.2,0.1,0.2,0.2L791.1,265.5z"/>
</g>
<path d="M818.8,258.9c-4.7,0-8.6,4-8.6,8.7c0,4.3,6.7,10.4,8.2,11.8c0.2,0.1,0.4,0.1,0.7,0c1.5-1.3,8.2-7.6,8.2-11.8
	C827.4,262.7,823.6,258.9,818.8,258.9z M818.8,262.4c2,0,3.6,1.6,3.6,3.6s-1.6,3.6-3.6,3.6s-3.6-1.6-3.6-3.6
	S816.9,262.4,818.8,262.4z M818.7,276.6c-1.9-1.8-3.4-3.5-4.5-5.1c1.2,1,2.7,1.5,4.5,1.5s3.3-0.5,4.5-1.5
	C822.1,273.2,820.6,274.8,818.7,276.6z"/>
<g class="st1">
	<path d="M835,308.7c3,0,4.8,1.6,4.8,4.4c0,2.9-2,4.6-5.7,4.6H832v4.6c0,0.1-0.1,0.2-0.2,0.2H830c-0.1,0-0.2-0.1-0.2-0.2v-13.4
		c0-0.1,0.1-0.2,0.2-0.2H835z M832,315.7h2.1c2.2,0,3.4-0.9,3.4-2.6c0-1.5-0.9-2.4-2.5-2.4h-3V315.7z"/>
	<path d="M847.6,314.5c0,0.1-0.1,0.2-0.2,0.2c-2.2,0.1-3.1,1.6-3.1,5.2v2.4c0,0.1-0.1,0.2-0.2,0.2h-1.8c-0.1,0-0.2-0.1-0.2-0.2v-9.2
		c0-0.1,0.1-0.2,0.2-0.2h1c0.1,0,0.2,0.1,0.3,0.2l0.3,1.1c0.1,0.2,0.2,0.3,0.4,0.1c0.8-1,1.7-1.5,3.1-1.6c0.1,0,0.2,0.1,0.2,0.2
		V314.5z"/>
	<path d="M850.6,313c0.7-0.2,1.3-0.3,2.2-0.3c2.7,0,4.3,1.4,4.3,3.8v5.8c0,0.1-0.1,0.2-0.2,0.2h-1c-0.1,0-0.2-0.1-0.3-0.2l-0.2-0.6
		c-0.1-0.3-0.2-0.3-0.5,0c-0.6,0.7-1.5,1-2.7,1c-2.2,0-3.4-1.1-3.4-3s1.3-3,3.6-3h2.5v-0.1c0-1.2-0.8-1.9-2.2-1.9
		c-0.6,0-1.1,0.1-1.5,0.2l-0.7,0.2c-0.1,0-0.2,0-0.3-0.2l-0.4-1.5c0-0.1,0-0.2,0.2-0.3L850.6,313z M852.4,318.4
		c-1,0-1.4,0.5-1.4,1.1c0,0.8,0.5,1.2,1.5,1.2c1.6,0,2.4-0.8,2.4-2.2v-0.1H852.4z"/>
	<path d="M861.5,324.8c0.4,0.1,1.1,0.2,1.7,0.2c1.4,0,2.6-0.5,3-2.1c0.1-0.9,0.1-0.8,0.1-1.2c0-0.1-0.1-0.2-0.3-0.1
		c-0.7,0.7-1.6,1.1-2.7,1.1c-2.6,0-4.2-1.9-4.2-5c0-3.2,1.7-5,4.6-5c0.8,0,1.7,0.1,2.4,0.5l1.8,0.7c0.1,0,0.2,0.1,0.2,0.2v8.3
		c0,2.9-1.7,4.5-4.7,4.5c-0.7,0-1.6-0.1-2.2-0.3l-1-0.3c-0.1,0-0.2-0.1-0.2-0.3l0.5-1.5c0-0.1,0.1-0.2,0.3-0.1L861.5,324.8z
		 M865.3,315c-0.4-0.2-1-0.3-1.6-0.3c-1.5,0-2.4,1.1-2.4,3c0,1.8,0.8,3,2.3,3c1.5,0,2.3-1.1,2.3-3v-2.4L865.3,315z"/>
	<path d="M877.3,321.5c-0.1-0.2-0.2-0.2-0.5,0c-0.8,0.9-1.8,1.2-2.7,1.2c-2.3,0-3.6-1.4-3.6-3.7v-5.8c0-0.1,0.1-0.2,0.2-0.2h1.8
		c0.1,0,0.2,0.1,0.2,0.2v5.6c0,1.2,0.7,2,1.7,2c1.5,0,2.3-1.1,2.3-3v-4.6c0-0.1,0.1-0.2,0.2-0.2h1.8c0.1,0,0.2,0.1,0.2,0.2v9.2
		c0,0.1-0.1,0.2-0.2,0.2h-1c-0.1,0-0.2-0.1-0.2-0.2L877.3,321.5z"/>
	<path d="M887.8,322.5c-0.7,0.2-1.4,0.3-2,0.3c-3,0-4.7-1.9-4.7-5c0-3.1,1.7-5,4.6-5c2.4,0,3.8,1.2,3.8,3.1c0,1.5-0.9,2.4-2.9,2.7
		l-3.1,0.5c0.2,1,1,1.7,2.3,1.7c0.6,0,1.1-0.1,1.6-0.2l0.9-0.2c0.1,0,0.2,0,0.3,0.2l0.4,1.5c0,0.1,0,0.2-0.2,0.3L887.8,322.5z
		 M886.3,316.8c0.7-0.1,1.1-0.4,1.1-0.9c0-0.8-0.6-1.2-1.7-1.2c-1.3,0-2.2,0.8-2.4,2.6L886.3,316.8z"/>
</g>
<path d="M902.2,304.8c-4.7,0-8.6,4-8.6,8.7c0,4.3,6.7,10.4,8.2,11.8c0.2,0.1,0.4,0.1,0.7,0c1.5-1.3,8.2-7.6,8.2-11.8
	C910.9,308.6,907.1,304.8,902.2,304.8z M902.2,308.3c2,0,3.6,1.6,3.6,3.6s-1.6,3.6-3.6,3.6s-3.6-1.6-3.6-3.6
	C898.6,309.9,900.3,308.3,902.2,308.3z M902.1,322.5c-1.9-1.8-3.4-3.5-4.5-5.1c1.2,1,2.7,1.5,4.5,1.5s3.3-0.5,4.5-1.5
	C905.5,319.1,904,320.7,902.1,322.5z"/>
<g class="st1">
	<path d="M898,274.4c2.8,0,4.4,1.3,4.4,3.5c0,1.6-0.9,2.6-1.8,2.9c-0.3,0.1-0.3,0.3,0,0.3c1.1,0.3,2.3,1.3,2.3,3.3
		c0,2.4-1.7,3.7-4.6,3.7h-5.6c-0.1,0-0.2-0.1-0.2-0.2v-13.4c0-0.1,0.1-0.2,0.2-0.2H898z M894.7,280.1h2.7c1.8,0,2.7-0.7,2.7-2
		c0-1.1-0.8-1.8-2.2-1.8h-3.3V280.1z M894.7,286.2h3.6c1.4,0,2.3-0.7,2.3-1.9c0-1.4-1-2.2-3-2.2h-2.9V286.2z"/>
	<path d="M911.4,288.2c-0.7,0.2-1.4,0.3-2,0.3c-3,0-4.7-1.9-4.7-5c0-3.1,1.7-5,4.6-5c2.4,0,3.8,1.2,3.8,3.1c0,1.5-0.9,2.4-2.9,2.7
		l-3.1,0.5c0.2,1,1,1.7,2.3,1.7c0.6,0,1.1-0.1,1.6-0.2l0.9-0.2c0.1,0,0.2,0,0.3,0.2l0.4,1.5c0,0.1,0,0.2-0.2,0.3L911.4,288.2z
		 M909.9,282.5c0.7-0.1,1.1-0.4,1.1-0.9c0-0.8-0.6-1.2-1.7-1.2c-1.3,0-2.2,0.8-2.4,2.6L909.9,282.5z"/>
	<path d="M920.8,280.2c0,0.1-0.1,0.2-0.2,0.2c-2.2,0.1-3.1,1.6-3.1,5.2v2.4c0,0.1-0.1,0.2-0.2,0.2h-1.8c-0.1,0-0.2-0.1-0.2-0.2v-9.2
		c0-0.1,0.1-0.2,0.2-0.2h1c0.1,0,0.2,0.1,0.3,0.2l0.3,1.1c0.1,0.2,0.2,0.3,0.4,0.1c0.8-1,1.7-1.5,3.1-1.6c0.1,0,0.2,0.1,0.2,0.2
		V280.2z"/>
	<path d="M925.3,285.9c0,0.3,0.1,0.5,0.4,0.5c0.1,0,0.1,0,0.1,0c0.1,0,0.2,0,0.3,0.1l0.6,1.4c0.1,0.1,0,0.2-0.1,0.3
		c-0.3,0.1-0.6,0.2-0.9,0.2c-1.6,0-2.6-0.9-2.6-2.5v-11.6c0-0.1,0.1-0.2,0.2-0.2h1.8c0.1,0,0.2,0.1,0.2,0.2V285.9z"/>
	<path d="M931.3,288c0,0.1-0.1,0.2-0.2,0.2h-1.8c-0.1,0-0.2-0.1-0.2-0.2v-7.4h-1c-0.1,0-0.2-0.1-0.2-0.2v-1.5c0-0.1,0.1-0.2,0.2-0.2
		h2.9c0.1,0,0.2,0.1,0.2,0.2V288z M931.2,275.2c0,0.8-0.5,1.3-1.3,1.3s-1.3-0.5-1.3-1.3c0-0.8,0.5-1.3,1.3-1.3
		S931.2,274.4,931.2,275.2z"/>
	<path d="M935.5,279.6c0.1,0.2,0.2,0.2,0.5,0c0.8-0.9,1.8-1.2,2.7-1.2c2.3,0,3.6,1.4,3.6,3.7v5.8c0,0.1-0.1,0.2-0.2,0.2h-1.8
		c-0.1,0-0.2-0.1-0.2-0.2v-5.6c0-1.2-0.7-2-1.7-2c-1.5,0-2.3,1.1-2.3,3v4.6c0,0.1-0.1,0.2-0.2,0.2h-1.8c-0.1,0-0.2-0.1-0.2-0.2v-9.2
		c0-0.1,0.1-0.2,0.2-0.2h1c0.1,0,0.2,0.1,0.2,0.2L935.5,279.6z"/>
</g>
<path d="M878.7,270.5c-4.7,0-8.6,4-8.6,8.7c0,4.3,6.7,10.4,8.2,11.8c0.2,0.1,0.4,0.1,0.7,0c1.5-1.3,8.2-7.6,8.2-11.8
	C887.3,274.4,883.5,270.5,878.7,270.5z M878.7,273.9c2,0,3.6,1.6,3.6,3.6s-1.6,3.6-3.6,3.6s-3.6-1.6-3.6-3.6
	C875.1,275.6,876.7,273.9,878.7,273.9z M878.6,288.2c-1.9-1.8-3.4-3.5-4.5-5.1c1.2,1,2.7,1.5,4.5,1.5s3.3-0.5,4.5-1.5
	C882,284.7,880.5,286.4,878.6,288.2z"/>
<g class="st1">
	<path d="M967,270.8c0,0.1-0.1,0.2-0.2,0.3l-0.9,0.3l-1,0.3c-1,0.3-1.7,0.5-2.9,0.5c-3.8,0-6.1-2.7-6.1-7.1s2.3-7.1,6.1-7.1
		c1.1,0,1.9,0.1,2.9,0.5l0.9,0.3c0.1,0.1,0.2,0.2,0.1,0.3l-0.6,1.5c-0.1,0.1-0.2,0.2-0.3,0.1l-0.9-0.3c-0.8-0.3-1.4-0.4-2.3-0.4
		c-2.4,0-3.8,1.9-3.8,5.1c0,3.2,1.4,5.1,3.8,5.1c0.8,0,1.5-0.1,2.2-0.3l0.6-0.2v-3h-2.4c-0.2,0-0.2-0.1-0.2-0.2l0.4-1.6
		c0-0.1,0.1-0.2,0.3-0.2h3.8c0.1,0,0.2,0.1,0.2,0.2V270.8z"/>
	<path d="M978.2,267.1c0,3.1-1.7,5-4.5,5c-2.8,0-4.6-1.9-4.6-5c0-3,1.7-5,4.6-5C976.5,262.2,978.2,264.1,978.2,267.1z M971.3,267.1
		c0,1.9,0.9,3,2.4,3c1.5,0,2.4-1.1,2.4-3c0-1.9-0.9-3-2.4-3C972.2,264.1,971.3,265.3,971.3,267.1z"/>
	<path d="M982,263.3c0.1,0.2,0.2,0.2,0.5,0c0.8-0.9,1.6-1.2,2.6-1.2c1.1,0,2,0.6,2.6,1.3c0.3,0.3,0.4,0.2,0.7,0
		c0.9-1,1.8-1.3,2.7-1.3c2.2,0,3.5,1.4,3.5,3.7v5.8c0,0.1-0.1,0.2-0.2,0.2h-1.8c-0.1,0-0.2-0.1-0.2-0.2v-5.6c0-1.2-0.5-2-1.6-2
		c-1.5,0-2.2,1.2-2.2,3v4.6c0,0.1-0.1,0.2-0.2,0.2h-1.8c-0.1,0-0.2-0.1-0.2-0.2v-5.6c0-1.2-0.6-2-1.6-2c-1.5,0-2.2,1.2-2.2,3v4.6
		c0,0.1-0.1,0.2-0.2,0.2h-1.8c-0.1,0-0.2-0.1-0.2-0.2v-9.2c0-0.1,0.1-0.2,0.2-0.2h1c0.1,0,0.2,0.1,0.2,0.2L982,263.3z"/>
	<path d="M1003.2,271.9c-0.7,0.2-1.4,0.3-2,0.3c-3,0-4.7-1.9-4.7-5c0-3.1,1.7-5,4.6-5c2.4,0,3.8,1.2,3.8,3.1c0,1.5-0.9,2.4-2.9,2.7
		l-3.1,0.5c0.2,1,1,1.7,2.3,1.7c0.6,0,1.1-0.1,1.6-0.2l0.9-0.2c0.1,0,0.2,0,0.3,0.2l0.4,1.5c0,0.1,0,0.2-0.2,0.3L1003.2,271.9z
		 M1001.7,266.3c0.7-0.1,1.1-0.4,1.1-0.9c0-0.8-0.6-1.2-1.7-1.2c-1.3,0-2.2,0.8-2.4,2.6L1001.7,266.3z"/>
	<path d="M1009.3,269.6c0,0.3,0.1,0.5,0.4,0.5c0.1,0,0.1,0,0.1,0c0.1,0,0.2,0,0.3,0.1l0.6,1.4c0.1,0.1,0,0.2-0.1,0.3
		c-0.3,0.1-0.6,0.2-0.9,0.2c-1.6,0-2.6-0.9-2.6-2.5V258c0-0.1,0.1-0.2,0.2-0.2h1.8c0.1,0,0.2,0.1,0.2,0.2V269.6z"/>
</g>
<path d="M1022.4,252.1c-4.7,0-8.6,4-8.6,8.7c0,4.3,6.7,10.4,8.2,11.8c0.2,0.1,0.4,0.1,0.7,0c1.5-1.3,8.2-7.6,8.2-11.8
	C1030.9,255.9,1027.1,252.1,1022.4,252.1z M1022.4,255.6c2,0,3.6,1.6,3.6,3.6s-1.6,3.6-3.6,3.6s-3.6-1.6-3.6-3.6
	C1018.7,257.1,1020.4,255.6,1022.4,255.6z M1022.2,269.7c-1.9-1.8-3.4-3.5-4.5-5.1c1.2,1,2.7,1.5,4.5,1.5s3.3-0.5,4.5-1.5
	C1025.7,266.3,1024.1,268,1022.2,269.7z"/>
<path d="M1014.4,326.1c0,5.1,3.5,9.2,8,10.1c-6.7-2.5,0-19.9,1.4-23.5C1022.5,314,1014.4,321,1014.4,326.1z M1024.6,312.7
	c1.4,3.6,8.1,21,1.4,23.5c4.6-0.9,8-5.1,8-10.1C1034.1,321,1026.1,314,1024.6,312.7z M1047.3,320.5c1.3,0,2.4-1.1,2.4-2.4
	s-1.1-2.4-2.4-2.4s-2.4,1.1-2.4,2.4S1046,320.5,1047.3,320.5z M1039.5,314.1c-0.9-0.7-1.9-1.1-3-1.4c0,0,0,20.4,0,20.9
	c0.2,1.5,1.4,2.6,3,2.6c0.8,0,1.4-0.1,1.9-0.3V318C1041.4,316.3,1040.7,315,1039.5,314.1z M1070.8,320.5c1.3,0,2.4-1.1,2.4-2.4
	s-1.1-2.4-2.4-2.4s-2.4,1.1-2.4,2.4S1069.5,320.5,1070.8,320.5z M1044.9,333.6c0.2,1.5,1.4,2.6,3,2.6c0.8,0,1.4-0.1,1.9-0.3v-13.4
	h-4.8C1044.9,327.4,1044.9,333.2,1044.9,333.6z M1088.9,327.4c0-1.6-0.7-3-1.9-4c-1.3-1.1-3.1-1.3-5.3-1.3c-3.1,0-5.6,1.6-5.6,3.6
	c0,1.2,0.8,2.5,2.5,2.3c1.1-0.1,1.9-1,1.9-1.6c0,0-1.1-0.2-1.1-1.9s1.1-2.1,2.3-2.1c1.2,0,2.2,0.9,2.2,2.4v2.4
	c-4.6,2.2-8.5,2.4-8.5,5.9c0,1.8,1.8,3.2,4.1,3.2c1.8,0,3.6-1.6,4.4-3c0.2,1.5,1.4,2.6,3,2.6c0.8,0,1.4-0.1,1.9-0.3L1088.9,327.4z
	 M1084,332.9c-0.5,0.7-1.2,1.5-2.2,1.5s-1.6-0.9-1.6-1.9c0-2.4,1.4-3,3.7-4.3L1084,332.9L1084,332.9z M1068.4,333.6
	c0.2,1.5,1.4,2.6,3,2.6c0.8,0,1.4-0.1,1.9-0.3v-13.4h-4.8C1068.4,327.4,1068.4,333.2,1068.4,333.6z M1061.5,331.3l-4.2-8.8h-5.2
	l5.7,12.1c0.4,1,1.4,1.6,2.5,1.6l5.9-13.7h-1.1L1061.5,331.3z"/>
<path d="M1060.4,283.5c-6.9,0-12.6,5.7-12.6,12.7c0,6.3,9.9,15.3,12.1,17.3c0.2,0.2,0.7,0.2,0.9,0c2.3-2,12.1-11.1,12.1-17.3
	C1072.9,289.2,1067.3,283.5,1060.4,283.5z M1060.4,288.6c3,0,5.4,2.4,5.4,5.4s-2.4,5.4-5.4,5.4s-5.4-2.4-5.4-5.4
	C1055,291.1,1057.4,288.6,1060.4,288.6z M1060.3,309.5c-2.6-2.5-4.9-5.1-6.6-7.4c1.8,1.4,4.1,2.3,6.6,2.3s4.7-0.9,6.6-2.3
	C1065.2,304.4,1062.9,307,1060.3,309.5z"/>
</svg>
