<?xml version="1.0" encoding="utf-8"?>
<!-- Generator: Adobe Illustrator 24.0.2, SVG Export Plug-In . SVG Version: 6.00 Build 0)  -->
<svg version="1.1" id="Слой_1" xmlns="http://www.w3.org/2000/svg" xmlns:xlink="http://www.w3.org/1999/xlink" x="0px" y="0px"
	 viewBox="0 0 180 180" style="enable-background:new 0 0 180 180;" xml:space="preserve">
<style type="text/css">
	.st0{fill:#FFFFFF;}
	.st1{fill:none;stroke:#FFFFFF;stroke-width:2;stroke-linecap:round;stroke-linejoin:round;stroke-miterlimit:10;}
</style>
<g>
	<g>
		<path class="st0" d="M82.31,88.17c1.42,0.58,2,1.63,1.92,3.15c-0.07,1.22-0.01,2.45-0.02,3.67c-0.01,1.46-1.05,2.53-2.51,2.57
			c-0.2,0.01-0.41,0.01-0.61,0.01c-25.15,0-50.3,0-75.45,0c-0.41,0-0.83,0.01-1.22-0.08c-1.13-0.27-1.89-1.27-1.9-2.43
			c-0.01-1.2,0.06-2.41-0.02-3.6c-0.11-1.57,0.45-2.68,1.92-3.29C30.39,88.17,56.35,88.17,82.31,88.17z"/>
		<path class="st0" d="M70.06,158.5h-53.4c-2.33,0-4.22-1.89-4.22-4.22v-14.68c0-2.33,1.89-4.22,4.22-4.22h53.4
			c2.33,0,4.22,1.89,4.22,4.22v14.68C74.28,156.61,72.39,158.5,70.06,158.5z"/>
		<path class="st1" d="M84.19,121.33c-0.08,2.62,0.09,40.95-0.31,43.53c-0.99,6.33-6.7,11.58-13.03,12.29
			c-0.74,0.08-1.49,0.13-2.24,0.13c-16.85,0.01-33.71,0.01-50.56,0.01c-7.65,0-14.02-5.35-15.34-12.89
			c-0.09-0.49-0.16-0.99-0.16-1.49c-0.02-1.99-0.01-39.65-0.01-41.72"/>
		<path class="st1" d="M76.03,95.51c0.12,1.62,0.28,6.96,0.47,7.65c0.48,1.69,1.34,3.17,2.55,4.43c0.89,0.93,1.83,1.83,2.74,2.75
			c1.66,1.68,2.49,3.69,2.43,6.07c-0.04,1.6-0.01,3.21-0.01,4.86c-27.24,0-54.41,0-81.61,0c-0.02-0.08-0.07-0.16-0.07-0.24
			c0-1.84-0.05-3.68,0.02-5.51c0.07-1.94,0.89-3.59,2.22-4.98c0.77-0.8,1.57-1.58,2.36-2.36c1.93-1.89,3.15-4.12,3.47-6.83
			c0.01-0.09,0.05-5.7,0.09-5.84C32.45,95.51,54.21,95.51,76.03,95.51z"/>
	</g>
	<g>
		<path class="st1" d="M172.28,148.4c0.75-1.41,1.18-3.01,1.18-4.72c0-4.57-3.08-8.43-7.27-9.63c0.69-1.36,1.08-2.89,1.08-4.51
			c0-5.52-4.5-10.02-10.02-10.02h-2.16c0.57-1.26,0.89-2.65,0.89-4.12c0-5.52-4.49-10.02-10.02-10.02h-2.4
			c-9.46,0.33-11.32-13.13-11.32-13.13c-5.66,2.33-7.65,6.75-8.71,8.99c-0.95,2.01-3.7,2.9-3.7,2.9c-3.57,2.01-5.79,5.81-5.79,9.91
			c0,1.98,0.51,3.85,1.41,5.47h-2.68c-5.52,0-10.02,4.49-10.02,10.02c0,1.65,0.41,3.21,1.12,4.59c-4.06,1.28-7.01,5.08-7.01,9.56
			c0,1.7,0.43,3.31,1.18,4.72"/>
		<path class="st0" d="M150.65,177.28h-31c-13.64,0-24.96-13.5-26.85-31.02h84.7C175.61,163.78,164.29,177.28,150.65,177.28z"/>
	</g>
</g>
</svg>
