<?xml version="1.0" encoding="utf-8"?>
<!-- Generator: Adobe Illustrator 24.0.2, SVG Export Plug-In . SVG Version: 6.00 Build 0)  -->
<svg version="1.1" id="Слой_1" xmlns="http://www.w3.org/2000/svg" xmlns:xlink="http://www.w3.org/1999/xlink" x="0px" y="0px"
	 viewBox="0 0 180 180" style="enable-background:new 0 0 180 180;" xml:space="preserve">
<style type="text/css">
	.st0{fill:#FFFFFF;}
</style>
<g>
	<g>
		<g>
			<circle class="st0" cx="105.9" cy="25.09" r="8.83"/>
		</g>
		<g>
			<circle class="st0" cx="150.15" cy="61.75" r="8.83"/>
		</g>
		<g>
			<circle class="st0" cx="108.46" cy="55.75" r="8.83"/>
		</g>
		<g>
			<circle class="st0" cx="64.29" cy="64.57" r="8.83"/>
		</g>
		<g>
			<circle class="st0" cx="44.1" cy="80.56" r="8.83"/>
		</g>
		<g>
			<circle class="st0" cx="86.85" cy="105.78" r="8.83"/>
		</g>
		<g>
			<circle class="st0" cx="39.22" cy="133.52" r="8.83"/>
		</g>
		<g>
			<circle class="st0" cx="102.23" cy="133.52" r="8.83"/>
		</g>
		<g>
			<circle class="st0" cx="124.98" cy="90.65" r="8.83"/>
		</g>
		<g>
			<circle class="st0" cx="139.92" cy="133.52" r="8.83"/>
		</g>
	</g>
	<g>
		<path class="st0" d="M104.64,17c4.46,0,8.09,3.63,8.09,8.09c0,4.46-3.63,8.09-8.09,8.09H74.38c-4.46,0-8.09-3.63-8.09-8.09
			c0-0.16,0.08-0.32,0.21-0.42l10.09-7.56c0.09-0.07,0.2-0.1,0.31-0.1H104.64 M104.64,15H76.9c-0.55,0-1.08,0.18-1.51,0.5
			L65.3,23.07c-0.63,0.48-1.01,1.22-1.01,2.02c0,5.57,4.52,10.09,10.09,10.09h30.26c5.57,0,10.09-4.52,10.09-10.09
			C114.73,19.52,110.21,15,104.64,15L104.64,15z"/>
	</g>
	<g>
		<path class="st0" d="M123.27,34.65c0.02,0,0.05,0,0.08,0.01l12.48,1.78c0.11,0.02,0.21,0.07,0.3,0.15l19.63,19.63
			c2.08,2.03,2.91,5.04,2.17,7.85c-0.74,2.81-2.95,5.01-5.76,5.75c-0.67,0.18-1.37,0.27-2.06,0.27c-2.16,0-4.27-0.89-5.8-2.45
			l-21.4-21.4c-1.51-1.5-2.37-3.58-2.37-5.72c-0.01-2.13,0.86-4.21,2.38-5.72C123.02,34.7,123.14,34.65,123.27,34.65 M123.27,32.65
			c-0.66,0-1.3,0.26-1.77,0.74c-1.9,1.89-2.96,4.45-2.96,7.13c-0.01,2.68,1.06,5.25,2.96,7.13l21.4,21.4
			c1.92,1.97,4.53,3.03,7.21,3.03c0.86,0,1.72-0.11,2.57-0.33c3.51-0.93,6.25-3.67,7.18-7.18c0.93-3.51-0.11-7.25-2.7-9.79
			l-19.61-19.61c-0.39-0.39-0.89-0.64-1.43-0.71l-12.48-1.78C123.52,32.66,123.39,32.65,123.27,32.65L123.27,32.65z"/>
	</g>
	<g>
		<path class="st0" d="M37.54,37.17c0.02,0,0.05,0,0.08,0.01l12.48,1.78c0.11,0.02,0.21,0.07,0.3,0.15l19.63,19.63
			c2.08,2.03,2.91,5.04,2.17,7.85c-0.74,2.81-2.95,5.01-5.75,5.75c-0.67,0.18-1.37,0.27-2.06,0.27c-2.16,0-4.27-0.89-5.8-2.45
			l-21.4-21.4c-3.15-3.15-3.15-8.28,0.01-11.44C37.28,37.23,37.41,37.17,37.54,37.17 M37.54,35.17c-0.66,0-1.3,0.26-1.78,0.74
			c-3.94,3.94-3.94,10.33,0,14.26l21.4,21.4c1.92,1.97,4.53,3.03,7.21,3.03c0.86,0,1.72-0.11,2.57-0.33
			c3.51-0.93,6.25-3.67,7.18-7.18c0.93-3.51-0.11-7.25-2.7-9.79L51.81,37.7c-0.39-0.39-0.89-0.64-1.43-0.71L37.9,35.2
			C37.78,35.18,37.66,35.17,37.54,35.17L37.54,35.17z"/>
	</g>
	<g>
		<path class="st0" d="M108.69,47.36c2.15,0,4.19,0.82,5.72,2.27c3.15,3.15,3.15,8.28,0,11.43l-21.4,21.4
			c-1.53,1.53-3.56,2.37-5.72,2.37c-2.16,0-4.19-0.84-5.72-2.37c-0.12-0.12-0.17-0.28-0.15-0.44l1.78-12.48
			c0.02-0.11,0.07-0.22,0.15-0.3l19.58-19.58C104.5,48.18,106.54,47.36,108.69,47.36 M108.69,45.36c-2.57,0-5.14,0.95-7.13,2.85
			L81.94,67.83c-0.39,0.39-0.64,0.89-0.71,1.42l-1.78,12.48c-0.11,0.79,0.15,1.58,0.71,2.14c1.97,1.97,4.55,2.95,7.13,2.95
			c2.58,0,5.16-0.98,7.13-2.95l21.4-21.4c3.94-3.94,3.94-10.32,0-14.26C113.83,46.31,111.26,45.36,108.69,45.36L108.69,45.36z"/>
	</g>
	<g>
		<path class="st0" d="M44.12,72.57c2.15,0,4.19,0.82,5.72,2.27c3.15,3.15,3.15,8.28,0,11.43l-21.4,21.4
			c-1.52,1.53-3.54,2.37-5.69,2.37h-0.07c-2.12,0-4.19-0.86-5.69-2.37c-0.12-0.12-0.17-0.28-0.15-0.44l1.79-12.48
			c0.02-0.11,0.07-0.22,0.15-0.3l19.58-19.58C39.92,73.39,41.97,72.57,44.12,72.57 M44.12,70.57c-2.57,0-5.14,0.95-7.13,2.86
			L17.37,93.05c-0.39,0.39-0.64,0.89-0.71,1.42l-1.79,12.48c-0.11,0.79,0.15,1.58,0.71,2.14c1.88,1.89,4.43,2.96,7.1,2.96
			c0.01,0,0.03,0,0.04,0c0.01,0,0.02,0,0.03,0c2.67,0,5.22-1.06,7.1-2.96l21.4-21.4c3.94-3.94,3.94-10.32,0-14.26
			C49.25,71.53,46.69,70.57,44.12,70.57L44.12,70.57z"/>
	</g>
	<g>
		<path class="st0" d="M86.99,97.69c4.46,0,8.09,3.63,8.09,8.09c0,4.46-3.63,8.09-8.09,8.09H56.73c-4.46,0-8.09-3.63-8.09-8.09
			c0-0.16,0.08-0.32,0.21-0.42l10.09-7.56c0.09-0.07,0.2-0.1,0.31-0.1H86.99 M86.99,95.69H59.25c-0.55,0-1.08,0.18-1.51,0.5
			l-10.09,7.57c-0.63,0.48-1.01,1.22-1.01,2.02c0,5.57,4.52,10.09,10.09,10.09h30.26c5.57,0,10.09-4.52,10.09-10.09
			C97.07,100.21,92.56,95.69,86.99,95.69L86.99,95.69z"/>
	</g>
	<g>
		<path class="st0" d="M155.07,82.56c4.46,0,8.09,3.63,8.09,8.09c0,0.16-0.08,0.32-0.21,0.42l-10.09,7.57
			c-0.09,0.07-0.2,0.1-0.31,0.1h-27.74c-4.46,0-8.09-3.63-8.09-8.09s3.63-8.09,8.09-8.09H155.07 M155.07,80.56h-30.26
			c-5.57,0-10.09,4.52-10.09,10.09c0,5.57,4.52,10.09,10.09,10.09h27.74c0.55,0,1.08-0.18,1.51-0.5l10.09-7.56
			c0.64-0.48,1.01-1.22,1.01-2.02C165.16,85.08,160.64,80.56,155.07,80.56L155.07,80.56z"/>
	</g>
	<g>
		<path class="st0" d="M69.33,125.43c4.46,0,8.09,3.63,8.09,8.09c0,0.16-0.08,0.32-0.21,0.42l-10.09,7.57
			c-0.09,0.07-0.2,0.1-0.31,0.1H39.07c-4.46,0-8.09-3.63-8.09-8.09c0-4.46,3.63-8.09,8.09-8.09H69.33 M69.33,123.43H39.07
			c-5.57,0-10.09,4.52-10.09,10.09c0,5.57,4.52,10.09,10.09,10.09h27.74c0.55,0,1.08-0.18,1.51-0.5l10.09-7.56
			c0.64-0.48,1.01-1.22,1.01-2.02C79.42,127.95,74.91,123.43,69.33,123.43L69.33,123.43z"/>
	</g>
	<g>
		<path class="st0" d="M102.12,125.53c2.15,0,4.19,0.82,5.72,2.28c1.51,1.5,2.37,3.58,2.36,5.72c0.01,2.13-0.86,4.21-2.37,5.71
			l-21.4,21.4c-1.53,1.53-3.56,2.37-5.72,2.37s-4.19-0.84-5.72-2.37c-0.12-0.12-0.17-0.28-0.15-0.44l1.78-12.48
			c0.02-0.11,0.07-0.21,0.15-0.29l19.58-19.58C97.92,126.35,99.96,125.53,102.12,125.53 M102.12,123.53c-2.57,0-5.14,0.95-7.13,2.86
			L75.37,146c-0.39,0.39-0.64,0.89-0.71,1.42l-1.78,12.48c-0.11,0.79,0.15,1.58,0.71,2.14c1.97,1.97,4.55,2.95,7.13,2.95
			s5.16-0.98,7.13-2.95l21.4-21.4c1.9-1.89,2.96-4.45,2.96-7.13c0.01-2.68-1.06-5.25-2.96-7.13
			C107.25,124.48,104.69,123.53,102.12,123.53L102.12,123.53z"/>
	</g>
	<g>
		<path class="st0" d="M113.18,106.25c0.02,0,0.05,0,0.09,0.01l12.48,1.78c0.11,0.02,0.21,0.07,0.3,0.15l19.64,19.64
			c2.1,2.03,2.94,5.04,2.21,7.86c-0.74,2.82-2.95,5.04-5.78,5.77c-0.67,0.18-1.36,0.26-2.05,0.26c-2.18,0-4.3-0.9-5.84-2.49
			l-21.4-21.4c-3.15-3.15-3.15-8.28,0.01-11.44C112.93,106.3,113.06,106.25,113.18,106.25 M113.18,104.25
			c-0.66,0-1.3,0.26-1.77,0.74c-3.94,3.94-3.94,10.32,0,14.26l21.4,21.4c1.93,1.99,4.56,3.08,7.26,3.08c0.85,0,1.71-0.11,2.55-0.33
			c3.53-0.92,6.28-3.68,7.2-7.2c0.92-3.53-0.13-7.28-2.75-9.81l-19.61-19.61c-0.39-0.39-0.89-0.64-1.43-0.71l-12.48-1.78
			C113.43,104.26,113.31,104.25,113.18,104.25L113.18,104.25z"/>
	</g>
</g>
</svg>
