<?xml version="1.0" encoding="utf-8"?>
<!-- Generator: Adobe Illustrator 24.0.2, SVG Export Plug-In . SVG Version: 6.00 Build 0)  -->
<svg version="1.1" id="Слой_1" xmlns="http://www.w3.org/2000/svg" xmlns:xlink="http://www.w3.org/1999/xlink" x="0px" y="0px"
	 viewBox="0 0 180 180" style="enable-background:new 0 0 180 180;" xml:space="preserve">
<style type="text/css">
	.st0{fill:#FFFFFF;}
	.st1{fill:none;stroke:#FFFFFF;stroke-width:2;stroke-linecap:round;stroke-linejoin:round;stroke-miterlimit:10;}
</style>
<g>
	<path class="st0" d="M19.06,51.01c0-1.27,1.03-2.3,2.3-2.3h4.9c0.74,0,1.4-0.46,1.67-1.15l6.97-18.3c0.45-1.19,1.6-1.98,2.88-1.98
		h4.77c1.28,0,2.42,0.79,2.88,1.98l6.97,18.3c0.26,0.69,0.93,1.15,1.67,1.15h4.9c1.27,0,2.3,1.03,2.3,2.3v5.01
		c0,1.27-1.03,2.29-2.3,2.3h-37.6c-1.27,0-2.29-1.03-2.3-2.3L19.06,51.01z"/>
	<path class="st1" d="M10.83,81.92l8.48-14.54c0.55-0.95,1.56-1.53,2.66-1.53h36.45c1.07,0,2.07,0.56,2.63,1.47l8.34,13.64
		c1,1.63,1.53,3.51,1.53,5.43v1.39H9.41v-0.61C9.41,85.32,9.9,83.51,10.83,81.92L10.83,81.92z"/>
	<path class="st1" d="M11.8,142.33c-2.37,0-3.87-2.58-2.67-4.62c0.45-0.77,0.92-1.53,1.42-2.28l3.12-5.37
		c1.31-2.26,2.04-4.8,2.14-7.4c0.12-3-0.61-5.98-2.09-8.59c-0.65-1.14-1.44-2.2-2.34-3.14c-2.14-2.22-2.31-5.18-2.3-8.27V98.4
		c0-1.7,1.38-3.08,3.08-3.08h56.08c1.7,0,3.08,1.38,3.08,3.08v4.26c0.01,3.08-0.16,6.05-2.3,8.27c-0.91,0.95-1.7,2-2.34,3.14
		c-1.48,2.61-2.2,5.59-2.09,8.59c0.1,2.61,0.83,5.15,2.14,7.4l3.12,5.37c0.49,0.75,0.96,1.51,1.42,2.28c1.2,2.05-0.3,4.62-2.67,4.62
		H11.8z"/>
	<path class="st1" d="M72.01,165.34c-0.01,6.59-5.35,11.93-11.94,11.94H20.25c-6.59-0.01-11.93-5.35-11.94-11.94
		c0,0,0-7.88,0.06-12.4c0.02-1.68,1.4-3.03,3.08-3.03h57.47c1.7,0,3.08,1.37,3.08,3.07C72,156.93,72.01,165.34,72.01,165.34z"/>
	<path class="st0" d="M59.92,104.45c-0.34-0.32-0.8-0.5-1.27-0.5H21.68c-0.74,0.01-1.4,0.47-1.67,1.16c-0.28,0.7-0.13,1.5,0.4,2.04
		c6.41,6.67,7.81,16.7,3.47,24.87c-0.48,0.9-0.13,2.02,0.77,2.5c0.27,0.14,0.56,0.22,0.87,0.22h29.62c1.02,0,1.85-0.83,1.85-1.85
		c0-0.31-0.08-0.61-0.22-0.88c-4.34-8.15-3.04-18.15,3.24-24.92C60.7,106.33,60.67,105.16,59.92,104.45z"/>
	<g>
		<path class="st1" d="M121.87,177.28H81.94c-0.85,0-1.64-0.42-2.12-1.11c-0.48-0.7-0.59-1.59-0.29-2.38l16.83-44.49
			c6.56-17.35,15.41-26.91,24.93-26.91c9.51,0,18.36,9.56,24.93,26.91l0.37,0.98"/>
		<path class="st0" d="M133.3,127.24c1.43,0,2.58,1.16,2.58,2.58s-1.16,2.58-2.58,2.58h-0.77c-1.43,0-2.58-1.16-2.58-2.58
			s1.16-2.58,2.58-2.58H133.3z"/>
		<path class="st0" d="M129.08,158.74c0,1.43-1.16,2.58-2.58,2.58h-0.77c-1.43,0-2.58-1.16-2.58-2.58s1.16-2.58,2.58-2.58h0.77
			C127.92,156.16,129.08,157.31,129.08,158.74z"/>
		<path class="st0" d="M112.61,129.82c0,1.43-1.16,2.58-2.58,2.58h-0.77c-1.43,0-2.58-1.16-2.58-2.58s1.16-2.58,2.58-2.58h0.77
			C111.45,127.24,112.61,128.4,112.61,129.82z"/>
		<path class="st0" d="M113.48,140.69c0-1.43,1.16-2.58,2.58-2.58h0.77c1.43,0,2.58,1.16,2.58,2.58s-1.16,2.58-2.58,2.58h-0.77
			C114.63,143.27,113.48,142.12,113.48,140.69z"/>
		<path class="st0" d="M113.48,120.08c0-1.43,1.16-2.58,2.58-2.58h0.77c1.43,0,2.58,1.16,2.58,2.58s-1.16,2.58-2.58,2.58h-0.77
			C114.63,122.67,113.48,121.51,113.48,120.08z"/>
		<path class="st0" d="M120.89,132.4c-1.43,0-2.58-1.16-2.58-2.58s1.16-2.58,2.58-2.58h0.77c1.43,0,2.58,1.16,2.58,2.58
			s-1.16,2.58-2.58,2.58H120.89z"/>
		<path class="st0" d="M125.72,122.67c-1.43,0-2.58-1.16-2.58-2.58s1.16-2.58,2.58-2.58h0.78c1.43,0,2.58,1.16,2.58,2.58
			s-1.16,2.58-2.58,2.58H125.72z"/>
		<path class="st0" d="M171.53,173.79l-8.07-21.34c-4.3-11.38-9.56-13.77-13.21-13.77c-3.65,0-8.91,2.39-13.21,13.77l-8.07,21.34
			c-0.3,0.79-0.19,1.68,0.29,2.38c0.48,0.7,1.28,1.11,2.12,1.11h37.73c0.85,0,1.64-0.42,2.12-1.11
			C171.72,175.47,171.83,174.58,171.53,173.79z M156.12,167.97h-0.77c-1.43,0-2.58-1.16-2.58-2.58c0-1.43,1.16-2.58,2.58-2.58h0.77
			c1.43,0,2.58,1.16,2.58,2.58C158.7,166.81,157.55,167.97,156.12,167.97z"/>
	</g>
</g>
</svg>
