<svg xmlns="http://www.w3.org/2000/svg" viewBox="0 0 665 711" width="665" height="711">

	<g>
		<path fill="#FFBE3C" d="M68.568,268.374c-1.394-1.229-3.48-1.229-4.875,0c-11.91,10.5-63.417,57.794-63.417,90.459
			c0,36.936,29.484,66.878,65.854,66.878c36.371,0,65.854-29.942,65.854-66.878C131.984,326.168,80.478,278.874,68.568,268.374z
			 M66.13,408.447c-4.994,0-9.812-0.775-14.35-2.21c23.59-2.937,43.752-21.179,48.388-46.225c2.059-11.123-5.048-31.326-18.508-54.883
			c20.254,21.816,33.059,42.118,33.059,53.704C114.719,386.19,92.922,408.447,66.13,408.447z"/>
		<animateMotion begin="0s" dur="5s" repeatCount="indefinite" path="M0,0 0,20 0,0z"/>
	</g>
	<g>
		<path fill="#FFBE3C" d="M202.294,134.648c-1.394-1.229-3.48-1.229-4.875,0c-11.91,10.5-63.417,57.794-63.417,90.459
			c0,36.936,29.484,66.878,65.854,66.878c36.371,0,65.854-29.942,65.854-66.878C265.71,192.442,214.204,145.148,202.294,134.648z
			M199.856,274.721c-4.994,0-9.812-0.775-14.35-2.21c23.59-2.937,43.752-21.179,48.388-46.225
			c2.059-11.123-5.048-31.326-18.508-54.883c20.254,21.816,33.059,42.118,33.059,53.704
			C248.446,252.464,226.648,274.721,199.856,274.721z"/>
		<animateMotion begin="0.5s" dur="7s" repeatCount="indefinite" path="M0,0 0,20 0,0z"/>
	</g>
	<g>
		<path fill="#FFBE3C" d="M336.02,0.922c-1.394-1.229-3.48-1.229-4.875,0c-11.91,10.5-63.417,57.794-63.417,90.459
			c0,36.936,29.484,66.878,65.854,66.878c36.371,0,65.854-29.942,65.854-66.878C399.436,58.716,347.93,11.422,336.02,0.922z
			 M333.583,140.995c-4.994,0-9.812-0.775-14.35-2.21c23.59-2.937,43.752-21.179,48.388-46.225
			c2.059-11.123-5.048-31.326-18.508-54.883c20.254,21.816,33.059,42.118,33.059,53.704
			C382.172,118.738,360.374,140.995,333.583,140.995z"/>
		<animateMotion begin="3s" dur="6s" repeatCount="indefinite" path="M0,0 0,20 0,0z"/>
	</g>
	<g>
		<path fill="#FFBE3C" d="M201.212,401.018c-1.394-1.229-3.48-1.229-4.875,0c-11.91,10.5-63.417,57.794-63.417,90.459
			c0,36.936,29.484,66.878,65.854,66.878c36.371,0,65.854-29.942,65.854-66.878C264.628,458.812,213.122,411.518,201.212,401.018z
			 M198.775,541.091c-4.994,0-9.812-0.775-14.35-2.21c23.59-2.937,43.752-21.179,48.388-46.225
			c2.059-11.123-5.048-31.326-18.508-54.883c20.254,21.816,33.059,42.118,33.059,53.704
			C247.364,518.835,225.567,541.091,198.775,541.091z"/>
		<animateMotion begin="4s" dur="5s" repeatCount="indefinite" path="M0,0 0,20 0,0z"/>
	</g>
	<g>
		<path fill="#FFBE3C" d="M334.938,267.292c-1.394-1.229-3.48-1.229-4.875,0c-11.91,10.5-63.417,57.794-63.417,90.459
			c0,36.936,29.484,66.878,65.854,66.878c36.371,0,65.854-29.942,65.854-66.878C398.354,325.086,346.848,277.792,334.938,267.292z
			 M332.501,407.365c-4.994,0-9.812-0.775-14.35-2.21c23.59-2.937,43.752-21.179,48.388-46.225
			c2.059-11.123-5.048-31.326-18.508-54.883c20.254,21.816,33.059,42.118,33.059,53.704
			C381.09,385.109,359.293,407.365,332.501,407.365z"/>
		<animateMotion begin="1s" dur="8s" repeatCount="indefinite" path="M0,0 0,20 0,0z"/>
	</g>
	<g>
		<path fill="#FFBE3C" d="M468.664,133.566c-1.394-1.229-3.48-1.229-4.875,0c-11.91,10.5-63.417,57.794-63.417,90.459
			c0,36.936,29.484,66.878,65.854,66.878c36.371,0,65.854-29.942,65.854-66.878C532.08,191.36,480.574,144.066,468.664,133.566z
			 M466.227,273.639c-4.994,0-9.812-0.775-14.35-2.21c23.59-2.937,43.752-21.179,48.388-46.225
			c2.059-11.123-5.048-31.326-18.508-54.883c20.254,21.816,33.059,42.118,33.059,53.704
			C514.816,251.382,493.019,273.639,466.227,273.639z"/>
		<animateMotion begin="2s" dur="5s" repeatCount="indefinite" path="M0,0 0,20 0,0z"/>
	</g>
	<g>
		<path fill="#FFBE3C" d="M333.857,533.663c-1.394-1.229-3.48-1.229-4.875,0c-11.91,10.5-63.417,57.794-63.417,90.459
			c0,36.936,29.484,66.878,65.854,66.878c36.371,0,65.854-29.942,65.854-66.878C397.272,591.457,345.767,544.163,333.857,533.663z
			 M331.419,673.736c-4.994,0-9.812-0.775-14.35-2.21c23.59-2.937,43.752-21.179,48.388-46.225
			c2.059-11.123-5.048-31.326-18.508-54.883c20.254,21.816,33.059,42.118,33.059,53.704
			C380.008,651.479,358.211,673.736,331.419,673.736z"/>
		<animateMotion begin="0s" dur="6s" repeatCount="indefinite" path="M0,0 0,20 0,0z"/>
	</g>
	<g>
		<path fill="#FFBE3C" d="M467.583,399.937c-1.394-1.229-3.48-1.229-4.875,0c-11.91,10.5-63.417,57.794-63.417,90.459
			c0,36.936,29.484,66.878,65.854,66.878c36.371,0,65.854-29.942,65.854-66.878C530.999,457.73,479.493,410.437,467.583,399.937z
			 M465.145,540.01c-4.994,0-9.812-0.775-14.35-2.21c23.59-2.937,43.752-21.179,48.388-46.225
			c2.059-11.123-5.048-31.326-18.508-54.883c20.254,21.816,33.059,42.118,33.059,53.704
			C513.734,517.753,491.937,540.01,465.145,540.01z"/>
		<animateMotion begin="3s" dur="5s" repeatCount="indefinite" path="M0,0 0,20 0,0z"/>
	</g>
	<g>
		<path fill="#FFBE3C" d="M601.309,266.211c-1.394-1.229-3.48-1.229-4.875,0c-11.91,10.5-63.417,57.794-63.417,90.459
			c0,36.936,29.484,66.878,65.854,66.878c36.371,0,65.854-29.942,65.854-66.878C664.725,324.004,613.219,276.711,601.309,266.211z
			 M598.871,406.284c-4.994,0-9.812-0.775-14.35-2.21c23.59-2.937,43.752-21.179,48.388-46.225
			c2.059-11.123-5.048-31.326-18.508-54.883c20.254,21.816,33.059,42.118,33.059,53.704
			C647.461,384.027,625.663,406.284,598.871,406.284z"/>
		<animateMotion begin="2s" dur="7s" repeatCount="indefinite" path="M0,0 0,20 0,0z"/>
	</g>

</svg>
