<?xml version="1.0" encoding="utf-8"?>
<!-- Generator: Adobe Illustrator 24.0.2, SVG Export Plug-In . SVG Version: 6.00 Build 0)  -->
<svg version="1.1" id="Слой_1" xmlns="http://www.w3.org/2000/svg" xmlns:xlink="http://www.w3.org/1999/xlink" x="0px" y="0px"
	 viewBox="0 0 105 105" style="enable-background:new 0 0 105 105;" xml:space="preserve">
<style type="text/css">
	.st0{fill:#FFFFFF;}
</style>
<g>
	<path class="st0" d="M62.34,32.04c0-0.29-0.32-0.6-0.77-0.75l-1.02-0.34v3.38C61.56,33.98,62.25,33.09,62.34,32.04z"/>
	<path class="st0" d="M57,22.63c-0.99,0.35-1.69,1.24-1.78,2.29c0,0.29,0.32,0.6,0.77,0.75L57,26.01V22.63z"/>
	<path class="st0" d="M58.78,44.8c9.01-0.01,16.31-7.31,16.32-16.32c0-9.01-7.31-16.32-16.32-16.32c-9.02,0-16.32,7.31-16.32,16.32
		S49.77,44.8,58.78,44.8z M54.87,29.05c-1.84-0.54-3.13-2.21-3.2-4.13c0.16-3,2.38-5.5,5.34-6.01V17.8h3.56v1.11
		c2.96,0.51,5.18,3.01,5.34,6.01h-3.56c-0.09-1.05-0.79-1.94-1.78-2.29v4.57l2.14,0.71c1.84,0.54,3.13,2.21,3.2,4.13
		c-0.16,3-2.38,5.5-5.34,6.01v1.11H57v-1.11c-2.97-0.51-5.18-3.01-5.34-6.01h3.56c0.09,1.04,0.79,1.94,1.78,2.28v-4.56L54.87,29.05z
		"/>
	<path class="st0" d="M95.14,55.45L77.81,38.12c-0.52-0.52-1.36-0.52-1.89,0L58.87,55.18L40.47,36.79c-0.52-0.52-1.36-0.52-1.89,0
		L21.26,54.12c-0.52,0.52-0.52,1.36,0,1.89l9.72,9.72l0.48,0.51H18.2c-0.09,0-0.17,0.02-0.25,0.03V62.8c0-0.83-0.67-1.5-1.5-1.5
		h-4.26h-1.22c-0.83,0-1.5,0.67-1.5,1.5v28.68c0,0.75,0.61,1.36,1.36,1.36h5.76c0.75,0,1.36-0.61,1.36-1.36c0,0,0,0,0,0v-3.58
		c0.08,0.01,0.16,0.03,0.25,0.03h14.31l21.11,5.1c0.62,0.15,1.25,0.22,1.87,0.22c0.46,0,0.91-0.04,1.37-0.12l11.51-1.99
		c2.09-0.36,3.93-1.52,5.16-3.25l21.37-30.07l-0.14-0.1l0.39-0.39C95.66,56.82,95.66,55.98,95.14,55.45z M70.87,56.4
		c3.31-0.01,5.99,2.67,6,5.98c0.01,2.89-2.06,5.38-4.9,5.9l-6.97-6.97C65.5,58.46,67.97,56.39,70.87,56.4z M49.92,58.17
		c1.66,0.64,3,1.92,3.7,3.56H42.2c-0.18,0-0.36,0.04-0.53,0.11l-0.32,0.13C42.67,58.56,46.5,56.85,49.92,58.17z M71.9,86.74
		c-0.92,1.3-2.3,2.16-3.87,2.44l-11.51,1.99c-0.81,0.14-1.63,0.11-2.43-0.08l-21.22-5.13L18.2,85.93c-0.09,0-0.17-0.01-0.25-0.03
		V68.27c0.08-0.01,0.16-0.03,0.25-0.03h15.15l0.04,0.04l9.08-3.89h17.06c1.47,0,2.67,1.19,2.67,2.67s-1.19,2.67-2.67,2.67h-12
		c-0.74,0-1.33,0.6-1.33,1.33c0,0.52,0.3,0.99,0.77,1.21l17.33,8c0.44,0.2,0.95,0.15,1.33-0.13l22.85-16.75L71.9,86.74z"/>
</g>
</svg>
