<?xml version="1.0" encoding="utf-8"?>
<!-- Generator: Adobe Illustrator 24.0.2, SVG Export Plug-In . SVG Version: 6.00 Build 0)  -->
<svg version="1.1" id="Слой_1" xmlns="http://www.w3.org/2000/svg" xmlns:xlink="http://www.w3.org/1999/xlink" x="0px" y="0px"
	 viewBox="0 0 105 105" style="enable-background:new 0 0 105 105;" xml:space="preserve">
<style type="text/css">
	.st0{fill:#FFFFFF;}
</style>
<path class="st0" d="M22.39,51.31c0,0.55,0.45,1,1,1h25.73c0.55,0,1-0.45,1-1s-0.45-1-1-1H23.39
	C22.84,50.31,22.39,50.76,22.39,51.31z M29.92,36.1c-0.55,0-1,0.45-1,1s0.45,1,1,1h28.73c0.55,0,1-0.45,1-1s-0.45-1-1-1H29.92z
	 M23.39,59.42h12.67c0.55,0,1-0.45,1-1s-0.45-1-1-1H23.39c-0.55,0-1,0.45-1,1S22.84,59.42,23.39,59.42z M74.32,73.7
	c-0.55,0-1,0.45-1,1v13.06c0,1.61-1.31,2.92-2.92,2.92H18.17c-1.61,0-2.92-1.31-2.92-2.92V17.24c0-1.61,1.31-2.92,2.92-2.92h52.24
	c1.61,0,2.92,1.31,2.92,2.92v19.52c0,0.55,0.45,1,1,1s1-0.45,1-1V17.24c0-2.71-2.21-4.92-4.92-4.92H18.17
	c-2.71,0-4.92,2.21-4.92,4.92v70.52c0,2.71,2.21,4.92,4.92,4.92h52.24c2.71,0,4.92-2.21,4.92-4.92V74.7
	C75.32,74.15,74.88,73.7,74.32,73.7z M63.57,29.99v-7.84c0-0.55-0.45-1-1-1H26.01c-0.55,0-1,0.45-1,1v7.84c0,0.55,0.45,1,1,1h36.56
	C63.12,30.99,63.57,30.55,63.57,29.99z M53.43,59.42c0.55,0,1-0.45,1-1s-0.45-1-1-1H41.68c-0.55,0-1,0.45-1,1s0.45,1,1,1H53.43z
	 M30.58,86.35c6.07,0,11-4.93,11-11c0-0.55-0.45-1-1-1s-1,0.45-1,1c0,4.96-4.04,9-9,9c-4.96,0-9-4.04-9-9
	c0-3.43,1.91-6.52,4.98-8.05s6.68-1.21,9.42,0.85c0.44,0.33,1.07,0.24,1.4-0.2c0.33-0.44,0.24-1.07-0.2-1.4
	c-3.35-2.52-7.77-2.91-11.52-1.04c-3.75,1.88-6.08,5.65-6.08,9.84C19.58,81.42,24.51,86.35,30.58,86.35z M66.49,43.21H35.15
	c-0.55,0-1,0.45-1,1s0.45,1,1,1h31.34c0.55,0,1-0.45,1-1S67.04,43.21,66.49,43.21z M90.61,35.82c-0.25-0.92-0.85-1.71-1.68-2.19
	c-0.83-0.48-1.82-0.61-2.74-0.36c-0.92,0.25-1.71,0.85-2.19,1.68L83.4,36c-0.57-0.33-1.3-0.14-1.63,0.43l-3.05,5.2l-1.05-0.6
	c-0.28-0.16-0.61-0.2-0.92-0.12c-0.31,0.08-0.57,0.29-0.73,0.57c-0.33,0.57-0.13,1.3,0.44,1.63l1.05,0.6L67.3,61.42l-2.52,6.74
	l-1.2,2.25c-0.7,1.22-0.63,2.75,0.19,3.89l-2.7,3.32l-0.76-1.9c-0.34-0.85-1.13-1.43-2.04-1.5c-0.91-0.07-1.78,0.38-2.25,1.16
	l-0.43,0.73l-0.41-4.81c-0.09-1.14-0.97-2.05-2.11-2.19c-1.13-0.14-2.21,0.54-2.57,1.62l-2.96,8.87c-0.21,0.63,0.13,1.3,0.76,1.51
	c0.12,0.05,0.24,0.09,0.37,0.1c0.52,0,0.98-0.33,1.14-0.82l2.94-8.87l0.42,4.88c0.09,1.04,0.83,1.91,1.85,2.14
	c1.02,0.24,2.07-0.21,2.61-1.11l0.44-0.73l0.75,1.89c0.32,0.8,1.03,1.36,1.88,1.49c0.85,0.13,1.7-0.21,2.23-0.88l2.8-3.55
	c0.31,0.08,0.63,0.12,0.95,0.12c1.29,0.01,2.48-0.67,3.14-1.78l1.2-2.01l4.58-5.56l10.32-17.92l1.05,0.6
	c0.28,0.16,0.48,0.42,0.56,0.73c0.08,0.31,0.04,0.64-0.12,0.91l-4.81,8.33c-0.18,0.27-0.24,0.61-0.17,0.93
	c0.07,0.32,0.27,0.6,0.55,0.76c0.28,0.16,0.61,0.2,0.92,0.12c0.31-0.08,0.57-0.29,0.73-0.57l4.81-8.33
	c0.48-0.83,0.61-1.82,0.36-2.74c-0.25-0.92-0.85-1.71-1.68-2.19l-1.05-0.6l3-5.2c0.33-0.57,0.13-1.3-0.43-1.63l0.6-1.05
	C90.75,37.77,90.88,36.76,90.61,35.82z M67.83,72.81c-0.17,0.29-0.45,0.5-0.78,0.57c-0.33,0.07-0.67,0-0.95-0.19
	c-0.51-0.35-0.66-1.03-0.36-1.57l0.6-1.05l2.09,1.2L67.83,72.81z M69.7,69.72l-0.6-0.35l-1.78-1.03l1.71-4.57l3.79,2.19L69.7,69.72z
	 M85,45.25l-4.16-2.4l2.4-4.16l4.16,2.4L85,45.25z M88.18,37.36l-0.6,1.05l-2.09-1.2l0.6-1.05c0.16-0.28,0.42-0.48,0.73-0.56
	c0.31-0.08,0.63-0.03,0.91,0.12c0.28,0.16,0.48,0.42,0.57,0.73C88.37,36.76,88.33,37.08,88.18,37.36z M34.58,73.03l-3.96,4.62
	c-0.23,0.27-0.52,0.41-0.83,0.41c0,0-0.01,0-0.01,0c-0.3,0-0.59-0.15-0.82-0.41l-2.38-2.77c-0.36-0.42-0.99-0.47-1.41-0.11
	c-0.42,0.36-0.47,0.99-0.11,1.41l2.38,2.77c0.61,0.7,1.46,1.1,2.33,1.1c0.01,0,0.01,0,0.02,0c0.88,0,1.73-0.4,2.34-1.11l3.96-4.62
	c0.36-0.42,0.31-1.05-0.11-1.41C35.57,72.56,34.94,72.61,34.58,73.03z M66.49,52.31c0.55,0,1-0.45,1-1s-0.45-1-1-1H54.74
	c-0.55,0-1,0.45-1,1s0.45,1,1,1H66.49z"/>
</svg>
