<?xml version="1.0" encoding="utf-8"?>
<!-- Generator: Adobe Illustrator 24.0.2, SVG Export Plug-In . SVG Version: 6.00 Build 0)  -->
<svg version="1.1" id="Слой_1" xmlns="http://www.w3.org/2000/svg" xmlns:xlink="http://www.w3.org/1999/xlink" x="0px" y="0px"
	 viewBox="0 0 105 105" style="enable-background:new 0 0 105 105;" xml:space="preserve">
<style type="text/css">
	.st0{fill:#FFFFFF;}
</style>
<g id="Out_line">
	<path class="st0" d="M92.86,51.9L72.09,31.12l16.7-16.7l-1.92-1.92L69.2,30.16c-0.53,0.53-0.53,1.39,0,1.92c0,0,0,0,0,0l0.4,0.4
		l-5.44,5.44h-6.13c-1.87,0-3.73,0.21-5.55,0.63c-1.81-0.42-3.65-0.63-5.51-0.63h-6.13l-5.44-5.44l0.4-0.4
		c0.53-0.53,0.53-1.39,0-1.92c0,0,0,0,0,0L18.13,12.5l-1.92,1.92l16.7,16.7L12.14,51.9c-0.53,0.53-0.53,1.39,0,1.92c0,0,0,0,0,0
		l4.08,4.08c0.53,0.53,1.39,0.53,1.92,0c0,0,0,0,0,0l3.12-3.12l2.55,2.55c0.98,0.97,1.53,2.3,1.52,3.68
		c-0.01,2.1,0.83,4.12,2.32,5.6l1.2,1.2c-1.44,1.61-1.37,4.06,0.16,5.59L30.6,75c0.71,0.71,1.66,1.13,2.66,1.18
		c0.05,1,0.47,1.95,1.18,2.66l1.59,1.59c0.71,0.71,1.66,1.13,2.66,1.18c0.05,1,0.47,1.95,1.18,2.66l1.59,1.59
		c0.71,0.71,1.66,1.13,2.66,1.18c0.05,1,0.47,1.95,1.18,2.66l1.59,1.59c1.53,1.53,3.99,1.6,5.6,0.15c1.61,1.45,4.07,1.38,5.6-0.15
		l1.59-1.59c0.71-0.71,1.13-1.66,1.19-2.66c1-0.05,1.95-0.48,2.66-1.19l1.59-1.59c0.71-0.71,1.13-1.66,1.19-2.66
		c1-0.05,1.95-0.48,2.66-1.19l1.59-1.59c0.71-0.71,1.13-1.66,1.19-2.66c1-0.05,1.95-0.48,2.66-1.19L76,73.41
		c1.52-1.53,1.59-3.98,0.16-5.59l1.2-1.2c1.49-1.48,2.33-3.5,2.32-5.6c0-1.38,0.54-2.7,1.52-3.68l2.55-2.55l3.12,3.12
		c0.53,0.53,1.39,0.53,1.92,0c0,0,0,0,0,0l4.08-4.08C93.4,53.3,93.4,52.43,92.86,51.9C92.86,51.9,92.86,51.9,92.86,51.9z
		 M30.92,71.49c-0.53-0.53-0.53-1.39,0-1.92l5.67-5.67c0.53-0.53,1.39-0.53,1.92,0l1.59,1.59c0.53,0.53,0.53,1.39,0,1.92l-5.67,5.67
		c-0.53,0.53-1.39,0.53-1.92,0L30.92,71.49z M36.36,76.92c-0.53-0.53-0.53-1.39,0-1.92l7.03-7.03c0.53-0.53,1.39-0.53,1.92,0
		l1.59,1.59c0.53,0.53,0.53,1.39,0,1.92l-7.03,7.03c-0.53,0.53-1.39,0.53-1.92,0L36.36,76.92z M41.79,82.36
		c-0.53-0.53-0.53-1.39,0-1.92l5.67-5.67c0.53-0.53,1.39-0.53,1.92,0l1.59,1.59c0.53,0.53,0.53,1.39,0,1.92l-5.67,5.67
		c-0.53,0.53-1.39,0.53-1.92,0L41.79,82.36z M48.82,89.39l-1.59-1.59c-0.53-0.53-0.53-1.39,0-1.92l5.67-5.67
		c0.53-0.53,1.39-0.53,1.92,0l1.59,1.59c0.53,0.53,0.53,1.39,0,1.92l-5.67,5.67C50.21,89.92,49.35,89.92,48.82,89.39L48.82,89.39z
		 M57.77,87.79l-1.59,1.59c-0.47,0.47-1.2,0.53-1.74,0.15l3.48-3.48C58.3,86.59,58.24,87.33,57.77,87.79L57.77,87.79z M74.08,71.49
		l-1.59,1.59c-0.53,0.53-1.39,0.53-1.92,0l-0.8-0.8l-9.51-9.51l-1.92,1.92l9.51,9.51l0.8,0.8c0.53,0.53,0.53,1.39,0,1.92l-1.59,1.59
		c-0.53,0.53-1.39,0.53-1.92,0l-0.8-0.8l-9.51-9.51l-1.92,1.92l9.51,9.51l0.8,0.8c0.53,0.53,0.53,1.39,0,1.92l-1.59,1.59
		c-0.53,0.53-1.39,0.53-1.92,0l-0.28-0.28c0.32-1.37-0.09-2.81-1.08-3.8l-1.59-1.59c-0.71-0.71-1.66-1.13-2.66-1.18
		c-0.05-1-0.47-1.95-1.18-2.66l-1.59-1.59c-0.43-0.43-0.95-0.76-1.53-0.96c0.53-1.48,0.15-3.13-0.95-4.24l-1.59-1.59
		c-1.11-1.11-2.76-1.48-4.24-0.95c-0.2-0.58-0.53-1.1-0.96-1.53l-1.59-1.59c-1.59-1.59-4.17-1.59-5.76,0l-3.91,3.91l-1.19-1.19
		c-0.98-0.97-1.53-2.3-1.52-3.68c0.01-2.1-0.83-4.12-2.32-5.6l-2.55-2.55l14.38-14.38l1.76,1.76c0.25,0.25,0.6,0.4,0.96,0.4h6.51
		c-2.26,1.17-4.32,2.68-6.11,4.47c-2.03,2.03-2.03,5.33,0,7.36c2.03,2.03,5.32,2.03,7.35,0l4.47-4.47l20.78,20.78l0.8,0.8
		C74.61,70.1,74.61,70.96,74.08,71.49L74.08,71.49z M79.28,55.42c-1.49,1.48-2.33,3.5-2.32,5.6c0,1.38-0.54,2.7-1.52,3.68
		l-1.19,1.19L53.46,45.11c-0.53-0.53-1.39-0.53-1.92,0l-5.44,5.44c-0.97,0.97-2.54,0.97-3.51,0c-0.97-0.97-0.97-2.54,0-3.51
		c4.09-4.11,9.65-6.41,15.44-6.4h6.7c0.36,0,0.71-0.14,0.96-0.4l1.76-1.76l14.38,14.38L79.28,55.42z"/>
</g>
</svg>
