<?xml version="1.0" encoding="utf-8"?>
<!-- Generator: Adobe Illustrator 24.0.2, SVG Export Plug-In . SVG Version: 6.00 Build 0)  -->
<svg version="1.1" id="Слой_1" xmlns="http://www.w3.org/2000/svg" xmlns:xlink="http://www.w3.org/1999/xlink" x="0px" y="0px"
	 viewBox="0 0 134 134" style="enable-background:new 0 0 134 134;" xml:space="preserve">
<style type="text/css">
	.st0{fill:#FFBE3C;}
</style>
<g>
	<path class="st0" d="M15,119c0,3.59,2.91,6.5,6.5,6.5c3.59,0,6.5-2.91,6.5-6.5c0-3.59-2.91-6.5-6.5-6.5
		C17.91,112.5,15,115.41,15,119z M23.67,119c0,1.2-0.97,2.17-2.17,2.17c-1.2,0-2.17-0.97-2.17-2.17c0-1.2,0.97-2.17,2.17-2.17
		C22.7,116.83,23.67,117.8,23.67,119z"/>
	<path class="st0" d="M36.67,112.5c-3.59,0-6.5,2.91-6.5,6.5c0,3.59,2.91,6.5,6.5,6.5c3.59,0,6.5-2.91,6.5-6.5
		C43.17,115.41,40.26,112.5,36.67,112.5z M36.67,121.17c-1.2,0-2.17-0.97-2.17-2.17c0-1.2,0.97-2.17,2.17-2.17
		c1.2,0,2.17,0.97,2.17,2.17C38.83,120.2,37.86,121.17,36.67,121.17z"/>
	<path class="st0" d="M51.83,125.5c3.59,0,6.5-2.91,6.5-6.5c0-3.59-2.91-6.5-6.5-6.5c-3.59,0-6.5,2.91-6.5,6.5
		C45.33,122.59,48.24,125.5,51.83,125.5z M51.83,116.83c1.2,0,2.17,0.97,2.17,2.17c0,1.2-0.97,2.17-2.17,2.17s-2.17-0.97-2.17-2.17
		C49.67,117.8,50.64,116.83,51.83,116.83z"/>
	<path class="st0" d="M73.5,119c0-3.59-2.91-6.5-6.5-6.5c-3.59,0-6.5,2.91-6.5,6.5c0,3.59,2.91,6.5,6.5,6.5
		C70.59,125.5,73.5,122.59,73.5,119z M64.83,119c0-1.2,0.97-2.17,2.17-2.17s2.17,0.97,2.17,2.17c0,1.2-0.97,2.17-2.17,2.17
		S64.83,120.2,64.83,119z"/>
	<path class="st0" d="M88.67,119c0-3.59-2.91-6.5-6.5-6.5c-3.59,0-6.5,2.91-6.5,6.5c0,3.59,2.91,6.5,6.5,6.5
		C85.76,125.5,88.67,122.59,88.67,119z M80,119c0-1.2,0.97-2.17,2.17-2.17s2.17,0.97,2.17,2.17c0,1.2-0.97,2.17-2.17,2.17
		S80,120.2,80,119z"/>
	<path class="st0" d="M103.83,119c0-3.59-2.91-6.5-6.5-6.5c-3.59,0-6.5,2.91-6.5,6.5c0,3.59,2.91,6.5,6.5,6.5
		C100.92,125.5,103.83,122.59,103.83,119z M95.17,119c0-1.2,0.97-2.17,2.17-2.17c1.2,0,2.17,0.97,2.17,2.17
		c0,1.2-0.97,2.17-2.17,2.17C96.14,121.17,95.17,120.2,95.17,119z"/>
	<path class="st0" d="M119,119c0-3.59-2.91-6.5-6.5-6.5c-3.59,0-6.5,2.91-6.5,6.5c0,3.59,2.91,6.5,6.5,6.5
		C116.09,125.5,119,122.59,119,119z M110.33,119c0-1.2,0.97-2.17,2.17-2.17c1.2,0,2.17,0.97,2.17,2.17c0,1.2-0.97,2.17-2.17,2.17
		C111.3,121.17,110.33,120.2,110.33,119z"/>
	<path class="st0" d="M38.83,127.67c-0.57,0.01-1.12,0.23-1.54,0.63l-0.26,0.33c-0.08,0.12-0.15,0.25-0.2,0.39
		c-0.06,0.12-0.11,0.25-0.13,0.39c-0.02,0.14-0.04,0.29-0.04,0.43c0.01,0.57,0.23,1.12,0.63,1.54c0.21,0.2,0.45,0.35,0.71,0.45
		c0.81,0.33,1.73,0.15,2.36-0.45c0.2-0.21,0.35-0.45,0.46-0.72c0.11-0.26,0.17-0.54,0.17-0.82c0.01-0.58-0.22-1.13-0.63-1.54
		C39.96,127.89,39.41,127.66,38.83,127.67z"/>
	<path class="st0" d="M112.5,106h-2.17v-2.65V84.81V80c0-2.8-1.95-6.16-3.69-9.12c-0.58-0.99-1.12-1.9-1.46-2.64
		c-1.02-3.2-1.47-6.55-1.35-9.9c-0.07-0.74,0.17-1.48,0.67-2.04c1.04-1.3,1.57-2.93,1.5-4.59c0-3.49-2.83-6.32-6.33-6.33h-4.68
		c-3.49,0-6.32,2.83-6.33,6.33c-0.07,1.66,0.46,3.29,1.5,4.59c0.49,0.56,0.74,1.29,0.67,2.04c0.12,3.35-0.33,6.7-1.35,9.9
		c-0.35,0.74-0.89,1.65-1.47,2.64c-1.73,2.97-3.68,6.33-3.68,9.12v4.81v18.54V106H80v-2.65V84.81V80c0-2.8-1.95-6.16-3.69-9.12
		c-0.58-0.99-1.11-1.9-1.46-2.64c-1.02-3.2-1.47-6.55-1.35-9.9c-0.07-0.74,0.17-1.48,0.67-2.04c1.04-1.3,1.57-2.93,1.5-4.59
		c0-3.49-2.83-6.32-6.33-6.33h-0.17v-2.21c0-1.2-0.97-2.17-2.17-2.17s-2.17,0.97-2.17,2.17v2.21h-0.17c-3.49,0-6.32,2.83-6.33,6.33
		c-0.07,1.66,0.46,3.29,1.5,4.59c0.49,0.56,0.74,1.29,0.67,2.04c0.12,3.35-0.33,6.7-1.35,9.9c-0.35,0.74-0.89,1.65-1.47,2.64
		C55.95,73.84,54,77.2,54,80v4.81v18.54V106h-4.33v-1.47V84.96V80c0-2.8-1.95-6.16-3.69-9.12c-0.58-0.99-1.12-1.9-1.47-2.64
		c-1.02-3.2-1.47-6.55-1.35-9.9c-0.07-0.74,0.17-1.48,0.67-2.04c1.04-1.3,1.57-2.93,1.5-4.59c0-3.49-2.83-6.32-6.33-6.33h-4.68
		c-3.49,0-6.32,2.83-6.33,6.33c-0.07,1.66,0.46,3.29,1.5,4.59c0.49,0.56,0.74,1.29,0.67,2.04c0.12,3.35-0.33,6.7-1.35,9.9
		c-0.35,0.74-0.89,1.65-1.47,2.64c-1.73,2.97-3.68,6.33-3.68,9.12v4.96v19.57V106H21.5c-7.18,0-13,5.82-13,13c0,7.18,5.82,13,13,13
		h8.67c1.2,0,2.17-0.97,2.17-2.17c0-1.2-0.97-2.17-2.17-2.17H21.5c-4.79,0-8.67-3.88-8.67-8.67c0-4.79,3.88-8.67,8.67-8.67h4.33
		H47.5h8.67h21.67h8.67h21.67h4.33c4.79,0,8.67,3.88,8.67,8.67c0,4.79-3.88,8.67-8.67,8.67h-65c-1.2,0-2.17,0.97-2.17,2.17
		c0,1.2,0.97,2.17,2.17,2.17h65c7.18,0,13-5.82,13-13C125.5,111.82,119.68,106,112.5,106z M91.76,73.06
		c0.65-1.11,1.24-2.13,1.64-2.96c1.3-3.78,1.9-7.77,1.77-11.77c0.07-1.66-0.46-3.29-1.5-4.59c-0.49-0.56-0.74-1.29-0.67-2.04
		c0-1.1,0.89-1.99,1.99-1.99h4.68c1.1,0,1.99,0.89,1.99,1.99c0.07,0.74-0.17,1.48-0.67,2.04c-1.04,1.3-1.57,2.93-1.5,4.59
		c-0.13,4,0.47,7.99,1.77,11.77c0.39,0.83,0.98,1.85,1.63,2.96c1.45,2.1,2.5,4.45,3.1,6.93v2.17H88.67V80
		C89.26,77.52,90.31,75.16,91.76,73.06z M61.43,73.06c0.65-1.11,1.24-2.13,1.64-2.96c1.3-3.78,1.9-7.77,1.77-11.77
		c0.07-1.66-0.46-3.29-1.5-4.59c-0.49-0.56-0.74-1.29-0.67-2.04c0-1.1,0.89-1.99,1.99-1.99h4.68c1.1,0,1.99,0.89,1.99,1.99
		c0.07,0.74-0.17,1.48-0.67,2.04c-1.04,1.3-1.57,2.93-1.5,4.59c-0.13,4,0.47,7.99,1.77,11.77c0.39,0.83,0.98,1.85,1.63,2.96
		c1.45,2.1,2.5,4.45,3.1,6.93v2.17H58.33V80C58.93,77.52,59.98,75.16,61.43,73.06z M31.1,73.06c0.65-1.11,1.24-2.13,1.64-2.96
		c1.3-3.78,1.9-7.77,1.77-11.77c0.07-1.66-0.46-3.29-1.5-4.59c-0.49-0.56-0.74-1.29-0.67-2.04c0-1.1,0.89-1.99,1.99-1.99h4.68
		c1.1,0,1.99,0.89,1.99,1.99c0.07,0.74-0.17,1.48-0.67,2.04c-1.04,1.3-1.57,2.93-1.5,4.59c-0.13,4,0.47,7.99,1.77,11.77
		c0.39,0.83,0.98,1.85,1.63,2.96c1.45,2.1,2.5,4.45,3.1,6.93v2.17H28V80C28.6,77.52,29.65,75.16,31.1,73.06z"/>
	<path class="st0" d="M64.83,30.17v4.33c0,1.2,0.97,2.17,2.17,2.17s2.17-0.97,2.17-2.17v-4.33c0-1.2-0.97-2.17-2.17-2.17
		S64.83,28.97,64.83,30.17z"/>
	<path class="st0" d="M38.83,19.33h11.12c0.96,3.74,4.35,6.5,8.38,6.5V28c0,1.2,0.97,2.17,2.17,2.17s2.17-0.97,2.17-2.17v-2.17h8.67
		V28c0,1.2,0.97,2.17,2.17,2.17s2.17-0.97,2.17-2.17v-2.17c4.04,0,7.42-2.76,8.38-6.5h11.12c4.79,0,8.67-3.88,8.67-8.67v-6.5
		c0-1.2-0.97-2.17-2.17-2.17H93c-1.2,0-2.17,0.97-2.17,2.17v2.17h-7.67C81.67,3.75,78.87,2,75.67,2H58.33c-3.21,0-6,1.75-7.5,4.33
		h-7.67V4.17C43.17,2.97,42.2,2,41,2h-8.67c-1.2,0-2.17,0.97-2.17,2.17v6.5C30.17,15.45,34.05,19.33,38.83,19.33z M84.33,10.67H93
		c1.2,0,2.17-0.97,2.17-2.17V6.33h4.33v4.33c0,2.39-1.94,4.33-4.33,4.33H84.33V10.67L84.33,10.67z M34.5,6.33h4.33V8.5
		c0,1.2,0.97,2.17,2.17,2.17h8.67l0,0V15H38.83c-2.39,0-4.33-1.94-4.33-4.33V6.33z"/>
</g>
</svg>
