<?xml version="1.0" encoding="utf-8"?>
<!-- Generator: Adobe Illustrator 24.0.2, SVG Export Plug-In . SVG Version: 6.00 Build 0)  -->
<svg version="1.1" id="Слой_1" xmlns="http://www.w3.org/2000/svg" xmlns:xlink="http://www.w3.org/1999/xlink" x="0px" y="0px"
	 viewBox="0 0 134 134" style="enable-background:new 0 0 134 134;" xml:space="preserve">
<style type="text/css">
	.st0{fill:#FFBE3C;}
</style>
<g>
	<path class="st0" d="M42.86,64.88L42.86,64.88c0.96,0.68,2.29,0.45,2.95-0.51c0.18-0.26,0.35-0.51,0.52-0.77
		c0.66-0.97,0.38-2.29-0.6-2.94l0,0c-0.97-0.64-2.26-0.37-2.91,0.59c-0.16,0.24-0.32,0.47-0.48,0.71
		C41.69,62.91,41.92,64.21,42.86,64.88z"/>
	<path class="st0" d="M54.95,39.62c-2.51,5.52-5.37,10.91-8.52,16.05c-0.6,0.99-0.32,2.27,0.66,2.89h0
		c0.99,0.63,2.31,0.33,2.92-0.67c3.24-5.29,6.19-10.84,8.77-16.52l0.5-1.1c0.48-1.06,0.01-2.31-1.05-2.79h0
		c-1.06-0.48-2.31-0.01-2.79,1.05L54.95,39.62z"/>
	<path class="st0" d="M88.05,72.72L88.05,72.72c0.95-0.43,1.37-1.55,0.94-2.5l-0.19-0.41c-0.43-0.95-1.55-1.37-2.49-0.93l0,0
		c-0.14,0.07-0.29,0.13-0.43,0.2c-0.95,0.43-1.35,1.57-0.91,2.52L85.17,72c0.44,0.93,1.55,1.33,2.49,0.9
		C87.79,72.84,87.92,72.78,88.05,72.72z"/>
	<path class="st0" d="M93.56,65.52l0.41-0.19c0.95-0.43,2.06-0.01,2.49,0.93l0.19,0.41c0.43,0.95,0.01,2.06-0.93,2.49l-0.41,0.19
		c-0.95,0.43-2.06,0.01-2.49-0.93l-0.19-0.41C92.19,67.07,92.61,65.95,93.56,65.52z"/>
	<path class="st0" d="M81.39,73.85l-0.2-0.4c-0.47-0.93-1.62-1.31-2.54-0.82c-0.14,0.08-0.29,0.15-0.43,0.23
		c-0.92,0.49-1.26,1.64-0.76,2.56l0.22,0.4c0.49,0.91,1.63,1.24,2.54,0.76c0.12-0.07,0.25-0.13,0.37-0.19
		C81.49,75.9,81.85,74.78,81.39,73.85z"/>
	<path class="st0" d="M30.59,107.07c-5.51,0-9.99-4.48-9.99-9.99c0-2,0.6-3.94,1.73-5.61c0.01-0.01,0.01-0.03-0.01-0.04l-3.44-2.34
		c-0.01-0.01-0.03-0.01-0.04,0.01c-2.59,3.82-3.22,8.66-1.48,13.27c2.12,5.6,7.77,9.15,13.76,8.91c0.03,0,0.06,0,0.09,0
		c0.02,0,0.03-0.01,0.03-0.03l-0.19-4.19L30.59,107.07z"/>
	<path class="st0" d="M123.69,61.65l-20-20l5.11-6.58c1.82-2.34,1.62-5.68-0.48-7.78l-7.94-7.94c-2.1-2.1-5.43-2.31-7.78-0.48
		l-6.58,5.11L66.19,4.16c-1.3-1.3-2.96-2.22-4.78-2.46c-5.31-0.71-9.81,3.79-9.1,9.1c0.24,1.82,1.17,3.48,2.46,4.78l1.27,1.27
		l-8.77,19.28c-7.61,16.73-18.29,31.56-31.76,44.05c-4.2,3.9-6.98,9.17-7.48,14.87c-1.17,13.4,9.4,24.67,22.56,24.67
		c5.55,0,10.92-2.07,15.04-5.73l15.38,15.38c1.61,1.61,3.7,2.72,5.97,2.96c6.06,0.62,11.13-4.46,10.51-10.51
		c-0.23-2.27-1.34-4.36-2.96-5.97l-4.56-4.56l2.36-2.36c1.75-1.75,2.92-4.04,3.08-6.5c0.18-2.84-0.84-5.53-2.84-7.52l-2.38-2.38
		c6.71-4.64,13.82-8.71,21.34-12.13l19.28-8.77l1.25,1.25c1.39,1.39,3.2,2.34,5.16,2.52c4.78,0.43,8.81-3.35,8.81-8.04
		C126.05,65.21,125.21,63.18,123.69,61.65L123.69,61.65z M98.57,23.52l5.59,5.59c1.27,1.27,1.39,3.28,0.29,4.69l-3.77,4.85
		L89.03,26.99l4.85-3.77C95.29,22.13,97.3,22.25,98.57,23.52z M30.59,115.51c-10.16,0-18.43-8.27-18.43-18.43
		c0-5.13,2.16-10.06,5.93-13.54c0.96-0.89,1.87-1.81,2.8-2.72l25.95,25.95c-0.91,0.93-1.83,1.84-2.72,2.8
		C40.65,113.35,35.72,115.51,30.59,115.51z M69.6,97.89c1.05,1.05,1.62,2.43,1.62,3.91s-0.57,2.86-1.62,3.91l-2.6,2.6l-7.54-7.54
		c2.36-2,4.77-3.93,7.25-5.76L69.6,97.89z M89.8,76.56c-10.31,4.68-19.89,10.53-28.7,17.41L33.7,66.57
		c6.89-8.81,12.73-18.39,17.41-28.7l8.11-17.84l48.42,48.42L89.8,76.56z"/>
</g>
</svg>
