<?xml version="1.0" encoding="utf-8"?>
<!-- Generator: Adobe Illustrator 24.1.2, SVG Export Plug-In . SVG Version: 6.00 Build 0)  -->
<svg version="1.1" id="Слой_1" xmlns="http://www.w3.org/2000/svg" xmlns:xlink="http://www.w3.org/1999/xlink" x="0px" y="0px"
	 viewBox="0 0 200 200" style="enable-background:new 0 0 200 200;" xml:space="preserve">
<style type="text/css">
	.st0{fill:#FFBE3C;}
	.st1{fill:none;stroke:#FFBE3C;stroke-width:2;stroke-miterlimit:10;}
</style>
<g>
	<path class="st0" d="M154.1,129.5c-9.3,0-16.9,7.6-16.9,16.9c0,9.3,7.6,16.9,16.9,16.9c9.3,0,16.9-7.6,16.9-16.9
		C171,137.1,163.4,129.5,154.1,129.5z"/>
	<path class="st0" d="M143.5,190.3l-3.5-5.7c-0.8-1.4-2.4-2.1-4-1.9l-5.9,0.9l7.7-16.4c2.5,2.5,6,3.9,9.6,3.5
		c1.3-0.1,2.5,0.2,3.5,0.9c0.3,0.2,0.7,0.4,1,0.6L143.5,190.3z"/>
	<path class="st1" d="M155.1,173.3C155.1,173.3,155.1,173.3,155.1,173.3c-0.5,0.1-1,0.1-1.5,0c0,0,0,0,0,0c-0.8-0.1-1.5-0.4-2.1-0.9
		c-1.9-1.4-4.2-2.1-6.6-2.1c-0.4,0-0.7,0-1.1,0.1c-2.1,0.2-4.1-1-5-2.9c-0.4-0.9-0.9-1.6-1.5-2.4c0,0-0.1-0.1-0.1-0.1
		c0,0-0.1-0.1-0.1-0.1c0,0-0.1-0.1-0.1-0.1c-1.1-1.2-2.4-2.2-3.8-2.9c-1.9-0.9-3.1-2.9-2.9-5c0.3-2.7-0.5-5.4-2.1-7.6
		c-1.2-1.7-1.2-4,0-5.8c1.6-2.2,2.3-4.9,2.1-7.6c-0.2-2.1,1-4.1,2.9-5c2.5-1.1,4.5-3.1,5.6-5.6c0.9-1.9,2.9-3.1,5-2.9
		c2.7,0.3,5.4-0.5,7.6-2.1c1.7-1.2,4-1.2,5.8,0c2.2,1.6,4.9,2.3,7.6,2.1c2.1-0.2,4.1,1,5,2.9c1.1,2.5,3.1,4.5,5.6,5.6
		c1.9,0.9,3.1,2.9,2.9,5c-0.3,2.7,0.5,5.4,2.1,7.6c1.2,1.7,1.2,4,0,5.8c-1.6,2.2-2.3,4.9-2.1,7.6c0.2,2.1-1,4.1-2.9,5
		c-1.5,0.7-2.8,1.7-3.8,2.9c0,0-0.1,0.1-0.1,0.1c0,0-0.1,0.1-0.1,0.1c0,0-0.1,0.1-0.1,0.1c-0.6,0.7-1.1,1.5-1.5,2.4
		c-0.9,1.9-2.9,3.1-5,2.9c-2.7-0.3-5.4,0.5-7.6,2.1C156.6,172.9,155.9,173.1,155.1,173.3z"/>
	<path class="st0" d="M173,182.7c-1.6-0.3-3.2,0.5-4,1.9l-3.5,5.7l-8.7-18c0.4-0.2,0.7-0.4,1-0.6c1-0.7,2.3-1.1,3.5-0.9
		c3.6,0.3,7.1-1,9.6-3.5l8,16.4L173,182.7z"/>
</g>
<path class="st1" d="M155.1,173.3C155.1,173.3,155.1,173.3,155.1,173.3c-0.5,0.1-1,0.1-1.5,0c0,0,0,0,0,0c-0.8-0.1-1.5-0.4-2.1-0.9
	c-1.9-1.4-4.2-2.1-6.6-2.1c-0.4,0-0.7,0-1.1,0.1c-2.1,0.2-4.1-1-5-2.9c-0.4-0.9-0.9-1.6-1.5-2.4c0,0-0.1-0.1-0.1-0.1
	c0,0-0.1-0.1-0.1-0.1c0,0-0.1-0.1-0.1-0.1c-1.1-1.2-2.4-2.2-3.8-2.9c-1.9-0.9-3.1-2.9-2.9-5c0.3-2.7-0.5-5.4-2.1-7.6
	c-1.2-1.7-1.2-4,0-5.8c1.6-2.2,2.3-4.9,2.1-7.6c-0.2-2.1,1-4.1,2.9-5c2.5-1.1,4.5-3.1,5.6-5.6c0.9-1.9,2.9-3.1,5-2.9
	c2.7,0.3,5.4-0.5,7.6-2.1c1.7-1.2,4-1.2,5.8,0c2.2,1.6,4.9,2.3,7.6,2.1c2.1-0.2,4.1,1,5,2.9c1.1,2.5,3.1,4.5,5.6,5.6
	c1.9,0.9,3.1,2.9,2.9,5c-0.3,2.7,0.5,5.4,2.1,7.6c1.2,1.7,1.2,4,0,5.8c-1.6,2.2-2.3,4.9-2.1,7.6c0.2,2.1-1,4.1-2.9,5
	c-1.5,0.7-2.8,1.7-3.8,2.9c0,0-0.1,0.1-0.1,0.1c0,0-0.1,0.1-0.1,0.1c0,0-0.1,0.1-0.1,0.1c-0.6,0.7-1.1,1.5-1.5,2.4
	c-0.9,1.9-2.9,3.1-5,2.9c-2.7-0.3-5.4,0.5-7.6,2.1C156.6,172.9,155.9,173.1,155.1,173.3z"/>
<path class="st1" d="M181.1,147.7h0.6h8.6c4.4,0,8-3.6,8-8V17.7c0-4.4-3.6-8-8-8H9.7c-4.4,0-8,3.6-8,8v121.9c0,4.4,3.6,8,8,8h117.9"
	/>
<path class="st1" d="M171.2,127.4c1.3-4.4,5.3-7.7,10-7.9c1.9-0.1,3.4-1.6,3.4-3.6V41.4c0-1.9-1.5-3.5-3.4-3.5
	c-5.6-0.3-10.1-4.8-10.4-10.4c-0.1-1.9-1.6-3.4-3.6-3.4H32.8c-1.9,0-3.5,1.5-3.5,3.4c-0.3,5.6-4.8,10.1-10.4,10.4
	c-1.9,0.1-3.4,1.6-3.4,3.5V116c0,1.9,1.5,3.5,3.4,3.6c5.6,0.3,10.1,4.8,10.4,10.4c0.1,1.9,1.6,3.4,3.5,3.4h98"/>
<g>
	<path d="M54.9,69.9c-1.3,0.5-2.3,0.6-3.6,0.6c-4.7,0-7.5-3.4-7.5-8.9c0-5.4,2.9-8.8,7.5-8.8c1.4,0,2.3,0.1,3.6,0.6l1.1,0.4
		c0.1,0,0.2,0.2,0.2,0.3L55.5,56c0,0.1-0.2,0.2-0.3,0.2L54,55.8c-0.9-0.3-1.6-0.4-2.8-0.4c-3,0-4.7,2.3-4.7,6.3c0,4,1.7,6.3,4.7,6.3
		c1.1,0,1.8-0.1,2.8-0.4l1.1-0.4c0.1,0,0.3,0,0.3,0.2l0.7,1.8c0.1,0.2,0,0.3-0.2,0.3L54.9,69.9z"/>
	<path d="M66.5,70.2c-0.9,0.2-1.7,0.3-2.5,0.3c-3.7,0-5.8-2.4-5.8-6.2c0-3.8,2.1-6.2,5.7-6.2c3,0,4.7,1.5,4.7,3.9
		c0,1.9-1.2,3-3.6,3.3l-3.9,0.6c0.3,1.3,1.3,2.1,2.8,2.1c0.7,0,1.4-0.1,1.9-0.2l1.1-0.3c0.2,0,0.3,0,0.3,0.2l0.5,1.8
		c0,0.2,0,0.3-0.2,0.3L66.5,70.2z M64.6,63.2c0.9-0.1,1.3-0.5,1.3-1.2c0-1-0.8-1.5-2.1-1.5c-1.6,0-2.7,1-2.9,3.3L64.6,63.2z"/>
	<path d="M78.2,60.3c0,0.2-0.1,0.3-0.3,0.3c-2.7,0.1-3.9,2-3.9,6.5V70c0,0.2-0.1,0.3-0.3,0.3h-2.2c-0.2,0-0.3-0.1-0.3-0.3V58.6
		c0-0.2,0.1-0.3,0.3-0.3h1.2c0.2,0,0.3,0.1,0.3,0.2l0.4,1.4c0.1,0.3,0.3,0.3,0.5,0.1c1-1.3,2.1-1.9,3.9-1.9c0.2,0,0.3,0.1,0.3,0.3
		V60.3z"/>
	<path d="M87.4,58.3c0.2,0,0.3,0.1,0.3,0.3v1.9c0,0.2-0.1,0.3-0.3,0.3h-2.8v6c0,0.8,0.4,1.3,1,1.3c0.2,0,0.4,0,0.6-0.1
		c0.2-0.1,0.3,0,0.4,0.1l0.8,1.7c0.1,0.1,0,0.3-0.1,0.4c-0.4,0.2-1.1,0.4-1.7,0.4c-2.3,0-3.7-1.4-3.7-3.8v-6h-1.2
		c-0.2,0-0.3-0.1-0.3-0.3v-1.9c0-0.2,0.1-0.3,0.3-0.3h1.2v-2.8c0-0.1,0.1-0.2,0.2-0.3l2.2-0.7c0.2,0,0.3,0,0.3,0.2v3.6H87.4z"/>
	<path d="M93.9,70c0,0.2-0.1,0.3-0.3,0.3h-2.2c-0.2,0-0.3-0.1-0.3-0.3v-9.2H90c-0.2,0-0.3-0.1-0.3-0.3v-1.9c0-0.2,0.1-0.3,0.3-0.3
		h3.7c0.2,0,0.3,0.1,0.3,0.3V70z M93.9,54.1c0,1.1-0.6,1.7-1.6,1.7s-1.6-0.6-1.6-1.7c0-1,0.6-1.6,1.6-1.6S93.9,53,93.9,54.1z"/>
	<path d="M98.1,56.6c0-2.7,1.5-4.3,4.2-4.3c0.4,0,0.9,0.1,1.4,0.2l0.2,0c0.2,0,0.2,0.2,0.2,0.3l-0.6,1.8c0,0.2-0.2,0.2-0.3,0.2
		l-0.1,0c-0.2-0.1-0.5-0.1-0.8-0.1c-0.9,0-1.4,0.7-1.4,1.8v1.7h2.8c0.2,0,0.3,0.1,0.3,0.3v1.9c0,0.2-0.1,0.3-0.3,0.3h-2.8V70
		c0,0.2-0.1,0.3-0.3,0.3h-2.2c-0.2,0-0.3-0.1-0.3-0.3v-9.2h-1.2c-0.2,0-0.3-0.1-0.3-0.3v-1.9c0-0.2,0.1-0.3,0.3-0.3h1.2V56.6z"/>
	<path d="M109.9,70c0,0.2-0.1,0.3-0.3,0.3h-2.2c-0.2,0-0.3-0.1-0.3-0.3v-9.2H106c-0.2,0-0.3-0.1-0.3-0.3v-1.9c0-0.2,0.1-0.3,0.3-0.3
		h3.7c0.2,0,0.3,0.1,0.3,0.3V70z M109.9,54.1c0,1.1-0.6,1.7-1.6,1.7s-1.6-0.6-1.6-1.7c0-1,0.6-1.6,1.6-1.6S109.9,53,109.9,54.1z"/>
	<path d="M120.8,70.2c-0.7,0.2-1.5,0.3-2.3,0.3c-3.8,0-5.8-2.4-5.8-6.2c0-3.8,2-6.2,5.9-6.2c0.6,0,1.4,0.1,2.1,0.3l1.1,0.3
		c0.2,0,0.2,0.2,0.2,0.3l-0.6,1.8c0,0.1-0.2,0.2-0.3,0.2l-0.8-0.2c-0.6-0.2-1.2-0.3-1.6-0.3c-2.2,0-3.2,1.4-3.2,3.7
		c0,2.4,1.1,3.8,3.1,3.8c0.5,0,1.2-0.1,1.8-0.3l0.8-0.2c0.2,0,0.3,0,0.3,0.2l0.6,1.8c0,0.2,0,0.3-0.2,0.3L120.8,70.2z"/>
	<path d="M126.2,58.5c0.8-0.2,1.7-0.4,2.7-0.4c3.3,0,5.4,1.7,5.4,4.7V70c0,0.2-0.1,0.3-0.3,0.3h-1.2c-0.2,0-0.3-0.1-0.3-0.2
		l-0.2-0.8c-0.1-0.3-0.3-0.3-0.6,0c-0.8,0.8-1.9,1.3-3.4,1.3c-2.7,0-4.3-1.4-4.3-3.7s1.6-3.8,4.5-3.8h3.1v-0.1c0-1.5-1-2.3-2.8-2.3
		c-0.7,0-1.3,0.1-1.9,0.2l-0.9,0.3c-0.2,0-0.3,0-0.3-0.2l-0.5-1.8c0-0.2,0-0.3,0.2-0.3L126.2,58.5z M128.5,65.2
		c-1.2,0-1.8,0.6-1.8,1.4c0,1,0.7,1.5,1.8,1.5c1.9,0,3-1,3-2.8v-0.2H128.5z"/>
	<path d="M143.6,58.3c0.2,0,0.3,0.1,0.3,0.3v1.9c0,0.2-0.1,0.3-0.3,0.3h-2.8v6c0,0.8,0.4,1.3,1,1.3c0.2,0,0.4,0,0.6-0.1
		c0.2-0.1,0.3,0,0.4,0.1l0.8,1.7c0.1,0.1,0,0.3-0.1,0.4c-0.4,0.2-1.1,0.4-1.7,0.4c-2.3,0-3.7-1.4-3.7-3.8v-6h-1.2
		c-0.2,0-0.3-0.1-0.3-0.3v-1.9c0-0.2,0.1-0.3,0.3-0.3h1.2v-2.8c0-0.1,0.1-0.2,0.2-0.3l2.2-0.7c0.2,0,0.3,0,0.3,0.2v3.6H143.6z"/>
	<path d="M154.1,70.2c-0.9,0.2-1.7,0.3-2.5,0.3c-3.7,0-5.8-2.4-5.8-6.2c0-3.8,2.1-6.2,5.7-6.2c3,0,4.7,1.5,4.7,3.9
		c0,1.9-1.2,3-3.6,3.3l-3.9,0.6c0.3,1.3,1.3,2.1,2.8,2.1c0.7,0,1.4-0.1,1.9-0.2l1.1-0.3c0.2,0,0.3,0,0.3,0.2l0.5,1.8
		c0,0.2,0,0.3-0.2,0.3L154.1,70.2z M152.2,63.2c0.9-0.1,1.3-0.5,1.3-1.2c0-1-0.8-1.5-2.1-1.5c-1.6,0-2.7,1-2.9,3.3L152.2,63.2z"/>
	<path d="M38.1,93.8c0,3.8-2.2,6.2-5.7,6.2c-3.5,0-5.7-2.4-5.7-6.2c0-3.8,2.2-6.2,5.7-6.2C35.9,87.6,38.1,90,38.1,93.8z M29.4,93.8
		c0,2.4,1.1,3.8,3,3.8c1.8,0,3-1.4,3-3.8c0-2.3-1.1-3.7-3-3.7C30.6,90,29.4,91.4,29.4,93.8z"/>
	<path d="M41.5,86.2c0-2.7,1.6-4.4,4.3-4.4c0.5,0,1,0.1,1.6,0.3l0.4,0.1c0.1,0.1,0.2,0.2,0.2,0.3l-0.6,1.8c0,0.1-0.2,0.2-0.3,0.2
		l-0.4-0.1c-0.3-0.1-0.6-0.2-0.9-0.2c-1,0-1.5,0.7-1.5,1.9v1.6h2.8c0.2,0,0.3,0.1,0.3,0.3V90c0,0.2-0.1,0.3-0.3,0.3h-2.8v9.2
		c0,0.2-0.1,0.3-0.3,0.3h-2.2c-0.2,0-0.3-0.1-0.3-0.3v-9.2h-1.2c-0.2,0-0.3-0.1-0.3-0.3v-1.9c0-0.2,0.1-0.3,0.3-0.3h1.2V86.2z"/>
	<path d="M62.5,99.7c-0.7,0.2-1.5,0.3-2.3,0.3c-3.8,0-5.8-2.4-5.8-6.2c0-3.8,2-6.2,5.9-6.2c0.6,0,1.4,0.1,2.1,0.3l1.1,0.3
		c0.2,0,0.2,0.2,0.2,0.3L63,90.4c0,0.1-0.2,0.2-0.3,0.2l-0.8-0.2c-0.6-0.2-1.2-0.3-1.6-0.3c-2.2,0-3.2,1.4-3.2,3.7
		c0,2.4,1.1,3.8,3.1,3.8c0.5,0,1.2-0.1,1.8-0.3l0.8-0.2c0.2,0,0.3,0,0.3,0.2l0.6,1.8c0,0.2,0,0.3-0.2,0.3L62.5,99.7z"/>
	<path d="M77,93.8c0,3.8-2.2,6.2-5.7,6.2c-3.5,0-5.7-2.4-5.7-6.2c0-3.8,2.2-6.2,5.7-6.2C74.8,87.6,77,90,77,93.8z M68.4,93.8
		c0,2.4,1.1,3.8,3,3.8c1.8,0,3-1.4,3-3.8c0-2.3-1.1-3.7-3-3.7C69.5,90,68.4,91.4,68.4,93.8z"/>
	<path d="M81.7,89.1c0.1,0.3,0.3,0.3,0.6,0c1-1.1,2.2-1.5,3.4-1.5c2.8,0,4.5,1.7,4.5,4.6v7.3c0,0.2-0.1,0.3-0.3,0.3h-2.2
		c-0.2,0-0.3-0.1-0.3-0.3v-7c0-1.5-0.8-2.5-2.1-2.5c-1.8,0-2.9,1.3-2.9,3.7v5.7c0,0.2-0.1,0.3-0.3,0.3H80c-0.2,0-0.3-0.1-0.3-0.3
		V88.1c0-0.2,0.1-0.3,0.3-0.3h1.2c0.2,0,0.3,0.1,0.3,0.2L81.7,89.1z"/>
	<path d="M94.1,86.2c0-2.7,1.6-4.4,4.3-4.4c0.5,0,1,0.1,1.6,0.3l0.4,0.1c0.1,0.1,0.2,0.2,0.2,0.3l-0.6,1.8c0,0.1-0.2,0.2-0.3,0.2
		l-0.4-0.1c-0.3-0.1-0.6-0.2-0.9-0.2c-1,0-1.5,0.7-1.5,1.9v1.6h2.8c0.2,0,0.3,0.1,0.3,0.3V90c0,0.2-0.1,0.3-0.3,0.3h-2.8v9.2
		c0,0.2-0.1,0.3-0.3,0.3h-2.2c-0.2,0-0.3-0.1-0.3-0.3v-9.2h-1.2c-0.2,0-0.3-0.1-0.3-0.3v-1.9c0-0.2,0.1-0.3,0.3-0.3h1.2V86.2z"/>
	<path d="M112.9,93.8c0,3.8-2.2,6.2-5.7,6.2c-3.5,0-5.7-2.4-5.7-6.2c0-3.8,2.2-6.2,5.7-6.2C110.7,87.6,112.9,90,112.9,93.8z
		 M104.3,93.8c0,2.4,1.1,3.8,3,3.8c1.8,0,3-1.4,3-3.8c0-2.3-1.1-3.7-3-3.7C105.4,90,104.3,91.4,104.3,93.8z"/>
	<path d="M122.5,89.8c0,0.2-0.1,0.3-0.3,0.3c-2.7,0.1-3.9,2-3.9,6.5v2.9c0,0.2-0.1,0.3-0.3,0.3h-2.2c-0.2,0-0.3-0.1-0.3-0.3V88.1
		c0-0.2,0.1-0.3,0.3-0.3h1.2c0.2,0,0.3,0.1,0.3,0.2l0.4,1.4c0.1,0.3,0.3,0.3,0.5,0.1c1-1.3,2.1-1.9,3.9-1.9c0.2,0,0.3,0.1,0.3,0.3
		V89.8z"/>
	<path d="M127.3,89c0.1,0.3,0.3,0.3,0.6,0c0.9-1.1,2-1.5,3.2-1.5c1.4,0,2.5,0.7,3.2,1.6c0.3,0.3,0.5,0.3,0.8,0
		c1.1-1.3,2.2-1.6,3.4-1.6c2.8,0,4.3,1.7,4.3,4.6v7.3c0,0.2-0.1,0.3-0.3,0.3h-2.2c-0.2,0-0.3-0.1-0.3-0.3v-7c0-1.5-0.6-2.5-1.9-2.5
		c-1.9,0-2.7,1.5-2.7,3.7v5.7c0,0.2-0.1,0.3-0.3,0.3h-2.2c-0.2,0-0.3-0.1-0.3-0.3v-7c0-1.5-0.7-2.5-1.9-2.5c-1.9,0-2.7,1.5-2.7,3.7
		v5.7c0,0.2-0.1,0.3-0.3,0.3h-2.2c-0.2,0-0.3-0.1-0.3-0.3V88.1c0-0.2,0.1-0.3,0.3-0.3h1.2c0.2,0,0.3,0.1,0.3,0.2L127.3,89z"/>
	<path d="M149.5,99.5c0,0.2-0.1,0.3-0.3,0.3H147c-0.2,0-0.3-0.1-0.3-0.3v-9.2h-1.2c-0.2,0-0.3-0.1-0.3-0.3v-1.9
		c0-0.2,0.1-0.3,0.3-0.3h3.7c0.2,0,0.3,0.1,0.3,0.3V99.5z M149.4,83.6c0,1.1-0.6,1.7-1.6,1.7s-1.6-0.6-1.6-1.7c0-1,0.6-1.6,1.6-1.6
		S149.4,82.5,149.4,83.6z"/>
	<path d="M159.1,87.8c0.2,0,0.3,0.1,0.3,0.3V90c0,0.2-0.1,0.3-0.3,0.3h-2.8v6c0,0.8,0.4,1.3,1,1.3c0.2,0,0.4,0,0.6-0.1
		c0.2-0.1,0.3,0,0.4,0.1l0.8,1.7c0.1,0.1,0,0.3-0.1,0.4c-0.4,0.2-1.1,0.4-1.7,0.4c-2.3,0-3.7-1.4-3.7-3.8v-6h-1.2
		c-0.2,0-0.3-0.1-0.3-0.3v-1.9c0-0.2,0.1-0.3,0.3-0.3h1.2V85c0-0.1,0.1-0.2,0.2-0.3L156,84c0.2,0,0.3,0,0.3,0.2v3.6H159.1z"/>
	<path d="M166.5,104.8c0,0.1-0.1,0.2-0.3,0.2h-2.3c-0.2,0-0.3-0.1-0.2-0.3l1.3-3.1c0.7-1.7,0.4-3.2-0.5-5.5l-3.3-7.9
		c-0.1-0.2,0-0.3,0.2-0.3h2.3c0.1,0,0.2,0.1,0.3,0.2l1.9,4.6c0.4,1.1,0.9,2.7,1,3.6c0,0.2,0.3,0.2,0.4,0c0.2-0.9,0.6-2.5,1.1-3.6
		l1.9-4.6c0.1-0.1,0.2-0.2,0.3-0.2h2.3c0.2,0,0.3,0.1,0.2,0.3L166.5,104.8z"/>
</g>
</svg>
