<?xml version="1.0"?>
<svg xmlns="http://www.w3.org/2000/svg" xmlns:xlink="http://www.w3.org/1999/xlink" xmlns:svgjs="http://svgjs.com/svgjs" version="1.1" width="512" height="512" x="0" y="0" viewBox="0 0 512 512" style="enable-background:new 0 0 512 512" xml:space="preserve" class=""><g><g xmlns="http://www.w3.org/2000/svg"><path d="m497 0h-482c-8.291 0-15 6.709-15 15v105h512v-105c0-8.291-6.709-15-15-15zm-181 75c-8.284 0-15-6.716-15-15 0-8.286 6.716-15 15-15s15 6.714 15 15c0 8.284-6.716 15-15 15zm60 0c-8.284 0-15-6.716-15-15 0-8.286 6.716-15 15-15s15 6.714 15 15c0 8.284-6.716 15-15 15zm60 0c-8.284 0-15-6.716-15-15 0-8.286 6.716-15 15-15s15 6.714 15 15c0 8.284-6.716 15-15 15z" fill="#ffbe3c" data-original="#000000" style="" class=""/><path d="m361 436c16.538 0 30-13.462 30-30s-13.462-30-30-30h-158.344c5.167 8.86 8.344 19.023 8.344 30s-3.177 21.14-8.344 30z" fill="#ffbe3c" data-original="#000000" style="" class=""/><path d="m151 286h158.344c-5.167-8.86-8.344-19.023-8.344-30s3.177-21.14 8.344-30h-158.344c-16.538 0-30 13.462-30 30s13.462 30 30 30z" fill="#ffbe3c" data-original="#000000" style="" class=""/><circle cx="151" cy="406" r="30" fill="#ffbe3c" data-original="#000000" style="" class=""/><path d="m0 497c0 8.291 6.709 15 15 15h482c8.291 0 15-6.709 15-15v-347h-512zm151-301h210c33.091 0 60 26.909 60 60s-26.909 60-60 60h-210c-33.091 0-60-26.909-60-60s26.909-60 60-60zm0 150h210c33.091 0 60 26.909 60 60s-26.909 60-60 60h-210c-33.091 0-60-26.909-60-60s26.909-60 60-60z" fill="#ffbe3c" data-original="#000000" style="" class=""/><circle cx="361" cy="256" r="30" fill="#ffbe3c" data-original="#000000" style="" class=""/></g></g></svg>
