<?xml version="1.0" encoding="utf-8"?>
<!-- Generator: Adobe Illustrator 24.1.2, SVG Export Plug-In . SVG Version: 6.00 Build 0)  -->
<svg version="1.1" id="Слой_1" xmlns="http://www.w3.org/2000/svg" xmlns:xlink="http://www.w3.org/1999/xlink" x="0px" y="0px"
	 viewBox="0 0 180 180" style="enable-background:new 0 0 180 180;" xml:space="preserve">
<style type="text/css">
	.st0{fill:#FFFFFF;}
	.st1{fill:none;stroke:#FFFFFF;stroke-width:2;stroke-miterlimit:10;}
	.st2{fill:none;stroke:#FFFFFF;stroke-width:2;stroke-linecap:round;stroke-linejoin:round;stroke-miterlimit:10;}
	.st3{fill:#FFFFFF;stroke:#FFFFFF;stroke-width:2;stroke-linecap:round;stroke-linejoin:round;stroke-miterlimit:10;}
</style>
<g>
	<path class="st0" d="M124,82.4c1,0.4,1.4,1.2,1.4,2.4c-0.1,0.9,0,1.8,0,2.7c0,1-0.8,1.8-1.8,1.9c-0.2,0-0.3,0-0.5,0
		c-18.3,0-36.6,0-54.9,0c-0.3,0-0.6,0-0.9-0.1c-0.9-0.2-1.3-1-1.3-1.8s0-1.7,0-2.7c-0.1-1.1,0.3-1.9,1.4-2.4
		C86.3,82.5,105.1,82.4,124,82.4z"/>
	<path class="st0" d="M115.1,156.5H76.2c-1.7,0-3.1-1.3-3.1-3.1V128c0-1.7,1.3-3.1,3.1-3.1h38.9c1.7,0,3.1,1.3,3.1,3.1v25.5
		C118.2,155.2,116.9,156.5,115.1,156.5z"/>
	<path class="st1" d="M125.4,106.6c-0.1,1.9,0,57.5,0,59.2c-0.8,4.6-5.1,8.4-9.7,9c-0.6,0.1-1,0.1-1.6,0.1c-12.3,0-24.5,0-36.8,0
		c-5.5,0-10.2-3.9-11.2-9.3c-0.1-0.4-0.1-0.8-0.1-1c0-1.4,0-56.3,0-57.9"/>
	<path class="st1" d="M119.4,87.8c0.1,1.1,0.2,5.1,0.4,5.6c0.4,1.2,1,2.3,1.9,3.2c0.7,0.7,1.3,1.3,2,2c1.2,1.2,1.8,2.7,1.8,4.4
		c0,1.1,0,2.3,0,3.5c-19.8,0-39.6,0-59.4,0c0-0.1-0.1-0.1-0.1-0.2c0-1.3,0-2.7,0-4c0.1-1.4,0.7-2.6,1.6-3.6c0.6-0.6,1.1-1.1,1.7-1.7
		c1.4-1.3,2.3-3,2.6-5c0-0.1,0-4.1,0.1-4.3C87.8,87.9,103.6,87.8,119.4,87.8z"/>
</g>
<g>
	<path class="st2" d="M125.4,112.7c6.6-4.3,14.1-5.3,21-2.9"/>
	<path class="st2" d="M173.7,136.8c3.2,8.6,0.8,18-7,25.7c-6.1,6.1-14.3,9.5-23,9.5c-6.7,0-13-2-18.3-5.6"/>
	<path class="st3" d="M175.6,132.5c-0.5,0-1,0-1.4-0.1c0,0,0,0-0.1,0c-2.2-0.3-4.3-1.2-6.4-2.9c-0.7-0.5-1.5-0.4-2,0.3
		c-1,1.3-2,2.9-2.8,4.2c-0.6,1-1.3,2.2-1.9,2.9c-0.1-0.2-1.6-4.4-1.7-6.2c-0.2-2.3,0.6-4.7,0-6.5c-0.2-0.5-0.5-0.8-1-1
		c-2-0.6-5.1,2.1-11.9-1c5.1-2.1,6-3.9,7-4.7c0.7-0.5,0.8-1.3,0.3-2c-1.7-2.3-2.5-4.3-2.8-6.1c0-0.1,0-0.2,0-0.3
		c-0.2-1.3-0.1-2.6,0-3.3c4.7,3.2,8,6.4,9.7,11.1c0.2,0.5,0.6,0.8,1,0.9c0.5,0.1,1,0,1.3-0.3c1.4-1.3,2.8-2.4,3.9-3.3
		c1.9-1.6,3.5-3.1,5.3-4.7l0.9,3.1c-1.6,1.8-3.1,3.4-4.7,5.1c-0.9,0.9-1.7,1.8-2.6,2.7c-0.4,0.4-0.5,0.9-0.3,1.3
		c0.1,0.5,0.5,0.9,1,1c3.9,1,6.9,3.6,11,9.6C176.9,132.4,176.3,132.5,175.6,132.5z"/>
	<path class="st2" d="M142.8,164.8c0.1,0,0.1,0,0.2,0c6.2-0.4,12.4-2.7,17.9-6.6"/>
</g>
<g>
	<path class="st0" d="M20.1,27.9c0-1.7,1.4-3,3-3h16.6c1.7,0,3,1.4,3,3v7H20L20.1,27.9L20.1,27.9z"/>
	<path class="st2" d="M53.5,174.9H9.2c-4.1,0-7.6-3.3-7.6-7.6V102c0-8.1,5.7-15.3,13.6-17.1c1.1-0.3,1.8-1.1,2-2.2l4.3-41.8h19.7
		l4.3,41.8c0.1,1.1,0.9,2,2,2.2c7.9,1.9,13.6,9.1,13.6,17.1v65.3l0,0C61.1,171.5,57.7,174.9,53.5,174.9z"/>
	<path class="st2" d="M52.3,108.7V103c0-5.9-4.8-10.6-10.6-10.6H21.1c-5.9,0-10.6,4.8-10.6,10.6v5.7"/>
	<path class="st0" d="M11.8,164.9v-43.4c3.1,0.4,4.9,1.6,7,2.8c3,1.8,6.2,3.7,12.6,3.7c6.3,0,9.6-2,12.6-3.7c2.1-1.3,3.9-2.4,7-2.8
		v43.4H11.8L11.8,164.9z"/>
</g>
</svg>
