<?xml version="1.0" encoding="utf-8"?>
<!-- Generator: Adobe Illustrator 24.0.2, SVG Export Plug-In . SVG Version: 6.00 Build 0)  -->
<svg version="1.1" id="Слой_1" xmlns="http://www.w3.org/2000/svg" xmlns:xlink="http://www.w3.org/1999/xlink" x="0px" y="0px"
	 viewBox="0 0 180 180" style="enable-background:new 0 0 180 180;" xml:space="preserve">
<style type="text/css">
	.st0{fill:none;}
	.st1{fill:#FFFFFF;}
	.st2{fill:none;stroke:#FFFFFF;stroke-width:2;stroke-linecap:round;stroke-linejoin:round;stroke-miterlimit:10;}
	.st3{fill:none;stroke:#FFFFFF;stroke-width:2;stroke-miterlimit:10;}
	.st4{fill:#FFFFFF;stroke:#FFFFFF;stroke-width:2;stroke-linecap:round;stroke-linejoin:round;stroke-miterlimit:10;}
	.st5{fill:#FFBE3C;stroke:#FFFFFF;stroke-width:2;stroke-miterlimit:10;}
</style>
<rect class="st0" width="180" height="180"/>
<g>
	<path class="st1" d="M74.51,5.52c0-1.67-1.35-3.02-3.02-3.02H53.08c-1.67,0-3.02,1.35-3.02,3.02v9.58h24.46V5.52z"/>
	<path class="st2" d="M93.59,158.69c0.13,0.45,0.26,0.89,0.41,1.33c0.06,0.17,0.12,0.34,0.19,0.51c0.13,0.35,0.27,0.69,0.41,1.03
		c0.14,0.33,0.29,0.66,0.45,0.98c0.13,0.26,0.25,0.52,0.39,0.79c0.16,0.3,0.33,0.6,0.5,0.9l0.17,0.28l0.04,0.06l0,0
		c1.53,2.5,3.49,4.66,5.88,6.48c0.32,0.24,0.64,0.47,0.98,0.7l0.15,0.1c0.31,0.21,0.62,0.41,0.95,0.6l0.22,0.13
		c0.31,0.18,0.62,0.35,0.94,0.52l0.27,0.13c0.3,0.15,0.6,0.3,0.9,0.44l1.07,0.49l0.68-0.96c1.19-1.66,2.16-3.49,2.91-5.52l0.2-0.58
		c1.2-3.54,1.54-7.35,0.99-11.02c-0.03-0.21-0.07-0.42-0.11-0.63l-0.06-0.33c-0.02-0.11-0.04-0.21-0.06-0.32
		c-0.09-0.43-0.19-0.85-0.3-1.27c-0.12-0.46-0.26-0.92-0.41-1.38l-0.11-0.31c-0.12-0.35-0.25-0.7-0.4-1.08c-0.2-0.5-0.43-1-0.68-1.5
		c0.28-0.16,0.56-0.31,0.84-0.47c0.85,1.26,1.81,2.44,2.88,3.51c4.42,4.42,10.34,6.85,16.53,6.85c0.76,0,1.52-0.04,2.29-0.11
		l1.17-0.11l0.11-1.17c0.68-7-1.78-13.86-6.74-18.82c-1.07-1.07-2.24-2.02-3.51-2.88c0.16-0.28,0.33-0.55,0.49-0.83
		c0.39,0.19,0.79,0.37,1.21,0.55c1.02,0.43,2.04,0.78,3.03,1.05c2,0.54,4.04,0.8,6.07,0.8c4.82,0,9.57-1.5,13.6-4.37l0.95-0.68
		l-0.49-1.07c-2.92-6.4-8.47-11.11-15.25-12.93c-0.93-0.25-1.87-0.44-2.8-0.57c-0.55-0.08-1.12-0.13-1.68-0.17
		c0-0.32,0.01-0.64,0.01-0.96c1.51-0.1,3.01-0.35,4.48-0.74c6.78-1.82,12.33-6.53,15.25-12.93l0.49-1.07l-0.95-0.68
		c-5.72-4.08-12.89-5.39-19.67-3.57c-1.45,0.39-2.87,0.93-4.24,1.6c-0.16-0.28-0.32-0.56-0.48-0.84c0.39-0.27,0.79-0.55,1.21-0.87
		l0.14-0.11c0.75-0.59,1.48-1.23,2.15-1.9c4.96-4.96,7.42-11.82,6.74-18.82l-0.11-1.17l-1.17-0.11c-0.17-0.02-0.35-0.03-0.52-0.04
		L132,75.66c-6.76-0.45-13.36,2.02-18.13,6.79c-0.89,0.89-1.73,1.88-2.5,2.96l-0.08,0.11c-0.06,0.07-0.11,0.15-0.16,0.22
		c-0.05,0.07-0.09,0.14-0.13,0.21c-0.28-0.16-0.55-0.33-0.83-0.49c0.04-0.07,0.07-0.14,0.1-0.2c0.12-0.25,0.23-0.5,0.34-0.76
		l0.11-0.26c0.04-0.1,0.09-0.2,0.13-0.29c0.07-0.18,0.14-0.36,0.2-0.54l0.14-0.37c0.05-0.14,0.11-0.29,0.17-0.47
		c0.15-0.44,0.28-0.89,0.4-1.34c1.82-6.78,0.51-13.94-3.57-19.67l-0.68-0.95l-1.07,0.49c-1.15,0.52-2.28,1.15-3.32,1.85l-0.09,0.06
		h0l-0.24,0.17c-3.79,2.64-6.7,6.28-8.4,10.55c-0.32,0.81-0.6,1.63-0.82,2.43"/>
	<path class="st3" d="M30.93,50.87c0-0.61,0.18-1.22,0.55-1.71c2.01-2.74,4.57-5.3,7.05-7.78c5.07-5.08,10.3-10.3,11.68-17.57
		c0.26-1.37,1.47-2.34,2.86-2.34H71.3c1.39,0,2.6,0.98,2.86,2.35c1.38,7.28,6.59,12.5,11.66,17.58c2.47,2.48,5.02,5.03,7.02,7.77
		c0.36,0.49,0.54,1.08,0.54,1.69c0.01,3.13,0.04,10.72,0.08,19.56l0.1,23.98c0,0.44-0.17,0.85-0.48,1.16
		c-0.31,0.31-0.72,0.48-1.16,0.48H32.56c-0.9,0-1.63-0.74-1.63-1.63L30.93,50.87z"/>
	<path class="st4" d="M93.71,145.34c6.94-0.35,13.41-3.21,18.36-8.16c5.29-5.29,8.2-12.32,8.2-19.8c0-7.48-2.91-14.51-8.2-19.8
		c-4.97-4.97-11.48-7.84-18.45-8.17L93.71,145.34z"/>
	<path class="st2" d="M93.74,152.79c8.79-0.44,16.98-4.07,23.25-10.34c6.7-6.7,10.38-15.6,10.38-25.07
		c0-9.47-3.69-18.37-10.38-25.07c-6.29-6.29-14.53-9.93-23.36-10.34L93.74,152.79z"/>
	<path class="st5" d="M44.5,83.75h35.55c2.49,0,5.17-1.79,5.17-4.82V59.06c0-3.03-2.69-4.82-5.17-4.82H44.5
		c-2.48,0-5.17,1.79-5.17,4.82v19.88C39.33,81.96,42.02,83.75,44.5,83.75z"/>
	<path class="st3" d="M90.73,109.73H33.85c-1.61,0-2.92-1.31-2.92-2.92v-7.86c0-1.61,1.31-2.92,2.92-2.92h56.88
		c1.61,0,2.92,1.31,2.92,2.92v7.86C93.65,108.43,92.35,109.73,90.73,109.73z"/>
	<path class="st3" d="M90.73,123.43H33.85c-1.61,0-2.92-1.31-2.92-2.92v-7.86c0-1.61,1.31-2.92,2.92-2.92h56.88
		c1.61,0,2.92,1.31,2.92,2.92v7.86C93.65,122.13,92.35,123.43,90.73,123.43z"/>
	<path class="st3" d="M90.73,137.13H33.85c-1.61,0-2.92-1.31-2.92-2.92v-7.86c0-1.61,1.31-2.92,2.92-2.92h56.88
		c1.61,0,2.92,1.31,2.92,2.92v7.86C93.65,135.82,92.35,137.13,90.73,137.13z"/>
	<path class="st3" d="M90.73,150.83H33.85c-1.61,0-2.92-1.31-2.92-2.92v-7.86c0-1.61,1.31-2.92,2.92-2.92h56.88
		c1.61,0,2.92,1.31,2.92,2.92v7.86C93.65,149.52,92.35,150.83,90.73,150.83z"/>
	<path class="st3" d="M90.73,177.5H33.85c-1.61,0-2.92-1.31-2.92-2.92v-20.83c0-1.61,1.31-2.92,2.92-2.92h56.88
		c1.61,0,2.92,1.31,2.92,2.92v20.83C93.65,176.19,92.35,177.5,90.73,177.5z"/>
</g>
</svg>
