<?xml version="1.0" encoding="utf-8"?>
<!-- Generator: Adobe Illustrator 24.1.2, SVG Export Plug-In . SVG Version: 6.00 Build 0)  -->
<svg version="1.1" id="Слой_1" xmlns="http://www.w3.org/2000/svg" xmlns:xlink="http://www.w3.org/1999/xlink" x="0px" y="0px"
	 viewBox="0 0 180 180" style="enable-background:new 0 0 180 180;" xml:space="preserve">
<style type="text/css">
	.st0{fill:#FFFFFF;}
	.st1{fill:none;stroke:#FFFFFF;stroke-width:2;stroke-miterlimit:10;}
	.st2{fill:#ECECEC;stroke:#FFFFFF;stroke-width:2;stroke-miterlimit:10;}
</style>
<path class="st0" d="M102.2,5.5c0-1.7-1.3-3-3-3H80.8c-1.7,0-3,1.3-3,3v9.6h24.5L102.2,5.5L102.2,5.5z"/>
<path class="st1" d="M58.6,50.9c0-0.6,0.2-1.2,0.5-1.7c2-2.7,4.6-5.3,7.1-7.8c5.1-5.1,10.3-10.3,11.7-17.6c0.3-1.4,1.5-2.3,2.9-2.3
	H99c1.4,0,2.6,1,2.9,2.4c1.4,7.3,6.6,12.5,11.7,17.6c2.5,2.5,5,5,7,7.8c0.4,0.5,0.5,1.1,0.5,1.7c0,3.1,0,10.7,0.1,19.6l0.1,24
	c0,0.4-0.2,0.8-0.5,1.2c-0.3,0.3-0.7,0.5-1.2,0.5H60.3c-0.9,0-1.6-0.7-1.6-1.6L58.6,50.9z"/>
<path class="st2" d="M72.2,83.7h35.6c2.5,0,5.2-1.8,5.2-4.8V59.1c0-3-2.7-4.8-5.2-4.8H72.2c-2.5,0-5.2,1.8-5.2,4.8v19.9
	C67,82,69.7,83.7,72.2,83.7z"/>
<path class="st1" d="M118.4,109.7H61.6c-1.6,0-2.9-1.3-2.9-2.9v-7.9c0-1.6,1.3-2.9,2.9-2.9h56.9c1.6,0,2.9,1.3,2.9,2.9v7.9
	C121.4,108.4,120.1,109.7,118.4,109.7z"/>
<path class="st1" d="M118.4,123.4H61.6c-1.6,0-2.9-1.3-2.9-2.9v-7.9c0-1.6,1.3-2.9,2.9-2.9h56.9c1.6,0,2.9,1.3,2.9,2.9v7.9
	C121.4,122.1,120.1,123.4,118.4,123.4z"/>
<path class="st1" d="M118.4,137.1H61.6c-1.6,0-2.9-1.3-2.9-2.9v-7.9c0-1.6,1.3-2.9,2.9-2.9h56.9c1.6,0,2.9,1.3,2.9,2.9v7.9
	C121.4,135.8,120.1,137.1,118.4,137.1z"/>
<path class="st1" d="M118.4,150.8H61.6c-1.6,0-2.9-1.3-2.9-2.9v-7.9c0-1.6,1.3-2.9,2.9-2.9h56.9c1.6,0,2.9,1.3,2.9,2.9v7.9
	C121.4,149.5,120.1,150.8,118.4,150.8z"/>
<path class="st1" d="M118.4,177.5H61.6c-1.6,0-2.9-1.3-2.9-2.9v-20.8c0-1.6,1.3-2.9,2.9-2.9h56.9c1.6,0,2.9,1.3,2.9,2.9v20.8
	C121.4,176.2,120.1,177.5,118.4,177.5z"/>
</svg>
