<?xml version="1.0" encoding="utf-8"?>
<!-- Generator: Adobe Illustrator 24.0.2, SVG Export Plug-In . SVG Version: 6.00 Build 0)  -->
<svg version="1.1" id="Слой_1" xmlns="http://www.w3.org/2000/svg" xmlns:xlink="http://www.w3.org/1999/xlink" x="0px" y="0px"
	 viewBox="0 0 105 105" style="enable-background:new 0 0 105 105;" xml:space="preserve">
<style type="text/css">
	.st0{fill:#FFFFFF;}
</style>
<g>
	<path class="st0" d="M7.87,54.73h37.01V31.14H24.24c-2.53,0-4.77,1.71-5.4,4.17L15.95,46.5c-0.09,0.35-0.28,0.67-0.56,0.91
		L8.43,53.8C8.15,54.04,7.97,54.38,7.87,54.73z M23.38,48.79l2.2-8.47c0.22-0.82,0.95-1.4,1.81-1.4h12.29
		c1.02,0,1.86,0.82,1.86,1.86v8.58c0,0.5-0.2,0.99-0.56,1.32c-0.35,0.35-0.82,0.54-1.3,0.54c-0.02,0-0.02,0-0.02,0l-14.48-0.11
		c-0.56-0.02-1.1-0.28-1.45-0.74C23.36,49.93,23.25,49.33,23.38,48.79z"/>
	<path class="st0" d="M97.18,52.28L97.18,52.28c0-3.68,0-21.77,0-22.52c0-3.33-1.65-4.54-5.36-4.54c-1.01,0-34.73,0.07-40.63,0.07
		c-1.1,0-1.96,0.84-1.96,1.86v1.12c0,0,0,0,0,0.01v26.47h27.8c0.01,0,0.01,0,0.02,0h18.17c0,0,0,0,0,0h1.95V52.28z M51.23,27.28
		c0,0,40.08-0.07,40.59-0.07c3.36,0,3.36,1.91,3.36,2.87v22.58H78.27c-11.44,0-21.37-7.67-26.37-18.88
		c-0.43-1.78-0.67-3.63-0.67-5.53V27.28z"/>
	<circle class="st0" cx="27.53" cy="72.09" r="7.7"/>
	<path class="st0" d="M44.89,58.46h3.72h48.57v11.77c0,2.05-1.68,3.72-3.72,3.72h-4.73c0.11-0.61,0.17-1.23,0.17-1.86
		c0-6.29-5.12-11.41-11.41-11.41c-6.31,0-11.43,5.12-11.43,11.41c0,0.63,0.07,1.25,0.17,1.86H38.78c0.11-0.61,0.17-1.23,0.17-1.86
		c0-6.29-5.12-11.41-11.41-11.41c-6.31,0-11.43,5.12-11.43,11.41c0,0.63,0.07,1.25,0.17,1.86h-4.73c-2.05,0-3.72-1.68-3.72-3.72
		V58.46H44.89z"/>
	<circle class="st0" cx="77.48" cy="72.09" r="7.7"/>
</g>
</svg>
