<?xml version="1.0" encoding="utf-8"?>
<!-- Generator: Adobe Illustrator 24.0.2, SVG Export Plug-In . SVG Version: 6.00 Build 0)  -->
<svg version="1.1" id="Слой_1" xmlns="http://www.w3.org/2000/svg" xmlns:xlink="http://www.w3.org/1999/xlink" x="0px" y="0px"
	 viewBox="0 0 105 105" style="enable-background:new 0 0 105 105;" xml:space="preserve">
<style type="text/css">
	.st0{fill:#FFFFFF;}
</style>
<g>
	<path class="st0" d="M88.99,58.82v-3.95c2.51-1.46,4.21-4.17,4.21-7.28c0-4.65-3.77-8.42-8.42-8.42c-4.65,0-8.42,3.77-8.42,8.42
		c0,3.12,1.7,5.83,4.21,7.28v3.94h-7.02V43.38c0-3.1-2.51-5.61-5.61-5.61h-4.51l9.91-16.11c0.01-0.02,0.02-0.04,0.03-0.06
		c0.04-0.07,0.07-0.15,0.1-0.23c0.01-0.03,0.02-0.07,0.03-0.1c0.02-0.08,0.03-0.17,0.04-0.25c0-0.03,0.01-0.05,0.01-0.08
		c0,0,0-0.01,0-0.01v-4.21c0-2.32-1.89-4.21-4.21-4.21H35.66c-2.33,0-4.21,1.89-4.21,4.21v4.21c0,0,0,0.01,0,0.01
		c0,0.03,0.01,0.05,0.01,0.08c0.01,0.09,0.02,0.17,0.04,0.25c0.01,0.04,0.02,0.07,0.03,0.1c0.03,0.08,0.06,0.15,0.1,0.23
		c0.01,0.02,0.01,0.04,0.03,0.06l9.91,16.11h-4.51c-3.1,0-5.61,2.51-5.61,5.61v15.44h-7.02v-3.95c2.51-1.46,4.21-4.17,4.21-7.28
		c0-4.65-3.77-8.42-8.42-8.42c-4.65,0-8.42,3.77-8.42,8.42c0,3.12,1.7,5.83,4.21,7.29v4.2c-1.63,0.58-2.81,2.12-2.81,3.95v5.61
		c0,2.33,1.88,4.21,4.21,4.21h3.51v16.84c0,1.55,1.26,2.81,2.81,2.81h4.21c1.55,0,2.81-1.26,2.81-2.81V72.85h6.85l-1.79,3.58
		c-0.01,0.01-0.01,0.02-0.01,0.04c-0.04,0.09-0.08,0.19-0.1,0.29c0,0.01,0,0.01,0,0.02c-0.02,0.09-0.03,0.19-0.03,0.28
		c0,0.01,0,0.02,0,0.04c0,0.03,0.01,0.07,0.01,0.1c0.01,0.08,0.02,0.15,0.04,0.23c0.01,0.03,0.02,0.07,0.03,0.1
		c0.03,0.08,0.06,0.16,0.1,0.23c0.01,0.02,0.01,0.04,0.02,0.05l0.01,0.01c0.12,0.18,0.27,0.33,0.46,0.44l6.24,6.06l-0.82,3.29
		c-0.21,0.84-0.02,1.73,0.51,2.41c0.53,0.68,1.35,1.08,2.21,1.08h16.05c0.86,0,1.68-0.4,2.21-1.08c0.53-0.68,0.72-1.57,0.51-2.41
		l-0.82-3.29l6.23-6.05c0.29-0.17,0.51-0.45,0.62-0.77c0-0.01,0.01-0.02,0.01-0.03c0.03-0.1,0.05-0.21,0.06-0.32
		c0-0.01,0-0.01,0-0.02c0-0.02,0.01-0.04,0.01-0.06c0-0.22-0.06-0.43-0.15-0.61c0-0.01,0-0.01-0.01-0.02l-1.79-3.58h6.15v16.84
		c0,1.55,1.26,2.81,2.81,2.81h4.21c1.55,0,2.81-1.26,2.81-2.81V72.85h5.61c2.33,0,4.21-1.88,4.21-4.21v-5.61
		C93.2,60.7,91.32,58.82,88.99,58.82z M84.78,41.97c3.1,0,5.61,2.51,5.61,5.61s-2.51,5.61-5.61,5.61c-3.1,0-5.61-2.51-5.61-5.61
		S81.68,41.97,84.78,41.97z M83.38,55.88c0.46,0.08,0.92,0.13,1.4,0.13c0.48,0,0.95-0.05,1.4-0.13v2.93h-2.81V55.88z M60.14,37.76
		H55.8l4.75-15.44h9.08L60.14,37.76z M52.13,37.76l-4.75-15.44h10.23l-4.75,15.44H52.13z M35.36,22.32h9.08l4.75,15.44h-4.33
		L35.36,22.32z M34.25,43.38c0-1.55,1.26-2.81,2.81-2.81h7.02h16.84h7.02c1.55,0,2.81,1.26,2.81,2.81v15.44H34.25V43.38z
		 M20.22,41.97c3.1,0,5.61,2.51,5.61,5.61s-2.51,5.61-5.61,5.61c-3.1,0-5.61-2.51-5.61-5.61S17.12,41.97,20.22,41.97z M20.22,56.01
		c0.48,0,0.95-0.05,1.4-0.13v2.93h-2.81v-2.93C19.27,55.96,19.74,56.01,20.22,56.01z M44.47,88.29l0.7-2.81h14.65l0.7,2.81H44.47z
		 M65.66,75.66H39.33l1.4-2.81h23.52L65.66,75.66z M90.4,68.64c0,0.78-0.63,1.4-1.4,1.4h-7.02h-7.02H29.34h-7.02h-4.91
		c-0.78,0-1.4-0.63-1.4-1.4v-5.61c0-0.77,0.63-1.4,1.4-1.4h5.61h9.82h39.3h9.82h5.61h1.4c0.78,0,1.4,0.63,1.4,1.4V68.64z"/>
	<path class="st0" d="M65.32,43.4c-0.02,0-0.04-0.01-0.06-0.01c-0.02,0-0.04,0-0.06,0c-0.03,0-0.05-0.01-0.08-0.01H39.87
		c-1.55,0-2.81,1.26-2.81,2.81v7.02c0,0.69,0.26,1.31,0.67,1.8c0.03,0.04,0.06,0.08,0.09,0.11c0.51,0.55,1.24,0.9,2.05,0.9h25.26
		c1.55,0,2.81-1.26,2.81-2.81v-7.02C67.94,44.7,66.78,43.5,65.32,43.4z M51.02,53.2l5.01-7.02h6.38l-5.01,7.02H51.02z M41.2,53.2
		l5.01-7.02h6.37l-5.01,7.02H41.2z M42.76,46.18l-2.89,4.05v-4.05H42.76z M60.84,53.2l4.29-6.01v6.01H60.84z"/>
	<path class="st0" d="M20.63,49.98c0.26,0.26,0.62,0.41,0.99,0.41c0.57,0,1.08-0.34,1.3-0.87c0.22-0.52,0.1-1.13-0.3-1.53
		l-0.99-0.99v-2.23c0-0.78-0.63-1.4-1.4-1.4s-1.4,0.63-1.4,1.4v2.81c0,0.37,0.15,0.73,0.41,0.99L20.63,49.98z"/>
	<path class="st0" d="M84.78,50.4c0.78,0,1.4-0.63,1.4-1.4v-4.21c0-0.78-0.63-1.4-1.4-1.4s-1.4,0.63-1.4,1.4v4.21
		C83.38,49.77,84.01,50.4,84.78,50.4z"/>
	<path class="st0" d="M38.46,64.43c-0.78,0-1.4,0.63-1.4,1.4c0,0.78,0.63,1.4,1.4,1.4s1.4-0.63,1.4-1.4
		C39.87,65.06,39.24,64.43,38.46,64.43z"/>
	<path class="st0" d="M31.45,64.43c-0.78,0-1.4,0.63-1.4,1.4c0,0.78,0.63,1.4,1.4,1.4c0.77,0,1.4-0.63,1.4-1.4
		C32.85,65.06,32.22,64.43,31.45,64.43z"/>
	<path class="st0" d="M45.48,64.43c-0.78,0-1.4,0.63-1.4,1.4c0,0.78,0.63,1.4,1.4,1.4s1.4-0.63,1.4-1.4
		C46.89,65.06,46.26,64.43,45.48,64.43z"/>
	<path class="st0" d="M52.5,64.43c-0.78,0-1.4,0.63-1.4,1.4c0,0.78,0.63,1.4,1.4,1.4s1.4-0.63,1.4-1.4
		C53.9,65.06,53.28,64.43,52.5,64.43z"/>
	<path class="st0" d="M59.52,64.43c-0.78,0-1.4,0.63-1.4,1.4c0,0.78,0.63,1.4,1.4,1.4s1.4-0.63,1.4-1.4
		C60.92,65.06,60.29,64.43,59.52,64.43z"/>
	<path class="st0" d="M66.54,64.43c-0.78,0-1.4,0.63-1.4,1.4c0,0.78,0.63,1.4,1.4,1.4s1.4-0.63,1.4-1.4
		C67.94,65.06,67.31,64.43,66.54,64.43z"/>
	<path class="st0" d="M73.55,64.43c-0.77,0-1.4,0.63-1.4,1.4c0,0.78,0.63,1.4,1.4,1.4c0.78,0,1.4-0.63,1.4-1.4
		C74.96,65.06,74.33,64.43,73.55,64.43z"/>
</g>
</svg>
