<?xml version="1.0" encoding="utf-8"?>
<!-- Generator: Adobe Illustrator 24.0.2, SVG Export Plug-In . SVG Version: 6.00 Build 0)  -->
<svg version="1.1" id="Слой_1" xmlns="http://www.w3.org/2000/svg" xmlns:xlink="http://www.w3.org/1999/xlink" x="0px" y="0px"
	 viewBox="0 0 105 105" style="enable-background:new 0 0 105 105;" xml:space="preserve">
<style type="text/css">
	.st0{fill:#FFFFFF;}
</style>
<g>
	<path class="st0" d="M25.72,73.76c-0.25-0.14-0.5-0.3-0.78-0.47c-1.34-0.84-3-1.89-6.1-1.89c-3.1,0-4.77,1.05-6.11,1.89
		c-1.13,0.71-1.88,1.18-3.65,1.18v4.61c3.1,0,4.77-1.05,6.11-1.89c1.13-0.71,1.88-1.18,3.65-1.18c1.77,0,2.52,0.47,3.65,1.18
		c1.34,0.84,3,1.89,6.11,1.89s4.77-1.05,6.1-1.89c1.13-0.71,1.87-1.18,3.65-1.18s2.52,0.47,3.65,1.18c1.34,0.84,3,1.89,6.1,1.89
		c3.1,0,4.77-1.05,6.1-1.89c1.13-0.71,1.87-1.18,3.65-1.18c1.77,0,2.52,0.47,3.65,1.18c1.34,0.84,3,1.89,6.1,1.89
		c3.1,0,4.77-1.05,6.1-1.89c1.13-0.71,1.88-1.18,3.65-1.18c1.77,0,2.52,0.47,3.65,1.18c1.34,0.84,3,1.89,6.1,1.89
		s4.77-1.05,6.1-1.89c1.13-0.71,1.87-1.18,3.65-1.18V71.4c-1.73,0-3,0.33-4.02,0.76l3.59-17.31c0.14-0.68-0.03-1.38-0.47-1.92
		c-0.44-0.54-1.09-0.85-1.79-0.85h-2.66l-7.07-16.03c-0.37-0.83-1.19-1.37-2.11-1.37h-4.04V22c0-1.27-1.03-2.3-2.3-2.3
		s-2.3,1.03-2.3,2.3v12.67h-25.7c-0.94,0-1.79,0.58-2.14,1.45l-5.81,14.63l-4-3.53c-0.42-0.37-0.96-0.58-1.53-0.58H10.45
		c-1.06,0-2.01,0.73-2.25,1.82c-0.15,0.67,0.05,1.38,0.46,1.93L25.72,73.76z M49.54,39.28h31.29l5.65,12.8H44.46L49.54,39.28z"/>
	<path class="st0" d="M76.51,43.38h-1.05c-1.27,0-2.3,1.03-2.3,2.3v0c0,1.27,1.03,2.3,2.3,2.3h1.05c1.27,0,2.3-1.03,2.3-2.3v0
		C78.81,44.41,77.78,43.38,76.51,43.38z"/>
	<path class="st0" d="M65.7,43.38h-1.05c-1.27,0-2.3,1.03-2.3,2.3v0c0,1.27,1.03,2.3,2.3,2.3h1.05c1.27,0,2.3-1.03,2.3-2.3v0
		C68,44.41,66.97,43.38,65.7,43.38z"/>
	<path class="st0" d="M54.89,43.38h-1.05c-1.27,0-2.3,1.03-2.3,2.3v0c0,1.27,1.03,2.3,2.3,2.3h1.05c1.27,0,2.3-1.03,2.3-2.3v0
		C57.19,44.41,56.16,43.38,54.89,43.38z"/>
	<path class="st0" d="M96.85,81.2c-2.08,0-3.02,0.59-4.22,1.35c-1.31,0.82-2.79,1.76-5.63,1.76s-4.33-0.93-5.64-1.76
		c-1.19-0.75-2.14-1.34-4.21-1.34c-2.08,0-3.02,0.59-4.22,1.35c-1.31,0.82-2.79,1.76-5.63,1.76c-2.85,0-4.33-0.93-5.64-1.76
		c-1.19-0.75-2.14-1.34-4.21-1.34s-3.02,0.59-4.22,1.35c-1.31,0.82-2.79,1.76-5.63,1.76c-2.85,0-4.33-0.93-5.64-1.76
		c-1.19-0.75-2.14-1.34-4.22-1.34s-3.02,0.59-4.22,1.35c-1.31,0.82-2.79,1.76-5.64,1.76c-2.85,0-4.33-0.93-5.64-1.76
		c-1.2-0.75-2.14-1.35-4.22-1.35c-2.08,0-3.03,0.59-4.22,1.35C12.48,83.37,11,84.3,8.15,84.3c-0.55,0-1,0.45-1,1s0.45,1,1,1
		c3.43,0,5.32-1.19,6.7-2.06c1.1-0.69,1.65-1.04,3.16-1.04c1.5,0,2.06,0.35,3.16,1.04c1.38,0.87,3.27,2.06,6.7,2.06
		c3.43,0,5.32-1.19,6.7-2.07c1.1-0.69,1.65-1.04,3.15-1.04s2.05,0.35,3.16,1.04c1.38,0.87,3.28,2.06,6.7,2.06
		c3.43,0,5.32-1.19,6.7-2.07c1.1-0.69,1.65-1.04,3.15-1.04s2.05,0.35,3.15,1.04c1.38,0.87,3.27,2.06,6.7,2.06
		c3.43,0,5.32-1.19,6.7-2.06c1.1-0.69,1.65-1.04,3.15-1.04c1.5,0,2.05,0.35,3.15,1.04c1.38,0.87,3.27,2.06,6.7,2.06
		s5.32-1.19,6.7-2.07c1.1-0.69,1.65-1.04,3.15-1.04c0.55,0,1-0.45,1-1S97.4,81.2,96.85,81.2z"/>
</g>
</svg>
