<?xml version="1.0" encoding="utf-8"?>
<!-- Generator: Adobe Illustrator 24.0.2, SVG Export Plug-In . SVG Version: 6.00 Build 0)  -->
<svg version="1.1" id="Слой_1" xmlns="http://www.w3.org/2000/svg" xmlns:xlink="http://www.w3.org/1999/xlink" x="0px" y="0px"
	 viewBox="0 0 105 105" style="enable-background:new 0 0 105 105;" xml:space="preserve">
<style type="text/css">
	.st0{fill:#FFFFFF;}
</style>
<g>
	<path class="st0" d="M70.58,52.81c0-1.17-0.95-2.12-2.12-2.12H37.14c-1.17,0-2.12,0.95-2.12,2.12s0.95,2.12,2.12,2.12h9.93
		c1.17,0,2.12,0.95,2.12,2.12v27.09c0,1.17,0.95,2.12,2.12,2.12h3c1.17,0,2.12-0.95,2.12-2.12V57.04c0-1.17,0.95-2.12,2.12-2.12
		h9.93C69.63,54.92,70.58,53.98,70.58,52.81z"/>
	<path class="st0" d="M65.03,66.92v13.99c0,0.18-0.04,0.35-0.11,0.51L63,82.48c-0.85,0.47-1.26,1.41-1.02,2.35
		c0.24,0.94,1.05,1.57,2.03,1.57h4.76c1.52,0,2.75-1.23,2.75-2.75V68.42h-2v15.23c0,0.42-0.34,0.75-0.75,0.75H64
		c-0.04,0-0.07,0-0.09-0.07c-0.02-0.07,0.01-0.08,0.04-0.1l2.39-1.31l0.14-0.2c0.36-0.53,0.54-1.16,0.55-1.8V66.92
		c0-3.16,2.57-5.73,5.73-5.73v-2C68.5,59.19,65.03,62.66,65.03,66.92z"/>
	<path class="st0" d="M96.34,69.26c2.28-0.53,4.08-2.42,4.38-4.83l2.95-23.64c0.04-0.29-0.06-0.59-0.26-0.8s-0.48-0.33-0.78-0.32
		l-2.96,0.13c-1.44,0.06-2.78,0.49-3.93,1.18c-0.89-3.56-3.58-6.42-7.05-7.54c1.6-1.26,2.62-3.21,2.62-5.39v-3.92
		c0-3.79-3.09-6.88-6.88-6.88s-6.88,3.09-6.88,6.88v3.92c0,2.51,1.35,4.7,3.36,5.9c-3.61,1.7-6.12,5.37-6.12,9.61v16.63h2V43.56
		c0-4.42,3.34-8.07,7.63-8.57v16.77c0,0.55,0.45,1,1,1s1-0.45,1-1V34.99c3.9,0.45,7.01,3.52,7.54,7.4c-1.42,1.5-2.29,3.53-2.29,5.75
		v9.7c0,0.74-0.61,1.35-1.35,1.35h-6.48c-3.51,0.02-6.66,2.25-7.84,5.57l-1.18,3.33c-0.03,0.1-0.05,0.2-0.05,0.3
		c0,0.01-0.01,0.02-0.01,0.03v17.83c0,0.55,0.45,1,1,1s1-0.45,1-1V69.42h17.51l4.84,17.6c0.12,0.44,0.52,0.74,0.96,0.74
		c0.09,0,0.18-0.01,0.27-0.04c0.53-0.15,0.84-0.7,0.7-1.23L96.34,69.26z"/>
	<path class="st0" d="M30.14,68.08l-1.18-3.33c-1.17-3.31-4.32-5.55-7.84-5.57h-6.47c-0.74,0-1.35-0.6-1.35-1.35v-9.69
		c0-2.23-0.86-4.26-2.29-5.75c0.53-3.88,3.64-6.95,7.54-7.4v16.77c0,0.55,0.45,1,1,1s1-0.45,1-1V34.99c4.29,0.5,7.63,4.15,7.63,8.57
		v16.63h2V43.56c0-4.25-2.51-7.91-6.12-9.61c2.01-1.2,3.36-3.39,3.36-5.9v-3.92c0-3.79-3.09-6.88-6.88-6.88s-6.88,3.09-6.88,6.88
		v3.92c0,2.19,1.03,4.13,2.62,5.39c-3.47,1.12-6.15,3.98-7.05,7.54c-1.15-0.69-2.49-1.12-3.93-1.18l-2.96-0.13
		c-0.29-0.01-0.58,0.1-0.78,0.32c-0.2,0.22-0.29,0.51-0.26,0.8l2.95,23.64c0.3,2.41,2.09,4.3,4.38,4.83L3.91,86.49
		c-0.15,0.53,0.17,1.08,0.7,1.23c0.09,0.02,0.18,0.04,0.27,0.04c0.44,0,0.84-0.29,0.96-0.74l4.84-17.6H28.2v16.83c0,0.55,0.45,1,1,1
		s1-0.45,1-1V68.42c0-0.01-0.01-0.02-0.01-0.03C30.19,68.28,30.18,68.18,30.14,68.08z"/>
	<path class="st0" d="M42,82.48l-1.92-1.06c-0.07-0.16-0.11-0.33-0.11-0.51V66.92c0-4.26-3.47-7.73-7.73-7.73v2
		c3.16,0,5.73,2.57,5.73,5.73v14c0,0.64,0.19,1.26,0.54,1.8l0.14,0.2l2.39,1.31c0.04,0.02,0.06,0.03,0.04,0.1
		c-0.02,0.07-0.05,0.07-0.09,0.07h-4.76c-0.42,0-0.75-0.34-0.75-0.75V68.42h-2v15.23c0,1.52,1.24,2.75,2.75,2.75h4.76
		c0.97,0,1.79-0.63,2.03-1.57C43.26,83.89,42.85,82.95,42,82.48z"/>
</g>
</svg>
